<svg xmlns="http://www.w3.org/2000/svg" id="Outlined_1_" enable-background="new 0 0 128 128" viewBox="0 0 128 128"><path fill="#ff5959" d="M96.4,54.7c-1.5-3-3.3-5.5-5.5-7.5c-3.3-3-7.4-4.7-11.3-4.7c-2.7-0.1-5.4,0.6-8,1.2c-2.4,0.6-4.9,1.1-7.4,1.2
		c0,0-0.2,0-0.2,0c-2.5,0-5.1-0.6-7.6-1.2c-2.6-0.6-5.3-1.3-8-1.2c-3.9,0-8,1.7-11.3,4.7c-2.1,1.9-4,4.4-5.5,7.4
		c-1.5,3-2.5,6.4-3,10.4c-0.4,3.5-0.4,7.3,0.1,11.2c0.5,3.7,1.4,7.5,2.6,11.1c1.2,3.6,2.8,7.2,4.7,10.5c3.9,6.9,8.3,10.6,13,11.2
		c2.8,0.3,5.8-0.5,8.4-1.3c1.7-0.5,3.7-1,6.6-1c2.9,0,4.9,0.5,6.6,1c2.6,0.8,5.6,1.7,8.4,1.3c4.7-0.6,9.1-4.3,13-11.2
		c1.9-3.3,3.5-6.8,4.7-10.4c1.3-3.7,2.2-7.4,2.6-11.2c0.5-3.9,0.5-7.7,0.1-11.2C98.9,61.1,97.9,57.7,96.4,54.7z"/><path fill="#0a3960" d="M104.1,64.6c-0.6-4.6-1.7-8.5-3.4-12c-1.8-3.5-4-6.5-6.6-8.8c-4.2-3.7-9.4-5.9-14.5-5.9
		c-3.3,0.1-6.2,0.7-9.1,1.3c-1.2,0.3-2.3,0.5-3.5,0.7c1.9-10,6.5-18.3,10.4-21.7c1-0.9,1.1-2.4,0.2-3.4c-0.9-1-2.4-1.1-3.4-0.2
		c-2.6,2.2-5,5.6-7,9.6c-1.7-3-4.6-6.9-9.1-8.9C50.6,12,41.9,16,41.6,16.2c-1.1,0.5-1.6,1.8-1.2,2.9c0.1,0.4,3.3,9.4,10.9,12.7
		c2.2,0.9,4.4,1.3,6.6,1.3c2.4,0,4.6-0.4,6.3-0.9c-0.8,2.5-1.5,5.2-1.9,7.9c-1.5-0.2-3.1-0.5-4.7-0.9c-2.7-0.6-5.8-1.3-9-1.3
		c0,0-0.1,0-0.1,0c-5.1,0-10.3,2.2-14.5,5.9c-2.6,2.3-4.8,5.3-6.5,8.8c-1.8,3.5-2.9,7.4-3.5,12c-0.5,3.9-0.5,8.1,0.1,12.4
		c0.5,4.1,1.5,8.2,2.8,12.1c1.3,3.9,3.1,7.7,5.1,11.3c4.7,8.2,10.3,12.8,16.6,13.5c3.6,0.4,7.1-0.5,10.3-1.5
		c1.6-0.5,3.1-0.8,5.2-0.8s3.6,0.3,5.2,0.8c2.7,0.9,5.6,1.6,8.5,1.6c0.6,0,1.2,0,1.9-0.1c6.3-0.7,11.9-5.3,16.6-13.5
		c2-3.6,3.8-7.4,5.1-11.3c1.4-4,2.3-8,2.9-12.1c0,0,0,0,0,0C104.6,72.7,104.6,68.5,104.1,64.6z M99.3,76.4
		c-0.5,3.8-1.4,7.5-2.6,11.2c-1.2,3.6-2.8,7.1-4.7,10.4c-3.9,6.9-8.3,10.6-13,11.2c-2.8,0.3-5.8-0.5-8.4-1.3c-1.7-0.5-3.7-1-6.6-1
		c-2.9,0-4.9,0.5-6.6,1c-2.6,0.8-5.6,1.7-8.4,1.3c-4.7-0.6-9.1-4.3-13-11.2c-1.9-3.3-3.5-6.8-4.7-10.5c-1.3-3.6-2.2-7.4-2.6-11.1
		c-0.5-3.9-0.5-7.7-0.1-11.2c0.5-4,1.5-7.4,3-10.4c1.5-3,3.3-5.5,5.5-7.4c3.3-3,7.4-4.7,11.3-4.7c2.7-0.1,5.4,0.6,8,1.2
		c2.5,0.6,5.1,1.2,7.6,1.2c0,0,0.2,0,0.2,0c2.4,0,4.9-0.6,7.4-1.2c2.6-0.6,5.3-1.3,8-1.2c3.9,0,8,1.7,11.3,4.7
		c2.1,1.9,4,4.5,5.5,7.5c1.5,3,2.5,6.4,3,10.4C99.8,68.7,99.8,72.5,99.3,76.4z M53.1,27.4c-3.7-1.6-6.1-5.3-7.3-7.7
		c2.6-0.8,6.9-1.6,10.6-0.1c3.7,1.6,6.1,5.3,7.3,7.7C61.1,28.1,56.8,29,53.1,27.4z"/><path fill="#00bf4c" d="M56.4,19.6c-3.7-1.6-8-0.7-10.6,0.1c1.2,2.4,3.6,6.1,7.3,7.7c3.7,1.6,8,0.7,10.6-0.1
		C62.5,24.9,60.1,21.2,56.4,19.6z"/></svg>