<svg xmlns="http://www.w3.org/2000/svg" id="Outlined_1_" enable-background="new 0 0 128 128" viewBox="0 0 128 128"><path fill="#00bf4c" d="M36.7,44.9c-0.1,0-0.1,0-0.2,0c-0.4,0-0.7,0.1-1.1,0.1c-0.4,0-0.7,0-1.1-0.1c-0.1,0-0.2,0-0.2,0
		c-0.3,0-0.7-0.1-1-0.2c0,0,0,0,0,0v64.5h4.8V44.7C37.5,44.8,37.1,44.8,36.7,44.9z"/><path fill="#80dfa5" d="M32.3 23.9c.1.1.2.2.2.2.1.1.2.2.3.3.2.2.3.3.5.5.1.1.2.2.3.3.2.2.4.4.6.6.1.1.2.2.3.3.2.2.4.4.5.6.1.1.2.2.3.4 0 0 0 0 .1.1 0 0 0 0 .1-.1.1-.1.2-.2.3-.4.2-.2.4-.4.5-.6.1-.1.2-.2.3-.3.2-.2.4-.4.5-.6.1-.1.2-.2.3-.3.2-.2.3-.3.5-.5.1-.1.2-.2.3-.3.1-.1.2-.2.2-.2-1.1-1.5-2.2-2.9-3.1-3.9C34.5 21 33.4 22.4 32.3 23.9zM38.6 38.9c-.3-.5-.6-1-1-1.5-.2-.3-.4-.6-.6-.9-.4-.5-.7-1-1.1-1.5-.2-.2-.3-.4-.5-.7-.2.2-.3.4-.5.7-.4.5-.8 1-1.1 1.5-.2.3-.4.6-.6.9-.3.5-.7 1-1 1.5-.1.1-.1.2-.2.3 2.1 1.3 4.7 1.3 6.8 0C38.8 39.1 38.7 39 38.6 38.9zM32.3 30.6c-1-1-1.8-1.9-2.6-2.7-.9 1.7-1.4 3.1-1.4 4.1 0 1.1.2 2.2.6 3.2C30 33.7 31.1 32.1 32.3 30.6zM38.6 30.6c1.2 1.5 2.3 3.1 3.4 4.7.4-1 .6-2.1.6-3.2 0-1-.5-2.4-1.4-4.1C40.4 28.7 39.5 29.6 38.6 30.6z"/><path fill="#0a3960" d="M43.7,22.9C43.7,22.9,43.7,22.9,43.7,22.9C43.7,22.9,43.7,22.9,43.7,22.9C43.7,22.9,43.7,22.9,43.7,22.9
		C43.7,22.9,43.7,22.9,43.7,22.9c-2.9-4.3-6.4-8.1-6.6-8.2c-0.9-0.9-2.5-0.9-3.4,0c-0.1,0.2-3.7,3.9-6.5,8.2c0,0,0,0,0,0
		c0,0,0,0,0,0c0,0,0,0,0,0c0,0,0,0,0,0c-2.4,3.6-3.6,6.7-3.6,9.1c0,3.5,1.3,6.8,3.6,9.2c0,0,0,0,0,0c0,0,0,0,0,0c0,0,0,0,0,0
		c0,0,0,0,0.1,0c0.3,0.3,0.6,0.6,1,0.9v69.3c0,1.3,1.1,2.4,2.4,2.4h9.5c1.3,0,2.4-1.1,2.4-2.4V42.3c0.4-0.3,0.7-0.6,1-0.9
		c0,0,0,0,0.1,0c0,0,0,0,0,0c0,0,0,0,0,0c0,0,0,0,0,0c2.3-2.4,3.6-5.7,3.6-9.2C47.3,29.6,46.1,26.5,43.7,22.9z M33.1,109.2V44.7
		c0,0,0,0,0,0c0.3,0.1,0.7,0.1,1,0.2c0.1,0,0.2,0,0.2,0c0.4,0,0.7,0.1,1.1,0.1c0.4,0,0.7,0,1.1-0.1c0.1,0,0.1,0,0.2,0
		c0.4,0,0.7-0.1,1.1-0.2v64.5H33.1z M28.9,35.3c-0.4-1-0.6-2.1-0.6-3.2c0-1,0.5-2.4,1.4-4.1c0.8,0.7,1.7,1.6,2.6,2.7
		C31.1,32.1,30,33.7,28.9,35.3z M42.6,32.1c0,1.1-0.2,2.2-0.6,3.2c-1.1-1.6-2.2-3.2-3.4-4.7c1-1,1.8-1.9,2.6-2.7
		C42.1,29.6,42.6,31.1,42.6,32.1z M32.1,39.2c0.1-0.1,0.1-0.2,0.2-0.3c0.3-0.5,0.6-1,1-1.5c0.2-0.3,0.4-0.6,0.6-0.9
		c0.4-0.5,0.7-1,1.1-1.5c0.2-0.2,0.3-0.4,0.5-0.7c0.2,0.2,0.3,0.4,0.5,0.7c0.4,0.5,0.8,1,1.1,1.5c0.2,0.3,0.4,0.6,0.6,0.9
		c0.3,0.5,0.7,1,1,1.5c0.1,0.1,0.1,0.2,0.2,0.3C36.8,40.5,34.2,40.5,32.1,39.2z M38.3,24.1c-0.1,0.1-0.2,0.2-0.3,0.3
		c-0.2,0.2-0.3,0.3-0.5,0.5c-0.1,0.1-0.2,0.2-0.3,0.3c-0.2,0.2-0.4,0.4-0.5,0.6c-0.1,0.1-0.2,0.2-0.3,0.3c-0.2,0.2-0.4,0.4-0.5,0.6
		c-0.1,0.1-0.2,0.2-0.3,0.4c0,0,0,0-0.1,0.1c0,0,0,0-0.1-0.1c-0.1-0.1-0.2-0.2-0.3-0.4c-0.2-0.2-0.4-0.4-0.5-0.6
		c-0.1-0.1-0.2-0.2-0.3-0.3c-0.2-0.2-0.4-0.4-0.6-0.6c-0.1-0.1-0.2-0.2-0.3-0.3c-0.2-0.2-0.3-0.3-0.5-0.5c-0.1-0.1-0.2-0.2-0.3-0.3
		c-0.1-0.1-0.2-0.2-0.2-0.2c1.1-1.5,2.2-2.9,3.1-3.9c0.9,1,2,2.4,3.1,3.9C38.5,24,38.4,24,38.3,24.1z"/><path fill="#00bf4c" d="M65.3,44.9c-0.1,0-0.1,0-0.2,0c-0.4,0-0.7,0.1-1.1,0.1c-0.4,0-0.7,0-1.1-0.1c-0.1,0-0.2,0-0.2,0
		c-0.3,0-0.7-0.1-1-0.2c0,0,0,0,0,0v64.5h4.8V44.7C66,44.8,65.7,44.8,65.3,44.9z"/><path fill="#80dfa5" d="M60.9 23.9c.1.1.2.2.2.2.1.1.2.2.3.3.2.2.3.3.5.5.1.1.2.2.3.3.2.2.4.4.5.6.1.1.2.2.3.3.2.2.4.4.5.6.1.1.2.2.3.4 0 0 0 0 .1.1 0 0 0 0 .1-.1.1-.1.2-.2.3-.4.2-.2.4-.4.5-.6.1-.1.2-.2.3-.3.2-.2.4-.4.5-.6.1-.1.2-.2.3-.3.2-.2.3-.3.5-.5.1-.1.2-.2.3-.3.1-.1.2-.2.2-.2C66 22.4 64.9 21 64 19.9 63.1 21 62 22.4 60.9 23.9zM59.8 32.1c.3-.4.6-.8.9-1.1.1-.1.2-.2.3-.3-1-1-1.8-1.9-2.6-2.7-.9 1.7-1.4 3.1-1.4 4.1 0 1.1.2 2.2.6 3.2.2-.3.4-.6.6-.8.3-.4.6-.8.8-1.2C59.2 32.9 59.5 32.5 59.8 32.1zM67.2 38.9c-.3-.5-.6-1-1-1.5-.2-.3-.4-.6-.6-.9-.4-.5-.7-1-1.1-1.5-.2-.2-.3-.4-.5-.7-1.2 1.5-2.3 3.2-3.4 4.8 2.1 1.3 4.7 1.3 6.8 0C67.3 39.1 67.3 39 67.2 38.9zM67.1 30.6c1.2 1.5 2.3 3.1 3.4 4.7.4-1 .6-2.1.6-3.2 0-1-.5-2.4-1.4-4.1C69 28.7 68.1 29.6 67.1 30.6z"/><path fill="#0a3960" d="M72.3,22.9C72.3,22.9,72.3,22.9,72.3,22.9C72.3,22.9,72.3,22.9,72.3,22.9C72.3,22.9,72.3,22.9,72.3,22.9
		C72.3,22.9,72.3,22.9,72.3,22.9c-2.9-4.3-6.4-8.1-6.6-8.2c-0.9-0.9-2.5-0.9-3.4,0c-0.1,0.2-3.7,3.9-6.5,8.2c0,0,0,0,0,0
		c0,0,0,0,0,0c0,0,0,0,0,0c0,0,0,0,0,0c-2.4,3.6-3.6,6.7-3.6,9.1c0,3.5,1.3,6.8,3.6,9.2c0,0,0,0,0,0c0,0,0,0,0,0c0,0,0,0,0,0
		c0,0,0,0,0.1,0c0.3,0.3,0.6,0.6,1,0.9v69.3c0,1.3,1.1,2.4,2.4,2.4h9.5c1.3,0,2.4-1.1,2.4-2.4V42.3c0.4-0.3,0.7-0.6,1-0.9
		c0,0,0,0,0.1,0c0,0,0,0,0,0c0,0,0,0,0,0c0,0,0,0,0,0c2.3-2.4,3.6-5.7,3.6-9.2C75.9,29.6,74.7,26.5,72.3,22.9z M61.6,109.2V44.7
		c0,0,0,0,0,0c0.3,0.1,0.7,0.1,1,0.2c0.1,0,0.2,0,0.2,0c0.4,0,0.7,0.1,1.1,0.1c0.4,0,0.7,0,1.1-0.1c0.1,0,0.1,0,0.2,0
		c0.4,0,0.7-0.1,1.1-0.2v64.5H61.6z M57.5,35.3c-0.4-1-0.6-2.1-0.6-3.2c0-1,0.5-2.4,1.4-4.1c0.8,0.7,1.7,1.6,2.6,2.7
		c-0.1,0.1-0.2,0.2-0.3,0.3c-0.3,0.4-0.6,0.7-0.9,1.1c-0.3,0.4-0.6,0.8-0.9,1.2c-0.3,0.4-0.6,0.8-0.8,1.2
		C57.8,34.7,57.6,35,57.5,35.3z M71.1,32.1c0,1.1-0.2,2.2-0.6,3.2c-1.1-1.6-2.2-3.2-3.4-4.7c1-1,1.8-1.9,2.6-2.7
		C70.6,29.6,71.1,31.1,71.1,32.1z M60.6,39.2c1.1-1.7,2.2-3.3,3.4-4.8c0.2,0.2,0.3,0.4,0.5,0.7c0.4,0.5,0.8,1,1.1,1.5
		c0.2,0.3,0.4,0.6,0.6,0.9c0.3,0.5,0.7,1,1,1.5c0.1,0.1,0.1,0.2,0.2,0.3C65.4,40.5,62.7,40.5,60.6,39.2z M66.9,24.1
		c-0.1,0.1-0.2,0.2-0.3,0.3c-0.2,0.2-0.3,0.3-0.5,0.5c-0.1,0.1-0.2,0.2-0.3,0.3c-0.2,0.2-0.4,0.4-0.5,0.6c-0.1,0.1-0.2,0.2-0.3,0.3
		c-0.2,0.2-0.4,0.4-0.5,0.6c-0.1,0.1-0.2,0.2-0.3,0.4c0,0,0,0-0.1,0.1c0,0,0,0-0.1-0.1c-0.1-0.1-0.2-0.2-0.3-0.4
		c-0.2-0.2-0.4-0.4-0.5-0.6c-0.1-0.1-0.2-0.2-0.3-0.3c-0.2-0.2-0.4-0.4-0.5-0.6c-0.1-0.1-0.2-0.2-0.3-0.3c-0.2-0.2-0.3-0.3-0.5-0.5
		c-0.1-0.1-0.2-0.2-0.3-0.3C61,24,60.9,24,60.9,23.9c1.1-1.5,2.2-2.9,3.1-3.9c0.9,1,2,2.4,3.1,3.9C67.1,24,67,24,66.9,24.1z"/><path fill="#00bf4c" d="M93.9,44.9c-0.1,0-0.1,0-0.2,0c-0.4,0-0.7,0.1-1.1,0.1c-0.4,0-0.7,0-1.1-0.1c-0.1,0-0.2,0-0.2,0
		c-0.3,0-0.7-0.1-1-0.2c0,0,0,0,0,0v64.5h4.8V44.7C94.6,44.8,94.2,44.8,93.9,44.9z"/><path fill="#80dfa5" d="M88.3 32.1c.3-.4.6-.8.9-1.1.1-.1.2-.2.2-.3-.1-.1-.2-.3-.3-.4-.1-.1-.2-.2-.3-.3-.3-.3-.5-.5-.7-.8-.1-.1-.2-.2-.3-.3-.2-.2-.3-.3-.5-.5-.1-.1-.3-.2-.4-.4 0 0-.1-.1-.1-.1-.9 1.7-1.4 3.1-1.4 4.1 0 1.1.2 2.2.6 3.2.2-.3.4-.6.6-.8.3-.4.6-.8.8-1.2C87.7 32.9 88 32.5 88.3 32.1zM95.8 38.9c-.3-.5-.6-1-1-1.5-.2-.3-.4-.6-.6-.9-.4-.5-.8-1-1.1-1.5-.2-.2-.3-.4-.5-.7-1.2 1.5-2.3 3.2-3.4 4.8 2.1 1.3 4.7 1.3 6.8 0C95.9 39.1 95.8 39 95.8 38.9z"/><path fill="#0a3960" d="M100.8,41.3c2.3-2.4,3.6-5.7,3.6-9.2c0-2.5-1.2-5.5-3.6-9.1c0,0,0,0,0,0c0,0,0,0,0,0c0,0,0,0,0,0c0,0,0,0,0,0
		c-2.8-4.3-6.4-8-6.5-8.2c-0.9-0.9-2.5-0.9-3.4,0c-0.1,0.2-3.7,3.9-6.5,8.2c0,0,0,0,0,0c0,0,0,0,0,0c0,0,0,0,0,0c0,0,0,0,0,0
		c-2.4,3.6-3.6,6.7-3.6,9.1c0,3.5,1.3,6.8,3.6,9.2c0,0,0,0,0,0c0,0,0,0,0,0c0,0,0,0,0,0c0,0,0,0,0.1,0c0.3,0.3,0.6,0.6,1,0.9v69.3
		c0,1.3,1.1,2.4,2.4,2.4h9.5c1.3,0,2.4-1.1,2.4-2.4V42.3c0.4-0.3,0.7-0.6,1-0.9C100.7,41.4,100.7,41.4,100.8,41.3
		C100.8,41.4,100.8,41.3,100.8,41.3C100.8,41.3,100.8,41.3,100.8,41.3C100.8,41.3,100.8,41.3,100.8,41.3z M90.2,109.2V44.7
		c0,0,0,0,0,0c0.3,0.1,0.7,0.1,1,0.2c0.1,0,0.2,0,0.2,0c0.4,0,0.7,0.1,1.1,0.1c0.4,0,0.7,0,1.1-0.1c0.1,0,0.1,0,0.2,0
		c0.4,0,0.7-0.1,1.1-0.2v64.5H90.2z M86,35.3c-0.4-1-0.6-2.1-0.6-3.2c0-1,0.5-2.4,1.4-4.1c0,0,0.1,0.1,0.1,0.1
		c0.1,0.1,0.2,0.2,0.4,0.4c0.1,0.1,0.3,0.3,0.5,0.5c0.1,0.1,0.2,0.2,0.3,0.3c0.2,0.2,0.5,0.5,0.7,0.8c0.1,0.1,0.2,0.2,0.3,0.3
		c0.1,0.1,0.2,0.3,0.3,0.4c-0.1,0.1-0.2,0.2-0.2,0.3c-0.3,0.4-0.6,0.7-0.9,1.1c-0.3,0.4-0.6,0.8-0.9,1.2c-0.3,0.4-0.6,0.8-0.8,1.2
		C86.4,34.7,86.2,35,86,35.3z M99.7,32.1c0,1.1-0.2,2.2-0.6,3.2c-1.1-1.6-2.2-3.2-3.4-4.7c0.1-0.1,0.2-0.3,0.3-0.4
		c0.1-0.1,0.2-0.2,0.3-0.3c0.3-0.3,0.5-0.5,0.7-0.8c0.1-0.1,0.2-0.2,0.3-0.3c0.2-0.2,0.3-0.3,0.5-0.5c0.1-0.1,0.3-0.2,0.4-0.4
		c0,0,0.1-0.1,0.1-0.1C99.2,29.6,99.7,31.1,99.7,32.1z M89.2,39.2c1.1-1.7,2.2-3.3,3.4-4.8c0.2,0.2,0.3,0.4,0.5,0.7
		c0.4,0.5,0.8,1,1.1,1.5c0.2,0.3,0.4,0.6,0.6,0.9c0.3,0.5,0.7,1,1,1.5c0.1,0.1,0.1,0.2,0.2,0.3C93.9,40.5,91.3,40.5,89.2,39.2z
		 M92.6,27c-1.2-1.2-2.2-2.3-3.1-3.1c1.1-1.5,2.2-2.9,3.1-3.9c0.9,1,2,2.4,3.1,3.9C94.8,24.7,93.7,25.8,92.6,27z"/><path fill="#80dfa5" d="M97.8 28.5c-.1.1-.3.3-.5.5-.1.1-.2.2-.3.3-.2.2-.5.5-.7.8-.1.1-.2.2-.3.3-.1.1-.2.2-.3.4 1.2 1.5 2.3 3 3.4 4.7.4-1 .6-2.1.6-3.2 0-1-.5-2.4-1.4-4.1 0 0-.1.1-.1.1C98.1 28.2 97.9 28.3 97.8 28.5zM89.4 23.9c.9.9 2 1.9 3.1 3.1 1.2-1.2 2.2-2.3 3.1-3.1-1.1-1.5-2.2-2.9-3.1-3.9C91.7 21 90.5 22.4 89.4 23.9z"/></svg>