<svg xmlns="http://www.w3.org/2000/svg" id="Outlined_1_" enable-background="new 0 0 128 128" viewBox="0 0 128 128"><path fill="#ffd346" d="M84.6,83c0,0,0-0.1,0-0.1c-0.1-0.3-0.2-0.5-0.3-0.8c-0.1-0.2-0.1-0.4-0.2-0.6c-0.1-0.3-0.2-0.5-0.3-0.8
		c-0.1-0.2-0.2-0.4-0.2-0.6c-0.1-0.3-0.2-0.5-0.4-0.8c-0.1-0.2-0.2-0.4-0.3-0.5c-0.1-0.2-0.2-0.5-0.4-0.7c-0.1-0.2-0.2-0.4-0.3-0.5
		c-0.1-0.2-0.2-0.4-0.4-0.6c-0.1-0.2-0.2-0.4-0.3-0.5c-0.1-0.2-0.2-0.4-0.3-0.5c-0.1-0.2-0.2-0.4-0.3-0.6c-0.1-0.1-0.2-0.3-0.3-0.4
		c-0.1-0.2-0.3-0.4-0.4-0.6c-0.1-0.1-0.1-0.2-0.2-0.3c-0.1-0.2-0.3-0.4-0.4-0.6c-0.1,0.3-0.2,0.5-0.4,0.8c-0.2,0.4-0.4,0.9-0.6,1.3
		c-0.2,0.5-0.4,0.9-0.6,1.3c-0.2,0.4-0.4,0.8-0.6,1.3c-0.2,0.4-0.5,0.8-0.7,1.2c-0.2,0.4-0.5,0.8-0.7,1.2c-0.2,0.4-0.5,0.8-0.7,1.2
		c-0.2,0.4-0.5,0.8-0.7,1.1c-0.2,0.4-0.5,0.7-0.8,1.1c-0.3,0.4-0.5,0.7-0.8,1.1c-0.3,0.3-0.5,0.7-0.8,1c-0.3,0.3-0.5,0.7-0.8,1
		c-0.3,0.3-0.6,0.6-0.8,1c-0.3,0.3-0.5,0.6-0.8,0.9c-0.3,0.3-0.6,0.6-0.9,0.9c-0.3,0.3-0.5,0.5-0.8,0.8c-0.3,0.3-0.6,0.6-1,0.9
		c-0.3,0.2-0.5,0.5-0.8,0.7c-0.3,0.3-0.7,0.6-1,0.9c-0.2,0.2-0.5,0.4-0.7,0.6c-0.4,0.3-0.8,0.6-1.2,0.9c-0.2,0.2-0.4,0.3-0.6,0.5
		c-0.4,0.3-0.9,0.6-1.3,0.9c-0.2,0.1-0.3,0.2-0.5,0.4c-0.5,0.3-1,0.6-1.5,0.9c-0.1,0.1-0.2,0.1-0.4,0.2c-0.6,0.3-1.2,0.7-1.7,1
		c0,0-0.1,0-0.1,0.1c-11.1,6-22.9,7-29.8,7c-0.2,0-0.3,0-0.5,0c0,0-0.1,0-0.1,0c0,0,0.1,0,0.1,0.1c11.6,6.7,26.4,2.8,35.6-2.5
		C70.8,98.4,78.5,91.4,84.6,83z"/><path fill="#ffe9a2" d="M76.4,59.3c0.4,0.4,0.8,0.9,1.1,1.3c0.1,0.2,0.2,0.3,0.4,0.5c0.2,0.3,0.5,0.7,0.7,1c0.1,0.2,0.2,0.4,0.3,0.5
		c0.2,0.3,0.4,0.7,0.6,1c0.1,0.2,0.2,0.3,0.3,0.5c0.3,0.5,0.5,1,0.7,1.5c0,0,0,0,0,0c0,0,0.1,0,0.1,0c0.4-0.1,0.9-0.1,1.4-0.2
		c0.1,0,0.2,0,0.3,0c0.4,0,0.8,0,1.3-0.1c0.1,0,0.1,0,0.2,0c0.1,0,0.1,0,0.2,0c0.2,0,0.4,0,0.6,0c0.2,0,0.3,0,0.5,0
		c0.2,0,0.4,0,0.7,0.1c0.2,0,0.3,0,0.5,0c0.2,0,0.5,0.1,0.7,0.1c0.2,0,0.3,0,0.5,0.1c0.2,0,0.5,0.1,0.7,0.1c0.2,0,0.3,0.1,0.5,0.1
		c0.3,0.1,0.5,0.1,0.8,0.2c0.1,0,0.3,0.1,0.4,0.1c0.3,0.1,0.6,0.2,0.9,0.2c0.1,0,0.2,0.1,0.4,0.1c0.4,0.1,0.8,0.2,1.2,0.4
		c0.1,0,0.2,0.1,0.2,0.1c0.3,0.1,0.7,0.3,1,0.4c0,0,0,0,0,0c3.3-8,5.1-16.3,5.1-24.2c0,0,0,0,0,0c0-7.1-2-14.3-5.6-20.3
		c-0.8-1.4-2.1-3.3-3.8-3.9c-1.7-0.6-3.8,0.3-4.6,1.9c-0.9,1.8-0.8,4.6-0.8,7.3c0,1.5,0.1,3,0,4.4c-0.4,4.6-1.3,9.1-2.5,13.4
		c-1.4,4.7-3,9.2-4.9,13.4C76.4,59.2,76.4,59.3,76.4,59.3z"/><path fill="#ffd346" d="M75.6,70.5c-0.3,0-0.7-0.1-1.1-0.1c0,0-0.1,0-0.1,0c-0.4,0-0.8,0-1.2-0.1c0,0-0.1,0-0.1,0c-0.9,0-1.8,0-2.7,0
		c-0.1,0-0.1,0-0.2,0c-7,10.7-19.1,23.5-37.4,26.1c-2.7,0.4-6.6,1.1-8.5,3.2c-0.3,0.4-0.6,0.7-0.7,1.1
		C31.6,101.5,63.2,102.2,75.6,70.5z"/><path fill="#ffe9a2" d="M75.3 65.7c-.8-1.5-2-3-3.4-4.4-3.5-3.4-9.1-6.7-15-6.7-1 0-1.9.1-2.9.3-6.7 1.3-12.3 8.3-14.3 14.2-1 3.2-.9 6 .3 7.2 2.8 2.9 5.1 1.7 10.2-3.2 1-1 2-1.9 3-2.7 3.8-2.9 9-4.5 15.5-4.9C71.2 65.5 73.5 65.6 75.3 65.7zM103.4 83c-1.7-4.3-5.2-8-9.9-10.4-3.5-1.8-7.4-2.7-10.5-2.6 2 2.9 4.8 7.4 6.4 12.6 1.1 3.3 1.5 6.5 1.3 9.4-.1 1.3-.3 2.7-.6 4.1-1.2 7.3-1 10 3 10.9 1.6.3 3.7-.9 5.7-3.2C103.3 98.9 106.1 89.7 103.4 83z"/><path fill="#0a3960" d="M107.9,81.3c-1.9-4.7-5.5-8.8-10.2-11.7c3.6-8.6,5.6-17.7,5.6-26.3c0-8-2.2-16-6.3-22.8
		c-1.2-2-3.2-4.8-6.2-5.9c-3.9-1.4-8.5,0.4-10.5,4.2c-1.5,2.9-1.4,6.4-1.3,9.6c0,1.4,0.1,2.7,0,3.8c-0.4,4.3-1.2,8.5-2.3,12.5
		c-1.1,4-2.5,7.7-4.1,11.3c-5-3.9-12.1-6.9-19.5-5.5c-8.6,1.6-15.5,10-17.9,17.5c-1.6,5-1.1,9.4,1.4,12c2.1,2.2,4.3,3,6.3,3
		c4.2,0,8-3.6,10.6-6.1c0.9-0.9,1.8-1.7,2.6-2.3c2-1.5,4.6-2.6,7.8-3.3c-6.7,9-17,18.6-31.7,20.6c-3.8,0.5-8.5,1.5-11.4,4.7
		c-1.9,2.1-2.5,4.6-1.6,7.2c0,0,0,0,0,0c0,0,0,0,0,0c0,0,0,0,0,0c0,0,0,0,0,0c0.8,2.4,2.8,4.7,5.3,6.1c5.2,3,10.8,4.2,16.4,4.2
		c8.9,0,17.6-3,23.9-6.6C72.7,102.8,79.9,96.5,86,89c0.1,0.9,0.1,1.9,0.1,2.8c-0.1,1-0.3,2.3-0.5,3.6c-0.9,5.3-2.4,14.3,6.7,16.3
		c0.5,0.1,1.1,0.2,1.6,0.2c2.9,0,6-1.7,8.8-5C107.7,101,111.3,89.9,107.9,81.3z M93.3,107.1c-4-0.9-4.3-3.6-3-10.9
		c0.3-1.5,0.5-2.9,0.6-4.1c0.2-3-0.2-6.1-1.3-9.4c-1.6-5.1-4.4-9.7-6.4-12.6c3.1-0.1,7,0.8,10.5,2.6c4.7,2.4,8.2,6.1,9.9,10.4
		c2.7,6.7-0.2,15.9-4.4,20.9C97,106.3,94.8,107.5,93.3,107.1z M26.9,105.7c0,0-0.1,0-0.1-0.1C26.8,105.6,26.8,105.6,26.9,105.7
		c0.2-0.1,0.3-0.1,0.5-0.1c7,0.1,18.7-1,29.8-7c0,0,0.1,0,0.1-0.1c0.6-0.3,1.2-0.6,1.7-1c0.1-0.1,0.2-0.1,0.4-0.2
		c0.5-0.3,1-0.6,1.5-0.9c0.2-0.1,0.3-0.2,0.5-0.4c0.4-0.3,0.9-0.6,1.3-0.9c0.2-0.2,0.4-0.3,0.6-0.5c0.4-0.3,0.8-0.6,1.2-0.9
		c0.2-0.2,0.5-0.4,0.7-0.6c0.4-0.3,0.7-0.6,1-0.9c0.3-0.2,0.5-0.5,0.8-0.7c0.3-0.3,0.6-0.6,1-0.9c0.3-0.3,0.5-0.5,0.8-0.8
		c0.3-0.3,0.6-0.6,0.9-0.9c0.3-0.3,0.5-0.6,0.8-0.9c0.3-0.3,0.6-0.6,0.8-1c0.3-0.3,0.5-0.7,0.8-1c0.3-0.3,0.5-0.7,0.8-1
		c0.3-0.3,0.5-0.7,0.8-1.1c0.3-0.4,0.5-0.7,0.8-1.1c0.2-0.4,0.5-0.8,0.7-1.1c0.2-0.4,0.5-0.8,0.7-1.2c0.2-0.4,0.5-0.8,0.7-1.2
		c0.2-0.4,0.5-0.8,0.7-1.2c0.2-0.4,0.4-0.8,0.6-1.3c0.2-0.4,0.4-0.9,0.6-1.3c0.2-0.4,0.4-0.9,0.6-1.3c0.1-0.3,0.3-0.5,0.4-0.8
		c0.1,0.2,0.3,0.4,0.4,0.6c0.1,0.1,0.1,0.2,0.2,0.3c0.1,0.2,0.3,0.4,0.4,0.6c0.1,0.1,0.2,0.3,0.3,0.4c0.1,0.2,0.2,0.4,0.3,0.6
		c0.1,0.2,0.2,0.4,0.3,0.5c0.1,0.2,0.2,0.4,0.3,0.5c0.1,0.2,0.2,0.4,0.4,0.6c0.1,0.2,0.2,0.4,0.3,0.5c0.1,0.2,0.2,0.5,0.4,0.7
		c0.1,0.2,0.2,0.4,0.3,0.5c0.1,0.3,0.2,0.5,0.4,0.8c0.1,0.2,0.2,0.4,0.2,0.6c0.1,0.3,0.2,0.5,0.3,0.8c0.1,0.2,0.2,0.4,0.2,0.6
		c0.1,0.3,0.2,0.5,0.3,0.8c0,0,0,0.1,0,0.1c-6.1,8.4-13.7,15.4-22.1,20.2C53.3,108.5,38.5,112.4,26.9,105.7z M24.3,99.6
		c1.9-2.1,5.8-2.8,8.5-3.2c18.3-2.6,30.4-15.4,37.4-26.1c0.1,0,0.1,0,0.2,0c1,0,1.9,0,2.7,0c0,0,0.1,0,0.1,0c0.4,0,0.8,0,1.2,0.1
		c0,0,0.1,0,0.1,0c0.4,0,0.8,0.1,1.1,0.1c-12.5,31.6-44,30.9-52,30.2C23.7,100.4,23.9,100,24.3,99.6z M50.2,73.3
		c-5.1,4.8-7.5,6-10.2,3.2c-1.2-1.2-1.3-4-0.3-7.2c1.9-6,7.5-13,14.3-14.2c1-0.2,1.9-0.3,2.9-0.3c5.9,0,11.5,3.3,15,6.7
		c1.4,1.4,2.6,2.9,3.4,4.4c-1.8-0.1-4.1-0.2-6.6-0.1c-6.5,0.4-11.7,2-15.5,4.9C52.2,71.3,51.2,72.3,50.2,73.3z M83.7,32.5
		c0.1-1.4,0.1-2.9,0-4.4c-0.1-2.7-0.2-5.5,0.8-7.3c0.8-1.6,2.9-2.5,4.6-1.9c1.6,0.6,3,2.5,3.8,3.9c3.7,6,5.7,13.2,5.6,20.3
		c0,0,0,0,0,0c0,7.9-1.8,16.2-5.1,24.2c0,0,0,0,0,0c-0.3-0.1-0.7-0.3-1-0.4c-0.1,0-0.2-0.1-0.2-0.1c-0.4-0.1-0.8-0.3-1.2-0.4
		c-0.1,0-0.2-0.1-0.4-0.1c-0.3-0.1-0.6-0.2-0.9-0.2c-0.1,0-0.3-0.1-0.4-0.1c-0.3-0.1-0.5-0.1-0.8-0.2c-0.2,0-0.3-0.1-0.5-0.1
		c-0.2,0-0.5-0.1-0.7-0.1c-0.2,0-0.3,0-0.5-0.1c-0.2,0-0.5-0.1-0.7-0.1c-0.2,0-0.3,0-0.5,0c-0.2,0-0.4,0-0.7-0.1c-0.2,0-0.3,0-0.5,0
		c-0.2,0-0.4,0-0.6,0c-0.1,0-0.1,0-0.2,0c-0.1,0-0.1,0-0.2,0c-0.4,0-0.8,0-1.3,0.1c-0.1,0-0.2,0-0.3,0c-0.5,0-0.9,0.1-1.4,0.2
		c0,0-0.1,0-0.1,0c0,0,0,0,0,0c-0.2-0.5-0.4-1-0.7-1.5c-0.1-0.2-0.2-0.3-0.3-0.5c-0.2-0.3-0.4-0.7-0.6-1c-0.1-0.2-0.2-0.4-0.3-0.5
		c-0.2-0.3-0.5-0.7-0.7-1c-0.1-0.2-0.2-0.3-0.4-0.5c-0.3-0.4-0.7-0.9-1.1-1.3c0,0-0.1-0.1-0.1-0.1c1.9-4.2,3.6-8.6,4.9-13.4
		C82.5,41.6,83.3,37.1,83.7,32.5z"/></svg>