<svg xmlns="http://www.w3.org/2000/svg" id="Outlined_1_" enable-background="new 0 0 128 128" viewBox="0 0 128 128"><path fill="#a7553e" d="M84.7,91.6c0-0.1,0-0.1,0.1-0.2c0.1-0.4,0.2-0.7,0.3-1.1c0-0.2,0.1-0.4,0.1-0.6c0.1-0.6,0.2-1.1,0.2-1.7
		c0,0,0,0,0,0c0-0.4,0.1-0.8,0.1-1.2c0.1-4.5-1.7-9-4.6-12.4c-1.1-1.2-2.3-2.3-3.7-3.2c-0.3-0.2-0.6-0.4-0.9-0.5
		c-0.1-0.1-0.2-0.1-0.3-0.2c-0.2-0.1-0.5-0.3-0.7-0.4C75.1,70,75,70,74.9,69.9c-0.3-0.1-0.5-0.3-0.8-0.4c-0.1,0-0.2-0.1-0.3-0.1
		c-0.1,0-0.1-0.1-0.2-0.1c-0.1,0.2-0.2,0.3-0.3,0.5c0,0.1-0.1,0.1-0.1,0.2c-0.4,0.5-0.8,1-1.3,1.5c-0.1,0.1-0.1,0.1-0.2,0.2
		c-0.2,0.2-0.3,0.3-0.5,0.5c-0.1,0.1-0.2,0.1-0.2,0.2c-0.2,0.1-0.3,0.3-0.5,0.4c-0.1,0.1-0.2,0.1-0.3,0.2c-0.2,0.1-0.3,0.2-0.5,0.4
		c-0.1,0.1-0.2,0.1-0.3,0.2c-0.2,0.1-0.4,0.2-0.6,0.4c-0.1,0-0.2,0.1-0.2,0.1c-0.6,0.3-1.2,0.6-1.8,0.8c-0.1,0-0.2,0.1-0.3,0.1
		c-0.2,0.1-0.4,0.1-0.6,0.2c-0.1,0-0.2,0.1-0.4,0.1c-0.2,0.1-0.4,0.1-0.6,0.2c-0.1,0-0.2,0.1-0.4,0.1c-0.2,0-0.4,0.1-0.6,0.1
		c-0.1,0-0.2,0-0.4,0.1c-0.2,0-0.4,0.1-0.7,0.1c-0.1,0-0.2,0-0.3,0c-0.3,0-0.7,0-1,0c-7.9,0-14.3-6.4-14.3-14.3c0-0.3,0-0.7,0-1
		c0-0.1,0-0.2,0-0.3c0-0.2,0-0.4,0.1-0.7c0-0.1,0-0.2,0.1-0.4c0-0.2,0.1-0.4,0.1-0.6c0-0.1,0.1-0.3,0.1-0.4c0-0.2,0.1-0.4,0.2-0.6
		c0-0.1,0.1-0.2,0.1-0.4c0.1-0.2,0.1-0.4,0.2-0.6c0-0.1,0.1-0.2,0.1-0.3c0.1-0.2,0.2-0.5,0.3-0.7c0-0.1,0-0.1,0.1-0.2
		c0.1-0.3,0.3-0.6,0.4-0.8c0.1-0.1,0.1-0.2,0.2-0.3c0.1-0.2,0.2-0.3,0.3-0.5c0.1-0.1,0.1-0.2,0.2-0.3c0.1-0.2,0.2-0.3,0.3-0.5
		c0.1-0.1,0.2-0.2,0.3-0.3c0.1-0.1,0.2-0.3,0.3-0.4c0.1-0.1,0.2-0.2,0.3-0.3c0.1-0.1,0.3-0.3,0.4-0.4c0.1-0.1,0.2-0.2,0.3-0.3
		c0.2-0.2,0.3-0.3,0.5-0.5c0.1-0.1,0.1-0.1,0.2-0.2c0.2-0.2,0.5-0.4,0.7-0.6c0.1-0.1,0.2-0.1,0.3-0.2c0.1-0.1,0.3-0.2,0.4-0.3
		c-0.1-0.3-0.3-0.6-0.4-0.9c-2.7-5.6-7.2-9.3-12.7-10.5c-0.5-0.1-0.9-0.2-1.4-0.2c-0.7-0.1-1.5-0.1-2.2-0.1
		c-5.2,0-10.5,2.3-13.7,6.2c-2.7,3.2-4.3,7.5-4.6,12.3c-0.1,2,0,4,0.4,6c1.1,5.9,4,11.8,8.9,18.1c5.7,7.3,12.6,13.4,20.5,18.1
		c4.7,2.8,8.8,4.5,12.7,5.3c4.6,1,9.2,0.8,13-0.7C79.1,101.1,83,96.8,84.7,91.6z"/><path fill="#f8bdaa" d="M55.8,54.1c-2.3,1.8-3.7,4.5-3.7,7.5c0,5.3,4.3,9.5,9.5,9.5c3,0,5.8-1.4,7.6-3.7c-0.5-0.2-1.1-0.5-1.6-0.7
		c-0.2-0.1-0.3-0.1-0.5-0.2c-0.4-0.2-0.8-0.4-1.2-0.6c-0.2-0.1-0.3-0.2-0.5-0.3c-0.5-0.3-1.1-0.6-1.6-1l-0.7-0.4
		c-1.1-0.8-1.9-1.5-2.7-2.3c-0.4-0.5-0.8-0.9-1.2-1.4c-0.2-0.3-0.5-0.6-0.7-1c0,0,0-0.1-0.1-0.1c0,0,0,0,0,0c0,0,0,0,0,0
		c-0.1-0.1-0.1-0.2-0.1-0.2c-0.2-0.4-0.5-0.8-0.7-1.2c-0.1-0.2-0.2-0.4-0.3-0.7c-0.1-0.3-0.3-0.6-0.4-0.8c-0.1-0.2-0.2-0.5-0.3-0.7
		c-0.1-0.3-0.3-0.6-0.4-0.9C56,54.6,55.9,54.4,55.8,54.1C55.8,54.1,55.8,54.1,55.8,54.1z"/><path fill="#a7553e" d="M109.2,73.8c0.6-6.5-2.8-13.3-8.3-16.9c-1-0.7-2.1-1.3-3.4-1.8c-0.1,0.2-0.2,0.3-0.3,0.5
		c0,0.1-0.1,0.1-0.1,0.2c-0.4,0.5-0.8,1-1.3,1.5c-0.1,0.1-0.1,0.1-0.2,0.2c-0.2,0.2-0.3,0.3-0.5,0.5c-0.1,0.1-0.2,0.1-0.2,0.2
		c-0.2,0.1-0.3,0.3-0.5,0.4c-0.1,0.1-0.2,0.1-0.3,0.2c-0.2,0.1-0.3,0.2-0.5,0.4c-0.1,0.1-0.2,0.1-0.3,0.2c-0.2,0.1-0.4,0.2-0.6,0.4
		c-0.1,0-0.2,0.1-0.2,0.1c-0.6,0.3-1.1,0.6-1.8,0.8c-0.1,0-0.2,0.1-0.3,0.1c-0.2,0.1-0.4,0.2-0.6,0.2c-0.1,0-0.2,0.1-0.3,0.1
		c-0.2,0.1-0.4,0.1-0.6,0.2c-0.1,0-0.2,0.1-0.4,0.1c-0.2,0-0.4,0.1-0.6,0.1c-0.1,0-0.2,0-0.4,0.1c-0.2,0-0.4,0.1-0.7,0.1
		c-0.1,0-0.2,0-0.3,0c-0.3,0-0.7,0-1,0c-7.9,0-14.3-6.4-14.3-14.3c0-0.3,0-0.7,0-1c0-0.1,0-0.2,0-0.3c0-0.2,0-0.4,0.1-0.7
		c0-0.1,0-0.2,0.1-0.4c0-0.2,0.1-0.4,0.1-0.6c0-0.1,0.1-0.3,0.1-0.4c0-0.2,0.1-0.4,0.2-0.6c0-0.1,0.1-0.2,0.1-0.4
		c0.1-0.2,0.1-0.4,0.2-0.6c0-0.1,0.1-0.2,0.1-0.3c0.1-0.2,0.2-0.5,0.3-0.7c0-0.1,0-0.1,0.1-0.2c0.1-0.3,0.3-0.6,0.4-0.8
		c0.1-0.1,0.1-0.2,0.2-0.3c0.1-0.2,0.2-0.4,0.3-0.5c0.1-0.1,0.1-0.2,0.2-0.3c0.1-0.2,0.2-0.3,0.3-0.5c0.1-0.1,0.2-0.2,0.3-0.3
		c0.1-0.1,0.2-0.3,0.3-0.4c0.1-0.1,0.2-0.2,0.3-0.3c0.1-0.1,0.3-0.3,0.4-0.4c0.1-0.1,0.2-0.2,0.3-0.3c0.2-0.2,0.3-0.3,0.5-0.5
		c0.1-0.1,0.1-0.1,0.2-0.2c0.2-0.2,0.5-0.4,0.7-0.6c0.1-0.1,0.2-0.1,0.3-0.2c0.1-0.1,0.3-0.2,0.4-0.3c-0.1-0.3-0.3-0.6-0.4-0.9
		c-2.9-6-8.1-9.9-14.1-10.7c-6-0.8-12.2,1.6-16,6c-1.2,1.4-2.1,2.9-2.8,4.6c5.7,2,10.5,6.4,13.4,12.3c0.3,0.7,0.6,1.4,0.9,2.1
		c0.2,0.3,0.3,0.7,0.5,1.1l0.5,1.1c0.9,2.1,1.7,4.1,2.8,5.8c0.2,0.3,0.4,0.6,0.6,0.9c0.3,0.4,0.6,0.7,0.8,1c0.5,0.6,1.2,1.1,2,1.7
		l0.5,0.4c2,1.3,4.2,2.2,6.6,3.2l0.6,0.2c0.4,0.2,0.6,0.3,0.8,0.4l0.3,0.1c2,0.8,3.6,1.7,5.1,2.6c7,4.5,11.2,13,10.5,21.3
		c0,0.6-0.1,1.1-0.2,1.7c3,0.1,5.7-0.4,8.1-1.3C104.1,86.4,108.6,80.3,109.2,73.8z"/><path fill="#0a3960" d="M103.5,52.9c-1.5-1-3.1-1.8-5.1-2.6l-0.3-0.1c-0.2-0.1-0.4-0.2-0.6-0.3c0,0,0,0-0.1,0c0,0,0,0-0.1,0L94,48.4
		c-0.2-0.1-0.5-0.2-0.9-0.4c-0.3-0.1-0.7-0.3-1-0.5c-0.4-0.2-0.7-0.4-1.1-0.7c-0.2-0.1-0.5-0.3-0.8-0.5c-0.2-0.1-0.4-0.3-0.6-0.4
		c-0.7-0.5-1.4-1.1-2-1.7c-0.3-0.3-0.5-0.6-0.8-0.9c-0.3-0.4-0.6-0.8-0.9-1.3c-0.2-0.3-0.3-0.5-0.5-0.9c-0.2-0.4-0.4-0.8-0.6-1.3
		c-0.6-1.3-1.2-2.7-1.7-4c0-0.1-0.1-0.3-0.2-0.4c-0.2-0.4-0.3-0.7-0.5-1.1c-0.3-0.7-0.6-1.4-0.9-2.1C77.9,24.8,71.4,20,63.8,19
		c-7.7-1-15.4,2-20.2,7.7c-1.6,1.9-2.9,4.2-3.9,6.6c-7.6-0.9-15.2,2.1-19.9,7.7c-3.4,4-5.4,9.3-5.7,15.2c-0.1,2.4,0.1,4.8,0.5,7.1
		c1.2,6.7,4.4,13.3,9.8,20.2c6,7.8,13.4,14.2,21.8,19.3c5.2,3.1,9.7,4.9,14.1,5.9c2.2,0.5,4.4,0.7,6.5,0.7c3.3,0,6.4-0.6,9.2-1.7
		c5.6-2.3,10.2-6.9,12.6-12.7c0.7,0,1.4,0.1,2.1,0.1c3.3,0,6.4-0.6,9.2-1.7c7.7-3.1,13.4-10.7,14.2-19.1c0,0,0,0,0,0
		C114.6,65.9,110.4,57.4,103.5,52.9z M61.2,103.9c-3.9-0.8-7.9-2.5-12.7-5.3c-7.9-4.7-14.8-10.8-20.5-18.1
		c-4.9-6.3-7.8-12.2-8.9-18.1c-0.4-2-0.5-4-0.4-6c0.3-4.8,1.9-9.1,4.6-12.3c3.3-3.9,8.5-6.2,13.7-6.2c0.7,0,1.5,0,2.2,0.1
		c0.5,0.1,1,0.1,1.4,0.2c5.5,1.2,10,4.9,12.7,10.5c0.1,0.3,0.3,0.6,0.4,0.9c-0.1,0.1-0.3,0.2-0.4,0.3c-0.1,0.1-0.2,0.1-0.3,0.2
		c-0.3,0.2-0.5,0.4-0.7,0.6c-0.1,0.1-0.1,0.1-0.2,0.2c-0.2,0.2-0.3,0.3-0.5,0.5c-0.1,0.1-0.2,0.2-0.3,0.3c-0.1,0.1-0.3,0.3-0.4,0.4
		c-0.1,0.1-0.2,0.2-0.3,0.3c-0.1,0.1-0.2,0.3-0.3,0.4c-0.1,0.1-0.2,0.2-0.3,0.3c-0.1,0.1-0.2,0.3-0.3,0.5c-0.1,0.1-0.2,0.2-0.2,0.3
		c-0.1,0.2-0.2,0.3-0.3,0.5c-0.1,0.1-0.1,0.2-0.2,0.3c-0.2,0.3-0.3,0.6-0.4,0.8c0,0.1,0,0.1-0.1,0.2c-0.1,0.2-0.2,0.5-0.3,0.7
		c0,0.1-0.1,0.2-0.1,0.3c-0.1,0.2-0.1,0.4-0.2,0.6c0,0.1-0.1,0.2-0.1,0.4c-0.1,0.2-0.1,0.4-0.2,0.6c0,0.1-0.1,0.3-0.1,0.4
		c0,0.2-0.1,0.4-0.1,0.6c0,0.1,0,0.2-0.1,0.4c0,0.2-0.1,0.4-0.1,0.7c0,0.1,0,0.2,0,0.3c0,0.3,0,0.7,0,1c0,7.9,6.4,14.3,14.3,14.3
		c0.3,0,0.7,0,1,0c0.1,0,0.2,0,0.3,0c0.2,0,0.4,0,0.7-0.1c0.1,0,0.2,0,0.4-0.1c0.2,0,0.4-0.1,0.6-0.1c0.1,0,0.2-0.1,0.4-0.1
		c0.2,0,0.4-0.1,0.6-0.2c0.1,0,0.2-0.1,0.4-0.1c0.2-0.1,0.4-0.1,0.6-0.2c0.1,0,0.2-0.1,0.3-0.1c0.6-0.2,1.2-0.5,1.8-0.8
		c0.1,0,0.2-0.1,0.2-0.1c0.2-0.1,0.4-0.2,0.6-0.4c0.1-0.1,0.2-0.1,0.3-0.2c0.2-0.1,0.3-0.2,0.5-0.4c0.1-0.1,0.2-0.1,0.3-0.2
		c0.2-0.1,0.3-0.3,0.5-0.4c0.1-0.1,0.2-0.1,0.2-0.2c0.2-0.2,0.3-0.3,0.5-0.5c0.1-0.1,0.1-0.1,0.2-0.2c0.5-0.5,0.9-1,1.3-1.5
		c0-0.1,0.1-0.1,0.1-0.2c0.1-0.2,0.2-0.3,0.3-0.5c0.1,0,0.1,0.1,0.2,0.1c0.1,0,0.2,0.1,0.3,0.1c0.3,0.1,0.5,0.3,0.8,0.4
		c0.1,0.1,0.2,0.1,0.3,0.2c0.2,0.1,0.5,0.3,0.7,0.4c0.1,0.1,0.2,0.1,0.3,0.2c0.3,0.2,0.6,0.4,0.9,0.5c1.4,0.9,2.6,2,3.7,3.2
		c3,3.4,4.7,7.9,4.6,12.4c0,0.4,0,0.8-0.1,1.2c0,0,0,0,0,0c0,0.5-0.1,1.1-0.2,1.7c0,0.2-0.1,0.4-0.1,0.6c-0.1,0.4-0.2,0.7-0.3,1.1
		c0,0.1,0,0.1-0.1,0.2c-1.6,5.2-5.6,9.6-10.5,11.5C70.4,104.6,65.8,104.9,61.2,103.9z M56.1,54.8c0.1,0.3,0.3,0.6,0.4,0.9
		c0.1,0.2,0.2,0.5,0.3,0.7c0.1,0.3,0.3,0.6,0.4,0.8c0.1,0.2,0.2,0.4,0.3,0.7c0.2,0.4,0.4,0.8,0.7,1.2c0,0.1,0.1,0.2,0.1,0.2
		c0,0,0,0,0,0c0,0,0,0,0,0c0,0,0,0.1,0.1,0.1c0.3,0.4,0.5,0.8,0.7,1c0.3,0.5,0.8,1,1.2,1.4c0.8,0.8,1.6,1.5,2.7,2.3l0.7,0.4
		c0.5,0.3,1.1,0.7,1.6,1c0.2,0.1,0.3,0.2,0.5,0.3c0.4,0.2,0.8,0.4,1.2,0.6c0.2,0.1,0.3,0.2,0.5,0.2c0.5,0.3,1.1,0.5,1.6,0.7
		c-1.8,2.3-4.6,3.7-7.6,3.7c-5.3,0-9.5-4.3-9.5-9.5c0-3,1.4-5.7,3.7-7.5c0,0,0,0,0,0.1C55.9,54.4,56,54.6,56.1,54.8z M90.1,88.5
		c0.7-8.3-3.5-16.8-10.5-21.3c-1.5-1-3.1-1.8-5.1-2.6l-0.3-0.1c-0.2-0.1-0.4-0.2-0.8-0.4L73,63.8c-2.4-1-4.6-1.9-6.6-3.2l-0.5-0.4
		c-0.8-0.6-1.4-1.1-2-1.7c-0.3-0.3-0.5-0.6-0.8-1c-0.2-0.3-0.4-0.6-0.6-0.9c-1.1-1.7-2-3.7-2.8-5.8l-0.5-1.1
		c-0.2-0.4-0.3-0.7-0.5-1.1c-0.3-0.7-0.6-1.4-0.9-2.1c-2.9-5.9-7.7-10.3-13.4-12.3c0.7-1.7,1.7-3.2,2.8-4.6c3.7-4.4,10-6.8,16-6
		c6,0.8,11.2,4.7,14.1,10.7c0.1,0.3,0.3,0.6,0.4,0.9c-0.1,0.1-0.3,0.2-0.4,0.3c-0.1,0.1-0.2,0.1-0.3,0.2c-0.3,0.2-0.5,0.4-0.7,0.6
		c-0.1,0.1-0.1,0.1-0.2,0.2c-0.2,0.2-0.3,0.3-0.5,0.5c-0.1,0.1-0.2,0.2-0.3,0.3c-0.1,0.1-0.3,0.3-0.4,0.4c-0.1,0.1-0.2,0.2-0.3,0.3
		c-0.1,0.1-0.2,0.3-0.3,0.4c-0.1,0.1-0.2,0.2-0.3,0.3c-0.1,0.1-0.2,0.3-0.3,0.5c-0.1,0.1-0.2,0.2-0.2,0.3c-0.1,0.2-0.2,0.3-0.3,0.5
		c-0.1,0.1-0.1,0.2-0.2,0.3c-0.2,0.3-0.3,0.6-0.4,0.8c0,0.1,0,0.1-0.1,0.2c-0.1,0.2-0.2,0.5-0.3,0.7c0,0.1-0.1,0.2-0.1,0.3
		c-0.1,0.2-0.1,0.4-0.2,0.6c0,0.1-0.1,0.2-0.1,0.4c-0.1,0.2-0.1,0.4-0.2,0.6c0,0.1-0.1,0.3-0.1,0.4c0,0.2-0.1,0.4-0.1,0.6
		c0,0.1,0,0.2-0.1,0.4c0,0.2-0.1,0.4-0.1,0.7c0,0.1,0,0.2,0,0.3c0,0.3,0,0.7,0,1c0,7.9,6.4,14.3,14.3,14.3c0.3,0,0.7,0,1,0
		c0.1,0,0.2,0,0.3,0c0.2,0,0.4,0,0.7-0.1c0.1,0,0.2,0,0.4-0.1c0.2,0,0.4-0.1,0.6-0.1c0.1,0,0.2-0.1,0.4-0.1c0.2,0,0.4-0.1,0.6-0.2
		c0.1,0,0.2-0.1,0.3-0.1c0.2-0.1,0.4-0.1,0.6-0.2c0.1,0,0.2-0.1,0.3-0.1c0.6-0.2,1.2-0.5,1.8-0.8c0.1,0,0.2-0.1,0.2-0.1
		c0.2-0.1,0.4-0.2,0.6-0.4c0.1-0.1,0.2-0.1,0.3-0.2c0.2-0.1,0.3-0.2,0.5-0.4c0.1-0.1,0.2-0.1,0.3-0.2c0.2-0.1,0.3-0.3,0.5-0.4
		c0.1-0.1,0.2-0.1,0.2-0.2c0.2-0.2,0.3-0.3,0.5-0.5c0.1-0.1,0.1-0.1,0.2-0.2c0.5-0.5,0.9-1,1.3-1.5c0-0.1,0.1-0.1,0.1-0.2
		c0.1-0.2,0.2-0.3,0.3-0.5c1.3,0.6,2.4,1.2,3.4,1.8c5.5,3.6,8.9,10.3,8.3,16.9c-0.6,6.6-5.1,12.6-11.2,15.1c-2.4,1-5.2,1.4-8.1,1.3
		C90,89.6,90.1,89,90.1,88.5z M87.6,50.3c0.3,0.2,0.7,0.5,1,0.6c0.4,0.3,0.9,0.5,1.4,0.8c0.4,0.2,0.9,0.4,1.1,0.5
		c0.3,0.2,0.7,0.3,1,0.5l0.9,0.4c-1.8,2.3-4.6,3.7-7.6,3.7c-5.3,0-9.5-4.3-9.5-9.5c0-3,1.4-5.7,3.7-7.5c0.3,0.7,0.6,1.4,1,2.1
		c0.2,0.5,0.5,1.1,0.8,1.5c0.2,0.4,0.4,0.7,0.6,1c0.4,0.6,0.8,1.2,1.2,1.7c0.4,0.5,0.7,1,1.1,1.3c0.8,0.8,1.7,1.6,2.7,2.3
		C87.1,50,87.4,50.2,87.6,50.3z"/><path fill="#f8bdaa" d="M83.1,46.2c-0.4-0.5-0.8-1.1-1.2-1.7c-0.2-0.3-0.4-0.7-0.6-1c-0.3-0.4-0.5-1-0.8-1.5c-0.3-0.7-0.7-1.4-1-2.1
		c-2.3,1.8-3.7,4.5-3.7,7.5c0,5.3,4.3,9.5,9.5,9.5c3,0,5.8-1.4,7.6-3.7l-0.9-0.4c-0.3-0.2-0.7-0.3-1-0.5c-0.3-0.1-0.7-0.3-1.1-0.5
		c-0.5-0.3-0.9-0.5-1.4-0.8c-0.2-0.1-0.6-0.4-1-0.6c-0.2-0.1-0.5-0.3-0.8-0.5c-1-0.7-1.9-1.5-2.7-2.3C83.8,47.2,83.4,46.7,83.1,46.2
		z"/></svg>