<svg xmlns="http://www.w3.org/2000/svg" enable-background="new 0 0 128 128" viewBox="0 0 128 128"><path fill="#0a3960" d="M64,39.7c-0.1,0-0.2,0-0.2,0c-1.3-0.1-2.3-1.3-2.1-2.6c0.6-6,3.5-17,15.6-22.8c1.2-0.6,2.6-0.1,3.2,1.1
				s0.1,2.6-1.1,3.2c-9.5,4.6-12.3,12.9-12.9,19C66.3,38.8,65.3,39.7,64,39.7z"/><path fill="#ff5959" d="M85.4,64c0,13.8-3.1,30-9.2,39.5c-3.2,5-7.3,8.1-12.2,8.1s-9-3.1-12.2-8.1C45.6,94,42.6,77.8,42.6,64
				c0-5.5,1.2-16.7,5.6-23.3c2.1-3.2,4.9-5.3,8.6-5.3c0.9,0,1.8,0.1,2.7,0.4c0.7,0.2,1.4,0.5,2,0.8c0.8,0.5,1.7,0.7,2.5,0.7
				c0.8,0,1.7-0.2,2.4-0.7c0.6-0.4,1.3-0.6,2-0.8c0.9-0.2,1.7-0.4,2.7-0.4c3.8,0,6.6,2.1,8.6,5.3C84.2,47.3,85.4,58.5,85.4,64z"/><path fill="#0a3960" d="M64,114c-5.4,0-10.3-3.2-14.2-9.2c-5.8-9-9.6-25-9.6-40.8c0-5.8,1.3-17.4,6-24.6c3.4-5.2,8.4-7.4,13.9-5.9
				c0.9,0.2,1.7,0.6,2.6,1.1c0.8,0.4,1.8,0.5,2.5,0c0.8-0.5,1.7-0.8,2.6-1.1c5.4-1.5,10.5,0.7,13.9,5.9c4.8,7.2,6,18.8,6,24.6
				c0,15.8-3.8,31.8-9.6,40.8C74.3,110.8,69.4,114,64,114z M56.9,37.8c-2.6,0-4.8,1.4-6.6,4.2C46.1,48.3,45,59.1,45,64
				c0,14.9,3.5,29.9,8.9,38.2c3,4.7,6.4,7,10.2,7c3.7,0,7.2-2.4,10.2-7C79.6,93.9,83,78.9,83,64c0-4.9-1.1-15.7-5.2-22
				c-2.3-3.6-5.1-4.9-8.7-3.9c-0.5,0.1-1,0.3-1.4,0.6c-2.2,1.3-5,1.3-7.3,0c-0.5-0.3-1-0.5-1.5-0.6C58.2,37.9,57.5,37.8,56.9,37.8z"/><path fill="#ff5959" d="M51.8,103.5c-0.1,0.1-0.2,0.2-0.3,0.3c-2.1,1.6-4.5,2.9-7.1,3.1c-3.9,0.3-7.6-1.9-10-4.9
				c-2.3-2.9-3.5-6.7-4-10.3c-0.4-3.5-0.2-7-1-10.5c-1.9-8.7-6.8-16.6-5.8-25.8c0.8-7.2,4.5-15.4,13.1-15.2c2.7,0,5.3,1,7.9,1
				c1.2,0,2.3-0.3,3.5-0.5c-4.4,6.6-5.6,17.8-5.6,23.3C42.6,77.8,45.6,94,51.8,103.5z"/><path fill="#0a3960" d="M43.7,109.2c-4.1,0-8.3-2.2-11.1-5.9c-2.3-3-3.9-7.1-4.5-11.5c-0.2-1.4-0.3-2.8-0.3-4.2
				c-0.1-2.1-0.2-4.1-0.7-6c-0.6-2.8-1.6-5.5-2.6-8.4c-2-5.7-4-11.6-3.3-18.2c1-8.5,5.6-17.5,15.5-17.3c1.4,0,2.8,0.3,4.1,0.5
				c1.3,0.2,2.5,0.5,3.7,0.4c0.9,0,1.8-0.2,2.7-0.4l0.4-0.1c0.9-0.2,1.9,0.2,2.4,1c0.5,0.8,0.5,1.8,0,2.6C46.1,48.3,45,59.1,45,64
				c0,14.9,3.5,29.9,8.9,38.2c0.6,0.9,0.5,2.2-0.3,3c-0.2,0.2-0.4,0.3-0.6,0.5c-2.8,2.2-5.6,3.3-8.3,3.5
				C44.3,109.2,44,109.2,43.7,109.2z M36.5,42.6c-8.4,0-10.1,10-10.5,13.1c-0.6,5.5,1.2,10.7,3.1,16.1c1,2.9,2,5.8,2.7,8.9
				c0.5,2.3,0.6,4.6,0.8,6.8c0.1,1.3,0.1,2.6,0.3,3.9c0.4,3.6,1.7,6.8,3.5,9.1c1.6,2.1,4.6,4.3,7.9,4c1.4-0.1,2.8-0.6,4.4-1.6
				c-5.2-9.2-8.4-24.1-8.4-38.8c0-4.7,0.9-13.5,3.8-20.4c-1.4,0-2.7-0.3-3.9-0.5c-1.2-0.2-2.3-0.4-3.3-0.4
				C36.7,42.6,36.6,42.6,36.5,42.6z"/><path fill="#ff5959" d="M98.5,81.1c-0.8,3.4-0.6,7-1,10.5c-0.5,3.6-1.7,7.4-4,10.3c-2.3,3-6,5.2-10,4.9c-2.6-0.2-5-1.5-7.1-3.1
				c-0.1-0.1-0.2-0.2-0.3-0.3c6.2-9.5,9.2-25.7,9.2-39.5c0-5.5-1.2-16.7-5.6-23.3c1.2,0.2,2.3,0.5,3.5,0.5c2.7,0.1,5.3-0.9,7.9-1
				c8.6-0.2,12.3,8,13.1,15.2C105.4,64.5,100.4,72.5,98.5,81.1z"/><path fill="#0a3960" d="M84.3,109.2c-0.3,0-0.6,0-0.9,0c-2.8-0.2-5.5-1.4-8.3-3.5c-0.2-0.1-0.4-0.3-0.6-0.5c-0.8-0.8-0.9-2-0.3-3
				C79.6,93.9,83,78.9,83,64c0-4.9-1.1-15.7-5.2-22c-0.5-0.8-0.5-1.8,0-2.6c0.5-0.8,1.5-1.2,2.4-1l0.4,0.1c1,0.2,1.9,0.3,2.7,0.4
				c1.2,0,2.4-0.2,3.7-0.4c1.3-0.2,2.7-0.5,4.1-0.5c0.1,0,0.2,0,0.4,0c9.7,0,14.2,8.9,15.2,17.3c0.7,6.6-1.3,12.5-3.3,18.2
				c-1,2.9-1.9,5.5-2.5,8.3c0,0,0,0,0,0c-0.4,1.9-0.5,3.9-0.7,6c-0.1,1.4-0.2,2.8-0.3,4.2c-0.5,4.4-2.1,8.5-4.5,11.5
				C92.6,107,88.4,109.2,84.3,109.2z M79.4,102.8c1.6,1,3,1.5,4.4,1.6c3.3,0.3,6.2-1.9,7.9-4c1.8-2.3,3.1-5.6,3.5-9.2
				c0.2-1.3,0.2-2.6,0.3-3.9c0.1-2.2,0.2-4.5,0.8-6.8c0.7-3.1,1.7-6,2.7-8.9c1.9-5.5,3.7-10.6,3.1-16.1c-0.3-3.1-2.1-13.1-10.5-13.1
				c-0.1,0-0.2,0-0.2,0c-1.1,0-2.2,0.2-3.3,0.4c-1.3,0.2-2.6,0.5-3.9,0.5c3,6.9,3.8,15.7,3.8,20.4C87.8,78.7,84.5,93.6,79.4,102.8z
				 M98.5,81.1L98.5,81.1L98.5,81.1z"/></svg>