<svg xmlns="http://www.w3.org/2000/svg" id="Outlined_1_" enable-background="new 0 0 128 128" viewBox="0 0 128 128"><path fill="#00bf4c" d="M69 28.7c.2 0 .4.1.6.1.4.1.7.1 1.1.2.2 0 .4.1.6.1.4.1.7.2 1.1.2.2 0 .4.1.6.1.4.1.7.2 1.1.3.2 0 .3.1.5.1.4.1.9.3 1.3.4.1 0 .1 0 .2.1.5.2 1 .4 1.6.6.1 0 .2.1.3.1.4.2.8.4 1.2.6.2.1.3.2.5.2.3.2.7.3 1 .5.2.1.4.2.6.3.3.2.6.3.9.5.2.1.4.2.6.3.3.2.6.4.8.5.2.1.4.2.6.4.3.2.6.4.8.6.2.1.4.3.5.4.3.2.5.4.8.6.2.1.3.3.5.4.3.2.6.5.9.7.1.1.3.2.4.3.4.4.8.8 1.2 1.2 0 0 0 0 0 0 0 0 .1.1.1.1.3.3.5.5.8.8.1.1.1.1.2.2 3.9 4.2 6.7 9.2 8.2 14.6 0 .2.1.3.1.5.1.3.2.6.2.9.1.2.1.5.2.7.1.3.1.6.2.8.1.3.1.6.1.8 0 .3.1.5.1.8 0 .3.1.6.1.9 0 .2.1.5.1.7 0 .1 0 .2 0 .3 4.9-1.7 8.8-6.2 9.5-11.5 0 0 0 0 0 0 1-6.6-2.5-12.8-8.6-15.4-3-1.2-5.4-3.6-6.7-6.7-2.6-6.1-8.8-9.5-15.4-8.6-5.3.7-9.8 4.6-11.5 9.5.1 0 .2 0 .3 0 .2 0 .4 0 .6.1C68.2 28.6 68.6 28.6 69 28.7zM28.7 58.9c0-.2.1-.4.1-.6.1-.4.1-.7.2-1.1 0-.2.1-.4.1-.6.1-.4.2-.8.3-1.2 0-.2.1-.3.1-.5.1-.4.2-.9.4-1.3 0-.1.1-.2.1-.3.3-1.1.7-2.2 1.2-3.2 0 0 0-.1.1-.1.2-.5.4-.9.6-1.4.1-.1.1-.2.2-.4.2-.4.4-.8.6-1.1.1-.1.2-.3.2-.4.2-.3.4-.7.6-1 .1-.2.2-.3.3-.4.2-.3.4-.6.6-1 .1-.1.2-.3.3-.4.2-.3.4-.6.7-.9.1-.1.2-.3.3-.4.2-.3.5-.6.7-.9.1-.1.2-.2.3-.4.3-.3.6-.7.9-1 .1-.1.1-.1.2-.2.7-.8 1.5-1.6 2.4-2.4.1-.1.2-.2.3-.2.3-.3.6-.6 1-.8.1-.1.3-.2.4-.3.3-.2.6-.5.9-.7.2-.1.3-.2.5-.4.3-.2.6-.4.8-.6.2-.1.3-.2.5-.4.3-.2.6-.4.9-.5.2-.1.4-.2.5-.3.3-.2.6-.3.9-.5.2-.1.4-.2.6-.3.3-.2.6-.3.9-.5.2-.1.4-.2.5-.3.4-.2.7-.3 1.1-.5.1-.1.3-.1.4-.2.5-.2 1-.4 1.5-.6 0 0 .1 0 .1 0 .5-.2.9-.3 1.4-.5.2-.1.4-.1.6-.2.4-.1.7-.2 1.1-.3.2-.1.4-.1.7-.2.3-.1.7-.2 1-.2.2 0 .5-.1.7-.1.3-.1.6-.1 1-.2.2 0 .5-.1.7-.1.3 0 .6-.1 1-.1.2 0 .5-.1.7-.1.1 0 .2 0 .4 0-1.7-4.9-6.2-8.8-11.4-9.5-.7-.1-1.5-.2-2.2-.2-5.7 0-10.9 3.3-13.2 8.8-1.2 3-3.6 5.4-6.7 6.7-6.1 2.6-9.5 8.8-8.6 15.4.7 5.3 4.6 9.7 9.5 11.5 0-.1 0-.3 0-.4 0-.2 0-.4.1-.6C28.6 59.6 28.6 59.3 28.7 58.9zM59 99.3c-.2 0-.4-.1-.5-.1-.4-.1-.8-.1-1.1-.2-.2 0-.3-.1-.5-.1-.4-.1-.8-.2-1.2-.3-.2 0-.3-.1-.5-.1-.4-.1-.8-.2-1.2-.3-.1 0-.3-.1-.4-.1-.5-.2-1-.3-1.5-.5 0 0-.1 0-.1 0-.5-.2-1.1-.4-1.6-.6-.1 0-.1-.1-.2-.1-.4-.2-.9-.4-1.3-.6-.2-.1-.3-.2-.5-.2-.3-.2-.7-.3-1-.5-.2-.1-.4-.2-.6-.3-.3-.2-.6-.3-.9-.5-.2-.1-.4-.2-.6-.3-.3-.2-.6-.3-.8-.5-.2-.1-.4-.3-.6-.4-.3-.2-.5-.4-.8-.6-.2-.1-.4-.3-.6-.4-.3-.2-.5-.4-.8-.6-.2-.1-.3-.3-.5-.4-.3-.2-.6-.5-.8-.7-.1-.1-.3-.2-.4-.4-.4-.4-.8-.8-1.2-1.2 0 0 0 0 0 0 0 0 0 0 0 0-.2-.2-.5-.5-.7-.8-.1-.1-.2-.2-.4-.4-.3-.3-.6-.7-.9-1-.1-.1-.1-.2-.2-.2-.3-.3-.6-.7-.8-1-.1-.1-.1-.1-.2-.2-.3-.4-.5-.7-.8-1.1-.1-.1-.1-.2-.2-.2-.3-.4-.5-.7-.7-1.1-.1-.1-.1-.2-.1-.2-.2-.4-.5-.7-.7-1.1 0-.1-.1-.2-.1-.2-.2-.4-.4-.8-.6-1.2 0-.1-.1-.1-.1-.2-.8-1.6-1.6-3.3-2.1-5.1-.1-.2-.1-.4-.2-.5-.1-.3-.2-.6-.3-.9-.1-.2-.1-.5-.2-.7-.1-.3-.1-.5-.2-.8-.1-.3-.1-.5-.2-.8C29.1 71 29 70.8 29 70.5c-.1-.3-.1-.6-.2-.9 0-.2-.1-.5-.1-.7 0-.3-.1-.6-.1-1 0-.2-.1-.5-.1-.7 0-.1 0-.2 0-.3-4.9 1.7-8.8 6.2-9.5 11.5-1 6.6 2.5 12.8 8.6 15.4 3 1.2 5.4 3.6 6.7 6.7 2.6 6.1 8.8 9.5 15.4 8.6 5.3-.7 9.8-4.6 11.5-9.5-.1 0-.2 0-.4 0-.2 0-.3 0-.5-.1C59.8 99.4 59.4 99.4 59 99.3zM109.1 78.4c-.7-5.3-4.6-9.8-9.5-11.5 0 .2-.1.5-.1.7 0 .2 0 .4-.1.7-.1.5-.1.9-.2 1.4 0 .2 0 .3-.1.5-.1.6-.2 1.2-.4 1.8 0 .2-.1.3-.1.5-.1.4-.2.9-.4 1.3-.1.2-.1.4-.2.6-.1.4-.2.8-.4 1.2-.1.2-.2.4-.2.6-.1.4-.3.8-.5 1.2-.1.2-.1.4-.2.6-.2.6-.5 1.1-.8 1.7l0 0c0 .1-.1.1-.1.2-.3.7-.7 1.4-1.1 2-.1.1-.1.2-.2.3-.4.6-.7 1.2-1.1 1.7-.2.3-.4.5-.5.7-.3.4-.6.8-.9 1.2-.2.3-.4.5-.6.8-.3.4-.6.7-.9 1.1-.2.3-.5.5-.7.8-.3.3-.6.6-.9 1-.3.2-.5.5-.8.7-.3.3-.6.6-1 .9-.3.2-.5.5-.8.7-.3.3-.7.5-1 .8-.3.2-.6.4-.9.6-.4.3-.7.5-1.1.7-.3.2-.6.4-.9.6-.4.2-.8.4-1.1.7-.3.2-.6.3-.9.5-.4.2-.8.4-1.2.6-.3.1-.6.3-.9.4-.4.2-.9.4-1.3.5-.3.1-.6.2-.9.3-.5.2-1 .3-1.5.5-.2.1-.5.2-.7.2-.8.2-1.5.4-2.3.6-.1 0-.1 0-.2 0-.7.2-1.5.3-2.2.4-.3 0-.5.1-.8.1-.5.1-.9.1-1.4.2 1.7 4.9 6.2 8.8 11.5 9.5 6.6 1 12.8-2.5 15.4-8.6 1.2-3 3.6-5.4 6.7-6.7C106.6 91.2 110 85 109.1 78.4z"/><path fill="#0a3960" d="M113.8,77.7c-0.8-5.9-4.4-10.9-9.3-13.7c4.9-2.9,8.5-7.9,9.3-13.7c1.3-8.6-3.4-17-11.5-20.4
		c-1.9-0.8-3.3-2.2-4.1-4.2c-3.4-8-11.8-12.7-20.4-11.5C71.9,15,66.9,18.6,64,23.5c-2.9-4.9-7.9-8.5-13.7-9.3
		c-8.6-1.3-17,3.4-20.5,11.5c-0.8,1.9-2.2,3.3-4.2,4.1c-8,3.4-12.7,11.8-11.5,20.4c0.8,5.9,4.4,10.9,9.3,13.7
		c-4.9,2.9-8.5,7.9-9.3,13.7c-1.3,8.6,3.4,17,11.5,20.5c1.9,0.8,3.3,2.2,4.1,4.2c3,7.1,10.1,11.7,17.6,11.7c0.9,0,1.9-0.1,2.8-0.2
		c5.9-0.8,10.9-4.4,13.7-9.3c2.9,4.9,7.9,8.5,13.7,9.3c0.9,0.1,1.9,0.2,2.8,0.2c7.6,0,14.6-4.5,17.7-11.7c0.8-1.9,2.2-3.3,4.1-4.1
		c0,0,0,0,0,0C110.4,94.8,115.1,86.4,113.8,77.7z M100.5,93.8c-3.1,1.3-5.5,3.6-6.7,6.7c-2.6,6.1-8.8,9.6-15.4,8.6
		c-5.3-0.7-9.7-4.6-11.5-9.5c0.5,0,0.9-0.1,1.4-0.2c0.3,0,0.5-0.1,0.8-0.1c0.7-0.1,1.5-0.2,2.2-0.4c0.1,0,0.1,0,0.2,0
		c0.8-0.2,1.6-0.4,2.3-0.6c0.2-0.1,0.5-0.2,0.7-0.2c0.5-0.2,1-0.3,1.5-0.5c0.3-0.1,0.6-0.2,0.9-0.3c0.4-0.2,0.9-0.3,1.3-0.5
		c0.3-0.1,0.6-0.3,0.9-0.4c0.4-0.2,0.8-0.4,1.2-0.6c0.3-0.2,0.6-0.3,0.9-0.5c0.4-0.2,0.8-0.4,1.1-0.7c0.3-0.2,0.6-0.4,0.9-0.6
		c0.4-0.2,0.7-0.5,1.1-0.7c0.3-0.2,0.6-0.4,0.9-0.6c0.3-0.3,0.7-0.5,1-0.8c0.3-0.2,0.6-0.5,0.8-0.7c0.3-0.3,0.7-0.6,1-0.9
		c0.3-0.2,0.5-0.5,0.8-0.7c0.3-0.3,0.6-0.6,0.9-1c0.2-0.3,0.5-0.5,0.7-0.8c0.3-0.3,0.6-0.7,0.9-1.1c0.2-0.3,0.4-0.5,0.6-0.8
		c0.3-0.4,0.6-0.8,0.9-1.2c0.2-0.2,0.4-0.5,0.5-0.7c0.4-0.6,0.7-1.1,1.1-1.7c0.1-0.1,0.1-0.2,0.2-0.3c0.4-0.7,0.8-1.3,1.1-2
		c0-0.1,0.1-0.1,0.1-0.2l0,0c0.3-0.6,0.5-1.1,0.8-1.7c0.1-0.2,0.2-0.4,0.2-0.6c0.2-0.4,0.3-0.8,0.5-1.2c0.1-0.2,0.2-0.4,0.2-0.6
		c0.1-0.4,0.3-0.8,0.4-1.2c0.1-0.2,0.1-0.4,0.2-0.6c0.1-0.4,0.2-0.9,0.4-1.3c0-0.2,0.1-0.3,0.1-0.5c0.1-0.6,0.3-1.2,0.4-1.8
		c0-0.2,0-0.3,0.1-0.5c0.1-0.5,0.1-0.9,0.2-1.4c0-0.2,0-0.4,0.1-0.7c0-0.2,0.1-0.5,0.1-0.7c4.9,1.7,8.8,6.2,9.5,11.5
		C110,85,106.6,91.2,100.5,93.8z M61,99.5c-1.7,4.9-6.2,8.8-11.5,9.5c-6.6,1-12.8-2.5-15.4-8.6c-1.3-3.1-3.7-5.5-6.7-6.7
		c-6.1-2.6-9.6-8.8-8.6-15.4c0.7-5.3,4.6-9.7,9.5-11.5c0,0.1,0,0.2,0,0.3c0,0.2,0,0.5,0.1,0.7c0,0.3,0.1,0.6,0.1,1
		c0,0.2,0.1,0.5,0.1,0.7c0,0.3,0.1,0.6,0.2,0.9c0,0.3,0.1,0.5,0.2,0.8c0.1,0.3,0.1,0.6,0.2,0.8c0.1,0.3,0.1,0.5,0.2,0.8
		c0.1,0.2,0.1,0.5,0.2,0.7c0.1,0.3,0.2,0.6,0.3,0.9c0.1,0.2,0.1,0.4,0.2,0.5c0.6,1.8,1.3,3.5,2.1,5.1c0,0.1,0.1,0.1,0.1,0.2
		c0.2,0.4,0.4,0.8,0.6,1.2c0,0.1,0.1,0.2,0.1,0.2c0.2,0.4,0.4,0.8,0.7,1.1c0,0.1,0.1,0.2,0.1,0.2c0.2,0.4,0.5,0.7,0.7,1.1
		c0.1,0.1,0.1,0.2,0.2,0.2c0.3,0.4,0.5,0.7,0.8,1.1c0.1,0.1,0.1,0.1,0.2,0.2c0.3,0.4,0.5,0.7,0.8,1c0.1,0.1,0.1,0.2,0.2,0.2
		c0.3,0.3,0.6,0.7,0.9,1c0.1,0.1,0.2,0.2,0.4,0.4c0.2,0.3,0.5,0.5,0.7,0.8c0,0,0,0,0,0c0,0,0,0,0,0c0.4,0.4,0.8,0.8,1.2,1.2
		c0.1,0.1,0.3,0.2,0.4,0.4c0.3,0.2,0.6,0.5,0.8,0.7c0.2,0.1,0.3,0.3,0.5,0.4c0.3,0.2,0.5,0.4,0.8,0.6c0.2,0.1,0.4,0.3,0.6,0.4
		c0.3,0.2,0.5,0.4,0.8,0.6c0.2,0.1,0.4,0.3,0.6,0.4c0.3,0.2,0.6,0.4,0.8,0.5c0.2,0.1,0.4,0.2,0.6,0.3c0.3,0.2,0.6,0.3,0.9,0.5
		c0.2,0.1,0.4,0.2,0.6,0.3c0.3,0.2,0.7,0.3,1,0.5c0.2,0.1,0.3,0.2,0.5,0.2c0.4,0.2,0.9,0.4,1.3,0.6c0.1,0,0.1,0.1,0.2,0.1
		c0.5,0.2,1,0.4,1.6,0.6c0,0,0.1,0,0.1,0c0.5,0.2,1,0.3,1.5,0.5c0.1,0,0.3,0.1,0.4,0.1c0.4,0.1,0.8,0.2,1.2,0.3
		c0.2,0,0.3,0.1,0.5,0.1c0.4,0.1,0.8,0.2,1.2,0.3c0.2,0,0.3,0.1,0.5,0.1c0.4,0.1,0.8,0.1,1.1,0.2c0.2,0,0.4,0.1,0.5,0.1
		c0.4,0.1,0.8,0.1,1.2,0.1c0.2,0,0.3,0,0.5,0.1C60.8,99.5,60.9,99.5,61,99.5z M28.4,61c-4.9-1.7-8.8-6.2-9.5-11.5
		c-1-6.6,2.5-12.8,8.6-15.4c3.1-1.3,5.5-3.7,6.7-6.7c2.3-5.4,7.4-8.8,13.2-8.8c0.7,0,1.5,0.1,2.2,0.2c5.3,0.7,9.7,4.6,11.4,9.5
		c-0.1,0-0.2,0-0.4,0c-0.2,0-0.5,0-0.7,0.1c-0.3,0-0.7,0.1-1,0.1c-0.2,0-0.5,0.1-0.7,0.1c-0.3,0.1-0.6,0.1-1,0.2
		c-0.2,0-0.5,0.1-0.7,0.1c-0.3,0.1-0.7,0.1-1,0.2c-0.2,0.1-0.4,0.1-0.7,0.2c-0.4,0.1-0.7,0.2-1.1,0.3c-0.2,0.1-0.4,0.1-0.6,0.2
		c-0.5,0.2-1,0.3-1.4,0.5c0,0-0.1,0-0.1,0c-0.5,0.2-1,0.4-1.5,0.6c-0.1,0.1-0.3,0.1-0.4,0.2c-0.4,0.2-0.7,0.3-1.1,0.5
		c-0.2,0.1-0.4,0.2-0.5,0.3c-0.3,0.2-0.6,0.3-0.9,0.5c-0.2,0.1-0.4,0.2-0.6,0.3c-0.3,0.2-0.6,0.3-0.9,0.5c-0.2,0.1-0.4,0.2-0.5,0.3
		c-0.3,0.2-0.6,0.4-0.9,0.5c-0.2,0.1-0.4,0.2-0.5,0.4c-0.3,0.2-0.6,0.4-0.8,0.6c-0.2,0.1-0.3,0.2-0.5,0.4c-0.3,0.2-0.6,0.5-0.9,0.7
		c-0.1,0.1-0.3,0.2-0.4,0.3c-0.3,0.3-0.6,0.6-1,0.8c-0.1,0.1-0.2,0.2-0.3,0.2c-0.8,0.7-1.6,1.5-2.4,2.4c-0.1,0.1-0.1,0.1-0.2,0.2
		c-0.3,0.3-0.6,0.7-0.9,1c-0.1,0.1-0.2,0.2-0.3,0.4c-0.3,0.3-0.5,0.6-0.7,0.9c-0.1,0.1-0.2,0.3-0.3,0.4c-0.2,0.3-0.4,0.6-0.7,0.9
		c-0.1,0.1-0.2,0.3-0.3,0.4c-0.2,0.3-0.4,0.6-0.6,1c-0.1,0.1-0.2,0.3-0.3,0.4c-0.2,0.3-0.4,0.7-0.6,1c-0.1,0.1-0.2,0.3-0.2,0.4
		c-0.2,0.4-0.4,0.7-0.6,1.1c-0.1,0.1-0.1,0.2-0.2,0.4c-0.2,0.5-0.4,0.9-0.6,1.4c0,0,0,0.1-0.1,0.1c-0.4,1-0.8,2.1-1.2,3.2
		c0,0.1-0.1,0.2-0.1,0.3c-0.1,0.4-0.3,0.9-0.4,1.3c0,0.2-0.1,0.3-0.1,0.5c-0.1,0.4-0.2,0.8-0.3,1.2c0,0.2-0.1,0.4-0.1,0.6
		c-0.1,0.4-0.1,0.7-0.2,1.1c0,0.2-0.1,0.4-0.1,0.6c-0.1,0.4-0.1,0.7-0.1,1.1c0,0.2,0,0.4-0.1,0.6C28.5,60.8,28.5,60.9,28.4,61z
		 M67,28.5c1.7-4.9,6.2-8.8,11.5-9.5c6.6-1,12.8,2.5,15.4,8.6c1.3,3.1,3.7,5.5,6.7,6.7c6.1,2.6,9.6,8.8,8.6,15.4c0,0,0,0,0,0
		c-0.7,5.3-4.6,9.7-9.5,11.5c0-0.1,0-0.2,0-0.3c0-0.2-0.1-0.5-0.1-0.7c0-0.3-0.1-0.6-0.1-0.9c0-0.3-0.1-0.5-0.1-0.8
		c0-0.3-0.1-0.6-0.1-0.8c-0.1-0.3-0.1-0.6-0.2-0.8c0-0.2-0.1-0.5-0.2-0.7c-0.1-0.3-0.1-0.6-0.2-0.9c0-0.2-0.1-0.3-0.1-0.5
		c-1.5-5.4-4.3-10.4-8.2-14.6c-0.1-0.1-0.1-0.1-0.2-0.2c-0.3-0.3-0.5-0.6-0.8-0.8c0,0-0.1-0.1-0.1-0.1c0,0,0,0,0,0
		c-0.4-0.4-0.8-0.8-1.2-1.2c-0.1-0.1-0.3-0.2-0.4-0.3c-0.3-0.3-0.6-0.5-0.9-0.7c-0.2-0.1-0.3-0.3-0.5-0.4c-0.3-0.2-0.5-0.4-0.8-0.6
		c-0.2-0.1-0.4-0.3-0.5-0.4c-0.3-0.2-0.5-0.4-0.8-0.6c-0.2-0.1-0.4-0.2-0.6-0.4c-0.3-0.2-0.6-0.4-0.8-0.5c-0.2-0.1-0.4-0.2-0.6-0.3
		c-0.3-0.2-0.6-0.3-0.9-0.5c-0.2-0.1-0.4-0.2-0.6-0.3c-0.3-0.2-0.6-0.3-1-0.5c-0.2-0.1-0.3-0.2-0.5-0.2c-0.4-0.2-0.8-0.4-1.2-0.6
		c-0.1,0-0.2-0.1-0.3-0.1c-0.5-0.2-1-0.4-1.6-0.6c-0.1,0-0.1,0-0.2-0.1c-0.4-0.2-0.9-0.3-1.3-0.4c-0.2,0-0.3-0.1-0.5-0.1
		c-0.4-0.1-0.7-0.2-1.1-0.3c-0.2,0-0.4-0.1-0.6-0.1c-0.4-0.1-0.7-0.2-1.1-0.2c-0.2,0-0.4-0.1-0.6-0.1c-0.4-0.1-0.7-0.1-1.1-0.2
		c-0.2,0-0.4-0.1-0.6-0.1c-0.4-0.1-0.7-0.1-1.1-0.1c-0.2,0-0.4,0-0.6-0.1C67.2,28.5,67.1,28.5,67,28.5z M93.1,74.3
		C81.7,63.1,68.3,61,60,61c-0.8,0-1.5,0-2.2,0.1c6.8-8.8,16.6-17.7,28.7-18.2c5.4,5.8,8.5,13.3,8.5,21.2
		C94.9,67.6,94.3,71,93.1,74.3z M64,94.9c-7.7,0-15-2.9-20.7-8.1c1.4-3.6,5.1-12.1,10.8-20.6c0,0,0.1,0,0.1,0c0,0,0.1,0,0.1,0
		c0.1,0,0.2,0,0.4,0c0.1,0,0.1,0,0.2,0c0.1,0,0.2,0,0.4,0c0.1,0,0.2,0,0.3,0c0.1,0,0.3,0,0.4,0c0.1,0,0.2,0,0.3,0c0.2,0,0.4,0,0.7,0
		c0.1,0,0.3,0,0.4,0c0.2,0,0.4,0,0.6,0c0.1,0,0.3,0,0.4,0c0.2,0,0.3,0,0.5,0c0.2,0,0.3,0,0.5,0c0.2,0,0.4,0,0.5,0c0.2,0,0.3,0,0.5,0
		c0.2,0,0.4,0,0.6,0c0.2,0,0.3,0,0.5,0c0.2,0,0.4,0,0.7,0c0.2,0,0.3,0,0.5,0c0.3,0,0.6,0,0.9,0.1c0.2,0,0.3,0,0.5,0
		c0.4,0,0.8,0.1,1.2,0.1c0.2,0,0.3,0,0.5,0.1c0.3,0,0.6,0.1,0.8,0.1c0.2,0,0.4,0.1,0.6,0.1c0.3,0,0.5,0.1,0.8,0.1
		c0.2,0,0.4,0.1,0.6,0.1c0.3,0.1,0.6,0.1,0.8,0.2c0.2,0,0.4,0.1,0.6,0.1c0.3,0.1,0.6,0.1,0.9,0.2c0.2,0,0.4,0.1,0.5,0.1
		c0.4,0.1,0.7,0.2,1.1,0.3c0.1,0,0.2,0.1,0.4,0.1c0.5,0.1,1,0.3,1.5,0.5c0.1,0,0.2,0.1,0.4,0.1c0.4,0.1,0.8,0.3,1.2,0.4
		c0.2,0.1,0.3,0.1,0.5,0.2c0.3,0.1,0.7,0.3,1,0.4c0.2,0.1,0.4,0.2,0.6,0.3c0.3,0.1,0.7,0.3,1,0.5c0.2,0.1,0.4,0.2,0.6,0.3
		c0.3,0.2,0.7,0.3,1,0.5c0.2,0.1,0.4,0.2,0.5,0.3c0.4,0.2,0.8,0.4,1.1,0.7c0.1,0.1,0.3,0.2,0.4,0.2c0.5,0.3,1,0.7,1.6,1
		c0,0,0.1,0.1,0.1,0.1c0.5,0.3,0.9,0.7,1.4,1c0.2,0.1,0.3,0.2,0.5,0.4c0.3,0.3,0.7,0.5,1,0.8c0.2,0.2,0.4,0.3,0.5,0.5
		c0.3,0.3,0.6,0.6,1,0.8c0.2,0.2,0.4,0.3,0.6,0.5c0.3,0.3,0.6,0.6,0.9,0.9c0.2,0.2,0.4,0.4,0.5,0.6c0.1,0.1,0.2,0.2,0.2,0.3
		C85.5,88.8,75.3,94.9,64,94.9z M33.1,64c0-1.6,0.1-3.2,0.4-4.7C35.7,44.5,48.6,33.1,64,33.1c6.3,0,12.4,2,17.5,5.6
		c-0.3,0.1-0.6,0.1-0.9,0.2c-0.3,0.1-0.5,0.1-0.8,0.2c-0.6,0.1-1.1,0.3-1.7,0.5c-0.2,0.1-0.4,0.1-0.6,0.2c-0.8,0.3-1.5,0.5-2.2,0.8
		c-0.2,0.1-0.3,0.1-0.5,0.2c-0.6,0.3-1.2,0.5-1.8,0.8c-0.3,0.1-0.5,0.3-0.8,0.4c-0.5,0.3-1,0.5-1.5,0.8c-0.3,0.2-0.6,0.3-0.8,0.5
		c-0.5,0.3-0.9,0.6-1.4,0.9c-0.3,0.2-0.5,0.4-0.8,0.5c-0.5,0.3-1,0.7-1.4,1c-0.2,0.2-0.5,0.4-0.7,0.5c-0.6,0.5-1.2,0.9-1.8,1.4
		c-0.1,0.1-0.2,0.2-0.4,0.3c-0.7,0.6-1.4,1.2-2.1,1.9c-0.2,0.2-0.4,0.4-0.6,0.6c-0.5,0.5-1,1-1.5,1.5c-0.3,0.3-0.5,0.5-0.8,0.8
		c-0.4,0.5-0.9,0.9-1.3,1.4c-0.3,0.3-0.5,0.6-0.8,0.9c-0.4,0.5-0.8,1-1.2,1.5c-0.3,0.3-0.5,0.6-0.8,0.9c-0.4,0.5-0.9,1.1-1.3,1.7
		c-0.2,0.3-0.4,0.6-0.7,0.9c-0.6,0.8-1.2,1.6-1.8,2.5c0,0.1-0.1,0.1-0.1,0.2c0,0,0,0,0,0c-0.4,0.6-0.8,1.2-1.2,1.8
		c-0.1,0.2-0.2,0.4-0.3,0.5c-0.3,0.4-0.5,0.9-0.8,1.3c-0.1,0.2-0.2,0.3-0.3,0.5c-0.4,0.6-0.7,1.1-1,1.7c0,0.1-0.1,0.1-0.1,0.2
		c-0.3,0.5-0.6,1-0.9,1.5c-0.1,0.2-0.2,0.4-0.3,0.5c-0.2,0.4-0.5,0.8-0.7,1.2c-0.1,0.2-0.2,0.3-0.3,0.5c-0.3,0.5-0.6,1.1-0.8,1.6
		c-0.1,0.1-0.1,0.2-0.2,0.3c-0.2,0.4-0.4,0.9-0.7,1.3c-0.1,0.2-0.2,0.3-0.2,0.5c-0.2,0.4-0.4,0.7-0.5,1.1c-0.1,0.1-0.1,0.3-0.2,0.4
		c-0.2,0.5-0.5,0.9-0.7,1.4c0,0.1-0.1,0.2-0.1,0.2c-0.2,0.4-0.3,0.7-0.5,1.1c-0.1,0.1-0.1,0.2-0.2,0.4c-0.2,0.3-0.3,0.7-0.4,1
		c0,0.1-0.1,0.2-0.1,0.2c-0.2,0.4-0.3,0.7-0.4,1C35.4,77.5,33.1,70.9,33.1,64z"/><path fill="#00bf4c" d="M40.1,81.9c0-0.1,0.1-0.2,0.1-0.2c0.1-0.3,0.3-0.6,0.4-1c0.1-0.1,0.1-0.2,0.2-0.4c0.2-0.4,0.3-0.7,0.5-1.1
		c0-0.1,0.1-0.2,0.1-0.2c0.2-0.5,0.4-0.9,0.7-1.4c0.1-0.1,0.1-0.3,0.2-0.4c0.2-0.4,0.4-0.7,0.5-1.1c0.1-0.2,0.2-0.3,0.2-0.5
		c0.2-0.4,0.4-0.8,0.7-1.3c0.1-0.1,0.1-0.2,0.2-0.3c0.3-0.5,0.6-1,0.8-1.6c0.1-0.2,0.2-0.3,0.3-0.5c0.2-0.4,0.4-0.8,0.7-1.2
		c0.1-0.2,0.2-0.4,0.3-0.5c0.3-0.5,0.6-1,0.9-1.5c0-0.1,0.1-0.1,0.1-0.2c0.3-0.6,0.7-1.1,1-1.7c0.1-0.2,0.2-0.3,0.3-0.5
		c0.3-0.4,0.5-0.9,0.8-1.3c0.1-0.2,0.2-0.4,0.3-0.5c0.4-0.6,0.8-1.2,1.2-1.8c0,0,0,0,0,0c0-0.1,0.1-0.1,0.1-0.2
		c0.6-0.9,1.2-1.7,1.8-2.5c0.2-0.3,0.4-0.6,0.7-0.9c0.4-0.6,0.9-1.1,1.3-1.7c0.3-0.3,0.5-0.6,0.8-0.9c0.4-0.5,0.8-1,1.2-1.5
		c0.3-0.3,0.5-0.6,0.8-0.9c0.4-0.5,0.9-1,1.3-1.4c0.3-0.3,0.5-0.5,0.8-0.8c0.5-0.5,1-1,1.5-1.5c0.2-0.2,0.4-0.4,0.6-0.6
		c0.7-0.7,1.4-1.3,2.1-1.9c0.1-0.1,0.2-0.2,0.4-0.3c0.6-0.5,1.2-1,1.8-1.4c0.2-0.2,0.5-0.4,0.7-0.5c0.5-0.4,1-0.7,1.4-1
		c0.3-0.2,0.5-0.4,0.8-0.5c0.5-0.3,0.9-0.6,1.4-0.9c0.3-0.2,0.5-0.3,0.8-0.5c0.5-0.3,1-0.5,1.5-0.8c0.3-0.1,0.5-0.3,0.8-0.4
		c0.6-0.3,1.2-0.6,1.8-0.8c0.2-0.1,0.3-0.1,0.5-0.2c0.7-0.3,1.5-0.6,2.2-0.8c0.2-0.1,0.4-0.1,0.6-0.2c0.6-0.2,1.1-0.3,1.7-0.5
		c0.3-0.1,0.5-0.1,0.8-0.2c0.3-0.1,0.6-0.2,0.9-0.2c-5.1-3.6-11.2-5.5-17.5-5.6c-15.4,0-28.3,11.4-30.5,26.2
		c-0.2,1.5-0.4,3.1-0.4,4.7c0,6.9,2.4,13.5,6.6,19C39.8,82.6,40,82.3,40.1,81.9z"/><path fill="#00bf4c" d="M90.7,78.7c-0.2-0.2-0.4-0.4-0.5-0.6c-0.3-0.3-0.6-0.6-0.9-0.9c-0.2-0.2-0.4-0.4-0.6-0.5
		c-0.3-0.3-0.6-0.6-1-0.8c-0.2-0.2-0.4-0.3-0.5-0.5c-0.3-0.3-0.7-0.6-1-0.8c-0.2-0.1-0.3-0.2-0.5-0.4c-0.5-0.4-0.9-0.7-1.4-1
		c0,0-0.1-0.1-0.1-0.1c-0.5-0.4-1-0.7-1.6-1c-0.1-0.1-0.3-0.2-0.4-0.2c-0.4-0.2-0.8-0.5-1.1-0.7c-0.2-0.1-0.4-0.2-0.5-0.3
		c-0.3-0.2-0.7-0.4-1-0.5c-0.2-0.1-0.4-0.2-0.6-0.3c-0.3-0.2-0.7-0.3-1-0.5c-0.2-0.1-0.4-0.2-0.6-0.3c-0.3-0.1-0.7-0.3-1-0.4
		c-0.2-0.1-0.3-0.1-0.5-0.2c-0.4-0.2-0.8-0.3-1.2-0.4c-0.1,0-0.2-0.1-0.4-0.1c-0.5-0.2-1-0.3-1.5-0.5c-0.1,0-0.2-0.1-0.4-0.1
		c-0.4-0.1-0.8-0.2-1.1-0.3c-0.2,0-0.4-0.1-0.5-0.1c-0.3-0.1-0.6-0.1-0.9-0.2c-0.2,0-0.4-0.1-0.6-0.1c-0.3-0.1-0.6-0.1-0.8-0.2
		c-0.2,0-0.4-0.1-0.6-0.1c-0.3,0-0.5-0.1-0.8-0.1c-0.2,0-0.4-0.1-0.6-0.1c-0.3,0-0.6-0.1-0.8-0.1c-0.2,0-0.3,0-0.5-0.1
		c-0.4,0-0.8-0.1-1.2-0.1c-0.2,0-0.3,0-0.5,0c-0.3,0-0.6,0-0.9-0.1c-0.2,0-0.3,0-0.5,0c-0.2,0-0.4,0-0.7,0c-0.2,0-0.4,0-0.5,0
		c-0.2,0-0.4,0-0.6,0c-0.2,0-0.3,0-0.5,0c-0.2,0-0.4,0-0.5,0c-0.2,0-0.3,0-0.5,0c-0.2,0-0.4,0-0.5,0c-0.1,0-0.3,0-0.4,0
		c-0.2,0-0.4,0-0.6,0c-0.1,0-0.3,0-0.4,0c-0.2,0-0.5,0-0.7,0c-0.1,0-0.2,0-0.3,0c-0.1,0-0.3,0-0.4,0c-0.1,0-0.2,0-0.3,0
		c-0.1,0-0.3,0-0.4,0c-0.1,0-0.1,0-0.2,0c-0.1,0-0.3,0-0.4,0c0,0-0.1,0-0.1,0c0,0-0.1,0-0.1,0c-5.7,8.5-9.3,17-10.8,20.6
		c5.7,5.2,13,8.1,20.7,8.1c11.3-0.1,21.5-6.1,26.9-15.9C90.8,78.9,90.8,78.8,90.7,78.7z"/><path fill="#80dfa5" d="M94.9,64c0-7.9-3.1-15.4-8.5-21.2C74.3,43.4,64.5,52.2,57.7,61c0.7,0,1.4-0.1,2.2-0.1
		c8.3,0,21.8,2.1,33.1,13.3C94.3,71,94.9,67.6,94.9,64z"/></svg>