<svg xmlns="http://www.w3.org/2000/svg" enable-background="new 0 0 128 128" viewBox="0 0 128 128"><path fill="#f27c56" d="M63.2,37.7l9.3,9.3c0.9,0.9,0.9,2.4,0,3.4C72,50.7,71.4,51,70.8,51c-0.6,0-1.2-0.2-1.7-0.7L58.8,40
		c-3.4,2.1-6.7,4.8-10,8.1c-4,4-8,9-11.8,14.9l9.6,9.6c0.9,0.9,0.9,2.4,0,3.4c-0.5,0.5-1.1,0.7-1.7,0.7c-0.6,0-1.2-0.2-1.7-0.7
		l-8.9-8.9c-11.3,18.8-17,38.3-15.7,42c2,0.6,11-0.8,24.9-6.9l-9-9c-0.9-0.9-0.9-2.4,0-3.4c0.9-0.9,2.4-0.9,3.4,0l10.3,10.3
		C59,95.1,68.6,89,75.8,82.8l-11-11c-0.9-0.9-0.9-2.4,0-3.4c0.9-0.9,2.4-0.9,3.4,0l11.2,11.2c0.2-0.2,0.3-0.3,0.5-0.5c0,0,0,0,0,0
		c16.5-16.5,16-32.1,8.6-39.5C82.5,33.7,73,33,63.2,37.7z"/><polygon fill="#0a3960" points="83.2 82.5 83.2 82.5 83.2 82.5"/><path fill="#0a3960" d="M111.6,35.4H95.9l8.8-8.8c0.9-0.9,0.9-2.4,0-3.4c-0.9-0.9-2.4-0.9-3.4,0l-8.8,8.8V16.4c0-1.3-1.1-2.4-2.4-2.4
		c-1.3,0-2.4,1.1-2.4,2.4v16.7c-8-4.9-18.9-4.3-29.7,1.9c-4.3,2.4-8.5,5.7-12.6,9.8C40.9,49.4,36.3,55.2,32,62c0,0,0,0,0,0
		c0,0,0,0,0,0c-11.7,18.5-21.6,45.4-16.6,50.5c1,1,2.7,1.4,4.9,1.4c9.2,0,26.3-7.8,28.6-8.8c12.7-5.8,24-13.1,32-20.5
		c0.8-0.7,1.6-1.5,2.3-2.2c16.3-16.3,17.6-32.3,11.7-42.3h16.7c1.3,0,2.4-1.1,2.4-2.4C113.9,36.5,112.9,35.4,111.6,35.4z M79.8,79.1
		C79.8,79.1,79.8,79.1,79.8,79.1c-0.2,0.2-0.3,0.3-0.5,0.5L68.1,68.4c-0.9-0.9-2.4-0.9-3.4,0c-0.9,0.9-0.9,2.4,0,3.4l11,11
		C68.6,89,59,95.1,48.4,100.1L38.1,89.9c-0.9-0.9-2.4-0.9-3.4,0c-0.9,0.9-0.9,2.4,0,3.4l9,9c-14,6.1-22.9,7.5-24.9,6.9
		c-1.3-3.6,4.4-23.2,15.7-42l8.9,8.9c0.5,0.5,1.1,0.7,1.7,0.7c0.6,0,1.2-0.2,1.7-0.7c0.9-0.9,0.9-2.4,0-3.4L37,63
		c3.8-5.9,7.8-10.9,11.8-14.9c3.3-3.3,6.6-6,10-8.1l10.2,10.2c0.5,0.5,1.1,0.7,1.7,0.7c0.6,0,1.2-0.2,1.7-0.7c0.9-0.9,0.9-2.4,0-3.4
		l-9.3-9.3c9.8-4.6,19.3-4,25.2,1.9C95.9,47.1,96.3,62.6,79.8,79.1z"/></svg>