<svg xmlns="http://www.w3.org/2000/svg" enable-background="new 0 0 128 128" viewBox="0 0 128 128"><path fill="#f0f2f0" d="M21.1,56.9c0,1.7,0.3,3.4,0.9,4.9c0.5,0,0.9,0.1,1.4,0.1c5.5,0.6,13.5,2.2,20,6.8c0.5,0.3,0.9,0.7,1.4,1
		c0.6,0.4,1.2,1,1.7,1.5c0.8,0.8,1.5,1.5,2.2,2.3c0.1,0.1,0.2,0.2,0.3,0.4C52.7,63.5,61.5,55.9,62.4,55c0.4-0.4,1-0.6,1.5-0.6
		c0.6,0,1.1,0.2,1.6,0.6c0.4,0.4,9.6,8.1,13.4,18.8c0.8-0.9,1.6-1.8,2.4-2.6c0.6-0.5,1.2-1,1.8-1.5c0.4-0.3,0.9-0.7,1.4-1
		c6.4-4.5,14.4-6.2,20-6.8c0.5,0,0.9-0.1,1.4-0.1c0.6-1.5,0.9-3.2,0.9-4.9c0-5.5-3.2-10.6-8.2-12.9c-0.8-0.4-1.3-1.2-1.4-2.1
		C97,34.3,90.7,28.3,83,28.3c-1.4,0-2.8,0.2-4.2,0.6c-1,0.3-2.1-0.1-2.7-1c-2.6-4.2-7.1-6.7-12.1-6.7s-9.5,2.5-12.1,6.7
		c-0.6,0.9-1.7,1.3-2.7,1c-1.4-0.4-2.8-0.6-4.2-0.6c-7.7,0-13.9,6-14.2,13.6c0,0.9-0.6,1.7-1.4,2.1C24.4,46.3,21.1,51.3,21.1,56.9z"/><path fill="#00bf4c" d="M56.9 104.5c0 1.3 1.1 2.4 2.4 2.4h9.5c1.3 0 2.4-1.1 2.4-2.4v-2.4H56.9V104.5zM107.7 66.4c-.8 0-1.7.1-2.6.2-5 .5-12.2 2-17.8 6-.4.3-.7.5-1.1.8-.5.4-1.1.9-1.5 1.3-1.7 1.6-3.3 3.6-4.6 6-.5.9-1.5 1.4-2.5 1.2-1-.2-1.8-1-1.9-2C74.3 70.7 67.2 63.1 64 60c-2.7 2.6-8 8.3-10.5 15.4-.5 1.5-.9 3-1.1 4.4-.2 1-.9 1.8-1.9 2-1 .2-2-.3-2.5-1.2-.8-1.5-1.8-2.9-2.8-4.2-.5-.6-1.1-1.2-1.7-1.8-.5-.4-1-.9-1.5-1.2-.4-.3-.7-.6-1.1-.8-5.7-4-12.9-5.5-17.9-6-1-.1-1.9-.2-2.7-.2-.5 0-1 0-1.5-.1.2 4.7 1.4 15.7 8.7 22.7 4.5 4.2 10.6 6.2 14.8 7.2 3.3.7 6.8 1.1 10.7 1.1h1.4 19 1.4c3.9 0 7.4-.4 10.7-1.1 4.3-1 10.3-3 14.8-7.2 7.4-7 8.6-18 8.8-22.7C108.8 66.4 108.3 66.4 107.7 66.4z"/><path fill="#0a3960" d="M114,63.9c-0.1-1.2-1-2.2-2.3-2.2c0,0-0.3,0-0.7,0c0.4-1.5,0.6-3.1,0.6-4.7c0-6.9-3.8-13.2-9.7-16.6
		c-1.1-9.5-9.1-16.7-18.9-16.7c-1.3,0-2.6,0.1-3.9,0.4c-3.6-4.7-9.1-7.5-15.2-7.5s-11.6,2.8-15.2,7.5c-1.3-0.3-2.6-0.4-3.9-0.4
		c-9.7,0-17.8,7.2-18.9,16.7c-5.9,3.3-9.7,9.7-9.7,16.6c0,1.6,0.2,3.2,0.6,4.7c-0.4,0-0.7,0-0.7,0c-1.2,0.1-2.2,1-2.3,2.2
		c0,0.7-0.9,18.1,10.3,28.6c5.3,4.9,12.2,7.3,17,8.4c3.4,0.8,6.9,1.1,10.8,1.2v2.4c0,3.9,3.2,7.1,7.1,7.1h9.5c3.9,0,7.1-3.2,7.1-7.1
		v-2.4c3.9-0.1,7.4-0.4,10.8-1.2c4.8-1.1,11.7-3.4,17-8.4c0,0,0,0,0,0C114.9,82,114,64.6,114,63.9z M100.5,89
		c-4.5,4.2-10.6,6.2-14.8,7.2c-3.3,0.7-6.8,1.1-10.7,1.1h-1.4h-19h-1.4c-3.9,0-7.4-0.4-10.7-1.1c-4.3-1-10.3-3-14.8-7.2
		c-7.4-6.9-8.6-18-8.7-22.7c0.4,0,0.9,0,1.5,0.1c0.8,0,1.7,0.1,2.7,0.2c5,0.5,12.1,2,17.9,6c0.4,0.2,0.7,0.5,1.1,0.8
		c0.5,0.4,1,0.8,1.5,1.2c0.7,0.6,1.2,1.2,1.7,1.8c1,1.2,2,2.7,2.8,4.2c0.5,0.9,1.5,1.4,2.5,1.2c1-0.2,1.8-1,1.9-2
		c0.2-1.5,0.6-3,1.1-4.4C56,68.3,61.3,62.6,64,60c3.2,3,10.3,10.7,11.6,19.9c0.2,1,0.9,1.8,1.9,2c1,0.2,2-0.3,2.5-1.2
		c1.3-2.4,2.8-4.4,4.6-6c0.5-0.4,1-0.9,1.5-1.3c0.3-0.3,0.7-0.5,1.1-0.8c5.7-4,12.8-5.4,17.8-6c1-0.1,1.9-0.2,2.6-0.2
		c0.6,0,1.1,0,1.5-0.1C109.1,71.1,107.9,82.1,100.5,89z M71.1,104.5c0,1.3-1.1,2.4-2.4,2.4h-9.5c-1.3,0-2.4-1.1-2.4-2.4v-2.4h14.3
		V104.5z M30.7,41.9C31,34.3,37.3,28.3,45,28.3c1.4,0,2.8,0.2,4.2,0.6c1,0.3,2.1-0.1,2.7-1c2.6-4.2,7.1-6.7,12.1-6.7
		s9.5,2.5,12.1,6.7c0.6,0.9,1.7,1.3,2.7,1c1.4-0.4,2.8-0.6,4.2-0.6c7.7,0,13.9,6,14.2,13.6c0,0.9,0.6,1.7,1.4,2.1
		c5,2.3,8.2,7.4,8.2,12.9c0,1.7-0.3,3.4-0.9,4.9c-0.4,0-0.9,0.1-1.4,0.1c-5.6,0.6-13.6,2.3-20,6.8c-0.5,0.3-1,0.7-1.4,1
		c-0.6,0.5-1.2,1-1.8,1.5c-0.9,0.8-1.7,1.7-2.4,2.6C75.1,63.1,66,55.4,65.5,55c-0.4-0.4-1-0.6-1.6-0.6c-0.6,0-1.1,0.2-1.5,0.6
		c-1,0.8-9.7,8.4-13.4,18.8c-0.1-0.1-0.2-0.2-0.3-0.4c-0.6-0.8-1.3-1.5-2.2-2.3c-0.6-0.5-1.2-1-1.7-1.5c-0.4-0.4-0.9-0.7-1.4-1
		c-6.5-4.6-14.5-6.2-20-6.8c-0.5-0.1-1-0.1-1.4-0.1c-0.6-1.5-0.9-3.2-0.9-4.9c0-5.5,3.2-10.6,8.2-12.9
		C30.1,43.6,30.7,42.8,30.7,41.9z"/></svg>