<svg xmlns="http://www.w3.org/2000/svg" id="Outlined_1_" enable-background="new 0 0 128 128" viewBox="0 0 128 128"><path fill="#f8bdaa" d="M74.5,76.2c-4.3-2.7-7.7-5.5-10.5-8.6c-2.8,3.1-6.3,5.9-10.5,8.6c-5.6,3.6-8.8,9.5-8.5,15.9
		c0.4,8.4,7.9,15.9,16.8,17c1-0.5,1.9-1.8,2.8-3.8c1.5-3.5,2-7.5,1.8-12.2c-0.1-3.1-0.8-6.2-1.8-9.2c-0.4-1.2,0.2-2.6,1.4-3
		c1.2-0.4,2.6,0.2,3,1.4c1.2,3.4,1.9,7,2.1,10.6c0.3,5.4-0.5,10.1-2.2,14.2c-0.2,0.6-0.5,1.2-0.8,1.7c7.9-1.9,14.5-8.8,14.9-16.6
		C83.4,85.7,80.2,79.7,74.5,76.2z"/><path fill="#0a3960" d="M77.1,72.1c-4.4-2.8-7.8-5.6-10.5-8.8l-0.7-0.9c-0.9-1.1-2.7-1.1-3.6,0l-0.8,0.9c-2.7,3.2-6.1,6.1-10.5,8.8
		c-7.1,4.5-11.1,12-10.7,20.2c0.6,10.8,10.3,20.5,21.6,21.5c0.7,0.1,1.5,0.1,2.2,0.1c12.3,0,23.2-9.9,23.8-21.7c0,0,0,0,0,0
		C88.2,84.2,84.2,76.6,77.1,72.1z M83,92.1c-0.4,7.8-7,14.8-14.9,16.6c0.3-0.5,0.5-1.1,0.8-1.7c1.7-4.1,2.4-8.8,2.2-14.2
		c-0.2-3.6-0.9-7.2-2.1-10.6c-0.4-1.2-1.8-1.9-3-1.4c-1.2,0.4-1.9,1.8-1.4,3c1.1,3,1.7,6.1,1.8,9.2c0.2,4.7-0.4,8.7-1.8,12.2
		c-0.8,2-1.8,3.3-2.8,3.8c-8.8-1.1-16.3-8.6-16.8-17c-0.3-6.4,2.8-12.4,8.5-15.9c4.3-2.7,7.7-5.5,10.5-8.6c2.8,3.1,6.3,5.9,10.5,8.6
		C80.2,79.7,83.4,85.7,83,92.1z"/><path fill="#f8bdaa" d="M48.3,28.5c-4.3-2.7-7.7-5.5-10.5-8.5c-2.8,3.1-6.3,5.9-10.5,8.6c-5.6,3.6-8.8,9.5-8.5,15.9
		c0.4,8.4,7.9,15.9,16.8,17c1-0.5,1.9-1.8,2.8-3.8c1.5-3.5,2-7.5,1.8-12.2c-0.1-3.1-0.8-6.2-1.8-9.2c-0.4-1.2,0.2-2.6,1.4-3
		c1.2-0.4,2.6,0.2,3,1.4c1.2,3.4,1.9,7,2.1,10.6c0.3,5.4-0.5,10.1-2.2,14.2c-0.2,0.6-0.5,1.2-0.8,1.7c7.9-1.9,14.5-8.8,14.9-16.6
		C57.2,38.1,54,32.1,48.3,28.5z"/><path fill="#0a3960" d="M61.6,44.7C61.6,44.7,61.6,44.7,61.6,44.7c0.4-8-3.7-15.7-10.7-20.2c-4.4-2.8-7.8-5.6-10.5-8.8l-0.7-0.9
		c-0.9-1.1-2.7-1.1-3.6,0l-0.8,0.9c-2.7,3.2-6.1,6.1-10.5,8.8C17.6,29,13.6,36.6,14,44.7c0.6,10.8,10.3,20.5,21.6,21.5
		c0.7,0.1,1.5,0.1,2.2,0.1C50.1,66.4,61,56.4,61.6,44.7z M41.9,61.1c0.3-0.5,0.5-1.1,0.8-1.7c1.7-4.1,2.4-8.8,2.2-14.2
		c-0.2-3.6-0.9-7.2-2.1-10.6c-0.4-1.2-1.8-1.9-3-1.4c-1.2,0.4-1.9,1.8-1.4,3c1.1,3,1.7,6.1,1.8,9.2c0.2,4.7-0.4,8.7-1.8,12.2
		c-0.8,2-1.8,3.3-2.8,3.8c-8.8-1.1-16.3-8.6-16.8-17c-0.3-6.4,2.8-12.4,8.5-15.9c4.3-2.7,7.7-5.5,10.5-8.6c2.8,3.1,6.3,5.9,10.5,8.5
		c5.6,3.6,8.8,9.5,8.5,15.9C56.4,52.3,49.9,59.2,41.9,61.1z"/><path fill="#f8bdaa" d="M100.7,28.5c-4.3-2.7-7.7-5.5-10.5-8.6c-2.8,3.1-6.3,5.9-10.5,8.6c-5.6,3.6-8.8,9.5-8.5,15.9
		c0.4,8.4,7.9,15.9,16.8,17c1-0.5,1.9-1.8,2.8-3.8c1.5-3.5,2-7.5,1.8-12.2c-0.1-3.1-0.8-6.2-1.8-9.2c-0.4-1.2,0.2-2.6,1.4-3
		c1.2-0.4,2.6,0.2,3,1.4c1.2,3.4,1.9,7,2.1,10.6c0.3,5.4-0.5,10.1-2.2,14.2c-0.2,0.6-0.5,1.2-0.8,1.7c7.9-1.9,14.5-8.8,14.9-16.6
		C109.5,38.1,106.4,32.1,100.7,28.5z"/><path fill="#0a3960" d="M103.3,24.5c-4.4-2.8-7.8-5.6-10.5-8.8L92,14.8c-0.9-1.1-2.7-1.1-3.6,0l-0.8,0.9c-2.7,3.2-6.1,6.1-10.5,8.8
		C70,29,66,36.6,66.4,44.7C67,55.5,76.7,65.2,88,66.3c0.7,0.1,1.5,0.1,2.2,0.1c12.3,0,23.2-9.9,23.8-21.7c0,0,0,0,0,0
		C114.4,36.6,110.4,29,103.3,24.5z M109.2,44.5c-0.4,7.8-7,14.8-14.9,16.6c0.3-0.5,0.5-1.1,0.8-1.7c1.7-4.1,2.4-8.8,2.2-14.2
		c-0.2-3.6-0.9-7.2-2.1-10.6c-0.4-1.2-1.8-1.9-3-1.4c-1.2,0.4-1.9,1.8-1.4,3c1.1,3,1.7,6.1,1.8,9.2c0.2,4.7-0.4,8.7-1.8,12.2
		c-0.8,2-1.8,3.3-2.8,3.8c-8.8-1.1-16.3-8.6-16.8-17c-0.3-6.4,2.8-12.4,8.5-15.9c4.3-2.7,7.7-5.5,10.5-8.6c2.8,3.1,6.3,5.9,10.5,8.6
		C106.4,32.1,109.5,38.1,109.2,44.5z"/></svg>