<svg xmlns="http://www.w3.org/2000/svg" id="Outlined_1_" enable-background="new 0 0 128 128" viewBox="0 0 128 128"><path fill="#a7553e" d="M44.5,80.2c0-0.1,0.1-0.1,0.1-0.2c0.3-0.8,0.6-1.7,1-2.5c0-0.1,0.1-0.1,0.1-0.2c0.8-1.7,1.6-3.5,2.6-5.2
		c0-0.1,0.1-0.2,0.1-0.2c0.5-0.8,1-1.7,1.5-2.5c0.1-0.1,0.1-0.2,0.2-0.3c0.5-0.8,1.1-1.6,1.7-2.4c0.1-0.1,0.2-0.2,0.3-0.4
		c0.6-0.8,1.2-1.6,1.8-2.3c0.1-0.1,0.2-0.2,0.3-0.3c0.6-0.8,1.3-1.6,2-2.3c0.1-0.1,0.1-0.1,0.2-0.2c0.7-0.8,1.5-1.6,2.3-2.4
		c0.8-0.8,1.6-1.5,2.4-2.3c0.1-0.1,0.1-0.1,0.2-0.2c0.8-0.7,1.6-1.4,2.4-2c0.1-0.1,0.2-0.2,0.3-0.3c0.8-0.6,1.6-1.2,2.4-1.8
		c0.1-0.1,0.2-0.2,0.3-0.3c0.8-0.6,1.6-1.1,2.4-1.7c0.1-0.1,0.2-0.1,0.3-0.2c0.8-0.5,1.6-1,2.5-1.5c0.1,0,0.2-0.1,0.2-0.1
		c0.9-0.5,1.7-1,2.6-1.4c0,0,0,0,0,0c0.9-0.4,1.7-0.8,2.6-1.2c0.1,0,0.2-0.1,0.2-0.1c0.8-0.3,1.6-0.7,2.4-1c0.1,0,0.2-0.1,0.2-0.1
		C77.8,29.7,65,18.8,49.7,18.8c-17.1,0-31,13.9-31,31C18.8,65,29.7,77.7,44.5,80.2z M42.6,36.6c4.6,0,4.6,7.1,0,7.1
		C38,43.8,38,36.6,42.6,36.6z M35.4,27.1c4.6,0,4.6,7.1,0,7.1C30.8,34.2,30.8,27.1,35.4,27.1z M30.8,39c4.6,0,4.6,7.1,0,7.1
		C26.2,46.1,26.2,39,30.8,39z"/><path fill="#0a3960" d="M30.8 46.1c4.6 0 4.6-7.1 0-7.1C26.2 39 26.2 46.1 30.8 46.1zM35.4 34.2c4.6 0 4.6-7.1 0-7.1C30.8 27.1 30.8 34.2 35.4 34.2zM42.6 43.8c4.6 0 4.6-7.1 0-7.1C38 36.6 38 43.8 42.6 43.8z"/><path fill="#f0f2f0" d="M64.6,59.7c-0.9,0.8-1.7,1.6-2.5,2.4c-6.6,6.6-11.5,14.3-13.6,21.5c-1.1,3.8-1.4,7.4-0.8,10.3
		c0.4,2.2,1.3,3.9,2.7,5.3c1.1,1.1,2.4,1.8,3.9,2.3c8.5,2.8,22.1-3,33.2-14.1c11-11,16.8-24.7,14.1-33.1c-0.5-1.5-1.2-2.8-2.3-3.8
		c-1.4-1.4-3.2-2.3-5.3-2.7c-1-0.2-2.1-0.3-3.2-0.3c-2.2,0-4.6,0.4-7.1,1.1C77.2,50.3,70.6,54.3,64.6,59.7z M88.8,53.3
		c1.9,0.2,3.7,0.9,4.9,2.1c0.1,0.1,0.2,0.1,0.2,0.2c1,1,1.7,2.3,2,3.9c1.3,6.1-3.5,16-12,24.5c-7.5,7.5-16.2,12.2-22.3,12.2
		c-0.8,0-1.5-0.1-2.2-0.2c-1.5-0.3-2.8-1-3.8-1.9c-0.1-0.1-0.2-0.2-0.2-0.3c-1.2-1.3-1.9-3-2-4.9c-0.6-6.2,4.2-15.3,12.1-23.3
		C73.4,57.5,82.5,52.8,88.8,53.3z"/><path fill="#a7553e" d="M106.7,61.7c-1,9.1-6.8,19.8-16,29c-9.2,9.2-19.9,14.9-29,16c4.1,1.7,8.5,2.5,13,2.5c9.2,0,17.9-3.6,24.4-10.1
		c6.5-6.5,10.1-15.2,10.1-24.4C109.2,70.2,108.3,65.8,106.7,61.7z"/><path fill="#0a3960" d="M102.5,47C102.5,47,102.5,47,102.5,47C102.5,47,102.5,47,102.5,47c-2.1-2.1-4.7-3.5-7.8-4.1
		c-2.9-0.6-6.3-0.5-9.9,0.3C81.8,26.4,67.1,14,49.7,14C30,14,14,30,14,49.7c0,17.4,12.4,32,29.2,35.1c-0.8,3.6-0.9,7-0.3,9.9
		c0.6,3.1,1.9,5.7,4.1,7.8c0,0,0,0,0,0s0,0,0,0c0,0,0,0,0,0c0,0,0,0,0,0c7.4,7.3,17.2,11.4,27.6,11.4c10.5,0,20.4-4.1,27.8-11.5
		c7.4-7.4,11.5-17.3,11.5-27.8c0,0,0,0,0,0C114,64.2,109.9,54.4,102.5,47z M74.7,109.2c-4.5,0-8.9-0.9-13-2.5c9.1-1,19.8-6.8,29-16
		c9.2-9.2,14.9-19.9,16-29c1.7,4.1,2.5,8.5,2.5,13c0,9.2-3.6,17.9-10.1,24.4C92.6,105.6,83.9,109.2,74.7,109.2z M49.7,18.8
		c15.2,0,28,11,30.5,25.8c-0.1,0-0.2,0.1-0.2,0.1c-0.8,0.3-1.6,0.6-2.4,1c-0.1,0-0.2,0.1-0.2,0.1c-0.9,0.4-1.7,0.8-2.6,1.2
		c0,0,0,0,0,0c-0.9,0.4-1.7,0.9-2.6,1.4c-0.1,0-0.2,0.1-0.2,0.1c-0.8,0.5-1.7,1-2.5,1.5c-0.1,0.1-0.2,0.1-0.3,0.2
		c-0.8,0.5-1.6,1.1-2.4,1.7c-0.1,0.1-0.2,0.2-0.3,0.3c-0.8,0.6-1.6,1.2-2.4,1.8c-0.1,0.1-0.2,0.2-0.3,0.3c-0.8,0.7-1.6,1.3-2.4,2
		c-0.1,0.1-0.1,0.1-0.2,0.2c-0.8,0.7-1.6,1.5-2.4,2.3c-0.8,0.8-1.5,1.6-2.3,2.4c-0.1,0.1-0.1,0.1-0.2,0.2c-0.7,0.8-1.4,1.5-2,2.3
		C54.1,63.7,54,63.8,54,64c-0.6,0.8-1.2,1.6-1.8,2.3c-0.1,0.1-0.2,0.2-0.3,0.4c-0.6,0.8-1.1,1.6-1.7,2.4c-0.1,0.1-0.1,0.2-0.2,0.3
		c-0.5,0.8-1,1.6-1.5,2.5c0,0.1-0.1,0.2-0.1,0.2c-1,1.7-1.9,3.5-2.6,5.2c0,0.1-0.1,0.1-0.1,0.2c-0.4,0.8-0.7,1.7-1,2.5
		c0,0.1-0.1,0.1-0.1,0.2C29.7,77.7,18.8,65,18.8,49.7C18.8,32.7,32.6,18.8,49.7,18.8z M93.8,47.6c2.1,0.4,3.9,1.3,5.3,2.7
		c1,1,1.8,2.3,2.3,3.8c2.8,8.5-3,22.1-14.1,33.1c-11,11-24.7,16.8-33.2,14.1c-1.5-0.5-2.8-1.2-3.9-2.3c-1.4-1.4-2.3-3.1-2.7-5.3
		c-0.6-2.9-0.3-6.4,0.8-10.3c2.1-7.2,6.9-14.8,13.6-21.5c0.8-0.8,1.7-1.6,2.5-2.4c6-5.4,12.6-9.3,18.9-11.2c2.5-0.8,4.9-1.1,7.1-1.1
		C91.8,47.3,92.8,47.4,93.8,47.6z"/><path fill="#aaa" d="M58.1,88.3c0.1,1,0.4,1.7,0.9,2.2c0,0,0.1,0.1,0.1,0.1c0.3,0.3,0.8,0.5,1.3,0.6c3.9,0.8,12.1-2.5,20.2-10.7
		c8.1-8.1,11.5-16.3,10.7-20.1c-0.1-0.6-0.3-1-0.6-1.4c0,0-0.1-0.1-0.1-0.1c-0.5-0.5-1.2-0.8-2.1-0.9c-3.9-0.3-11.6,2.9-19.5,10.8
		C60.9,76.7,57.7,84.5,58.1,88.3z"/><path fill="#0a3960" d="M53.3,88.7c0.2,2,0.9,3.7,2,4.9c0.1,0.1,0.2,0.2,0.2,0.3c1,1,2.3,1.7,3.8,1.9c0.7,0.2,1.4,0.2,2.2,0.2
		c6.2,0,14.8-4.6,22.3-12.2c8.5-8.5,13.3-18.3,12-24.5c-0.3-1.5-1-2.8-2-3.9c-0.1-0.1-0.2-0.1-0.2-0.2c-1.3-1.2-3-1.9-4.9-2.1
		c-6.2-0.6-15.4,4.2-23.3,12.1C57.5,73.4,52.8,82.5,53.3,88.7z M88.4,58.1c0.9,0.1,1.6,0.4,2.1,0.9c0,0,0.1,0.1,0.1,0.1
		c0.3,0.3,0.5,0.8,0.6,1.4c0.8,3.9-2.5,12-10.7,20.1c-8.1,8.1-16.3,11.5-20.2,10.7c-0.6-0.1-1-0.3-1.3-0.6c0,0-0.1-0.1-0.1-0.1
		c-0.5-0.5-0.8-1.2-0.9-2.2c-0.3-3.9,2.9-11.6,10.8-19.5C76.7,60.9,84.4,57.7,88.4,58.1z"/></svg>