<svg xmlns="http://www.w3.org/2000/svg" enable-background="new 0 0 128 128" viewBox="0 0 128 128"><path fill="#c144ff" d="M96.6,59C96.6,59,96.5,59,96.6,59c-0.3-0.2-0.5-0.4-0.7-0.7c0,0-0.1,0-0.1-0.1c-0.3-0.2-0.5-0.5-0.8-0.8
		c-0.1-0.1-0.1-0.1-0.2-0.2c-0.2-0.2-0.4-0.4-0.6-0.7c-0.1-0.1-0.2-0.2-0.2-0.3c-0.3-0.3-0.5-0.6-0.8-1c-0.8-1-1.4-2.1-1.9-3.3
		c-0.5,0.4-1,0.8-1.5,1.2c-1.7,1.3-3.4,2.1-5.2,2.6c-1,0.3-2-0.1-2.6-0.9c-1.4-2-2.5-4.4-3.1-7.2c-1.1,0.6-2.2,1.1-3.5,1.5
		c-0.4,0.1-0.8,0.2-1.2,0.3c-0.1,0-0.2,0.1-0.4,0.1c-0.3,0.1-0.6,0.1-0.9,0.2c-0.1,0-0.3,0-0.4,0.1c-0.3,0-0.6,0.1-0.9,0.1
		c-0.1,0-0.3,0-0.4,0c0,0-0.1,0-0.1,0c-6,7.9-15.4,12.1-23.8,15.8l-3,1.3c-10.8,4.8-22.5,13.6-17.1,28.3
		c4.2,11.5,16.6,14.4,25.9,13.4C79.5,106.2,91.6,77.2,96.6,59z"/><path fill="#00bf4c" d="M93.1,34.5c-0.8-0.4-1.7-0.8-2.6-1.1c-4.2-1.4-8.8-1.1-12.7,0.9c-4.1,2.1-7.1,5.6-8.6,10
		c-0.1,0.4-0.3,0.8-0.4,1.2c0.3,0,0.6,0,0.9,0c1.6,0,3-0.3,4.3-0.7c2-0.6,3.7-1.6,5.1-2.9c0.7-0.6,1.7-0.8,2.5-0.5
		c0.9,0.4,1.4,1.2,1.5,2.1c0.1,2.7,0.7,5.2,1.7,7.2c0.7-0.3,1.3-0.7,2-1.2c1.9-1.5,3-2.7,3.4-3.4c0.5-0.6,1.2-1,1.9-1
		c0.2,0,0.3,0,0.5,0.1c0.9,0.2,1.7,1,1.8,1.9c0.3,1.9,1.1,3.8,2.4,5.4c1.3,1.8,2.7,2.9,3.7,3.6c0,0,0.1,0.1,0.1,0.1
		c0.1-0.4,0.3-0.7,0.4-1.1C103.8,47.1,100.4,38.4,93.1,34.5z"/><path fill="#0a3960" d="M97.4,31.6c0.9-1.8,1.7-4.2,2-7.2c0.3-3.8-0.5-6.8-1.1-8.8c-0.4-1.2-1.8-1.9-3-1.5c-1.2,0.4-1.9,1.8-1.5,3
		c0.4,1.2,1.1,3.7,0.9,6.8c-0.2,2.2-0.8,3.9-1.4,5.3c-0.4-0.2-0.8-0.3-1.2-0.5C86.6,27,80.7,27.4,75.6,30
		c-5.2,2.6-9.1,7.2-10.9,12.8c-0.5,1.5-0.8,3-1,4.6c-0.1,1.1,0.5,2.1,1.5,2.4c-5.2,5.4-12.6,8.6-19.7,11.8l-3,1.3
		c-17.6,7.9-24.8,20.4-19.6,34.3c4.3,11.8,16.1,16.7,27.1,16.7c1.3,0,2.6-0.1,3.8-0.2c28.4-3.1,41.5-32.6,47-52
		c0.3,0.2,0.7,0.3,1.1,0.3c0.8,0,1.6-0.4,2.1-1.2c0.7-1.3,1.4-2.7,1.9-4.2c0,0,0,0,0,0C108.8,47.2,105.3,37,97.4,31.6z M27.2,95.6
		c-5.4-14.7,6.3-23.5,17.1-28.3l3-1.3c8.4-3.7,17.8-7.8,23.8-15.8c0,0,0.1,0,0.1,0c0.1,0,0.3,0,0.4,0c0.3,0,0.6-0.1,0.9-0.1
		c0.1,0,0.3,0,0.4-0.1c0.3-0.1,0.6-0.1,0.9-0.2c0.1,0,0.2-0.1,0.4-0.1c0.4-0.1,0.8-0.2,1.2-0.3c1.2-0.4,2.4-0.9,3.5-1.5
		c0.6,2.7,1.6,5.2,3.1,7.2c0.6,0.8,1.6,1.2,2.6,0.9c1.7-0.5,3.4-1.4,5.2-2.6c0.6-0.4,1.1-0.8,1.5-1.2c0.5,1.1,1.2,2.2,1.9,3.3
		c0.3,0.3,0.5,0.7,0.8,1c0.1,0.1,0.2,0.2,0.2,0.3c0.2,0.2,0.4,0.5,0.6,0.7c0.1,0.1,0.1,0.1,0.2,0.2c0.3,0.3,0.5,0.5,0.8,0.8
		c0,0,0.1,0,0.1,0.1c0.2,0.2,0.5,0.4,0.7,0.6c0,0,0,0,0.1,0.1c-5,18.2-17.1,47.2-43.4,50.1C43.9,110.1,31.5,107.1,27.2,95.6z
		 M101.2,55.1c-0.1,0.4-0.3,0.8-0.4,1.1c0,0-0.1-0.1-0.1-0.1c-1-0.7-2.4-1.9-3.7-3.6c-1.3-1.7-2.1-3.5-2.4-5.4
		c-0.2-0.9-0.9-1.7-1.8-1.9c-0.2,0-0.3-0.1-0.5-0.1c-0.8,0-1.5,0.4-1.9,1c-0.4,0.6-1.5,1.9-3.4,3.4c-0.7,0.5-1.3,0.9-2,1.2
		c-1-2-1.6-4.5-1.7-7.2c0-0.9-0.6-1.8-1.5-2.1c-0.9-0.4-1.8-0.2-2.5,0.5c-1.5,1.4-3.1,2.3-5.1,2.9c-1.3,0.4-2.7,0.6-4.3,0.7
		c-0.3,0-0.6,0-0.9,0c0.1-0.4,0.2-0.8,0.4-1.2c1.4-4.4,4.5-8,8.6-10c4-2,8.5-2.3,12.7-0.9c1,0.3,1.8,0.7,2.6,1.1
		C100.4,38.4,103.8,47.1,101.2,55.1z"/></svg>