<svg xmlns="http://www.w3.org/2000/svg" id="Outlined_1_" enable-background="new 0 0 128 128" viewBox="0 0 128 128"><path fill="#00bf4c" d="M71.3,23.6c1.3-1.3,1.9-3.2,2.1-4.7c-1.5,0.2-3.4,0.8-4.7,2.1c-1.3,1.3-1.9,3.2-2.1,4.7
		C68.1,25.5,70,24.9,71.3,23.6z"/><path fill="#c144ff" d="M70.6 99.3C70.6 99.3 70.6 99.3 70.6 99.3c-.1 0-.2-.1-.3-.1-.3-.1-.6-.2-.8-.3-.1-.1-.3-.1-.4-.2-.2-.1-.5-.2-.7-.3-.1-.1-.3-.1-.4-.2-.3-.2-.7-.4-1-.6-.1 0-.1-.1-.1-.1-.3-.2-.6-.4-.8-.6-.1-.1-.2-.2-.3-.3-.2-.2-.4-.4-.6-.6C65 96 64.9 96 64.8 95.9c-.2-.3-.5-.5-.7-.8 0 0 0-.1-.1-.1 0 0 0 0 0 0 0 0 0 0 0 0 0 0-.1.1-.1.1-.2.3-.4.5-.7.8C63.1 96 63 96.1 63 96.1c-.2.2-.4.4-.6.6-.1.1-.2.2-.3.2-.6.5-1.3 1-2 1.3-.1.1-.2.1-.3.2-.3.1-.5.3-.8.4-.1 0-.2.1-.3.1-.3.1-.6.2-1 .3-.1 0-.1 0-.2.1 0 0 0 0 0 0-.2.5-.4 1-.5 1.6-.1.4-.1.8-.1 1.2 0 3.9 3.2 7.1 7.1 7.1s7.1-3.2 7.1-7.1C71.1 101.2 70.9 100.2 70.6 99.3zM80.7 87.8c0-.9-.2-1.9-.6-2.8C80 85 80 85 79.9 85c-.1 0-.3-.1-.4-.1-.2-.1-.5-.2-.7-.2-.1-.1-.3-.1-.4-.2-.2-.1-.5-.2-.7-.3-.1-.1-.2-.1-.3-.2-.3-.2-.7-.4-1-.6 0 0 0 0-.1 0-.3-.2-.6-.4-.9-.6-.1-.1-.2-.2-.3-.2-.2-.2-.4-.4-.6-.5-.1-.1-.2-.2-.3-.3-.2-.2-.4-.4-.5-.6-.1-.1-.2-.2-.2-.3 0 0-.1-.1-.1-.1 0 0-.1.1-.1.1-.1.1-.2.2-.2.3-.2.2-.3.4-.5.6-.1.1-.2.2-.3.3-.2.2-.4.4-.6.5-.1.1-.2.2-.3.2-.3.2-.6.5-.9.7 0 0 0 0 0 0-.3.2-.6.4-1 .6-.1.1-.2.1-.3.2-.2.1-.5.2-.7.3-.1.1-.3.1-.4.2-.2.1-.5.2-.7.2-.1 0-.3.1-.4.1-.1 0-.1 0-.2 0-.4.9-.6 1.8-.6 2.8 0 1.3.4 2.5 1 3.6 1.1 1.8 3 3.1 5.1 3.4.4.1.7.1 1 .1C77.5 95 80.7 91.7 80.7 87.8zM55.5 94.9c2.2-.3 4.1-1.6 5.1-3.4.7-1.1 1-2.4 1-3.7 0-.9-.2-1.9-.6-2.8-.1 0-.1 0-.2-.1-.1 0-.3-.1-.4-.1-.2-.1-.5-.2-.7-.2-.1 0-.3-.1-.4-.2-.2-.1-.5-.2-.7-.3-.1-.1-.2-.1-.3-.2-.3-.2-.7-.4-1-.6 0 0-.1 0-.1-.1-.3-.2-.6-.4-.8-.6-.1-.1-.2-.2-.3-.2-.2-.2-.4-.3-.6-.5-.1-.1-.2-.2-.3-.3-.2-.2-.3-.4-.5-.6-.1-.1-.2-.2-.2-.3 0 0-.1-.1-.1-.1 0 0-.1.1-.1.1-.1.1-.2.2-.2.3-.2.2-.3.4-.5.6-.1.1-.2.2-.3.3-.2.2-.4.4-.6.5-.1.1-.2.2-.3.3-.3.2-.6.4-.8.6 0 0 0 0-.1 0-.3.2-.6.4-1 .6-.1.1-.2.1-.3.2-.2.1-.5.2-.7.3-.1.1-.3.1-.4.1-.2.1-.5.2-.7.3-.1 0-.2.1-.4.1C48 85 48 85 47.9 85c-.4.9-.6 1.8-.6 2.8C47.3 92.1 51.2 95.6 55.5 94.9zM70.1 77.2c0-.1.1-.2.2-.2.6-1.1.9-2.3.9-3.4 0-.9-.2-1.9-.6-2.8-.1 0-.1 0-.2-.1-.1 0-.3-.1-.4-.1-.2-.1-.5-.2-.7-.2-.1 0-.3-.1-.4-.2-.2-.1-.5-.2-.7-.3-.1-.1-.2-.1-.3-.2-.3-.2-.7-.4-1-.6 0 0-.1 0-.1-.1-.3-.2-.6-.4-.8-.6-.1-.1-.2-.2-.3-.2-.2-.2-.4-.3-.6-.5-.1-.1-.2-.2-.3-.3-.2-.2-.3-.4-.5-.6-.1-.1-.2-.2-.2-.3 0 0-.1-.1-.1-.1 0 0-.1.1-.1.1-.1.1-.2.2-.2.3-.2.2-.3.4-.5.6-.1.1-.2.2-.3.3-.2.2-.4.4-.6.5-.1.1-.2.2-.3.3-.3.2-.6.4-.8.6 0 0 0 0-.1 0-.3.2-.6.4-1 .6-.1.1-.2.1-.3.2-.2.1-.5.2-.7.3-.1.1-.3.1-.4.2-.2.1-.5.2-.7.3-.1 0-.2.1-.4.1-.1 0-.1 0-.2.1-.4.9-.6 1.8-.6 2.8 0 1.2.3 2.4.9 3.4.1.1.1.2.2.2 1.1 1.8 3 3.1 5.1 3.4.1 0 .2 0 .3.1.5 0 1 0 1.4 0 .1 0 .3-.1.4-.1C67.2 80.2 69 79 70.1 77.2zM90.2 73.5c0-.9-.2-1.9-.6-2.8-.1 0-.1 0-.2-.1-.1 0-.3-.1-.4-.1-.2-.1-.5-.2-.7-.2-.1 0-.3-.1-.4-.2-.2-.1-.5-.2-.7-.3-.1-.1-.2-.1-.3-.2-.3-.2-.7-.4-1-.6 0 0 0 0 0 0-.3-.2-.6-.4-.9-.7-.1-.1-.2-.1-.3-.2-.2-.2-.4-.4-.6-.5-.1-.1-.2-.2-.3-.3-.2-.2-.4-.4-.5-.6-.1-.1-.2-.2-.2-.3 0 0-.1-.1-.1-.1 0 .1-.1.1-.1.1-.1.1-.2.2-.2.3-.2.2-.3.4-.5.6-.1.1-.2.2-.3.3-.2.2-.4.4-.6.6-.1.1-.2.1-.2.2-.6.5-1.2.9-1.9 1.3-.1.1-.2.1-.3.2-.2.1-.5.2-.7.3-.1.1-.3.1-.4.1-.2.1-.5.2-.7.2-.1 0-.3.1-.4.1-.1 0-.1 0-.2 0-.4.9-.6 1.8-.6 2.8 0 1.2.3 2.4.9 3.4.1.1.1.2.2.2 1.1 1.8 3 3.1 5.1 3.4.1 0 .2 0 .3.1C86.5 81.1 90.2 77.7 90.2 73.5zM45.7 80.6c.1 0 .2 0 .3-.1 2.1-.3 4-1.6 5.1-3.4 0-.1.1-.2.2-.2.6-1.1.9-2.3.9-3.4 0-.9-.2-1.9-.6-2.8-.1 0-.1 0-.2-.1-.1 0-.3-.1-.4-.1-.2-.1-.5-.2-.7-.2-.1 0-.3-.1-.4-.2-.2-.1-.5-.2-.7-.3-.1-.1-.2-.1-.3-.2-.3-.2-.7-.4-1-.6 0 0-.1 0-.1-.1-.3-.2-.6-.4-.8-.6-.1-.1-.2-.2-.3-.2-.2-.2-.4-.3-.6-.5-.1-.1-.2-.2-.3-.3-.2-.2-.3-.4-.5-.6-.1-.1-.2-.2-.2-.3 0 0-.1-.1-.1-.1 0 0-.1.1-.1.1-.1.1-.2.2-.2.3-.2.2-.3.4-.5.6-.1.1-.2.2-.3.3-.2.2-.4.4-.6.5-.1.1-.2.2-.3.3-.3.2-.6.4-.8.6 0 0 0 0-.1 0-.3.2-.6.4-1 .6-.1.1-.2.1-.3.2-.2.1-.5.2-.7.3-.1.1-.3.1-.4.2-.2.1-.5.2-.7.3-.1 0-.2.1-.4.1-.1 0-.1 0-.2.1-.4.9-.6 1.8-.6 2.8C37.8 77.7 41.5 81.1 45.7 80.6zM57.7 48.4c.1.1.1.2.2.2 1.1 1.8 3 3.1 5.1 3.4.1 0 .2 0 .3.1.5 0 1 0 1.4 0 .1 0 .2 0 .3-.1 2.1-.3 4-1.6 5.1-3.4 0-.1.1-.2.2-.2.6-1.1.9-2.3.9-3.4 0-3.9-3.2-7.1-7.1-7.1S56.9 41 56.9 45C56.9 46.1 57.2 47.3 57.7 48.4zM76.8 48.4c.1.1.1.2.2.2 1.1 1.8 3 3.1 5.1 3.4.1 0 .2 0 .3.1.5 0 1 0 1.4 0 .1 0 .2 0 .3-.1 2.1-.3 4-1.6 5.1-3.4 0-.1.1-.2.2-.2.6-1.1.9-2.2.9-3.4 0-3.9-3.2-7.1-7.1-7.1-3.9 0-7.1 3.2-7.1 7.1C75.9 46.1 76.2 47.3 76.8 48.4zM38.7 48.4c.1.1.1.2.2.2 1.1 1.8 3 3.1 5.1 3.4.1 0 .2 0 .3.1.5 0 1 0 1.4 0 .1 0 .2 0 .3-.1 2.1-.3 4-1.6 5.1-3.4 0-.1.1-.2.2-.2.6-1.1.9-2.3.9-3.4 0-3.9-3.2-7.1-7.1-7.1-3.9 0-7.1 3.2-7.1 7.1C37.8 46.1 38.1 47.3 38.7 48.4zM48.4 62.9c1.1 1.8 3 3.1 5.1 3.4.1 0 .2 0 .3.1.5 0 1 0 1.4 0 .1 0 .2 0 .3-.1 2.1-.3 4-1.6 5.1-3.4 0-.1.1-.2.2-.2.6-1.1.9-2.3.9-3.4 0-.9-.2-1.9-.6-2.8-2.6-.7-5-2.2-6.6-4.4-1.6 2.2-3.9 3.7-6.6 4.4-.4.9-.6 1.8-.6 2.8 0 1.2.3 2.4.9 3.4C48.3 62.7 48.3 62.8 48.4 62.9zM79.6 62.9c0-.1.1-.2.2-.2.6-1.1.9-2.2.9-3.4 0-.9-.2-1.9-.6-2.8-2.6-.7-5-2.2-6.6-4.4-1.6 2.2-3.9 3.7-6.6 4.4-.4.9-.6 1.8-.6 2.8 0 1.2.3 2.4.9 3.4.1.1.1.2.2.2 1.1 1.8 3 3.1 5.1 3.4.1 0 .2 0 .3.1.5 0 1 0 1.4 0 .1 0 .3-.1.4-.1C76.8 66 78.6 64.7 79.6 62.9zM99.7 59.2c0-3.9-3.2-7.1-7.1-7.1 0 0 0 0 0 0-1.6 2.1-3.9 3.7-6.5 4.4-.4.9-.6 1.8-.6 2.8 0 1.2.3 2.4.9 3.4.1.1.1.2.2.2 1.1 1.8 3 3.1 5.1 3.4.1 0 .2 0 .3.1C96 66.8 99.7 63.4 99.7 59.2z"/><path fill="#0a3960" d="M104.5,59.2c0-5.9-4.3-10.7-9.8-11.7c0.2-0.8,0.3-1.7,0.3-2.6c0-6.6-5.3-11.9-11.9-11.9
		c-3.9,0-7.4,1.9-9.5,4.8c-1.6-2.2-4-3.8-6.8-4.5c0.1-1,0.1-2,0-2.9c2.3-0.3,5.5-1.1,7.9-3.5c0,0,0,0,0,0c4-4,3.7-10.5,3.7-10.7
		c-0.1-1.2-1-2.2-2.2-2.3c-0.3,0-6.7-0.3-10.7,3.6c-0.9,0.9-1.6,2-2.2,3.1c-2.4-3.4-5.5-5.7-7.8-6.6c-1.2-0.5-2.6,0.1-3.1,1.3
		c-0.5,1.2,0.1,2.6,1.3,3.1c2.9,1.2,9.3,7,8.4,14.6c-3.1,0.5-5.7,2.2-7.5,4.6c-2.2-2.9-5.6-4.8-9.5-4.8C38.4,33.1,33,38.4,33,45
		c0,0.9,0.1,1.7,0.3,2.6c-5.6,1-9.8,5.9-9.8,11.7c0,5.9,4.3,10.7,9.8,11.7c-0.2,0.8-0.3,1.7-0.3,2.6c0,5.9,4.3,10.7,9.8,11.7
		c-0.2,0.8-0.3,1.7-0.3,2.6c0,5.9,4.3,10.7,9.8,11.7c0,0.2-0.1,0.4-0.1,0.6c-0.1,0.6-0.2,1.3-0.2,2c0,6.6,5.3,11.9,11.9,11.9
		s11.9-5.3,11.9-11.9c0-0.9-0.1-1.7-0.3-2.6c5.6-1,9.8-5.9,9.8-11.7c0-0.9-0.1-1.7-0.3-2.6c5.6-1,9.8-5.9,9.8-11.7
		c0-0.9-0.1-1.7-0.3-2.6C100.2,70,104.5,65.1,104.5,59.2z M64,109.2c-3.9,0-7.1-3.2-7.1-7.1c0-0.4,0-0.8,0.1-1.2
		c0.1-0.5,0.2-1,0.5-1.6c0,0,0,0,0,0c0.1,0,0.1,0,0.2-0.1c0.3-0.1,0.7-0.2,1-0.3c0.1,0,0.2-0.1,0.3-0.1c0.3-0.1,0.5-0.2,0.8-0.4
		c0.1-0.1,0.2-0.1,0.3-0.2c0.7-0.4,1.4-0.8,2-1.3c0.1-0.1,0.2-0.2,0.3-0.2c0.2-0.2,0.4-0.4,0.6-0.6c0.1-0.1,0.2-0.2,0.3-0.3
		c0.2-0.3,0.5-0.5,0.7-0.8c0,0,0.1-0.1,0.1-0.1c0,0,0,0,0,0c0,0,0,0,0,0c0,0,0,0.1,0.1,0.1c0.2,0.3,0.5,0.6,0.7,0.8
		C64.9,96,65,96,65,96.1c0.2,0.2,0.4,0.4,0.6,0.6c0.1,0.1,0.2,0.2,0.3,0.3c0.3,0.2,0.5,0.4,0.8,0.6c0.1,0,0.1,0.1,0.1,0.1
		c0.3,0.2,0.6,0.4,1,0.6c0.1,0.1,0.3,0.1,0.4,0.2c0.2,0.1,0.5,0.2,0.7,0.3c0.1,0.1,0.3,0.1,0.4,0.2c0.3,0.1,0.6,0.2,0.8,0.3
		c0.1,0,0.2,0.1,0.3,0.1c0,0,0,0,0,0c0.4,0.9,0.6,1.8,0.6,2.8C71.1,106,67.9,109.2,64,109.2z M45,37.8c3.9,0,7.1,3.2,7.1,7.1
		c0,1.2-0.3,2.4-0.9,3.4c-0.1,0.1-0.1,0.2-0.2,0.2c-1.1,1.8-3,3.1-5.1,3.4c-0.1,0-0.2,0-0.3,0.1c-0.5,0-1,0-1.4,0
		c-0.1,0-0.2,0-0.3-0.1c-2.1-0.3-4-1.6-5.1-3.4c0-0.1-0.1-0.2-0.2-0.2c-0.6-1.1-0.9-2.3-0.9-3.4C37.8,41,41,37.8,45,37.8z M64,37.8
		c3.9,0,7.1,3.2,7.1,7.1c0,1.2-0.3,2.4-0.9,3.4c-0.1,0.1-0.1,0.2-0.2,0.2c-1.1,1.8-3,3.1-5.1,3.4c-0.1,0-0.2,0-0.3,0.1
		c-0.5,0-1,0-1.4,0c-0.1,0-0.2,0-0.3-0.1c-2.1-0.3-4-1.6-5.1-3.4c0-0.1-0.1-0.2-0.2-0.2c-0.6-1.1-0.9-2.3-0.9-3.4
		C56.9,41,60.1,37.8,64,37.8z M83,37.8c3.9,0,7.1,3.2,7.1,7.1c0,1.2-0.3,2.3-0.9,3.4c-0.1,0.1-0.1,0.2-0.2,0.2
		c-1.1,1.8-3,3.1-5.1,3.4c-0.1,0-0.2,0-0.3,0.1c-0.5,0-1,0-1.4,0c-0.1,0-0.2,0-0.3-0.1c-2.1-0.3-4-1.6-5.1-3.4
		c0-0.1-0.1-0.2-0.2-0.2c-0.6-1.1-0.9-2.3-0.9-3.4C75.9,41,79.1,37.8,83,37.8z M65.1,80.6c-0.1,0-0.3,0-0.4,0.1c-0.5,0-1,0-1.4,0
		c-0.1,0-0.2,0-0.3-0.1c-2.1-0.3-4-1.6-5.1-3.4c0-0.1-0.1-0.2-0.2-0.2c-0.6-1.1-0.9-2.3-0.9-3.4c0-0.9,0.2-1.9,0.6-2.8
		c0.1,0,0.1,0,0.2-0.1c0.1,0,0.2-0.1,0.4-0.1c0.2-0.1,0.5-0.2,0.7-0.3c0.1,0,0.3-0.1,0.4-0.2c0.2-0.1,0.5-0.2,0.7-0.3
		c0.1-0.1,0.2-0.1,0.3-0.2c0.3-0.2,0.7-0.4,1-0.6c0,0,0,0,0.1,0c0.3-0.2,0.6-0.4,0.8-0.6c0.1-0.1,0.2-0.2,0.3-0.3
		c0.2-0.2,0.4-0.3,0.6-0.5c0.1-0.1,0.2-0.2,0.3-0.3c0.2-0.2,0.3-0.4,0.5-0.6c0.1-0.1,0.2-0.2,0.2-0.3c0,0,0.1-0.1,0.1-0.1
		c0,0,0.1,0.1,0.1,0.1c0.1,0.1,0.2,0.2,0.2,0.3c0.2,0.2,0.3,0.4,0.5,0.6c0.1,0.1,0.2,0.2,0.3,0.3c0.2,0.2,0.4,0.4,0.6,0.5
		c0.1,0.1,0.2,0.2,0.3,0.2c0.3,0.2,0.5,0.4,0.8,0.6c0,0,0.1,0,0.1,0.1c0.3,0.2,0.6,0.4,1,0.6c0.1,0.1,0.2,0.1,0.3,0.2
		c0.2,0.1,0.5,0.2,0.7,0.3c0.1,0.1,0.3,0.1,0.4,0.2c0.2,0.1,0.5,0.2,0.7,0.2c0.1,0,0.3,0.1,0.4,0.1c0.1,0,0.1,0,0.2,0.1
		c0.4,0.9,0.6,1.8,0.6,2.8c0,1.2-0.3,2.4-0.9,3.4c-0.1,0.1-0.1,0.2-0.2,0.2C69,79,67.2,80.2,65.1,80.6z M47.9,56.5
		c2.6-0.7,5-2.2,6.6-4.4c1.6,2.2,3.9,3.7,6.6,4.4c0.4,0.9,0.6,1.8,0.6,2.8c0,1.2-0.3,2.4-0.9,3.4c-0.1,0.1-0.1,0.2-0.2,0.2
		c-1.1,1.8-3,3.1-5.1,3.4c-0.1,0-0.2,0-0.3,0.1c-0.5,0-1,0-1.4,0c-0.1,0-0.2,0-0.3-0.1c-2.1-0.3-4-1.6-5.1-3.4
		c0-0.1-0.1-0.2-0.2-0.2c-0.6-1.1-0.9-2.3-0.9-3.4C47.3,58.3,47.5,57.3,47.9,56.5z M74.7,66.3c-0.1,0-0.3,0-0.4,0.1
		c-0.5,0-1,0-1.4,0c-0.1,0-0.2,0-0.3-0.1c-2.1-0.3-4-1.6-5.1-3.4c0-0.1-0.1-0.2-0.2-0.2c-0.6-1.1-0.9-2.3-0.9-3.4
		c0-0.9,0.2-1.9,0.6-2.8c2.6-0.7,5-2.2,6.6-4.4c1.6,2.2,3.9,3.7,6.6,4.4c0.4,0.9,0.6,1.8,0.6,2.8c0,1.2-0.3,2.3-0.9,3.4
		c-0.1,0.1-0.1,0.2-0.2,0.2C78.6,64.7,76.8,66,74.7,66.3z M35.4,52.1C35.4,52.1,35.4,52.1,35.4,52.1c1.6,2.1,3.9,3.7,6.6,4.4
		c0.4,0.9,0.6,1.8,0.6,2.8c0,1.2-0.3,2.4-0.9,3.4c-0.1,0.1-0.1,0.2-0.2,0.2c-1.1,1.8-3,3.1-5.1,3.4c-0.1,0-0.2,0-0.3,0.1
		c-4.2,0.4-7.9-2.9-7.9-7.1C28.3,55.3,31.5,52.1,35.4,52.1z M38.4,70.8c0.1,0,0.1,0,0.2-0.1c0.1,0,0.2-0.1,0.4-0.1
		c0.2-0.1,0.5-0.2,0.7-0.3c0.1,0,0.3-0.1,0.4-0.2c0.2-0.1,0.5-0.2,0.7-0.3c0.1-0.1,0.2-0.1,0.3-0.2c0.3-0.2,0.7-0.4,1-0.6
		c0,0,0,0,0.1,0c0.3-0.2,0.6-0.4,0.8-0.6c0.1-0.1,0.2-0.2,0.3-0.3c0.2-0.2,0.4-0.3,0.6-0.5c0.1-0.1,0.2-0.2,0.3-0.3
		c0.2-0.2,0.3-0.4,0.5-0.6c0.1-0.1,0.2-0.2,0.2-0.3c0,0,0.1-0.1,0.1-0.1c0,0,0.1,0.1,0.1,0.1c0.1,0.1,0.2,0.2,0.2,0.3
		c0.2,0.2,0.3,0.4,0.5,0.6c0.1,0.1,0.2,0.2,0.3,0.3c0.2,0.2,0.4,0.4,0.6,0.5c0.1,0.1,0.2,0.2,0.3,0.2c0.3,0.2,0.5,0.4,0.8,0.6
		c0,0,0.1,0,0.1,0.1c0.3,0.2,0.6,0.4,1,0.6c0.1,0.1,0.2,0.1,0.3,0.2c0.2,0.1,0.5,0.2,0.7,0.3c0.1,0.1,0.3,0.1,0.4,0.2
		c0.2,0.1,0.5,0.2,0.7,0.2c0.1,0,0.3,0.1,0.4,0.1c0.1,0,0.1,0,0.2,0.1c0.4,0.9,0.6,1.8,0.6,2.8c0,1.2-0.3,2.4-0.9,3.4
		c-0.1,0.1-0.1,0.2-0.2,0.2c-1.1,1.8-3,3.1-5.1,3.4c-0.1,0-0.2,0-0.3,0.1c-4.2,0.4-7.9-2.9-7.9-7.1C37.8,72.6,38,71.6,38.4,70.8z
		 M47.9,85c0.1,0,0.1,0,0.2-0.1c0.1,0,0.2-0.1,0.4-0.1c0.2-0.1,0.5-0.2,0.7-0.3c0.1,0,0.3-0.1,0.4-0.1c0.2-0.1,0.5-0.2,0.7-0.3
		c0.1-0.1,0.2-0.1,0.3-0.2c0.3-0.2,0.7-0.4,1-0.6c0,0,0,0,0.1,0c0.3-0.2,0.6-0.4,0.8-0.6c0.1-0.1,0.2-0.2,0.3-0.3
		c0.2-0.2,0.4-0.3,0.6-0.5c0.1-0.1,0.2-0.2,0.3-0.3c0.2-0.2,0.3-0.4,0.5-0.6c0.1-0.1,0.2-0.2,0.2-0.3c0,0,0.1-0.1,0.1-0.1
		c0,0,0.1,0.1,0.1,0.1c0.1,0.1,0.2,0.2,0.2,0.3c0.2,0.2,0.3,0.4,0.5,0.6c0.1,0.1,0.2,0.2,0.3,0.3c0.2,0.2,0.4,0.4,0.6,0.5
		c0.1,0.1,0.2,0.2,0.3,0.2c0.3,0.2,0.5,0.4,0.8,0.6c0,0,0.1,0,0.1,0.1c0.3,0.2,0.6,0.4,1,0.6c0.1,0.1,0.2,0.1,0.3,0.2
		c0.2,0.1,0.5,0.2,0.7,0.3c0.1,0.1,0.3,0.1,0.4,0.2c0.2,0.1,0.5,0.2,0.7,0.2c0.1,0,0.3,0.1,0.4,0.1c0.1,0,0.1,0,0.2,0.1
		c0.4,0.9,0.6,1.8,0.6,2.8c0,1.3-0.4,2.5-1,3.7c-1.1,1.8-3,3.1-5.1,3.4c-4.3,0.7-8.1-2.8-8.1-7.1C47.3,86.9,47.5,85.9,47.9,85z
		 M73.5,95c-0.3,0-0.7,0-1-0.1c-2.1-0.3-4-1.6-5.1-3.4c-0.7-1.1-1-2.4-1-3.6c0-0.9,0.2-1.9,0.6-2.8c0.1,0,0.1,0,0.2,0
		c0.1,0,0.3-0.1,0.4-0.1c0.2-0.1,0.5-0.2,0.7-0.2c0.1,0,0.3-0.1,0.4-0.2c0.2-0.1,0.5-0.2,0.7-0.3c0.1-0.1,0.2-0.1,0.3-0.2
		c0.3-0.2,0.7-0.4,1-0.6c0,0,0,0,0,0c0.3-0.2,0.6-0.4,0.9-0.7c0.1-0.1,0.2-0.2,0.3-0.2c0.2-0.2,0.4-0.4,0.6-0.5
		c0.1-0.1,0.2-0.2,0.3-0.3c0.2-0.2,0.3-0.4,0.5-0.6c0.1-0.1,0.2-0.2,0.2-0.3c0,0,0.1-0.1,0.1-0.1c0,0,0.1,0.1,0.1,0.1
		c0.1,0.1,0.2,0.2,0.2,0.3c0.2,0.2,0.3,0.4,0.5,0.6c0.1,0.1,0.2,0.2,0.3,0.3c0.2,0.2,0.4,0.4,0.6,0.5c0.1,0.1,0.2,0.2,0.3,0.2
		c0.3,0.2,0.6,0.4,0.9,0.6c0,0,0,0,0.1,0c0.3,0.2,0.6,0.4,1,0.6c0.1,0.1,0.2,0.1,0.3,0.2c0.2,0.1,0.5,0.2,0.7,0.3
		c0.1,0.1,0.3,0.1,0.4,0.2c0.2,0.1,0.5,0.2,0.7,0.2c0.1,0,0.3,0.1,0.4,0.1c0.1,0,0.1,0,0.2,0.1c0.4,0.9,0.6,1.8,0.6,2.8
		C80.7,91.7,77.5,95,73.5,95z M82.3,80.6c-0.1,0-0.2,0-0.3-0.1c-2.1-0.3-4-1.6-5.1-3.4c0-0.1-0.1-0.2-0.2-0.2
		c-0.6-1.1-0.9-2.3-0.9-3.4c0-0.9,0.2-1.9,0.6-2.8c0.1,0,0.1,0,0.2,0c0.1,0,0.3-0.1,0.4-0.1c0.2-0.1,0.5-0.2,0.7-0.2
		c0.1,0,0.3-0.1,0.4-0.1c0.2-0.1,0.5-0.2,0.7-0.3c0.1-0.1,0.2-0.1,0.3-0.2c0.7-0.4,1.3-0.8,1.9-1.3c0.1-0.1,0.2-0.1,0.2-0.2
		c0.2-0.2,0.4-0.4,0.6-0.6c0.1-0.1,0.2-0.2,0.3-0.3c0.2-0.2,0.4-0.4,0.5-0.6c0.1-0.1,0.2-0.2,0.2-0.3c0-0.1,0.1-0.1,0.1-0.1
		c0,0,0.1,0.1,0.1,0.1c0.1,0.1,0.1,0.2,0.2,0.3c0.2,0.2,0.3,0.4,0.5,0.6c0.1,0.1,0.2,0.2,0.3,0.3c0.2,0.2,0.4,0.4,0.6,0.5
		c0.1,0.1,0.2,0.2,0.3,0.2c0.3,0.2,0.6,0.5,0.9,0.7c0,0,0,0,0,0c0.3,0.2,0.6,0.4,1,0.6c0.1,0.1,0.2,0.1,0.3,0.2
		c0.2,0.1,0.5,0.2,0.7,0.3c0.1,0.1,0.3,0.1,0.4,0.2c0.2,0.1,0.5,0.2,0.7,0.2c0.1,0,0.3,0.1,0.4,0.1c0.1,0,0.1,0,0.2,0.1
		c0.4,0.9,0.6,1.8,0.6,2.8C90.2,77.7,86.5,81.1,82.3,80.6z M91.9,66.4c-0.1,0-0.2,0-0.3-0.1c-2.1-0.3-4-1.6-5.1-3.4
		c0-0.1-0.1-0.2-0.2-0.2c-0.6-1.1-0.9-2.2-0.9-3.4c0-0.9,0.2-1.9,0.6-2.8c2.6-0.7,4.9-2.2,6.5-4.4c0,0,0,0,0,0
		c3.9,0,7.1,3.2,7.1,7.1C99.7,63.4,96,66.8,91.9,66.4z M73.4,18.9c-0.2,1.5-0.8,3.4-2.1,4.7c-1.3,1.3-3.2,1.8-4.7,2.1
		c0.2-1.5,0.8-3.4,2.1-4.7C70,19.7,71.9,19.2,73.4,18.9z"/><path fill="#c144ff" d="M28.3,59.2c0,4.2,3.7,7.5,7.9,7.1c0.1,0,0.2,0,0.3-0.1c2.1-0.3,4-1.6,5.1-3.4c0-0.1,0.1-0.2,0.2-0.2
		c0.6-1.1,0.9-2.3,0.9-3.4c0-0.9-0.2-1.9-0.6-2.8c-2.6-0.7-5-2.2-6.5-4.4c0,0,0,0,0,0C31.5,52.1,28.3,55.3,28.3,59.2z"/></svg>