<svg xmlns="http://www.w3.org/2000/svg" id="Outlined_1_" enable-background="new 0 0 128 128" viewBox="0 0 128 128"><path fill="#00bf4c" d="M31.8,89.4C31.8,89.5,31.9,89.5,31.8,89.4c0.5,0.4,1,0.6,1.4,0.9c0.4,0.3,0.9,0.6,1.3,0.8
		c0.5,0.3,1,0.5,1.5,0.7c0.5,0.2,0.9,0.5,1.4,0.7c0.5,0.2,1,0.4,1.5,0.5c0.5,0.2,1,0.4,1.5,0.5c0.5,0.1,1,0.2,1.5,0.4
		c0.5,0.1,1.1,0.3,1.6,0.4c0.4,0.1,0.9,0.1,1.3,0.2c0.6,0.1,1.2,0.2,1.8,0.3c0.4,0,0.8,0,1.2,0.1c0.7,0,1.4,0.1,2.1,0.1
		c0.3,0,0.7,0,1,0c0.8,0,1.5,0,2.3-0.1c0.3,0,0.5-0.1,0.8-0.1c0.8-0.1,1.7-0.2,2.5-0.3c0.2,0,0.4-0.1,0.5-0.1
		c0.9-0.2,1.9-0.3,2.8-0.6c0.1,0,0.2-0.1,0.3-0.1c1-0.3,2-0.5,3-0.9c0.1,0,0.1-0.1,0.2-0.1c4.3-1.5,8.5-3.6,12.4-6.4
		c0,0,0.1-0.1,0.1-0.1c0.9-0.7,1.9-1.4,2.8-2.2c0.9-0.8,1.9-1.6,2.7-2.5c14.2-14.2,17.7-35.5,8.1-49.5c0,0,0,0,0,0
		c-1-1.5-2.2-2.9-3.5-4.2c-6.5-6.5-15.6-9.6-25.7-8.8c-10.2,0.8-20.2,5.6-28,13.4c-7.8,7.8-12.6,17.8-13.4,28
		c-0.8,10.1,2.3,19.2,8.8,25.7C29,87.3,30.4,88.4,31.8,89.4z M41.4,75.1l-3.1,3.1c-0.5,0.5-1.1,0.7-1.7,0.7s-1.2-0.2-1.7-0.7
		c-0.9-0.9-0.9-2.4,0-3.4l3.1-3.1c0.9-0.9,2.4-0.9,3.4,0C42.3,72.6,42.3,74.1,41.4,75.1z M51.8,79.4l-1.3,4c-0.3,1-1.3,1.7-2.3,1.7
		c-0.2,0-0.5,0-0.7-0.1c-1.3-0.4-1.9-1.7-1.5-3l1.3-4c0.4-1.3,1.7-1.9,3-1.5C51.5,76.8,52.2,78.1,51.8,79.4z M62.5,84.2
		c-0.2,0-0.3,0.1-0.5,0.1c-1.1,0-2.1-0.8-2.3-1.9l-0.8-3.9c-0.3-1.3,0.5-2.6,1.8-2.8c1.3-0.3,2.6,0.5,2.8,1.8l0.8,3.9
		C64.6,82.7,63.8,84,62.5,84.2z M76,76c-0.5,0.5-1.1,0.7-1.7,0.7c-0.6,0-1.2-0.2-1.7-0.7l-2.7-2.7c-0.9-0.9-0.9-2.4,0-3.4
		c0.9-0.9,2.4-0.9,3.4,0l2.7,2.7C77,73.6,77,75.1,76,76z M84.2,62.5c-0.2,1.1-1.2,1.9-2.3,1.9c-0.2,0-0.3,0-0.5-0.1l-3.9-0.8
		c-1.3-0.3-2.1-1.5-1.8-2.8c0.3-1.3,1.5-2.1,2.8-1.8l3.9,0.8C83.7,60,84.5,61.2,84.2,62.5z M84.9,47.5c0.4,1.3-0.3,2.6-1.5,3l-4,1.3
		c-0.2,0.1-0.5,0.1-0.7,0.1c-1,0-1.9-0.6-2.3-1.7c-0.4-1.3,0.3-2.6,1.5-3l4-1.3C83.2,45.5,84.5,46.2,84.9,47.5z M71.7,38l3.1-3.1
		c0.9-0.9,2.4-0.9,3.4,0c0.9,0.9,0.9,2.4,0,3.4l-3.1,3.1c-0.5,0.5-1.1,0.7-1.7,0.7s-1.2-0.2-1.7-0.7C70.8,40.5,70.8,39,71.7,38z
		 M61.3,33.7l1.3-4c0.4-1.3,1.7-1.9,3-1.5c1.3,0.4,1.9,1.7,1.5,3l-1.3,4c-0.3,1-1.3,1.7-2.3,1.7c-0.2,0-0.5,0-0.7-0.1
		C61.6,36.3,60.9,35,61.3,33.7z M50.6,28.9c1.3-0.3,2.6,0.5,2.8,1.8l0.8,3.9c0.3,1.3-0.5,2.6-1.8,2.8c-0.2,0-0.3,0.1-0.5,0.1
		c-1.1,0-2.1-0.8-2.3-1.9l-0.8-3.9C48.5,30.4,49.3,29.1,50.6,28.9z M58.4,40.3C63,39.8,67,41,69.9,43.9c2.9,2.9,4.1,6.9,3.5,11.5
		c-0.6,4.3-2.8,8.5-6.2,11.9c-3.4,3.4-7.6,5.6-11.9,6.2c-0.7,0.1-1.5,0.1-2.2,0.1c-3.6,0-6.9-1.3-9.3-3.7C41,67,39.7,63,40.3,58.4
		c0.6-4.3,2.8-8.5,6.2-11.9C49.9,43.1,54.1,40.9,58.4,40.3z M37.1,37.1c0.9-0.9,2.4-0.9,3.4,0l2.7,2.7c0.9,0.9,0.9,2.4,0,3.4
		c-0.5,0.5-1.1,0.7-1.7,0.7s-1.2-0.2-1.7-0.7l-2.7-2.7C36.1,39.5,36.1,38,37.1,37.1z M28.9,50.6c0.3-1.3,1.5-2.1,2.8-1.8l3.9,0.8
		c1.3,0.3,2.1,1.5,1.8,2.8c-0.2,1.1-1.2,1.9-2.3,1.9c-0.2,0-0.3,0-0.5-0.1l-3.9-0.8C29.4,53.1,28.6,51.9,28.9,50.6z M29.7,62.6
		l4-1.3c1.2-0.4,2.6,0.3,3,1.5c0.4,1.3-0.3,2.6-1.5,3l-4,1.3c-0.2,0.1-0.5,0.1-0.7,0.1c-1,0-1.9-0.6-2.3-1.7
		C27.8,64.3,28.4,63,29.7,62.6z"/><path fill="#80dfa5" d="M54.7,68.7c3.3-0.4,6.5-2.1,9.2-4.8c2.7-2.7,4.4-5.9,4.8-9.2c0.4-3-0.4-5.7-2.2-7.5C65,45.7,63,45,60.6,45
		c-0.5,0-1,0-1.5,0.1c-3.3,0.4-6.5,2.1-9.2,4.8c-2.7,2.7-4.4,5.9-4.8,9.2c-0.4,3,0.4,5.7,2.2,7.5C49,68.3,51.7,69.1,54.7,68.7z"/><path fill="#0a3960" d="M43.9 69.9c2.4 2.4 5.6 3.7 9.3 3.7.7 0 1.4 0 2.2-.1 4.3-.6 8.5-2.8 11.9-6.2 3.4-3.4 5.6-7.6 6.2-11.9.6-4.5-.6-8.6-3.5-11.5C67 41 63 39.8 58.4 40.3c-4.3.6-8.5 2.8-11.9 6.2-3.4 3.4-5.6 7.6-6.2 11.9C39.7 63 41 67 43.9 69.9zM45.1 59.1c.4-3.3 2.1-6.5 4.8-9.2 2.7-2.7 5.9-4.4 9.2-4.8.5-.1 1-.1 1.5-.1 2.4 0 4.5.8 5.9 2.3 1.8 1.8 2.6 4.4 2.2 7.5-.4 3.3-2.1 6.5-4.8 9.2-2.7 2.7-5.9 4.4-9.2 4.8-3 .4-5.7-.4-7.5-2.2C45.4 64.7 44.7 62.1 45.1 59.1zM73.4 42.1c.6 0 1.2-.2 1.7-.7l3.1-3.1c.9-.9.9-2.4 0-3.4-.9-.9-2.4-.9-3.4 0L71.7 38c-.9.9-.9 2.4 0 3.4C72.2 41.9 72.8 42.1 73.4 42.1zM38 71.7L35 74.8c-.9.9-.9 2.4 0 3.4.5.5 1.1.7 1.7.7s1.2-.2 1.7-.7l3.1-3.1c.9-.9.9-2.4 0-3.4C40.5 70.8 39 70.8 38 71.7zM39.8 43.2c.5.5 1.1.7 1.7.7s1.2-.2 1.7-.7c.9-.9.9-2.4 0-3.4l-2.7-2.7c-.9-.9-2.4-.9-3.4 0-.9.9-.9 2.4 0 3.4L39.8 43.2zM73.3 69.9c-.9-.9-2.4-.9-3.4 0-.9.9-.9 2.4 0 3.4l2.7 2.7c.5.5 1.1.7 1.7.7.6 0 1.2-.2 1.7-.7.9-.9.9-2.4 0-3.4L73.3 69.9zM62.9 36.7c.2.1.5.1.7.1 1 0 1.9-.6 2.3-1.7l1.3-4c.4-1.3-.3-2.6-1.5-3-1.2-.4-2.6.3-3 1.5l-1.3 4C60.9 35 61.6 36.3 62.9 36.7zM50.2 76.4c-1.2-.4-2.6.3-3 1.5l-1.3 4c-.4 1.3.3 2.6 1.5 3 .2.1.5.1.7.1 1 0 1.9-.6 2.3-1.7l1.3-4C52.2 78.1 51.5 76.8 50.2 76.4zM30.7 53.4l3.9.8c.2 0 .3.1.5.1 1.1 0 2.1-.8 2.3-1.9.3-1.3-.5-2.6-1.8-2.8l-3.9-.8c-1.3-.3-2.6.5-2.8 1.8C28.6 51.9 29.4 53.1 30.7 53.4zM82.4 59.7l-3.9-.8c-1.3-.3-2.6.5-2.8 1.8-.3 1.3.5 2.6 1.8 2.8l3.9.8c.2 0 .3.1.5.1 1.1 0 2.1-.8 2.3-1.9C84.5 61.2 83.7 60 82.4 59.7zM49.6 35.6c.2 1.1 1.2 1.9 2.3 1.9.2 0 .3 0 .5-.1 1.3-.3 2.1-1.5 1.8-2.8l-.8-3.9c-.3-1.3-1.5-2.1-2.8-1.8-1.3.3-2.1 1.5-1.8 2.8L49.6 35.6zM63.5 77.5c-.3-1.3-1.6-2.1-2.8-1.8-1.3.3-2.1 1.5-1.8 2.8l.8 3.9c.2 1.1 1.2 1.9 2.3 1.9.2 0 .3 0 .5-.1 1.3-.3 2.1-1.5 1.8-2.8L63.5 77.5zM30.4 67.3c.2 0 .5 0 .7-.1l4-1.3c1.3-.4 1.9-1.7 1.5-3-.4-1.3-1.7-1.9-3-1.5l-4 1.3c-1.3.4-1.9 1.7-1.5 3C28.5 66.6 29.4 67.3 30.4 67.3zM76.4 50.2c.3 1 1.3 1.7 2.3 1.7.2 0 .5 0 .7-.1l4-1.3c1.3-.4 1.9-1.7 1.5-3-.4-1.3-1.7-1.9-3-1.5l-4 1.3C76.7 47.6 76 49 76.4 50.2z"/><path fill="#a7553e" d="M99.6,46.6c1.2,13.1-4,27.3-14.9,38.2c-10.9,10.9-25.1,16.1-38.2,14.8c18.1,10.2,39.7,14.8,53.8,0.7
		C114.5,86.3,109.9,64.7,99.6,46.6z"/><path fill="#0a3960" d="M95,31.2c-0.6-0.7-1.1-1.4-1.7-2.1c-1.2-1.7-2.5-3.3-3.9-4.7c-7.5-7.5-18-11.1-29.5-10.2
		C48.6,15.1,37.6,20.3,29,29c-8.6,8.6-13.9,19.6-14.8,31c-0.9,11.5,2.7,22,10.2,29.5c1.4,1.4,3,2.7,4.6,3.9c0.7,0.6,1.3,1.1,2.2,1.8
		C44.5,105.4,62,114,78.1,114c9.4,0,18.3-3,25.6-10.3C123.5,84,111.4,52.3,95,31.2z M46.6,99.6c13,1.2,27.3-4,38.2-14.8
		c10.9-10.9,16.1-25.1,14.9-38.2c10.2,18.1,14.9,39.6,0.7,53.8C86.3,114.5,64.7,109.9,46.6,99.6z M18.9,60.3
		c0.8-10.2,5.6-20.2,13.4-28c7.8-7.8,17.8-12.6,28-13.4c10.1-0.8,19.2,2.3,25.7,8.8c1.3,1.3,2.4,2.7,3.5,4.2c0,0,0,0,0,0
		c9.6,14,6.2,35.3-8.1,49.5c-0.9,0.9-1.8,1.7-2.7,2.5c-0.9,0.8-1.8,1.5-2.8,2.2c0,0-0.1,0.1-0.1,0.1c-3.9,2.8-8.1,5-12.4,6.4
		c-0.1,0-0.1,0.1-0.2,0.1c-1,0.3-2,0.6-3,0.9c-0.1,0-0.2,0.1-0.3,0.1c-0.9,0.2-1.8,0.4-2.8,0.6c-0.2,0-0.4,0.1-0.5,0.1
		c-0.8,0.1-1.7,0.2-2.5,0.3c-0.3,0-0.5,0.1-0.8,0.1c-0.8,0.1-1.5,0.1-2.3,0.1c-0.3,0-0.7,0-1,0c-0.7,0-1.4-0.1-2.1-0.1
		c-0.4,0-0.8,0-1.2-0.1c-0.6-0.1-1.2-0.2-1.8-0.3c-0.4-0.1-0.9-0.1-1.3-0.2c-0.6-0.1-1.1-0.3-1.6-0.4c-0.5-0.1-1-0.2-1.5-0.4
		c-0.5-0.1-1-0.3-1.5-0.5c-0.5-0.2-1-0.3-1.5-0.5c-0.5-0.2-0.9-0.4-1.4-0.7c-0.5-0.2-1-0.4-1.5-0.7c-0.5-0.2-0.9-0.5-1.3-0.8
		c-0.5-0.3-0.9-0.5-1.4-0.8c0,0-0.1,0-0.1-0.1c-1.5-1-2.9-2.1-4.1-3.4C21.2,79.5,18.1,70.4,18.9,60.3z"/></svg>