<svg xmlns="http://www.w3.org/2000/svg" id="Outlined_1_" enable-background="new 0 0 128 128" viewBox="0 0 128 128"><path fill="#ffd346" d="M71.3,101.2c15.1-3.9,26-19.5,26-37.2c0-17.7-10.9-33.3-26-37.2c-1.5-0.4-2.6-1.8-2.6-3.3c0-2-1.1-3.7-2.6-4.3
		c-0.7-0.3-1.4-0.4-2.1-0.4s-1.4,0.1-2.1,0.4c-1.6,0.7-2.7,2.4-2.7,4.3c0,1.6-1.1,2.9-2.6,3.3c-15.1,3.9-26,19.5-26,37.2
		c0,17.7,10.9,33.3,26,37.2c1.5,0.4,2.6,1.8,2.6,3.3c0,2,1.2,3.8,2.9,4.4c1.3,0.5,2.6,0.5,3.7,0c1.7-0.6,2.9-2.4,2.9-4.4
		C68.8,102.9,69.8,101.6,71.3,101.2z M42.7,58c-4.6,0-4.6-7.1,0-7.1C47.3,50.9,47.3,58,42.7,58z M47.3,46.1c-4.6,0-4.6-7.1,0-7.1
		C51.9,39,51.9,46.1,47.3,46.1z M54.5,55.7c-4.6,0-4.6-7.1,0-7.1C59.1,48.5,59.1,55.7,54.5,55.7z"/><path fill="#0a3960" d="M73.5,22.5C73.1,19,71,16,67.9,14.8c-2.5-1.1-5.4-1.1-7.9,0c-3,1.2-5.2,4.2-5.5,7.7
		C37.6,27.3,25.9,44.2,25.9,64c0,19.8,11.7,36.7,28.6,41.5c0.4,3.6,2.7,6.6,5.9,7.8c1.1,0.4,2.3,0.7,3.6,0.7s2.4-0.2,3.5-0.6
		c3.3-1.2,5.6-4.3,5.9-7.8c16.9-4.8,28.6-21.8,28.6-41.5C102.1,44.2,90.4,27.3,73.5,22.5z M65.9,108.9c-1.2,0.5-2.5,0.5-3.7,0
		c-1.7-0.6-2.9-2.4-2.9-4.4c0-1.5-1.1-2.9-2.6-3.3c-15.1-3.9-26-19.5-26-37.2c0-17.7,10.9-33.3,26-37.2c1.5-0.4,2.6-1.8,2.6-3.3
		c0-1.9,1.1-3.7,2.7-4.3c0.7-0.3,1.4-0.4,2.1-0.4s1.4,0.1,2.1,0.4c1.6,0.6,2.6,2.4,2.6,4.3c0,1.5,1.1,2.9,2.6,3.3
		c15.1,3.9,26,19.5,26,37.2c0,17.7-10.9,33.3-26,37.2c-1.5,0.4-2.6,1.8-2.6,3.3C68.8,106.4,67.6,108.3,65.9,108.9z"/><path fill="#0a3960" d="M42.7 50.9c-4.6 0-4.6 7.1 0 7.1C47.3 58 47.3 50.9 42.7 50.9zM47.3 39c-4.6 0-4.6 7.1 0 7.1C51.9 46.1 51.9 39 47.3 39zM54.5 48.5c-4.6 0-4.6 7.1 0 7.1C59.1 55.7 59.1 48.5 54.5 48.5z"/></svg>