<svg xmlns="http://www.w3.org/2000/svg" id="Outlined_1_" enable-background="new 0 0 128 128" viewBox="0 0 128 128"><path fill="#aaa" d="M101.9 59.7c.1-.4.1-.8.1-1.1 0 0 0-.2 0-.3l0 0c0-.1 0-.1 0-.2 0-4.4-3.7-8.2-8-8.4-4.8-.2-9.3 2.9-11.7 7.8-.9 1.8-1.4 4-1.6 6.7-.1.7-.1 1.4-.1 2.1h13.1C97.7 66.4 101.2 63.6 101.9 59.7zM34.2 66.4h13.1c0-.7 0-1.4-.1-2.1-.2-2.7-.8-4.9-1.6-6.7-.1-.3-.3-.6-.5-.9 0 0-.1-.1-.1-.1-.1-.2-.3-.5-.4-.7 0 0-.1-.1-.1-.1-.2-.2-.3-.5-.5-.7 0 0 0 0-.1-.1-.2-.2-.4-.5-.6-.7 0 0 0 0 0 0-.2-.2-.4-.4-.6-.7 0 0 0 0 0 0-.2-.2-.4-.4-.6-.6 0 0 0 0-.1-.1-.2-.2-.4-.4-.7-.5 0 0-.1 0-.1-.1-.2-.2-.4-.3-.6-.5-.1 0-.1-.1-.2-.1-.2-.1-.4-.3-.6-.4-.1 0-.2-.1-.2-.1-.2-.1-.4-.2-.6-.3-.1 0-.2-.1-.3-.1-.2-.1-.3-.1-.5-.2-.1-.1-.3-.1-.4-.1-.1-.1-.3-.1-.4-.1-.2 0-.3-.1-.5-.1-.1 0-.2-.1-.4-.1-.2 0-.3-.1-.5-.1-.1 0-.2 0-.3-.1-.2 0-.4 0-.5-.1-.1 0-.2 0-.3 0-.2 0-.3 0-.5 0-.2 0-.4 0-.6 0-4.3.1-8 4-8 8.4 0 .3 0 .5 0 .6 0 .3.1.7.1 1.1C26.8 63.6 30.3 66.4 34.2 66.4z"/><path fill="#f0f2f0" d="M78.2,93l-0.9-9.8c-0.2-1.6-0.3-3.3-0.5-4.9c-0.2-1.7-0.4-3.3-0.5-5c-0.1-1.5-0.2-3-0.2-4.5
		c-0.1-1.6,0-3.3,0.1-4.9c0.3-3.3,0.9-6.1,2.1-8.4c3.2-6.6,9.5-10.7,16.2-10.5c2.3,0.1,4.5,0.8,6.3,1.9c-4.4-15.4-17.8-27-34.1-28.1
		c-1.6-0.1-3.3-0.1-5,0c-16.3,1-29.7,12.6-34.1,28c1.9-1.2,4-1.9,6.3-1.9c0.2,0,0.3,0,0.5,0c6.5,0,12.6,4.1,15.7,10.5
		c1.1,2.4,1.8,5.1,2.1,8.4c0.1,1.7,0.2,3.3,0.1,5c0,1.4-0.1,2.9-0.2,4.4c-0.2,1.7-0.3,3.4-0.5,5c-0.2,1.6-0.4,3.3-0.5,4.9l-0.9,9.7
		c-0.5,4.2,0.7,8.4,3.5,11.5c2.7,3.1,6.6,4.8,10.7,4.8s8-1.8,10.7-4.8C77.4,101.3,78.7,97.1,78.2,93z"/><path fill="#0a3960" d="M66.7,14.1c-1.8-0.1-3.6-0.1-5.5,0c-22.5,1.4-40.1,20.6-40.1,43.7v0.3c0,0.1,0,0.3,0,0.4l0,0
		c0,0.1,0,0.2,0.1,0.3l-0.1,0c0,0.6,0.1,1.2,0.2,1.9c1.2,6.1,6.6,10.5,12.8,10.5h12.9c0,0.6-0.1,1.1-0.1,1.7
		c-0.2,1.6-0.3,3.3-0.5,4.9c-0.2,1.7-0.4,3.3-0.5,5l-0.9,9.7c-0.7,5.5,1,11,4.7,15.1c3.6,4.1,8.8,6.4,14.2,6.4s10.6-2.3,14.2-6.4
		c3.6-4.1,5.3-9.7,4.7-15.1L82,82.8c-0.2-1.7-0.3-3.3-0.5-5c-0.2-1.6-0.4-3.3-0.5-4.9c0-0.6-0.1-1.2-0.1-1.7h12.9
		c6.2,0,11.6-4.4,12.8-10.5c0.1-0.6,0.2-1.2,0.2-1.8c0,0,0-0.2,0-0.3c0-0.1,0-0.3,0-0.4v-0.3C106.9,34.7,89.2,15.5,66.7,14.1z
		 M64,109.2c-4.1,0-8-1.8-10.7-4.8c-2.7-3.1-4-7.3-3.5-11.5l0.9-9.7c0.2-1.6,0.3-3.3,0.5-4.9c0.2-1.7,0.4-3.3,0.5-5
		c0.1-1.5,0.2-3,0.2-4.4c0.1-1.7,0.1-3.3-0.1-5c-0.3-3.3-0.9-6.1-2.1-8.4c-3.1-6.4-9.2-10.5-15.7-10.5c-0.2,0-0.3,0-0.5,0
		c-2.3,0.1-4.5,0.8-6.3,1.9c4.4-15.4,17.8-27,34.1-28c1.7-0.1,3.3-0.1,5,0c16.3,1,29.7,12.6,34.1,28.1c-1.9-1.2-4-1.9-6.3-1.9
		c-6.7-0.2-13,3.9-16.2,10.5c-1.1,2.3-1.8,5.1-2.1,8.4c-0.1,1.6-0.2,3.3-0.1,4.9c0,1.5,0.1,3,0.2,4.5c0.2,1.7,0.3,3.3,0.5,5
		c0.2,1.6,0.4,3.3,0.5,4.9l0.9,9.8c0.5,4.1-0.8,8.3-3.5,11.4C72,107.5,68.1,109.2,64,109.2z M25.9,58.7c0-0.1,0-0.3,0-0.6
		c0-4.4,3.7-8.2,8-8.4c0.2,0,0.4,0,0.6,0c0.2,0,0.3,0,0.5,0c0.1,0,0.2,0,0.3,0c0.2,0,0.4,0,0.5,0.1c0.1,0,0.2,0,0.3,0.1
		c0.2,0,0.3,0.1,0.5,0.1c0.1,0,0.2,0.1,0.4,0.1c0.2,0,0.3,0.1,0.5,0.1c0.1,0,0.3,0.1,0.4,0.1c0.1,0,0.3,0.1,0.4,0.1
		c0.2,0.1,0.3,0.1,0.5,0.2c0.1,0,0.2,0.1,0.3,0.1c0.2,0.1,0.4,0.2,0.6,0.3c0.1,0,0.2,0.1,0.2,0.1c0.2,0.1,0.4,0.2,0.6,0.4
		c0.1,0,0.1,0.1,0.2,0.1c0.2,0.1,0.4,0.3,0.6,0.5c0,0,0.1,0,0.1,0.1c0.2,0.2,0.4,0.4,0.7,0.5c0,0,0,0,0.1,0.1
		c0.2,0.2,0.4,0.4,0.6,0.6c0,0,0,0,0,0c0.2,0.2,0.4,0.4,0.6,0.7c0,0,0,0,0,0c0.2,0.2,0.4,0.5,0.6,0.7c0,0,0,0,0.1,0.1
		c0.2,0.2,0.3,0.5,0.5,0.7c0,0,0.1,0.1,0.1,0.1c0.1,0.2,0.3,0.5,0.4,0.7c0,0,0.1,0.1,0.1,0.1c0.2,0.3,0.3,0.6,0.5,0.9
		c0.9,1.8,1.4,4,1.6,6.7c0.1,0.7,0.1,1.4,0.1,2.1H34.2c-3.9,0-7.4-2.8-8.1-6.6C26,59.4,25.9,59,25.9,58.7z M80.7,66.4
		c0-0.7,0-1.4,0.1-2.1c0.2-2.7,0.8-4.9,1.6-6.7c2.4-4.9,6.9-8,11.7-7.8c4.3,0.1,8,4,8,8.4c0,0.1,0,0.1,0,0.2l0,0c0,0.1,0,0.3,0,0.3
		c0,0.4-0.1,0.8-0.1,1.1c-0.8,3.9-4.2,6.7-8.1,6.7H80.7z"/></svg>