<svg xmlns="http://www.w3.org/2000/svg" enable-background="new 0 0 128 128" viewBox="0 0 128 128"><path fill="#00bf4c" d="M80.7,28.2c0.9,4.4,3.1,12.3,8.7,18.4c5.5,5.9,12.8,8.5,17,9.6c-0.9-4.4-3.1-12.4-8.6-18.4
		C92.2,31.9,84.8,29.3,80.7,28.2z"/><path fill="#0a3960" d="M101.2,34.6c-5.5-5.9-12.4-8.9-17.2-10.4c3.9-2.5,7.8-4.4,11.7-5.6c1.3-0.4,2-1.7,1.6-3c-0.4-1.3-1.7-2-3-1.6
		c-5.4,1.7-10.8,4.5-16.2,8.4c-3.2-2-12.8-7-23.7-5.8c-13.1,1.4-22.6,11.3-23,11.7c-0.5,0.5-0.7,1.2-0.6,1.9c0.1,0.7,0.4,1.3,1,1.7
		c0.4,0.3,9.9,6.7,21.6,6.7c1.1,0,2.2-0.1,3.3-0.2c1.8-0.2,3.6-0.6,5.3-1.1c-0.7,0.8-1.4,1.6-2.1,2.4c0,0,0,0,0,0c0,0,0,0,0,0
		c-9.8,11.6-18.1,24.9-22,31.3c-0.5,0-0.9-0.1-1.4-0.1c0,0,0,0,0,0c0,0,0,0-0.1,0c0,0,0,0,0,0c0,0,0,0,0,0c0,0,0,0,0,0c0,0,0,0,0,0
		c0,0,0,0-0.1,0c-9.5-0.1-17.8,7.9-19.5,18.4c-1.8,11.7,5.1,22.6,15.4,24.2c0.9,0.1,1.8,0.2,2.7,0.2c3.7,0,7.4-1.2,10.6-3.5
		c4.7-3.4,7.9-8.8,8.8-14.9c0,0,0,0,0,0c1.6-10.1-3.4-19.7-11.6-23.1c3.7-6.1,10.5-16.8,18.5-26.7c3.3,6.2,7.1,12,11.3,17.4
		c-9.2,4.1-13.4,16.1-9.2,27.1c2.2,5.9,6.5,10.5,11.8,12.8c2.3,1,4.7,1.5,7,1.5c2.2,0,4.3-0.4,6.3-1.2c9.6-3.9,13.9-16.2,9.7-27.3
		c-3-7.8-9.4-13.2-16.8-14.1c0,0,0,0,0,0c-0.1,0-0.1,0-0.2,0c-0.1,0-0.2,0-0.4-0.1c-0.2,0-0.5-0.1-0.9-0.1c-0.7-0.1-1.4,0-2.2,0
		c0,0-0.1,0-0.1,0c0,0-0.1,0-0.1,0c-5-6.1-9.4-12.7-13-19.9c3.9-4.5,7.9-8.5,11.8-11.8c1.1,5.1,3.7,13.4,9.7,19.8
		c9.2,9.9,22.5,11.7,23.1,11.8c0.1,0,0.2,0,0.3,0c0.6,0,1.2-0.2,1.6-0.7c0.5-0.5,0.8-1.2,0.7-1.9C111.6,58.5,110.3,44.5,101.2,34.6z
		 M89.4,46.6c-5.6-6-7.8-14-8.7-18.4c4.1,1,11.5,3.7,17,9.6c5.5,6,7.8,14,8.6,18.4C102.2,55.2,94.9,52.5,89.4,46.6z M37.1,29.6
		c3.3-2.7,9.9-7.4,17.8-8.2c7.9-0.9,15.2,2.2,19,4.2c-3.3,2.7-9.9,7.3-17.8,8.2C48.2,34.7,40.8,31.6,37.1,29.6z M42.5,106.6
		c-2.9,2.1-6.4,3-9.7,2.5c-7.7-1.2-12.9-9.6-11.5-18.8c0.8-5,3.4-9.3,7-11.8c0,0,0,0,0,0.1c0,0,0,0.1,0,0.1c0,0.2,0.1,0.3,0.1,0.5
		c0,0.1,0,0.1,0.1,0.2c0.1,0.1,0.1,0.3,0.2,0.4c0,0.1,0.1,0.1,0.1,0.2c0.1,0.2,0.2,0.3,0.3,0.5c0,0,0.1,0.1,0.1,0.1
		c0.1,0.2,0.3,0.4,0.4,0.6c0,0,0,0,0,0c0.1,0.2,0.3,0.4,0.5,0.5c0,0.1,0.1,0.1,0.2,0.2c0.1,0.1,0.3,0.3,0.4,0.4
		c0.1,0.1,0.1,0.1,0.2,0.2c0.1,0.1,0.3,0.2,0.4,0.3c0.1,0.1,0.1,0.1,0.2,0.2c0.2,0.1,0.3,0.2,0.5,0.4c0,0,0.1,0.1,0.1,0.1
		c0.2,0.1,0.5,0.3,0.7,0.4c0.1,0,0.1,0.1,0.2,0.1c0.2,0.1,0.4,0.2,0.6,0.3c0.1,0,0.2,0.1,0.3,0.1c0.2,0.1,0.4,0.1,0.5,0.2
		c0.1,0,0.2,0.1,0.3,0.1c0.2,0.1,0.4,0.1,0.6,0.2c0.1,0,0.2,0.1,0.3,0.1c0.3,0.1,0.6,0.2,0.9,0.2c0.4,0.1,0.8,0.1,1.2,0.2
		c0.1,0,0.3,0,0.4,0c0.3,0,0.5,0,0.8,0c0.1,0,0.1,0,0.2,0c0.1,0,0.2,0,0.2,0c0.4,0,0.7,0,1.1-0.1c0.1,0,0.2,0,0.4,0
		c0.4-0.1,0.9-0.1,1.3-0.3c0.1,0,0.2-0.1,0.3-0.1c0.3-0.1,0.7-0.2,1-0.3c0.1,0,0.2-0.1,0.3-0.1c0.4-0.2,0.7-0.4,1.1-0.6
		c0.2-0.1,0.4-0.3,0.6-0.4c0.1,0,0.1-0.1,0.2-0.2c0.1-0.1,0.2-0.2,0.3-0.3c0.1-0.1,0.1-0.1,0.2-0.2c0.1-0.1,0.2-0.2,0.3-0.3
		c0-0.1,0.1-0.1,0.1-0.2c0.1-0.2,0.2-0.4,0.3-0.5c0,0,0,0,0,0c2.4,3.5,3.6,8.2,2.8,13.1C48.7,99.7,46.2,104,42.5,106.6z M38,76.1
		c0.3,0,0.5,0.1,0.7,0.2c0,0,0,0,0,0c2.5,0.7,3.9,2.2,3.8,3c0,0,0,0,0,0c-0.1,0.3-0.3,0.5-0.6,0.7c-0.8,0.5-2.4,1-4.6,0.5
		c-3-0.6-4.5-2.4-4.4-3.2c0.1-0.6,1.4-1.4,3.2-1.4C36.8,75.9,37.4,76,38,76.1z M86.6,98.8C86.6,98.8,86.6,98.8,86.6,98.8
		c-3,1.3-6.4,1.2-9.6-0.2c-4.1-1.8-7.5-5.5-9.3-10.2c-2.3-6-1.5-12.5,1.6-16.8c0,0,0,0,0,0.1c0,0.1,0.1,0.2,0.1,0.3
		c0.1,0.1,0.1,0.2,0.2,0.3c0.1,0.1,0.1,0.2,0.2,0.2c0.1,0.1,0.1,0.2,0.2,0.3c0.1,0.1,0.1,0.2,0.2,0.2c0.1,0.1,0.2,0.2,0.2,0.3
		c0.1,0.1,0.1,0.1,0.2,0.2c0.1,0.1,0.2,0.2,0.3,0.3c0.1,0.1,0.1,0.1,0.2,0.2c0.1,0.1,0.2,0.2,0.3,0.2c0.1,0.1,0.1,0.1,0.2,0.2
		c0.1,0.1,0.2,0.2,0.4,0.2c0.1,0,0.1,0.1,0.2,0.1c0.1,0.1,0.3,0.1,0.4,0.2c0.1,0,0.1,0.1,0.2,0.1c0.2,0.1,0.3,0.1,0.5,0.2
		c0.1,0,0.1,0,0.2,0.1c0.2,0.1,0.4,0.1,0.6,0.2c0,0,0.1,0,0.1,0c0.2,0.1,0.5,0.1,0.7,0.2c0,0,0,0,0,0c0.8,0.2,1.6,0.2,2.5,0.2
		c0,0,0,0,0,0c0,0,0,0,0,0c0.5,0,1.1,0,1.6-0.1c3-0.4,5.8-1.8,7.3-3.7c0.1-0.2,0.3-0.4,0.4-0.6c0-0.1,0.1-0.1,0.1-0.2
		c0.1-0.1,0.2-0.3,0.2-0.4c0-0.1,0.1-0.2,0.1-0.2c0-0.1,0.1-0.2,0.1-0.3c0-0.1,0.1-0.2,0.1-0.3c0-0.1,0-0.1,0.1-0.2
		c0-0.1,0.1-0.2,0.1-0.3c2.6,2,4.7,4.8,5.9,8.1C97,86.4,93.8,95.9,86.6,98.8z M81.9,67c0.1,0.1,0.2,0.1,0.3,0.2c0,0,0,0,0.1,0
		c0.1,0,0.2,0.1,0.2,0.1c0.1,0.1,0.2,0.2,0.4,0.3c0.1,0.1,0.1,0.1,0.2,0.2c0,0,0.1,0.2,0.1,0.3c0,0,0,0,0,0c0,0.3-0.2,0.7-0.4,0.9
		c-0.6,0.8-2,1.7-4.1,1.9c-2.9,0.3-4.9-0.8-5-1.8c-0.1-0.8,1.2-2.1,3.5-2.7c0.1,0,0.2,0,0.3-0.1l0.5-0.1c0.1,0,0.2,0,0.4,0
		c0.3,0,0.6-0.1,0.9-0.1c0.2,0,0.3,0,0.5,0c0.2,0,0.3,0,0.5,0.1c0.2,0,0.2,0.1,0.4,0.1c0.5,0.1,0.9,0.2,1.3,0.4
		C81.7,66.9,81.8,66.9,81.9,67z"/><path fill="#00bf4c" d="M54.9,21.4c-7.9,0.9-14.5,5.5-17.8,8.2c3.8,2,11.2,5,19,4.2c7.9-0.9,14.5-5.5,17.8-8.2
		C70.1,23.7,62.7,20.6,54.9,21.4z"/><path fill="#3c499e" d="M46.7,81.7C46.7,81.7,46.7,81.7,46.7,81.7c-0.1,0.2-0.2,0.4-0.4,0.6c0,0.1-0.1,0.1-0.1,0.2
		c-0.1,0.1-0.2,0.2-0.3,0.3c-0.1,0.1-0.1,0.1-0.2,0.2c-0.1,0.1-0.2,0.2-0.3,0.3c-0.1,0.1-0.1,0.1-0.2,0.2c-0.2,0.2-0.4,0.3-0.6,0.4
		c-0.3,0.2-0.7,0.4-1.1,0.6c-0.1,0-0.2,0.1-0.3,0.1c-0.3,0.1-0.6,0.2-1,0.3c-0.1,0-0.2,0.1-0.3,0.1c-0.4,0.1-0.8,0.2-1.3,0.3
		c-0.1,0-0.2,0-0.4,0c-0.4,0-0.7,0.1-1.1,0.1c-0.1,0-0.2,0-0.2,0c-0.1,0-0.1,0-0.2,0c-0.3,0-0.5,0-0.8,0c-0.1,0-0.3,0-0.4,0
		c-0.4,0-0.8-0.1-1.2-0.2c-0.3-0.1-0.6-0.1-0.9-0.2c-0.1,0-0.2-0.1-0.3-0.1c-0.2-0.1-0.4-0.1-0.6-0.2c-0.1,0-0.2-0.1-0.3-0.1
		c-0.2-0.1-0.4-0.1-0.5-0.2c-0.1,0-0.2-0.1-0.3-0.1c-0.2-0.1-0.4-0.2-0.6-0.3c-0.1,0-0.1-0.1-0.2-0.1c-0.2-0.1-0.5-0.3-0.7-0.4
		c0,0-0.1-0.1-0.1-0.1c-0.2-0.1-0.4-0.2-0.5-0.4c-0.1-0.1-0.1-0.1-0.2-0.2c-0.1-0.1-0.3-0.2-0.4-0.3c-0.1-0.1-0.1-0.1-0.2-0.2
		c-0.1-0.1-0.3-0.2-0.4-0.4c-0.1-0.1-0.1-0.1-0.2-0.2c-0.2-0.2-0.3-0.4-0.5-0.5c0,0,0,0,0,0c-0.1-0.2-0.3-0.4-0.4-0.6
		c0,0-0.1-0.1-0.1-0.1c-0.1-0.2-0.2-0.3-0.3-0.5c0-0.1-0.1-0.1-0.1-0.2c-0.1-0.1-0.1-0.3-0.2-0.4c0-0.1,0-0.1-0.1-0.2
		c-0.1-0.2-0.1-0.3-0.1-0.5c0,0,0-0.1,0-0.1c0,0,0,0,0-0.1c-3.6,2.6-6.2,6.8-7,11.8c-1.4,9.1,3.7,17.5,11.5,18.8
		c3.3,0.5,6.8-0.3,9.7-2.5c3.6-2.6,6.2-6.9,6.9-11.8C50.2,89.9,49.1,85.2,46.7,81.7z"/><path fill="#3c499e" d="M33.1 77.3c-.1.8 1.4 2.6 4.4 3.2 2.1.4 3.8 0 4.6-.5.2-.2.5-.4.6-.7 0 0 0 0 0 0 .1-.8-1.2-2.3-3.8-3 0 0 0 0 0 0-.2-.1-.5-.1-.7-.2-.6-.1-1.2-.1-1.8-.2C34.5 76 33.2 76.7 33.1 77.3zM87.7 69.5c0 .1-.1.2-.1.3 0 .1 0 .2-.1.2 0 .1-.1.2-.1.3 0 .1-.1.2-.1.3 0 .1-.1.2-.1.2C87.1 71 87 71.2 87 71.3c0 .1-.1.1-.1.2-.1.2-.3.4-.4.6-1.5 2-4.3 3.4-7.3 3.7-.5.1-1.1.1-1.6.1 0 0 0 0 0 0 0 0 0 0 0 0-.9 0-1.7-.1-2.5-.2 0 0 0 0 0 0-.2-.1-.5-.1-.7-.2 0 0-.1 0-.1 0-.2-.1-.4-.1-.6-.2-.1 0-.1 0-.2-.1-.2-.1-.3-.1-.5-.2-.1 0-.1-.1-.2-.1-.1-.1-.3-.1-.4-.2-.1 0-.1-.1-.2-.1-.1-.1-.3-.2-.4-.2-.1 0-.1-.1-.2-.2-.1-.1-.2-.2-.3-.2-.1-.1-.1-.1-.2-.2-.1-.1-.2-.2-.3-.3-.1-.1-.1-.1-.2-.2-.1-.1-.2-.2-.2-.3-.1-.1-.1-.1-.2-.2-.1-.1-.1-.2-.2-.3-.1-.1-.1-.2-.2-.2-.1-.1-.1-.2-.2-.3 0-.1-.1-.2-.1-.3 0 0 0 0 0-.1-3.1 4.4-3.9 10.8-1.6 16.8 1.8 4.7 5.1 8.4 9.3 10.2 3.2 1.4 6.6 1.5 9.6.2 0 0 0 0 0 0 7.2-3 10.4-12.5 7-21.2C92.4 74.3 90.3 71.5 87.7 69.5z"/><path fill="#3c499e" d="M80,66.5c-0.1,0-0.3,0-0.5-0.1c-0.2,0-0.3,0-0.5,0c-0.3,0-0.6,0-0.9,0.1c-0.1,0-0.2,0-0.4,0l-0.5,0.1
		c-0.1,0-0.2,0.1-0.3,0.1c-2.3,0.5-3.6,1.9-3.5,2.7c0.1,1,2.1,2.1,5,1.8c2.1-0.3,3.5-1.2,4.1-1.9c0.2-0.2,0.4-0.6,0.4-0.9
		c0,0,0,0,0,0c0,0-0.1-0.3-0.1-0.3c-0.1-0.1-0.1-0.1-0.2-0.2c-0.1-0.1-0.2-0.2-0.4-0.3c0,0-0.1-0.1-0.2-0.1c0,0,0,0-0.1,0
		c-0.1,0-0.2-0.1-0.3-0.2c-0.1-0.1-0.2-0.1-0.2-0.1c-0.4-0.2-0.8-0.3-1.3-0.4C80.2,66.5,80.1,66.5,80,66.5z"/></svg>