<svg xmlns="http://www.w3.org/2000/svg" id="Outlined_1_" enable-background="new 0 0 128 128" viewBox="0 0 128 128"><path fill="#00bf4c" d="M61.9,27.3c2.4,0.7,6.9,1.7,10.6,0.1c3.7-1.6,6.1-5.3,7.3-7.7c-2.6-0.8-6.9-1.7-10.6-0.1
		C65.5,21.2,63.1,25,61.9,27.3z"/><path fill="#f8bdaa" d="M104.5,68.8c0-15.8-11.7-28.6-26.2-28.6c-3.4,0-6.7,0.7-9.7,2c5.9,4.5,9.5,9.9,11,16.3
		c2.4,10.2,0.6,21.8-5,32.7c-0.4,0.8-1.3,1.3-2.1,1.3c-0.4,0-0.7-0.1-1.1-0.3c-1.2-0.6-1.6-2-1-3.2c5-9.8,6.7-20.5,4.6-29.5
		c-1.4-6.3-5.4-11.4-12.2-15.7c0,0,0,0,0,0c0,0,0,0,0,0c-3.9-2.5-8.4-3.8-13-3.8c-14.4,0-26.2,12.8-26.2,28.6
		c0,14,5.7,24.1,17.6,30.9c5.6,3.2,11.4,5.2,16.2,6.7c2.7,0.9,5,1.7,6.7,2.5c1.7-0.8,4-1.6,6.7-2.5c4.7-1.6,10.6-3.5,16.2-6.7
		C98.7,92.8,104.5,82.7,104.5,68.8z"/><path fill="#0a3960" d="M78.3,35.4c-4.4,0-8.6,1-12.6,2.9c-0.4-1.9-1-3.7-1.6-5.5c1.1,0.2,2.4,0.3,3.6,0.3c2.1,0,4.4-0.3,6.6-1.3
		c7.6-3.2,10.8-12.3,10.9-12.7c0.4-1.1-0.1-2.4-1.2-2.9C83.7,16,75,12,67.4,15.3c-3.8,1.6-6.5,4.7-8.3,7.5c-1-1.3-2-2.5-3.1-3.4
		c-1-0.9-2.5-0.8-3.4,0.2c-0.9,1-0.8,2.5,0.2,3.4c1.5,1.3,2.9,3.2,4.2,5.6c0,0,0,0,0,0c0,0,0,0,0,0c0.3,0.5,0.6,1.1,0.8,1.6
		c0,0,0,0,0,0c0,0,0,0,0,0c1.1,2.3,2,4.7,2.6,7.3c-3.5-1.4-7.2-2.1-10.9-2.1c-17.1,0-31,15-31,33.3c0,15.6,6.7,27.4,19.9,35
		c6,3.5,12.1,5.5,17.1,7.1c3.1,1,5.7,1.9,6.9,2.7c0.4,0.3,0.9,0.4,1.3,0.4s0.9-0.1,1.3-0.4c1.2-0.8,3.9-1.7,6.9-2.7
		c4.9-1.6,11.1-3.7,17-7.1c13.2-7.6,20-19.4,20-35C109.2,50.4,95.4,35.4,78.3,35.4z M70.7,106.4c-2.7,0.9-5,1.7-6.7,2.5
		c-1.7-0.8-4-1.6-6.7-2.5c-4.7-1.6-10.6-3.5-16.2-6.7c-11.8-6.8-17.6-16.9-17.6-30.9c0-15.8,11.7-28.6,26.2-28.6
		c4.6,0,9.1,1.3,13,3.8c0,0,0,0,0,0c0,0,0,0,0,0c6.7,4.2,10.7,9.3,12.2,15.7c2.1,9,0.4,19.7-4.6,29.5c-0.6,1.2-0.1,2.6,1,3.2
		c0.3,0.2,0.7,0.3,1.1,0.3c0.9,0,1.7-0.5,2.1-1.3c5.6-10.9,7.4-22.5,5-32.7c-1.5-6.5-5.1-11.8-11-16.3c3.1-1.3,6.4-2,9.7-2
		c14.4,0,26.2,12.8,26.2,28.6c0,14-5.7,24.1-17.6,30.9C81.3,102.9,75.5,104.8,70.7,106.4z M79.9,19.7c-1.2,2.4-3.6,6.1-7.3,7.7
		c-3.8,1.6-8.2,0.7-10.6-0.1c1.2-2.3,3.6-6.1,7.3-7.7C73,18.1,77.3,18.9,79.9,19.7z"/></svg>