<svg xmlns="http://www.w3.org/2000/svg" id="Outlined_1_" enable-background="new 0 0 128 128" viewBox="0 0 128 128"><path fill="#00bf4c" d="M60.3 25C60.3 25 60.3 25 60.3 25c.4.3.7.6 1 .9.1.1.1.1.2.2.2.2.5.5.7.7.1.1.2.2.3.3.2.3.4.5.6.8.1.1.1.1.2.2.2.3.5.7.7 1 0 0 0 .1.1.1 0 0 0-.1.1-.1.2-.4.4-.7.7-1 0-.1.1-.1.1-.2.2-.3.4-.5.6-.8.1-.1.2-.2.3-.3.2-.3.5-.5.7-.8.1-.1.1-.1.2-.2.3-.3.6-.6.9-.8 0 0 .1 0 .1-.1-.8-2.1-2.1-4-3.7-5.5C62.4 21 61.1 22.9 60.3 25zM54 41.8c.1 0 .1 0 .2-.1.1 0 .2-.1.3-.1.7-.2 1.5-.4 2.2-.6.1 0 .1 0 .2 0 .4-.1.7-.2 1.1-.2.2 0 .4-.1.6-.1.6-.1 1.2-.2 1.8-.3 0 0 0 0 0-.1-.3-.3-.5-.5-.8-.8-1-.9-2-1.7-3.1-2.2-1.2-.7-2.5-1.2-3.9-1.5-1.5-.4-3.1-.5-4.7-.4C50.3 37.1 52.4 39.2 54 41.8zM80.3 35.5c-1.6-.1-3.2 0-4.7.4-1.4.3-2.7.8-3.9 1.5-1.1.6-2.2 1.3-3.1 2.2-.3.3-.6.5-.8.8 0 0 0 0-.1.1.5.1 1 .1 1.5.2.7.1 1.4.3 2.1.4.8.2 1.5.4 2.3.6.1 0 .2 0 .2.1.1 0 .1 0 .2.1C75.6 39.2 77.7 37.1 80.3 35.5zM54.6 31.5c1.4.4 2.7.9 4 1.6.9.5 1.8 1 2.6 1.7-.7-2.8-2.5-5.3-5-7-1.9-1.2-4.1-1.9-6.4-2C51.8 27.4 53.4 29.3 54.6 31.5zM71.8 27.9c-2.5 1.7-4.3 4.2-5 7 .8-.6 1.7-1.2 2.7-1.7 1.2-.7 2.5-1.2 3.9-1.6 1.2-2.2 2.8-4.1 4.8-5.6C75.9 25.9 73.7 26.6 71.8 27.9z"/><path fill="#ffd346" d="M86.4 57.5c-1-1.7-2.3-3.3-3.6-4.7l-6.3 6.3 5.7 5.6 5.3-5.3c-.3-.5-.6-1.1-.9-1.8C86.5 57.7 86.5 57.6 86.4 57.5zM51.2 52.1l3.7 3.7 5.7-5.6-1-1L56.5 46c-.9.3-1.8.6-2.7 1-1.2.5-2.2 1-3.2 1.6-.6.4-1.2.8-1.8 1.2L51.2 52.1zM64 46.8l.5-.5 1.2-1.2c-1.2-.1-2.4-.1-3.5 0L64 46.8zM45.8 64.7l5.7-5.6-6.3-6.2c-1.4 1.4-2.6 3-3.6 4.7 0 0-.1.1-.1.1-.3.6-.7 1.2-1 1.8L45.8 64.7zM76.5 95.1l6.3 6.2c1.4-1.4 2.6-3 3.6-4.7 0 0 .1-.1.1-.1.3-.6.7-1.2 1-1.8l-5.3-5.3L76.5 95.1zM56.5 108.2l4.1-4.1-5.7-5.6-6.1 6c.6.4 1.2.8 1.8 1.2C52.5 106.7 54.4 107.5 56.5 108.2zM65.8 109.2l-1.2-1.2-.5-.5-1.8 1.8C63.4 109.3 64.6 109.3 65.8 109.2zM41.6 96.6c1 1.7 2.3 3.3 3.6 4.7l6.3-6.2-5.7-5.6-5.3 5.3c.3.6.6 1.2 1 1.8C41.5 96.6 41.6 96.6 41.6 96.6z"/><polygon fill="#ffd346" points="64 53.5 58.3 59.1 64 64.7 69.7 59.1"/><polygon fill="#ffd346" points="54.9 73.7 60.6 68.1 54.9 62.5 49.2 68.1"/><path fill="#ffd346" d="M85.5,68.1l2.7,2.7l2,1.9v-1.6c0-2.3-0.3-4.6-0.9-6.8L85.5,68.1z"/><path fill="#0a3960" d="M92.5,59.1C92.5,59.1,92.5,59.1,92.5,59.1C92.5,59.1,92.5,59.1,92.5,59.1c-0.7-1.5-1.4-2.9-1.9-3.9
		c-0.1-0.1-0.1-0.2-0.2-0.3c-1.3-2-2.8-3.9-4.5-5.7c-0.5-0.5-1-1-1.6-1.4c0,0,0,0,0,0c0,0,0,0,0,0c0,0,0,0,0,0c0,0,0,0,0,0
		c-1.3-1.2-2.8-2.3-4.4-3.2c-0.1,0-0.1-0.1-0.2-0.1c-0.4-0.2-0.8-0.4-1.2-0.6c2.2-3.3,5.7-5.6,9.8-6.3c1-0.2,1.8-1,2-2
		c0.2-1-0.3-2-1.2-2.5c-2.8-1.5-5.8-2.3-9-2.4c1.6-1.5,3.7-2.6,5.9-3c1-0.2,1.8-1,1.9-2c0.2-1-0.3-2-1.2-2.5
		c-4.4-2.4-10-2.7-14.7-0.7c-1.4-3.2-3.6-6-6.4-8.1c-0.8-0.6-1.9-0.6-2.8,0c-2.8,2-5,4.8-6.4,8.1c-4.7-2-10.3-1.7-14.7,0.7
		c-0.9,0.5-1.4,1.5-1.2,2.5c0.2,1,0.9,1.8,1.9,2c2.3,0.4,4.3,1.5,5.9,3c-3.2,0.1-6.2,0.9-9,2.3c-0.9,0.5-1.4,1.5-1.2,2.5
		c0.2,1,0.9,1.8,1.9,2c4.1,0.7,7.6,3,9.8,6.3c-0.5,0.2-0.9,0.5-1.3,0.8c-1.7,1-3.2,2.1-4.5,3.3c0,0,0,0,0,0c-2.4,2-4.4,4.4-6.1,7.1
		c0,0.1-0.1,0.1-0.1,0.2c-0.7,1.2-1.4,2.5-2,3.9c0,0,0,0,0,0c0,0,0,0,0,0c-0.4,0.9-0.7,1.9-1,2.9c-0.9,3-1.4,6-1.4,9.1v4.6v2.6V83
		c0,4.1,0.8,8.2,2.4,12.1c0,0,0,0,0,0c0,0,0,0,0,0c0.6,1.4,1.3,2.7,2,3.9c0,0.1,0.1,0.1,0.1,0.2c1.7,2.7,3.7,5.1,6.1,7.1
		c0,0,0,0,0,0c1.3,1.2,2.9,2.3,4.5,3.3c2.6,1.6,5.4,2.7,8.5,3.4c0,0,0,0,0,0c0,0,0,0,0,0c0,0,0,0,0,0c0,0,0,0,0,0
		c2.4,0.6,4.9,0.9,7.3,0.9c2.5,0,4.9-0.3,7.3-0.9c0,0,0,0,0,0c0,0,0,0,0,0c0,0,0,0,0,0c0,0,0,0,0,0c3-0.7,5.8-1.9,8.4-3.4
		c1.7-1,3.2-2.1,4.5-3.3c0,0,0,0,0,0c2.4-2,4.4-4.4,6.1-7.1c0-0.1,0.1-0.1,0.1-0.2c0.7-1.2,1.4-2.5,2-3.9c0,0,0,0,0,0c0,0,0,0,0,0
		C94.1,91.2,95,87.2,95,83v-4.6v-2.6v-4.6C95,67,94.1,62.9,92.5,59.1z M90.2,81.5V83c0,2.3-0.3,4.6-0.9,6.8l-3.8-3.7l2.3-2.3
		L90.2,81.5z M37.8,72.7v-1.6c0-2.3,0.3-4.5,0.9-6.8l3.8,3.7l-2.7,2.7L37.8,72.7z M90.2,71.1v1.6l-2-1.9l-2.7-2.7l3.8-3.7
		C89.9,66.6,90.2,68.8,90.2,71.1z M62.2,45c1.2-0.1,2.4-0.1,3.5,0l-1.2,1.2L64,46.8L62.2,45z M64,71.4l5.7,5.6L64,82.7l-5.7-5.6
		L64,71.4z M58.3,59.1l5.7-5.6l5.7,5.6L64,64.7L58.3,59.1z M51.5,77.1l-5.7,5.6l-5.7-5.6l5.7-5.6L51.5,77.1z M64,89.4l5.7,5.6
		l-5.7,5.6l-5.7-5.6L64,89.4z M76.5,77.1l5.7-5.6l5.7,5.6l-5.7,5.6L76.5,77.1z M54.9,62.5l5.7,5.6l-5.7,5.6l-5.7-5.6L54.9,62.5z
		 M49.2,86.1l5.7-5.6l5.7,5.6l-5.7,5.6L49.2,86.1z M73.1,91.7l-5.7-5.6l5.7-5.6l5.7,5.6L73.1,91.7z M73.1,73.7l-5.7-5.6l5.7-5.6
		l5.7,5.6L73.1,73.7z M37.8,81.5l2.3,2.3l2.3,2.3l-3.8,3.7c-0.6-2.2-0.9-4.5-0.9-6.8V81.5z M82.2,64.7l-5.7-5.6l6.3-6.3
		c1.4,1.4,2.6,3,3.6,4.7c0,0.1,0.1,0.1,0.1,0.2c0.3,0.6,0.7,1.2,0.9,1.8L82.2,64.7z M73.1,55.8l-5.7-5.6l4.1-4.1
		c0.9,0.3,1.8,0.6,2.7,1c1.2,0.5,2.2,1,3.1,1.6c0.1,0,0.1,0.1,0.2,0.1c0.6,0.3,1.1,0.7,1.6,1.1L73.1,55.8z M74,41.8
		c-0.1,0-0.1,0-0.2-0.1c-0.1,0-0.2,0-0.2-0.1c-0.7-0.2-1.5-0.5-2.3-0.6c-0.7-0.2-1.4-0.3-2.1-0.4c-0.5-0.1-1-0.2-1.5-0.2
		c0,0,0,0,0.1-0.1c0.3-0.3,0.5-0.5,0.8-0.8c0.9-0.9,2-1.6,3.1-2.2c1.2-0.7,2.5-1.1,3.9-1.5c1.5-0.4,3.1-0.5,4.7-0.4
		C77.7,37.1,75.6,39.2,74,41.8z M73.4,31.5c-1.4,0.4-2.7,0.9-3.9,1.6c-0.9,0.5-1.8,1.1-2.7,1.7c0.7-2.8,2.5-5.3,5-7
		c1.9-1.2,4.1-1.9,6.4-2C76.2,27.4,74.6,29.3,73.4,31.5z M67.6,25.1c-0.3,0.3-0.6,0.6-0.9,0.8c-0.1,0.1-0.1,0.1-0.2,0.2
		c-0.2,0.2-0.5,0.5-0.7,0.8c-0.1,0.1-0.2,0.2-0.3,0.3c-0.2,0.3-0.4,0.5-0.6,0.8c0,0.1-0.1,0.1-0.1,0.2c-0.2,0.3-0.5,0.7-0.7,1
		c0,0,0,0.1-0.1,0.1c0,0,0-0.1-0.1-0.1c-0.2-0.3-0.4-0.7-0.7-1c-0.1-0.1-0.1-0.1-0.2-0.2c-0.2-0.3-0.4-0.5-0.6-0.8
		c-0.1-0.1-0.2-0.2-0.3-0.3c-0.2-0.2-0.4-0.5-0.7-0.7c-0.1-0.1-0.1-0.1-0.2-0.2c-0.3-0.3-0.6-0.6-0.9-0.8c0,0-0.1-0.1-0.1-0.1
		c0.8-2.1,2.1-4,3.7-5.5C65.6,21,66.9,22.9,67.6,25.1C67.7,25,67.7,25,67.6,25.1z M56.2,27.9c2.5,1.7,4.3,4.2,5,7
		c-0.8-0.7-1.7-1.2-2.6-1.7c-1.2-0.7-2.6-1.2-4-1.6c-1.2-2.2-2.8-4.1-4.8-5.6C52.1,25.9,54.3,26.6,56.2,27.9z M52.4,35.9
		c1.4,0.3,2.7,0.8,3.9,1.5c1.1,0.6,2.1,1.3,3.1,2.2c0.3,0.2,0.5,0.5,0.8,0.8c0,0,0,0,0,0.1c-0.6,0.1-1.2,0.2-1.8,0.3
		c-0.2,0-0.4,0.1-0.6,0.1c-0.4,0.1-0.8,0.1-1.1,0.2c-0.1,0-0.1,0-0.2,0c-0.8,0.2-1.5,0.4-2.2,0.6c-0.1,0-0.2,0.1-0.3,0.1
		c-0.1,0-0.1,0-0.2,0.1c-1.6-2.6-3.7-4.8-6.3-6.4C49.3,35.4,50.9,35.5,52.4,35.9z M53.8,47c0.9-0.4,1.8-0.7,2.7-1l3.1,3.1l1,1
		l-5.7,5.6l-3.7-3.7l-2.3-2.3c0.6-0.4,1.2-0.8,1.8-1.2C51.6,48,52.6,47.5,53.8,47z M41.6,57.6c1-1.7,2.3-3.3,3.6-4.7l6.3,6.2
		l-5.7,5.6l-5.3-5.3c0.3-0.6,0.6-1.2,1-1.8C41.5,57.6,41.5,57.6,41.6,57.6z M45.8,89.4l5.7,5.6l-6.3,6.2c-1.4-1.4-2.6-3-3.6-4.7
		c0,0-0.1-0.1-0.1-0.1c-0.3-0.6-0.7-1.2-1-1.8L45.8,89.4z M54.9,98.4l5.7,5.6l-4.1,4.1c-2.1-0.6-4-1.5-5.9-2.6
		c-0.6-0.4-1.2-0.8-1.8-1.2L54.9,98.4z M62.2,109.2l1.8-1.8l0.5,0.5l1.2,1.2C64.6,109.3,63.4,109.3,62.2,109.2z M71.5,108.2
		l-4.1-4.1l5.7-5.6l6.1,6c-0.6,0.4-1.2,0.8-1.8,1.2C75.5,106.7,73.6,107.5,71.5,108.2z M86.5,96.5c0,0-0.1,0.1-0.1,0.1
		c-1,1.7-2.3,3.3-3.6,4.7l-6.3-6.2l5.7-5.6l5.3,5.3C87.2,95.3,86.8,95.9,86.5,96.5z"/><path fill="#ffd346" d="M42.5 68.1l-3.8-3.7c-.6 2.2-.9 4.5-.9 6.8v1.6l1.9-1.9L42.5 68.1zM42.5 86.1l-2.3-2.3-2.3-2.3V83c0 2.3.3 4.6.9 6.8L42.5 86.1z"/><polygon fill="#ffd346" points="69.7 95.1 64 89.4 58.3 95.1 64 100.7"/><polygon fill="#ffd346" points="73.1 80.4 67.4 86.1 73.1 91.7 78.8 86.1"/><path fill="#ffd346" d="M89.3 89.8c.6-2.2.9-4.5.9-6.8v-1.6l-2.3 2.3-2.3 2.3L89.3 89.8zM77.3 48.6c-.9-.6-2-1.1-3.1-1.6-.9-.4-1.8-.7-2.7-1l-4.1 4.1 5.7 5.6 6.1-6c-.5-.4-1.1-.7-1.6-1.1C77.5 48.7 77.4 48.6 77.3 48.6z"/><polygon fill="#ffd346" points="40.1 77.1 45.8 82.7 51.5 77.1 45.8 71.4"/><polygon fill="#ffd346" points="69.7 77.1 64 71.4 58.3 77.1 64 82.7"/><polygon fill="#ffd346" points="60.6 86.1 54.9 80.4 49.2 86.1 54.9 91.7"/><path fill="#ffd346" d="M73.1,98.4l-5.7,5.6l4.1,4.1c2.1-0.6,4-1.5,5.9-2.6c0.6-0.4,1.2-0.8,1.8-1.2L73.1,98.4z"/><polygon fill="#ffd346" points="67.4 68.1 73.1 73.7 78.8 68.1 73.1 62.5"/><polygon fill="#ffd346" points="87.9 77.1 82.2 71.4 76.5 77.1 82.2 82.7"/></svg>