<svg xmlns="http://www.w3.org/2000/svg" id="Outlined_1_" enable-background="new 0 0 128 128" viewBox="0 0 128 128"><path fill="#ffd346" d="M88.1,55.6c-3-4.9-6.1-9.9-8.3-15.7c-2.6-6.9-8.9-11.6-15.6-11.7h-0.5c-6.7,0.1-13,4.8-15.6,11.7
		c-2.1,5.8-5.3,10.8-8.3,15.7c-4.7,7.7-9.2,14.9-9.2,23.9c0,16.4,15,29.8,33.3,29.8s33.3-13.3,33.3-29.8
		C97.3,70.5,92.9,63.3,88.1,55.6z"/><path fill="#0a3960" d="M92.2,53.1c-2.9-4.7-5.9-9.5-7.9-14.8c-3.1-8.2-10.1-13.8-18.2-14.6c-0.5-3-1.9-6.9-5.6-9.3
		c-1.1-0.7-2.6-0.4-3.3,0.7c-0.7,1.1-0.4,2.6,0.7,3.3c2,1.3,2.9,3.4,3.3,5.3c-7.8,1-14.6,6.5-17.6,14.6c-2,5.3-5,10.2-7.9,14.8
		c-4.9,7.9-9.9,16-9.9,26.4C25.9,98.5,43,114,64,114s38.1-15.5,38.1-34.5C102.1,69.1,97.1,61,92.2,53.1z M64,109.2
		c-18.4,0-33.3-13.3-33.3-29.8c0-9,4.5-16.2,9.2-23.9c3-4.9,6.1-9.9,8.3-15.7c2.6-6.9,8.9-11.6,15.6-11.7h0.5
		c6.7,0.1,13,4.8,15.6,11.7c2.1,5.8,5.3,10.8,8.3,15.7c4.7,7.7,9.2,14.9,9.2,23.9C97.3,95.9,82.4,109.2,64,109.2z"/></svg>