<svg xmlns="http://www.w3.org/2000/svg" id="Outlined_1_" enable-background="new 0 0 128 128" viewBox="0 0 128 128"><path fill="#00bf4c" d="M40.9 102.1c-.3-.3-.5-.7-.8-1-.6-.7-1.1-1.4-1.7-2.2-.3-.5-.7-1-1-1.5C37 96.6 36.5 95.8 36 95c-.3-.6-.6-1.1-.9-1.7-.4-.8-.8-1.6-1.2-2.4-.3-.6-.6-1.2-.8-1.9-.4-.8-.7-1.7-1-2.6-.2-.7-.5-1.3-.7-2-.3-.9-.6-1.8-.8-2.8-.2-.7-.4-1.3-.5-2-.2-1-.4-2-.6-3-.1-.7-.3-1.3-.4-2-.2-1.1-.3-2.3-.4-3.5-.1-.6-.1-1.2-.2-1.7-.1-1.8-.2-3.6-.2-5.4 0-1.8.1-3.6.2-5.4 0-.6.1-1.2.2-1.7.1-1.2.2-2.3.4-3.5.1-.7.2-1.3.4-2 .2-1 .4-2 .6-3 .2-.7.4-1.4.5-2 .3-.9.5-1.9.8-2.8.2-.7.4-1.3.7-2 .3-.9.6-1.7 1-2.6.3-.6.5-1.3.8-1.9.4-.8.8-1.6 1.2-2.4.3-.6.6-1.2.9-1.7.4-.8.9-1.5 1.4-2.3.3-.5.6-1 1-1.5.5-.8 1.1-1.5 1.7-2.2.3-.3.5-.7.8-1C29 34 21.1 48 21.1 64S29 94 40.9 102.1zM87.1 25.9c.3.3.5.7.8 1 .6.7 1.1 1.4 1.7 2.2.3.5.7 1 1 1.5.5.7.9 1.5 1.4 2.3.3.6.6 1.1.9 1.7.4.8.8 1.6 1.2 2.4.3.6.6 1.2.8 1.9.4.8.7 1.7 1 2.6.2.7.5 1.3.7 2 .3.9.6 1.8.8 2.8.2.7.4 1.3.5 2 .2 1 .4 2 .6 3 .1.7.3 1.3.4 2 .2 1.1.3 2.3.4 3.5.1.6.1 1.2.2 1.7.1 1.8.2 3.6.2 5.4 0 1.8-.1 3.6-.2 5.4 0 .6-.1 1.2-.2 1.7-.1 1.2-.2 2.3-.4 3.5-.1.7-.2 1.3-.4 2-.2 1-.4 2-.6 3-.2.7-.4 1.4-.5 2-.3.9-.5 1.9-.8 2.8-.2.7-.4 1.3-.7 2-.3.9-.6 1.7-1 2.6-.3.6-.5 1.3-.8 1.9-.4.8-.8 1.6-1.2 2.4-.3.6-.6 1.2-.9 1.7-.4.8-.9 1.5-1.4 2.3-.3.5-.6 1-1 1.5-.5.8-1.1 1.5-1.7 2.2-.3.3-.5.7-.8 1C99 94 106.9 80 106.9 64S99 34 87.1 25.9z"/><path fill="#0a3960" d="M64,14c-26.3,0-47.6,22.4-47.6,50s21.4,50,47.6,50s47.6-22.4,47.6-50S90.3,14,64,14z M78.5,104
		c5.7-9.1,9.4-23.5,9.4-40s-3.6-30.9-9.4-40C88.3,31.6,95,46.7,95,64S88.3,96.4,78.5,104z M49.5,104C39.7,96.4,33,81.3,33,64
		s6.7-32.4,16.5-40c-5.7,9.1-9.4,23.5-9.4,40S43.8,94.9,49.5,104z M82.9,68.6c0,0.5-0.1,0.9-0.1,1.4c-0.1,1-0.1,2-0.2,3
		c0,0.5-0.1,1-0.1,1.5c-0.1,1-0.2,1.9-0.3,2.9c-0.1,0.4-0.1,0.9-0.2,1.3c-0.2,1.3-0.4,2.5-0.6,3.7c0,0.1,0,0.1,0,0.2
		c-0.2,1.3-0.5,2.5-0.8,3.7c-0.1,0.4-0.2,0.7-0.3,1.1c-0.2,0.8-0.4,1.6-0.7,2.4c-0.1,0.4-0.2,0.8-0.4,1.1c-0.2,0.8-0.5,1.5-0.8,2.2
		c-0.1,0.3-0.2,0.6-0.4,1c-0.3,0.9-0.7,1.8-1.1,2.6c0,0.1-0.1,0.2-0.1,0.3c-0.4,0.9-0.8,1.8-1.3,2.6c-0.1,0.2-0.3,0.4-0.4,0.7
		c-0.3,0.6-0.7,1.1-1,1.6c-0.2,0.2-0.3,0.5-0.5,0.7c-0.3,0.5-0.7,0.9-1,1.4c-0.2,0.2-0.3,0.4-0.5,0.6c-0.4,0.5-0.9,1-1.3,1.4
		c-0.1,0.1-0.1,0.1-0.2,0.2c-0.5,0.4-0.9,0.8-1.4,1.2c3.7-11.6,4.1-34.5,4.1-43.2s-0.4-31.6-4.1-43.2c0.5,0.4,0.9,0.7,1.4,1.2
		c0.1,0.1,0.1,0.1,0.2,0.2c0.4,0.4,0.9,0.9,1.3,1.4c0.2,0.2,0.3,0.4,0.5,0.6c0.3,0.4,0.7,0.9,1,1.4c0.2,0.2,0.3,0.5,0.5,0.7
		c0.3,0.5,0.7,1.1,1,1.6c0.1,0.2,0.3,0.4,0.4,0.7c0.4,0.8,0.9,1.7,1.3,2.6c0,0.1,0.1,0.2,0.1,0.3c0.4,0.8,0.7,1.7,1.1,2.6
		c0.1,0.3,0.2,0.6,0.4,1c0.3,0.7,0.5,1.4,0.8,2.2c0.1,0.4,0.2,0.7,0.4,1.1c0.2,0.8,0.5,1.6,0.7,2.4c0.1,0.4,0.2,0.7,0.3,1.1
		c0.3,1.2,0.6,2.4,0.8,3.7c0,0.1,0,0.1,0,0.2c0.2,1.2,0.4,2.4,0.6,3.7c0.1,0.4,0.1,0.9,0.2,1.3c0.1,0.9,0.2,1.9,0.3,2.9
		c0,0.5,0.1,1,0.1,1.5c0.1,1,0.2,2,0.2,3c0,0.5,0.1,0.9,0.1,1.4c0.1,1.5,0.1,3,0.1,4.6C83,65.6,83,67.1,82.9,68.6z M55.7,104.4
		c-0.2-0.2-0.3-0.4-0.5-0.6c-0.3-0.4-0.7-0.9-1-1.4c-0.2-0.2-0.3-0.5-0.5-0.7c-0.3-0.5-0.7-1.1-1-1.6c-0.1-0.2-0.3-0.4-0.4-0.7
		c-0.4-0.8-0.9-1.7-1.3-2.6c0-0.1-0.1-0.2-0.1-0.3c-0.4-0.8-0.7-1.7-1.1-2.6c-0.1-0.3-0.2-0.6-0.4-1c-0.3-0.7-0.5-1.4-0.8-2.2
		c-0.1-0.4-0.2-0.7-0.4-1.1c-0.2-0.8-0.5-1.6-0.7-2.4c-0.1-0.4-0.2-0.7-0.3-1.1c-0.3-1.2-0.6-2.4-0.8-3.7c0-0.1,0-0.1,0-0.2
		c-0.2-1.2-0.4-2.4-0.6-3.7c-0.1-0.4-0.1-0.9-0.2-1.3c-0.1-0.9-0.2-1.9-0.3-2.9c0-0.5-0.1-1-0.1-1.5c-0.1-1-0.2-2-0.2-3
		c0-0.5-0.1-0.9-0.1-1.4C45,67.1,45,65.6,45,64c0-1.6,0-3.1,0.1-4.6c0-0.5,0.1-0.9,0.1-1.4c0.1-1,0.1-2,0.2-3c0-0.5,0.1-1,0.1-1.5
		c0.1-1,0.2-1.9,0.3-2.9c0.1-0.4,0.1-0.9,0.2-1.3c0.2-1.3,0.4-2.5,0.6-3.7c0-0.1,0-0.1,0-0.2c0.2-1.3,0.5-2.5,0.8-3.7
		c0.1-0.4,0.2-0.7,0.3-1.1c0.2-0.8,0.4-1.6,0.7-2.4c0.1-0.4,0.2-0.8,0.4-1.1c0.2-0.8,0.5-1.5,0.8-2.2c0.1-0.3,0.2-0.6,0.4-1
		c0.3-0.9,0.7-1.8,1.1-2.6c0-0.1,0.1-0.2,0.1-0.3c0.4-0.9,0.8-1.8,1.3-2.6c0.1-0.2,0.3-0.4,0.4-0.7c0.3-0.6,0.7-1.1,1-1.6
		c0.2-0.2,0.3-0.5,0.5-0.7c0.3-0.5,0.7-0.9,1-1.4c0.2-0.2,0.3-0.4,0.5-0.6c0.4-0.5,0.9-1,1.3-1.4c0.1-0.1,0.1-0.1,0.2-0.2
		c0.5-0.4,0.9-0.8,1.4-1.2c-3.7,11.6-4.1,34.5-4.1,43.2s0.4,31.6,4.1,43.2c-0.5-0.4-0.9-0.7-1.4-1.2c-0.1-0.1-0.1-0.1-0.2-0.2
		C56.5,105.4,56.1,104.9,55.7,104.4z M68.7,68.6c0,0.5,0,1,0,1.5c0,1,0,1.9-0.1,2.9c0,0.6,0,1.1-0.1,1.7c0,0.8-0.1,1.7-0.1,2.5
		c0,0.6-0.1,1.1-0.1,1.7c0,0.7-0.1,1.5-0.1,2.2c0,0.6-0.1,1.1-0.1,1.7c0,0.7-0.1,1.4-0.1,2c0,0.5-0.1,1.1-0.1,1.6
		c-0.1,0.6-0.1,1.3-0.2,1.9c0,0.5-0.1,1-0.1,1.5c-0.1,0.6-0.1,1.2-0.2,1.8c-0.1,0.5-0.1,0.9-0.2,1.4c-0.1,0.6-0.1,1.1-0.2,1.6
		c-0.1,0.4-0.1,0.9-0.2,1.3c-0.1,0.5-0.1,1-0.2,1.5c-0.1,0.4-0.1,0.8-0.2,1.1c-0.1,0.5-0.2,0.9-0.2,1.4c-0.1,0.3-0.1,0.7-0.2,1
		c-0.1,0.5-0.2,0.9-0.3,1.3c-0.1,0.3-0.1,0.5-0.2,0.8c-0.1,0.5-0.2,0.9-0.3,1.4c0,0.2-0.1,0.3-0.1,0.5c-0.1,0.6-0.3,1.1-0.4,1.6
		c0,0.1,0,0.1-0.1,0.2c-0.1,0.4-0.2,0.8-0.4,1.1c0,0.1-0.1,0.2-0.1,0.3c-0.1,0.2-0.2,0.4-0.2,0.5c-0.1-0.2-0.2-0.3-0.2-0.5
		c0-0.1-0.1-0.2-0.1-0.3c-0.1-0.3-0.2-0.7-0.4-1.1c0-0.1,0-0.1-0.1-0.2c-0.1-0.5-0.3-1-0.4-1.6c0-0.1-0.1-0.3-0.1-0.5
		c-0.1-0.4-0.2-0.9-0.3-1.4c-0.1-0.2-0.1-0.5-0.2-0.8c-0.1-0.4-0.2-0.9-0.3-1.3c-0.1-0.3-0.1-0.7-0.2-1c-0.1-0.5-0.2-0.9-0.2-1.4
		c-0.1-0.4-0.1-0.8-0.2-1.1c-0.1-0.5-0.1-1-0.2-1.5c-0.1-0.4-0.1-0.9-0.2-1.3c-0.1-0.5-0.1-1.1-0.2-1.6c-0.1-0.5-0.1-0.9-0.2-1.4
		c-0.1-0.6-0.1-1.2-0.2-1.8c0-0.5-0.1-1-0.1-1.5c-0.1-0.6-0.1-1.3-0.2-1.9c0-0.5-0.1-1.1-0.1-1.6c0-0.7-0.1-1.4-0.1-2
		c0-0.6-0.1-1.1-0.1-1.7c0-0.7-0.1-1.5-0.1-2.2c0-0.6-0.1-1.1-0.1-1.7c0-0.8-0.1-1.7-0.1-2.5c0-0.6,0-1.1-0.1-1.7
		c0-0.9,0-1.9-0.1-2.9c0-0.5,0-1,0-1.5c0-1.5,0-3,0-4.6s0-3.1,0-4.6c0-0.5,0-1,0-1.5c0-1,0-1.9,0.1-2.9c0-0.6,0-1.1,0.1-1.7
		c0-0.8,0.1-1.7,0.1-2.5c0-0.6,0.1-1.1,0.1-1.7c0-0.7,0.1-1.5,0.1-2.2c0-0.6,0.1-1.1,0.1-1.7c0-0.7,0.1-1.4,0.1-2
		c0-0.5,0.1-1.1,0.1-1.6c0.1-0.6,0.1-1.3,0.2-1.9c0-0.5,0.1-1,0.1-1.5c0.1-0.6,0.1-1.2,0.2-1.8c0.1-0.5,0.1-0.9,0.2-1.4
		c0.1-0.6,0.1-1.1,0.2-1.6c0.1-0.4,0.1-0.9,0.2-1.3c0.1-0.5,0.1-1,0.2-1.5c0.1-0.4,0.1-0.8,0.2-1.1c0.1-0.5,0.2-0.9,0.2-1.4
		c0.1-0.3,0.1-0.7,0.2-1c0.1-0.5,0.2-0.9,0.3-1.3c0.1-0.3,0.1-0.5,0.2-0.8c0.1-0.5,0.2-0.9,0.3-1.4c0-0.2,0.1-0.3,0.1-0.5
		c0.1-0.6,0.3-1.1,0.4-1.6c0-0.1,0-0.1,0.1-0.2c0.1-0.4,0.2-0.8,0.4-1.1c0-0.1,0.1-0.2,0.1-0.3c0.1-0.2,0.2-0.4,0.2-0.5
		c0.1,0.2,0.2,0.3,0.2,0.5c0,0.1,0.1,0.2,0.1,0.3c0.1,0.3,0.2,0.7,0.4,1.1c0,0.1,0,0.1,0.1,0.2c0.1,0.5,0.3,1,0.4,1.6
		c0,0.1,0.1,0.3,0.1,0.5c0.1,0.4,0.2,0.9,0.3,1.4c0.1,0.2,0.1,0.5,0.2,0.8c0.1,0.4,0.2,0.9,0.3,1.3c0.1,0.3,0.1,0.7,0.2,1
		c0.1,0.5,0.2,0.9,0.2,1.4c0.1,0.4,0.1,0.8,0.2,1.1c0.1,0.5,0.1,1,0.2,1.5c0.1,0.4,0.1,0.9,0.2,1.3c0.1,0.5,0.1,1.1,0.2,1.6
		c0.1,0.5,0.1,0.9,0.2,1.4c0.1,0.6,0.1,1.2,0.2,1.8c0,0.5,0.1,1,0.1,1.5c0.1,0.6,0.1,1.3,0.2,1.9c0,0.5,0.1,1.1,0.1,1.6
		c0,0.7,0.1,1.4,0.1,2c0,0.6,0.1,1.1,0.1,1.7c0,0.7,0.1,1.5,0.1,2.2c0,0.6,0.1,1.1,0.1,1.7c0,0.8,0.1,1.7,0.1,2.5
		c0,0.6,0,1.1,0.1,1.7c0,0.9,0,1.9,0.1,2.9c0,0.5,0,1,0,1.5c0,1.5,0,3,0,4.6S68.7,67.1,68.7,68.6z M40.9,25.9
		c-0.3,0.3-0.5,0.7-0.8,1c-0.6,0.7-1.1,1.4-1.7,2.2c-0.3,0.5-0.7,1-1,1.5C37,31.4,36.5,32.2,36,33c-0.3,0.6-0.6,1.1-0.9,1.7
		c-0.4,0.8-0.8,1.6-1.2,2.4c-0.3,0.6-0.6,1.2-0.8,1.9c-0.4,0.8-0.7,1.7-1,2.6c-0.2,0.7-0.5,1.3-0.7,2c-0.3,0.9-0.6,1.8-0.8,2.8
		c-0.2,0.7-0.4,1.3-0.5,2c-0.2,1-0.4,2-0.6,3c-0.1,0.7-0.3,1.3-0.4,2c-0.2,1.1-0.3,2.3-0.4,3.5c-0.1,0.6-0.1,1.2-0.2,1.7
		c-0.1,1.8-0.2,3.6-0.2,5.4c0,1.8,0.1,3.6,0.2,5.4c0,0.6,0.1,1.2,0.2,1.7c0.1,1.2,0.2,2.3,0.4,3.5c0.1,0.7,0.2,1.3,0.4,2
		c0.2,1,0.4,2,0.6,3c0.2,0.7,0.4,1.4,0.5,2c0.3,0.9,0.5,1.9,0.8,2.8c0.2,0.7,0.4,1.3,0.7,2c0.3,0.9,0.6,1.7,1,2.6
		c0.3,0.6,0.5,1.3,0.8,1.9c0.4,0.8,0.8,1.6,1.2,2.4c0.3,0.6,0.6,1.2,0.9,1.7c0.4,0.8,0.9,1.5,1.4,2.3c0.3,0.5,0.6,1,1,1.5
		c0.5,0.8,1.1,1.5,1.7,2.2c0.3,0.3,0.5,0.7,0.8,1C29,94,21.1,80,21.1,64S29,34,40.9,25.9z M87.1,102.1c0.3-0.3,0.5-0.7,0.8-1
		c0.6-0.7,1.1-1.4,1.7-2.2c0.3-0.5,0.7-1,1-1.5c0.5-0.7,0.9-1.5,1.4-2.3c0.3-0.6,0.6-1.1,0.9-1.7c0.4-0.8,0.8-1.6,1.2-2.4
		c0.3-0.6,0.6-1.2,0.8-1.9c0.4-0.8,0.7-1.7,1-2.6c0.2-0.7,0.5-1.3,0.7-2c0.3-0.9,0.6-1.8,0.8-2.8c0.2-0.7,0.4-1.3,0.5-2
		c0.2-1,0.4-2,0.6-3c0.1-0.7,0.3-1.3,0.4-2c0.2-1.1,0.3-2.3,0.4-3.5c0.1-0.6,0.1-1.2,0.2-1.7c0.1-1.8,0.2-3.6,0.2-5.4
		c0-1.8-0.1-3.6-0.2-5.4c0-0.6-0.1-1.2-0.2-1.7c-0.1-1.2-0.2-2.3-0.4-3.5c-0.1-0.7-0.2-1.3-0.4-2c-0.2-1-0.4-2-0.6-3
		c-0.2-0.7-0.4-1.4-0.5-2c-0.3-0.9-0.5-1.9-0.8-2.8c-0.2-0.7-0.4-1.3-0.7-2c-0.3-0.9-0.6-1.7-1-2.6c-0.3-0.6-0.5-1.3-0.8-1.9
		c-0.4-0.8-0.8-1.6-1.2-2.4c-0.3-0.6-0.6-1.2-0.9-1.7c-0.4-0.8-0.9-1.5-1.4-2.3c-0.3-0.5-0.6-1-1-1.5c-0.5-0.8-1.1-1.5-1.7-2.2
		c-0.3-0.3-0.5-0.7-0.8-1C99,34,106.9,48,106.9,64S99,94,87.1,102.1z"/><path fill="#80dfa5" d="M68.7,57.9c0-1,0-1.9-0.1-2.9c0-0.6,0-1.1-0.1-1.7c0-0.8-0.1-1.7-0.1-2.5c0-0.6-0.1-1.1-0.1-1.7
		c0-0.7-0.1-1.5-0.1-2.2c0-0.6-0.1-1.1-0.1-1.7c0-0.7-0.1-1.4-0.1-2c0-0.5-0.1-1.1-0.1-1.6c-0.1-0.6-0.1-1.3-0.2-1.9
		c0-0.5-0.1-1-0.1-1.5c-0.1-0.6-0.1-1.2-0.2-1.8c-0.1-0.5-0.1-0.9-0.2-1.4c-0.1-0.6-0.1-1.1-0.2-1.6c-0.1-0.4-0.1-0.9-0.2-1.3
		c-0.1-0.5-0.1-1-0.2-1.5c-0.1-0.4-0.1-0.8-0.2-1.1c-0.1-0.5-0.2-0.9-0.2-1.4c-0.1-0.3-0.1-0.7-0.2-1c-0.1-0.5-0.2-0.9-0.3-1.3
		c-0.1-0.3-0.1-0.5-0.2-0.8c-0.1-0.5-0.2-0.9-0.3-1.4c0-0.2-0.1-0.3-0.1-0.5c-0.1-0.6-0.3-1.1-0.4-1.6c0-0.1,0-0.1-0.1-0.2
		c-0.1-0.4-0.2-0.8-0.4-1.1c0-0.1-0.1-0.2-0.1-0.3c-0.1-0.2-0.2-0.4-0.2-0.5c-0.1,0.2-0.2,0.3-0.2,0.5c0,0.1-0.1,0.2-0.1,0.3
		c-0.1,0.3-0.2,0.7-0.4,1.1c0,0.1,0,0.1-0.1,0.2c-0.1,0.5-0.3,1-0.4,1.6c0,0.1-0.1,0.3-0.1,0.5c-0.1,0.4-0.2,0.9-0.3,1.4
		c-0.1,0.2-0.1,0.5-0.2,0.8c-0.1,0.4-0.2,0.9-0.3,1.3c-0.1,0.3-0.1,0.7-0.2,1c-0.1,0.5-0.2,0.9-0.2,1.4c-0.1,0.4-0.1,0.8-0.2,1.1
		c-0.1,0.5-0.1,1-0.2,1.5c-0.1,0.4-0.1,0.9-0.2,1.3c-0.1,0.5-0.1,1.1-0.2,1.6c-0.1,0.5-0.1,0.9-0.2,1.4c-0.1,0.6-0.1,1.2-0.2,1.8
		c0,0.5-0.1,1-0.1,1.5c-0.1,0.6-0.1,1.3-0.2,1.9c0,0.5-0.1,1.1-0.1,1.6c0,0.7-0.1,1.4-0.1,2c0,0.6-0.1,1.1-0.1,1.7
		c0,0.7-0.1,1.5-0.1,2.2c0,0.6-0.1,1.1-0.1,1.7c0,0.8-0.1,1.7-0.1,2.5c0,0.6,0,1.1-0.1,1.7c0,0.9,0,1.9-0.1,2.9c0,0.5,0,1,0,1.5
		c0,1.5,0,3,0,4.6s0,3.1,0,4.6c0,0.5,0,1,0,1.5c0,1,0,1.9,0.1,2.9c0,0.6,0,1.1,0.1,1.7c0,0.8,0.1,1.7,0.1,2.5c0,0.6,0.1,1.1,0.1,1.7
		c0,0.7,0.1,1.5,0.1,2.2c0,0.6,0.1,1.1,0.1,1.7c0,0.7,0.1,1.4,0.1,2c0,0.5,0.1,1.1,0.1,1.6c0.1,0.6,0.1,1.3,0.2,1.9
		c0,0.5,0.1,1,0.1,1.5c0.1,0.6,0.1,1.2,0.2,1.8c0.1,0.5,0.1,0.9,0.2,1.4c0.1,0.6,0.1,1.1,0.2,1.6c0.1,0.4,0.1,0.9,0.2,1.3
		c0.1,0.5,0.1,1,0.2,1.5c0.1,0.4,0.1,0.8,0.2,1.1c0.1,0.5,0.2,0.9,0.2,1.4c0.1,0.3,0.1,0.7,0.2,1c0.1,0.5,0.2,0.9,0.3,1.3
		c0.1,0.3,0.1,0.5,0.2,0.8c0.1,0.5,0.2,0.9,0.3,1.4c0,0.2,0.1,0.3,0.1,0.5c0.1,0.6,0.3,1.1,0.4,1.6c0,0.1,0,0.1,0.1,0.2
		c0.1,0.4,0.2,0.8,0.4,1.1c0,0.1,0.1,0.2,0.1,0.3c0.1,0.2,0.2,0.4,0.2,0.5c0.1-0.2,0.2-0.3,0.2-0.5c0-0.1,0.1-0.2,0.1-0.3
		c0.1-0.3,0.2-0.7,0.4-1.1c0-0.1,0-0.1,0.1-0.2c0.1-0.5,0.3-1,0.4-1.6c0-0.1,0.1-0.3,0.1-0.5c0.1-0.4,0.2-0.9,0.3-1.4
		c0.1-0.2,0.1-0.5,0.2-0.8c0.1-0.4,0.2-0.9,0.3-1.3c0.1-0.3,0.1-0.7,0.2-1c0.1-0.5,0.2-0.9,0.2-1.4c0.1-0.4,0.1-0.8,0.2-1.1
		c0.1-0.5,0.1-1,0.2-1.5c0.1-0.4,0.1-0.9,0.2-1.3c0.1-0.5,0.1-1.1,0.2-1.6c0.1-0.5,0.1-0.9,0.2-1.4c0.1-0.6,0.1-1.2,0.2-1.8
		c0-0.5,0.1-1,0.1-1.5c0.1-0.6,0.1-1.3,0.2-1.9c0-0.5,0.1-1.1,0.1-1.6c0-0.7,0.1-1.4,0.1-2c0-0.6,0.1-1.1,0.1-1.7
		c0-0.7,0.1-1.5,0.1-2.2c0-0.6,0.1-1.1,0.1-1.7c0-0.8,0.1-1.7,0.1-2.5c0-0.6,0-1.1,0.1-1.7c0-0.9,0-1.9,0.1-2.9c0-0.5,0-1,0-1.5
		c0-1.5,0-3,0-4.6s0-3.1,0-4.6C68.7,58.9,68.7,58.4,68.7,57.9z"/><path fill="#00bf4c" d="M58.6,107.2c-3.7-11.6-4.1-34.5-4.1-43.2s0.4-31.6,4.1-43.2c-0.5,0.4-0.9,0.7-1.4,1.2
		c-0.1,0.1-0.1,0.1-0.2,0.2c-0.4,0.4-0.9,0.9-1.3,1.4c-0.2,0.2-0.3,0.4-0.5,0.6c-0.3,0.4-0.7,0.9-1,1.4c-0.2,0.2-0.3,0.5-0.5,0.7
		c-0.3,0.5-0.7,1.1-1,1.6c-0.1,0.2-0.3,0.4-0.4,0.7c-0.4,0.8-0.9,1.7-1.3,2.6c0,0.1-0.1,0.2-0.1,0.3c-0.4,0.8-0.7,1.7-1.1,2.6
		c-0.1,0.3-0.2,0.6-0.4,1c-0.3,0.7-0.5,1.4-0.8,2.2c-0.1,0.4-0.2,0.7-0.4,1.1c-0.2,0.8-0.5,1.6-0.7,2.4c-0.1,0.4-0.2,0.7-0.3,1.1
		c-0.3,1.2-0.6,2.4-0.8,3.7c0,0.1,0,0.1,0,0.2c-0.2,1.2-0.4,2.4-0.6,3.7c-0.1,0.4-0.1,0.9-0.2,1.3c-0.1,0.9-0.2,1.9-0.3,2.9
		c0,0.5-0.1,1-0.1,1.5c-0.1,1-0.2,2-0.2,3c0,0.5-0.1,0.9-0.1,1.4C45,60.9,45,62.4,45,64c0,1.6,0,3.1,0.1,4.6c0,0.5,0.1,0.9,0.1,1.4
		c0.1,1,0.1,2,0.2,3c0,0.5,0.1,1,0.1,1.5c0.1,1,0.2,1.9,0.3,2.9c0.1,0.4,0.1,0.9,0.2,1.3c0.2,1.3,0.4,2.5,0.6,3.7c0,0.1,0,0.1,0,0.2
		c0.2,1.3,0.5,2.5,0.8,3.7c0.1,0.4,0.2,0.7,0.3,1.1c0.2,0.8,0.4,1.6,0.7,2.4c0.1,0.4,0.2,0.8,0.4,1.1c0.2,0.8,0.5,1.5,0.8,2.2
		c0.1,0.3,0.2,0.6,0.4,1c0.3,0.9,0.7,1.8,1.1,2.6c0,0.1,0.1,0.2,0.1,0.3c0.4,0.9,0.8,1.8,1.3,2.6c0.1,0.2,0.3,0.4,0.4,0.7
		c0.3,0.6,0.7,1.1,1,1.6c0.2,0.2,0.3,0.5,0.5,0.7c0.3,0.5,0.7,0.9,1,1.4c0.2,0.2,0.3,0.4,0.5,0.6c0.4,0.5,0.9,1,1.3,1.4
		c0.1,0.1,0.1,0.1,0.2,0.2C57.6,106.4,58.1,106.8,58.6,107.2z"/><path fill="#80dfa5" d="M40.2,64c0-16.5,3.6-30.9,9.4-40C39.7,31.6,33,46.7,33,64s6.7,32.4,16.5,40C43.8,94.9,40.2,80.5,40.2,64z"/><path fill="#00bf4c" d="M82.9,58.1c-0.1-1-0.1-2-0.2-3c0-0.5-0.1-1-0.1-1.5c-0.1-1-0.2-1.9-0.3-2.9c-0.1-0.4-0.1-0.9-0.2-1.3
		c-0.2-1.3-0.4-2.5-0.6-3.7c0-0.1,0-0.1,0-0.2c-0.2-1.3-0.5-2.5-0.8-3.7c-0.1-0.4-0.2-0.7-0.3-1.1c-0.2-0.8-0.4-1.6-0.7-2.4
		c-0.1-0.4-0.2-0.8-0.4-1.1c-0.2-0.8-0.5-1.5-0.8-2.2c-0.1-0.3-0.2-0.6-0.4-1c-0.3-0.9-0.7-1.8-1.1-2.6c0-0.1-0.1-0.2-0.1-0.3
		c-0.4-0.9-0.8-1.8-1.3-2.6c-0.1-0.2-0.3-0.4-0.4-0.7c-0.3-0.6-0.7-1.1-1-1.6c-0.2-0.2-0.3-0.5-0.5-0.7c-0.3-0.5-0.7-0.9-1-1.4
		c-0.2-0.2-0.3-0.4-0.5-0.6c-0.4-0.5-0.9-1-1.3-1.4c-0.1-0.1-0.1-0.1-0.2-0.2c-0.5-0.4-0.9-0.8-1.4-1.2c3.7,11.6,4.1,34.5,4.1,43.2
		s-0.4,31.6-4.1,43.2c0.5-0.4,0.9-0.7,1.4-1.2c0.1-0.1,0.1-0.1,0.2-0.2c0.4-0.4,0.9-0.9,1.3-1.4c0.2-0.2,0.3-0.4,0.5-0.6
		c0.3-0.4,0.7-0.9,1-1.4c0.2-0.2,0.3-0.5,0.5-0.7c0.3-0.5,0.7-1.1,1-1.6c0.1-0.2,0.3-0.4,0.4-0.7c0.4-0.8,0.9-1.7,1.3-2.6
		c0-0.1,0.1-0.2,0.1-0.3c0.4-0.8,0.7-1.7,1.1-2.6c0.1-0.3,0.2-0.6,0.4-1c0.3-0.7,0.5-1.4,0.8-2.2c0.1-0.4,0.2-0.7,0.4-1.1
		c0.2-0.8,0.5-1.6,0.7-2.4c0.1-0.4,0.2-0.7,0.3-1.1c0.3-1.2,0.6-2.4,0.8-3.7c0-0.1,0-0.1,0-0.2c0.2-1.2,0.4-2.4,0.6-3.7
		c0.1-0.4,0.1-0.9,0.2-1.3c0.1-0.9,0.2-1.9,0.3-2.9c0-0.5,0.1-1,0.1-1.5c0.1-1,0.2-2,0.2-3c0-0.5,0.1-0.9,0.1-1.4
		c0.1-1.5,0.1-3,0.1-4.6c0-1.6,0-3.1-0.1-4.6C82.9,59,82.9,58.5,82.9,58.1z"/><path fill="#80dfa5" d="M78.5,24c5.7,9.1,9.4,23.5,9.4,40s-3.6,30.9-9.4,40C88.3,96.4,95,81.3,95,64S88.3,31.6,78.5,24z"/></svg>