<svg xmlns="http://www.w3.org/2000/svg" enable-background="new 0 0 128 128" viewBox="0 0 128 128"><path fill="#ffd346" d="M64 19.8c-1.9 2.2-4.8 6.3-4.8 10.8 0 4.6 2.9 8.6 4.8 10.8 1.9-2.2 4.8-6.3 4.8-10.8C68.8 26.1 65.9 22 64 19.8zM76.6 50.4c2.9-2.9 3.7-7.4 4-10.1-2.7.2-7.2 1.1-10.1 4-2.9 2.9-3.8 7.4-4 10.1C69.2 54.2 73.7 53.3 76.6 50.4zM61.5 54.4c-.2-2.7-1.1-7.2-4-10.1-2.9-2.9-7.4-3.7-10.1-4 .2 2.7 1.1 7.2 4 10.1C54.3 53.3 58.8 54.1 61.5 54.4zM70.4 60.9c-2.9 2.9-3.8 7.4-4 10.1 2.7-.2 7.2-1 10.1-4 2.9-2.9 3.7-7.4 4-10.1C77.9 57.2 73.4 58 70.4 60.9z"/><path fill="#0a3960" d="M85.4,54.4c-0.1-1.2-1-2.2-2.2-2.2c-0.1,0-0.8,0-1.8,0c4.4-5.9,4.1-14.1,4-14.4c-0.1-1.2-1-2.2-2.2-2.2
		c-0.3,0-5.8-0.3-11.1,2.1c0.9-2.1,1.5-4.4,1.5-6.9c0-8.8-7.6-15.8-7.9-16.1c-0.9-0.8-2.3-0.8-3.2,0c-0.3,0.3-7.9,7.2-7.9,16.1
		c0,2.5,0.6,4.8,1.5,6.9c-5.3-2.4-10.8-2.1-11.1-2.1c-1.2,0.1-2.2,1-2.2,2.2c0,0.4-0.4,8.5,4,14.4c-1,0-1.7,0-1.8,0
		c-1.2,0.1-2.2,1-2.2,2.2c0,0.4-0.4,8.5,4,14.4c-1,0-1.7,0-1.8,0c-1.2,0.1-2.2,1-2.2,2.2c0,0.4-0.5,10.1,5.4,16.1
		c4.2,4.2,10.2,5.2,13.6,5.4v19.1c0,1.3,1.1,2.4,2.4,2.4s2.4-1.1,2.4-2.4V92.5c3.4-0.2,9.4-1.2,13.6-5.4c0,0,0,0,0,0
		c5.9-5.9,5.5-15.7,5.4-16.1c-0.1-1.2-1-2.2-2.2-2.2c-0.1,0-0.8,0-1.8,0C85.8,62.9,85.4,54.7,85.4,54.4z M51.4,83.7
		c-2.9-2.9-3.7-7.4-4-10.1c2.7,0.2,7.2,1.1,10.1,4c2.9,3,3.8,7.4,4,10.1C58.8,87.5,54.3,86.6,51.4,83.7z M47.4,57
		c2.7,0.2,7.2,1.1,10.1,4c2.9,3,3.8,7.4,4,10.1c-2.7-0.2-7.2-1.1-10.1-4C48.5,64.1,47.7,59.7,47.4,57z M47.4,40.3
		c2.7,0.2,7.2,1.1,10.1,4c2.9,3,3.8,7.4,4,10.1c-2.7-0.2-7.2-1.1-10.1-4C48.5,47.5,47.7,43,47.4,40.3z M80.6,40.3
		c-0.2,2.7-1.1,7.2-4,10.1c-2.9,2.9-7.4,3.8-10.1,4c0.2-2.7,1-7.2,4-10.1C73.4,41.3,77.9,40.5,80.6,40.3z M64,41.5
		c-1.9-2.2-4.8-6.3-4.8-10.8c0-4.5,2.9-8.6,4.8-10.8c1.9,2.2,4.8,6.3,4.8,10.8C68.8,35.2,65.9,39.3,64,41.5z M66.5,87.7
		c0.2-2.7,1-7.2,4-10.1c2.9-2.9,7.4-3.7,10.1-4c-0.2,2.7-1.1,7.2-4,10.1C73.7,86.7,69.2,87.5,66.5,87.7z M66.5,71.1
		c0.2-2.7,1-7.2,4-10.1c2.9-2.9,7.4-3.7,10.1-4c-0.2,2.7-1.1,7.2-4,10.1C73.7,70,69.2,70.8,66.5,71.1z"/><path fill="#ffd346" d="M61.5 71c-.2-2.7-1.1-7.2-4-10.1-2.9-2.9-7.4-3.7-10.1-4 .2 2.7 1.1 7.2 4 10.1C54.3 70 58.8 70.8 61.5 71zM70.4 77.6c-2.9 2.9-3.8 7.4-4 10.1 2.7-.2 7.2-1 10.1-4 2.9-2.9 3.7-7.4 4-10.1C77.9 73.8 73.4 74.7 70.4 77.6zM47.4 73.6c.2 2.7 1.1 7.2 4 10.1 2.9 2.9 7.4 3.7 10.1 4-.2-2.7-1.1-7.2-4-10.1C54.6 74.7 50.1 73.9 47.4 73.6z"/></svg>