<svg xmlns="http://www.w3.org/2000/svg" enable-background="new 0 0 128 128" viewBox="0 0 128 128"><path fill="#00bf4c" d="M54.8 31.3c.2.1.3.3.5.4.2.2.4.4.6.5.2.1.3.3.5.4.2.2.3.3.5.5.2.2.3.3.5.5.1.1.3.3.4.4.2.2.4.4.5.6.1.1.2.2.2.2.1-.1.2-.2.3-.3.1-.1.2-.2.3-.3.2-.2.4-.4.5-.5.1-.1.1-.1.2-.2.2-.2.3-.3.5-.5.1-.1.1-.1.2-.2.2-.2.3-.3.5-.4 0 0 .1-.1.1-.1.1-.1.3-.2.4-.3 0 0 .1-.1.1-.1.1-.1.2-.2.3-.2 0 0 .1-.1.1-.1.1-.1.1-.1.2-.1 0 0 .1-.1.1-.1.1 0 .1-.1.1-.1.9-.7 2.2-.7 3.1 0 0 0 .2.1.4.3 0 0 0 0 .1 0 .1.1.2.2.3.3.1 0 .1.1.2.2.1.1.2.2.3.3.1.1.2.2.3.3.1.1.2.2.3.3.1.1.2.2.4.3.1.1.2.2.3.3.1.1.3.3.4.4.1.1.2.2.3.3.2.2.3.3.5.5.1.1.1.1.2.2.1-.1.2-.2.3-.3.2-.2.3-.4.5-.5.1-.1.3-.3.4-.4.2-.2.4-.4.5-.5.1-.1.3-.3.4-.4.2-.2.4-.4.6-.6.1-.1.3-.3.4-.4.2-.2.4-.4.6-.6.1-.1.2-.2.3-.2-1.5-2.6-3.5-5-5-6.6-.1-.1-.2-.2-.3-.3-.7-.8-1.2-1.4-1.8-1.9-1-1-1.8-1.8-2.5-2.5-.7.6-1.5 1.5-2.5 2.4-.6.6-1.2 1.2-1.8 1.9L59.6 24c-.1.1-.2.3-.3.4-2 2.2-3.6 4.4-4.8 6.5C54.6 31 54.7 31.1 54.8 31.3zM37 42.5c.2.1.6.3.9.4 0 0 0 0 0 0 0 0 0 0 0 0 .8.4 1.7.9 2.6 1.4.3.2.7.4 1 .6 0 0 0 0 0 0l0 0c0 0 0 0 0 0l.3.2c.2.2.5.3.7.5.9.6 1.8 1.3 2.6 2 .1.1.3.3.5.4 0 0 0 0 0 0 0 0 0 0 0 0l.3-.5c.1-.3.3-.4.4-.6l0 0c.1-.2.2-.4.3-.5.1-.2.2-.3.3-.4L47 46c.4-.7 1.2-1 1.9-1 0 0 0 0 0 0 .1 0 .2 0 .3 0 0 0 .1 0 .1 0 .1 0 .2 0 .2.1.1 0 .1 0 .2.1.1 0 .1.1.2.1.1 0 .2.1.2.1 0 0 .1-.1.1-.1.3-.5.5-.9.9-1.4.1-.1.1-.2.2-.3.3-.5.6-1 1-1.5 0 0 0-.1.1-.1.4-.5.8-1 1.2-1.5.1-.1.2-.2.2-.3.4-.5.8-1 1.3-1.5 0 0 .1-.1.1-.1-1.4-1.7-3.3-3.4-5.3-5.1L49.5 33c-.1-.1-.2-.2-.4-.3L49 32.6c-.7-.5-1.3-1-1.9-1.5-1.1-.8-2.1-1.5-2.9-2-.6.7-1.3 1.7-2 2.8-.5.6-.8 1.2-1.2 1.8l-.2.4c-.1.2-.2.4-.3.5-1.8 2.8-3.1 5.4-3.9 7.7C36.7 42.4 36.8 42.4 37 42.5zM78.6 32.8L78 33.3c-2.1 1.7-3.9 3.5-5.4 5.1.3.3.5.6.8.9.2.2.4.4.6.7.5.6.9 1.1 1.3 1.7.1.1.1.2.2.2.5.6.9 1.2 1.3 1.8.1.2.3.4.4.6.2.3.4.6.6.9.8-.5 1.9-.5 2.6.1.1.1.2.2.3.3.1.1.2.3.4.5.1.1.2.3.3.4.2.3.2.3.3.4l.7 1.2c.1-.1.1-.1.2-.1.2-.2.4-.4.6-.6.1-.1.2-.2.3-.3.3-.3.7-.5 1-.8.1 0 .1-.1.2-.1.3-.2.6-.4.9-.6.1-.1.3-.2.4-.2.2-.2.5-.3.7-.5.1-.1.3-.2.4-.2.3-.2.5-.3.8-.4.1-.1.2-.1.3-.2.7-.4 1.5-.8 2.2-1.1.1 0 .2-.1.3-.1.3-.1.5-.3.8-.4 0 0 .1 0 .1-.1-.9-2.3-2.2-4.9-3.9-7.7-.1-.2-.2-.3-.3-.5-.5-.8-1-1.5-1.4-2.2-.8-1.1-1.5-2.1-2-2.8-.8.5-1.7 1.2-2.8 2-.7.5-1.4 1.1-2.2 1.7C78.6 32.7 78.6 32.8 78.6 32.8zM55.7 49.5C55.7 49.5 55.8 49.5 55.7 49.5c.6.5 1 .9 1.5 1.4.1.1.3.2.4.4.4.4.8.8 1.3 1.3.1.1.2.2.2.3.5.5.9 1 1.3 1.6 0 .1.1.1.1.2 0 0 0 0 0 0 .2-.2.4-.5.6-.7.1-.1.1-.1.1-.2.1-.1.3-.3.4-.4 0 0 .1-.1.1-.1.1-.1.2-.2.3-.3 0 0 0 0 0 0 .1-.1.1-.1.1-.1.5-.5 1.1-.7 1.7-.7.6 0 1.2.2 1.7.7 0 0 .2.2.5.5 0 0 0 0 0 0 .1.1.3.3.5.5 0 0 0 0 0 0 .2.2.4.4.7.7 0 0 0 0 0 0 0-.1.1-.1.1-.2.4-.5.9-1.1 1.3-1.6.1-.1.2-.2.2-.2.4-.4.8-.9 1.2-1.3.1-.1.3-.3.4-.4.5-.5 1-.9 1.5-1.3 0 0 .1-.1.1-.1.5-.4.9-.8 1.3-1.1.1 0 .1-.1.2-.2-1.3-2.3-3-4.7-5.3-7.2-.1-.1-.2-.2-.3-.3l-.5-.5c-.5-.5-.9-1-1.3-1.4-.9-1-1.8-1.8-2.5-2.4-.7.6-1.5 1.5-2.5 2.4-.5.5-.9.9-1.3 1.4l-.5.6c-.1.1-.2.3-.4.4-2.2 2.5-3.9 4.9-5.1 7.1 0 0 0 0 0 0 0 0 .1.1.2.1C54.8 48.7 55.2 49.1 55.7 49.5zM67.5 94.6c-.3.1-.6.1-1 .2-.1 0-.1 0-.2 0-.8.1-1.5.2-2.3.2-.4 0-.8 0-1.2 0-.1 0-.1 0-.2 0-.3 0-.6-.1-.9-.1-.1 0-.2 0-.3 0-.3 0-.5-.1-.8-.2-.1 0-.2 0-.3-.1-.3-.1-.5-.1-.8-.2-.1 0-.2 0-.3-.1l0 12.6c0 1.3 1.1 2.4 2.4 2.4l4.8 0c1.3 0 2.4-1 2.4-2.4l0-12.6c-.1 0-.1 0-.2.1-.2.1-.5.1-.7.2C67.7 94.5 67.6 94.5 67.5 94.6zM31.4 60.2c.3.5.5 1 .8 1.5.1 0 .3 0 .4 0 .4 0 .8 0 1.2 0 .2 0 .4 0 .6 0 .9 0 1.8.1 2.6.1.2 0 .4 0 .7 0 .8.1 1.7.1 2.5.2 0-.2.1-.4.1-.7 0-.1 0-.2 0-.4.1-.4.1-.8.2-1.2 0-.1.1-.3.1-.4.1-.3.1-.6.2-.8 0-.2.1-.3.1-.5.1-.3.2-.5.2-.8.1-.2.1-.4.2-.5.1-.3.2-.5.3-.8.1-.2.1-.4.2-.6.1-.3.2-.6.3-.8.1-.2.2-.4.2-.6.1-.3.3-.6.4-.9.1-.2.2-.3.2-.5 0 0 0-.1.1-.1-.2-.2-.4-.4-.6-.6-.3-.3-.4-.5-.6-.6-.7-.6-1.4-1.2-2.2-1.7-.3-.2-.4-.3-.5-.4L39 49c-1.1-.7-2.3-1.3-3.3-1.8-.2-.1-.5-.2-.7-.3-.6-.3-1.1-.5-1.6-.7l-.7-.3c-.1 0-.2-.1-.3-.1C31.2 49.8 29.7 56.6 31.4 60.2zM95.3 45.8c-4.9 2-8.6 4.4-10.6 6.7 0 0 0 .1.1.1.1.2.2.4.3.7.1.3.2.5.4.8.1.2.2.4.3.7.1.2.2.5.3.7.1.2.2.4.2.6.1.2.2.5.3.7.1.2.1.4.2.6.1.3.2.5.2.8.1.2.1.3.2.5.1.3.2.6.2.9 0 .1.1.2.1.3.1.4.2.8.2 1.2 0 .1 0 .2 0 .3 0 .2.1.4.1.7 0 0 0 0 0 0 .1 0 .2 0 .3 0 .3 0 .7-.1 1-.1.4-.1.9-.1 1.3-.1.9-.1 1.8-.1 2.7-.1 0 0 0 0 0 0 .8 0 1.6 0 2.4 0 .1 0 .1 0 .2 0 .3-.5.6-.9.8-1.5 1.7-3.6.2-10.3-1-14.4C95.4 45.7 95.4 45.7 95.3 45.8zM52.2 65.3c.4-.6.8-1.2 1.2-1.9.1-.2.3-.4.4-.6.3-.4.6-.9 1-1.3.2-.2.4-.5.6-.7.3-.4.7-.9 1-1.3.2-.3.4-.5.6-.8.1-.2.3-.3.4-.5 0 0 0-.1-.1-.1-2.2-3.1-5.7-5.9-7.6-7.4 0 0 0 0-.1 0-.2.3-.3.6-.5.8l-.3.6c-.2.4-.5.8-.7 1.3-1.9 3.6-3 6.8-3.2 9.3 0 .1 0 .1 0 .2 0 0 0 0 0 0 .7.2 1.3.3 2 .5.5.2 1 .3 1.5.5.2.1.3.1.5.2.3.1.6.3.9.4.2.1.3.2.5.2.3.1.5.3.8.4.2.1.3.2.5.3.1.1.3.2.4.2C52.1 65.6 52.1 65.4 52.2 65.3z"/><polygon fill="#00bf4c" points="78 48.3 77.8 48.1 77.8 48.1 78 48.3"/><path fill="#00bf4c" d="M83 62.8c0-.1 0-.1 0-.2-.2-2.4-1.3-5.6-3.2-9.3-.4-.7-.7-1.4-1-1.9-.1-.3-.3-.5-.4-.7l0 0c-1.9 1.4-5.5 4.3-7.6 7.4 0 0 0 .1-.1.1.1.2.3.3.4.5.2.3.4.5.6.8.3.4.7.9 1 1.3.2.3.4.5.6.7.3.4.6.9.9 1.3.2.2.3.4.5.7.4.6.9 1.3 1.2 1.9.1.1.1.2.2.3.1-.1.3-.2.4-.2.2-.1.3-.2.5-.3.2-.1.5-.3.8-.4.2-.1.3-.2.5-.3.3-.1.6-.3.9-.4.2-.1.3-.1.5-.2.5-.2 1-.4 1.5-.5.5-.2 1.1-.3 1.7-.5C82.8 62.8 82.9 62.8 83 62.8 83 62.8 83 62.8 83 62.8zM50 87.3c-.1-.1-.2-.3-.2-.4-.1-.1-.2-.3-.2-.4-.2-.3-.3-.6-.5-.9-.1-.1-.1-.2-.2-.3-.2-.4-.4-.8-.5-1.2 0-.1-.1-.2-.1-.3-.1-.3-.2-.7-.3-1 0-.1-.1-.3-.1-.4-.1-.3-.1-.6-.2-.9 0-.2-.1-.3-.1-.5-.1-.3-.1-.6-.1-.9 0-.1 0-.3 0-.4 0-.5-.1-.9-.1-1.4 0-1.3.2-2.6.6-4 .1-.4.2-.8.4-1.3 0-.1.1-.2.1-.4.1-.3.2-.7.4-1 .1-.1.1-.3.2-.4.2-.5.4-.9.6-1.4 0 0 0 0 0 0-1-.8-2.4-1.4-4-1.9-1.1-.3-2.2-.6-3.3-.8-3.2-.6-7.1-.8-11.3-.8-1.9 0-3.5.1-4.8.2 1 6.2 3.7 17.4 8.5 21.1C39.3 91.2 45.8 90.9 50 87.3zM97 66.3C97 66.3 97 66.3 97 66.3 96.9 66.3 96.9 66.3 97 66.3c-1.2 0-2.4 0-3.7 0-.8 0-1.7.1-2.5.1-.4 0-.7 0-1 .1-.1 0-.2 0-.3 0-.3 0-.6 0-.9.1-.1 0-.2 0-.3 0l-.6.1c-.7.1-1.3.2-2 .3-1.2.2-2.3.5-3.3.8-1.7.5-3 1.1-4 1.9 0 0 0 0 0 0 0 0 0 0 0 0 0 .1 0 .1.1.2.2.4.4.9.6 1.3.1.1.1.3.2.4.1.3.3.6.4 1 0 .1.1.3.1.4.1.4.3.8.4 1.3.4 1.3.6 2.6.6 3.9 0 .5 0 .9-.1 1.4 0 .1 0 .3 0 .4 0 .3-.1.6-.1.9 0 .2-.1.3-.1.5-.1.3-.1.6-.2.9 0 .1-.1.3-.1.4-.1.4-.2.7-.3 1 0 .1-.1.2-.1.2-.2.4-.3.8-.5 1.2-.1.1-.1.2-.2.3-.1.3-.3.6-.5.8-.1.1-.2.3-.3.4-.1.1-.1.2-.2.4 4.3 3.6 10.8 3.9 15.3.3 4.7-3.6 7.4-14.9 8.4-21.1C100.5 66.4 98.8 66.4 97 66.3z"/><path fill="#0a3960" d="M106.3,62.8c-0.4-0.5-1-0.8-1.6-0.9c-0.1,0-1.5-0.2-3.7-0.3c2.9-7-1.3-18.7-1.8-20c-0.4-1.2-1.8-1.8-3-1.4
		c0,0-0.2,0.1-0.5,0.2c-1-2.6-2.4-5.5-4.4-8.5c0,0,0,0,0,0c-0.1-0.1-0.1-0.2-0.2-0.3c-0.6-0.9-1.1-1.7-1.6-2.5
		c-1.9-2.8-3.5-4.7-3.6-4.8c-0.8-0.9-2-1.1-3-0.5c-0.1,0.1-2.2,1.3-4.9,3.4c-0.3,0.2-0.6,0.4-0.9,0.7c-1.7-2.7-3.6-5.1-5.1-6.7
		c-0.1-0.1-0.3-0.3-0.3-0.4c-0.7-0.8-1.3-1.5-1.9-2c-2.4-2.5-4.3-4.1-4.3-4.1c-0.9-0.7-2.2-0.7-3.1,0c-0.1,0.1-2,1.7-4.3,4.1
		c-0.6,0.6-1.2,1.3-1.9,2L56,20.9c-0.1,0.1-0.1,0.2-0.2,0.3c-1.5,1.7-3.5,4.1-5.1,6.7c-0.3-0.2-0.6-0.4-0.8-0.6
		c-2.8-2.1-4.9-3.3-5-3.4c-1-0.6-2.3-0.4-3,0.5c-0.1,0.1-1.6,2-3.5,4.7c-0.5,0.6-0.9,1.3-1.4,2l-0.3,0.5c-0.1,0.1-0.1,0.2-0.2,0.3
		c-1.9,3.1-3.4,5.9-4.4,8.6c-0.3-0.1-0.4-0.1-0.4-0.1c-1.2-0.4-2.5,0.2-3,1.4c-0.5,1.3-4.7,13-1.8,20c-2.2,0.1-3.6,0.3-3.7,0.3
		c-0.6,0.1-1.2,0.4-1.6,0.9c-0.4,0.5-0.6,1.1-0.5,1.8c0.2,2.1,2.6,20.6,10.7,26.8c3,2.3,6.7,3.5,10.3,3.5c4,0,7.9-1.4,11-4.1
		c0.4,0.4,0.8,0.7,1.3,1l0,15c0,3.9,3.2,7.1,7.2,7.1l4.8,0c3.9,0,7.1-3.2,7.1-7.1c0,0,0,0,0,0l0-14.9c0.5-0.3,0.9-0.7,1.4-1.1
		c3.1,2.6,7,4,11,4c3.6,0,7.3-1.1,10.3-3.5c8-6.2,10.3-24.7,10.6-26.8C106.9,64,106.7,63.3,106.3,62.8z M93.4,87.6
		c-4.6,3.5-11.1,3.3-15.3-0.3c0.1-0.1,0.1-0.2,0.2-0.4c0.1-0.1,0.2-0.3,0.3-0.4c0.2-0.3,0.3-0.6,0.5-0.8c0.1-0.1,0.1-0.2,0.2-0.3
		c0.2-0.4,0.4-0.8,0.5-1.2c0-0.1,0.1-0.2,0.1-0.2c0.1-0.3,0.2-0.7,0.3-1c0-0.1,0.1-0.3,0.1-0.4c0.1-0.3,0.1-0.6,0.2-0.9
		c0-0.2,0.1-0.3,0.1-0.5c0.1-0.3,0.1-0.6,0.1-0.9c0-0.1,0-0.3,0-0.4c0-0.5,0.1-0.9,0.1-1.4c0-1.3-0.2-2.6-0.6-3.9
		c-0.1-0.4-0.2-0.8-0.4-1.3c0-0.1-0.1-0.3-0.1-0.4c-0.1-0.3-0.2-0.6-0.4-1c-0.1-0.1-0.1-0.3-0.2-0.4c-0.2-0.4-0.4-0.8-0.6-1.3
		c0-0.1,0-0.1-0.1-0.2c0,0,0,0,0,0c0,0,0,0,0,0c1-0.8,2.3-1.4,4-1.9c1-0.3,2.1-0.6,3.3-0.8c0.6-0.1,1.2-0.2,2-0.3l0.6-0.1
		c0.1,0,0.2,0,0.3,0c0.3,0,0.6-0.1,0.9-0.1c0.1,0,0.2,0,0.3,0c0.3-0.1,0.6-0.1,1-0.1c0.8-0.1,1.7-0.1,2.5-0.1c1.3,0,2.5,0,3.6,0
		c0,0,0,0,0,0c0,0,0,0,0,0c1.9,0,3.5,0.1,4.8,0.2C100.8,72.8,98.1,84,93.4,87.6z M68.8,94.2l0,12.6c0,1.3-1,2.4-2.4,2.4l-4.8,0
		c-1.3,0-2.4-1.1-2.4-2.4l0-12.6c0.1,0,0.2,0,0.3,0.1c0.3,0.1,0.5,0.1,0.8,0.2c0.1,0,0.2,0.1,0.3,0.1c0.3,0.1,0.5,0.1,0.8,0.2
		c0.1,0,0.2,0,0.3,0c0.3,0,0.6,0.1,0.9,0.1c0.1,0,0.1,0,0.2,0c0.4,0,0.8,0,1.2,0c0.8,0,1.6-0.1,2.3-0.2c0.1,0,0.1,0,0.2,0
		c0.3,0,0.6-0.1,1-0.2c0.1,0,0.2-0.1,0.4-0.1c0.2-0.1,0.5-0.1,0.7-0.2C68.6,94.3,68.7,94.3,68.8,94.2z M26.2,66.6
		c1.3-0.1,2.9-0.2,4.8-0.2c4.2-0.1,8.1,0.2,11.3,0.8c1.1,0.2,2.2,0.4,3.3,0.8c1.6,0.5,3,1.1,4,1.9c0,0,0,0,0,0
		c-0.2,0.5-0.4,0.9-0.6,1.4c-0.1,0.1-0.1,0.3-0.2,0.4c-0.1,0.3-0.3,0.7-0.4,1c0,0.1-0.1,0.3-0.1,0.4c-0.1,0.4-0.3,0.9-0.4,1.3
		c-0.4,1.4-0.6,2.7-0.6,4c0,0.5,0,0.9,0.1,1.4c0,0.1,0,0.3,0,0.4c0,0.3,0.1,0.6,0.1,0.9c0,0.2,0.1,0.3,0.1,0.5
		c0.1,0.3,0.1,0.6,0.2,0.9c0,0.1,0.1,0.3,0.1,0.4c0.1,0.3,0.2,0.7,0.3,1c0,0.1,0.1,0.2,0.1,0.3c0.2,0.4,0.3,0.8,0.5,1.2
		c0.1,0.1,0.1,0.2,0.2,0.3c0.1,0.3,0.3,0.6,0.5,0.9c0.1,0.1,0.2,0.3,0.2,0.4c0.1,0.1,0.1,0.3,0.2,0.4c-4.2,3.6-10.7,3.9-15.3,0.4
		C30,84.1,27.3,72.9,26.2,66.6z M40.8,34.1l0.2-0.4c0.4-0.6,0.8-1.2,1.2-1.8c0.8-1.1,1.5-2,2-2.8c0.8,0.5,1.8,1.2,2.9,2
		c0.6,0.4,1.2,0.9,1.9,1.5l0.2,0.1c0.1,0.1,0.2,0.2,0.4,0.3l0.4,0.3c2.1,1.7,3.9,3.5,5.3,5.1c0,0-0.1,0.1-0.1,0.1
		c-0.4,0.5-0.9,1-1.3,1.5c-0.1,0.1-0.2,0.2-0.2,0.3c-0.4,0.5-0.8,1-1.2,1.5c0,0,0,0.1-0.1,0.1c-0.4,0.5-0.7,1-1,1.5
		c-0.1,0.1-0.1,0.2-0.2,0.3c-0.3,0.5-0.6,0.9-0.9,1.4c0,0-0.1,0.1-0.1,0.1c-0.1,0-0.2-0.1-0.2-0.1c-0.1,0-0.1-0.1-0.2-0.1
		c-0.1,0-0.1,0-0.2-0.1c-0.1,0-0.2,0-0.2-0.1c0,0-0.1,0-0.1,0c-0.1,0-0.2,0-0.3,0c0,0,0,0,0,0c-0.7,0-1.5,0.4-1.9,1L47,46.1
		c-0.1,0.1-0.1,0.2-0.3,0.4c-0.1,0.2-0.2,0.3-0.3,0.5l0,0c-0.1,0.1-0.2,0.3-0.4,0.6l-0.3,0.5c0,0,0,0,0,0c0,0,0,0,0,0
		c-0.2-0.2-0.3-0.3-0.5-0.4c-0.8-0.7-1.7-1.4-2.6-2c-0.2-0.2-0.5-0.3-0.7-0.5L41.6,45c0,0,0,0,0,0l0,0c0,0,0,0,0,0
		c-0.3-0.2-0.7-0.4-1-0.6c-0.9-0.5-1.8-1-2.6-1.4c0,0,0,0,0,0c0,0,0,0,0,0c-0.3-0.2-0.7-0.3-0.9-0.4c-0.1-0.1-0.3-0.1-0.4-0.2
		c0.8-2.3,2.1-4.9,3.9-7.7C40.6,34.4,40.7,34.3,40.8,34.1z M59.6,24L59.6,24c0.7-0.7,1.2-1.4,1.8-2c0.9-1,1.8-1.8,2.5-2.4
		c0.7,0.6,1.6,1.5,2.5,2.5c0.5,0.5,1.1,1.1,1.8,1.9c0.1,0.1,0.2,0.3,0.3,0.3c1.5,1.6,3.4,4,5,6.6c-0.1,0.1-0.2,0.2-0.3,0.2
		c-0.2,0.2-0.4,0.4-0.6,0.6c-0.1,0.1-0.3,0.3-0.4,0.4c-0.2,0.2-0.4,0.4-0.6,0.6c-0.1,0.1-0.3,0.3-0.4,0.4c-0.2,0.2-0.4,0.4-0.5,0.5
		c-0.1,0.1-0.3,0.3-0.4,0.4c-0.2,0.2-0.3,0.4-0.5,0.5c-0.1,0.1-0.2,0.2-0.3,0.3c-0.1-0.1-0.1-0.1-0.2-0.2c-0.2-0.2-0.3-0.3-0.5-0.5
		c-0.1-0.1-0.2-0.2-0.3-0.3c-0.1-0.1-0.3-0.3-0.4-0.4c-0.1-0.1-0.2-0.2-0.3-0.3c-0.1-0.1-0.2-0.2-0.4-0.3c-0.1-0.1-0.2-0.2-0.3-0.3
		c-0.1-0.1-0.2-0.2-0.3-0.3c-0.1-0.1-0.2-0.2-0.3-0.3c-0.1-0.1-0.1-0.1-0.2-0.2c-0.1-0.1-0.2-0.2-0.3-0.3c0,0,0,0-0.1,0
		c-0.2-0.2-0.3-0.3-0.4-0.3c-0.9-0.7-2.2-0.7-3.1,0c0,0,0,0-0.1,0.1c0,0-0.1,0-0.1,0.1c0,0-0.1,0.1-0.2,0.1c0,0-0.1,0.1-0.1,0.1
		c-0.1,0.1-0.2,0.1-0.3,0.2c0,0-0.1,0.1-0.1,0.1c-0.1,0.1-0.2,0.2-0.4,0.3c0,0-0.1,0.1-0.1,0.1c-0.1,0.1-0.3,0.3-0.5,0.4
		c-0.1,0.1-0.1,0.1-0.2,0.2c-0.2,0.2-0.3,0.3-0.5,0.5c-0.1,0.1-0.1,0.1-0.2,0.2c-0.2,0.2-0.4,0.4-0.5,0.5c-0.1,0.1-0.2,0.2-0.3,0.3
		c-0.1,0.1-0.2,0.2-0.3,0.3c-0.1-0.1-0.2-0.2-0.2-0.2c-0.2-0.2-0.3-0.4-0.5-0.6c-0.1-0.1-0.3-0.3-0.4-0.4c-0.2-0.2-0.3-0.3-0.5-0.5
		c-0.2-0.2-0.3-0.3-0.5-0.5c-0.2-0.1-0.3-0.3-0.5-0.4c-0.2-0.2-0.4-0.4-0.6-0.5c-0.2-0.1-0.3-0.3-0.5-0.4c-0.1-0.1-0.2-0.2-0.4-0.3
		c1.2-2.1,2.9-4.3,4.8-6.5C59.4,24.3,59.5,24.1,59.6,24z M83.7,29c0.6,0.7,1.3,1.7,2,2.8c0.5,0.7,0.9,1.4,1.4,2.2
		c0.1,0.2,0.2,0.4,0.3,0.5c1.8,2.8,3.1,5.4,3.9,7.7c0,0-0.1,0-0.1,0.1c-0.3,0.1-0.5,0.2-0.8,0.4c-0.1,0-0.2,0.1-0.3,0.1
		c-0.7,0.3-1.4,0.7-2.2,1.1c-0.1,0.1-0.2,0.1-0.3,0.2c-0.3,0.1-0.5,0.3-0.8,0.4c-0.1,0.1-0.3,0.2-0.4,0.2c-0.2,0.2-0.5,0.3-0.7,0.5
		c-0.1,0.1-0.3,0.2-0.4,0.2c-0.3,0.2-0.6,0.4-0.9,0.6c-0.1,0-0.1,0.1-0.2,0.1c-0.3,0.3-0.7,0.5-1,0.8c-0.1,0.1-0.2,0.2-0.3,0.3
		c-0.2,0.2-0.4,0.4-0.6,0.6c-0.1,0.1-0.1,0.1-0.2,0.1l-0.7-1.2c-0.1-0.1-0.1-0.2-0.3-0.4c-0.1-0.1-0.2-0.2-0.3-0.4
		c-0.1-0.2-0.2-0.3-0.4-0.5c-0.1-0.1-0.2-0.2-0.3-0.3c-0.8-0.5-1.8-0.6-2.6-0.1c-0.2-0.3-0.4-0.6-0.6-0.9c-0.1-0.2-0.2-0.4-0.4-0.6
		c-0.4-0.6-0.8-1.2-1.3-1.8c-0.1-0.1-0.1-0.2-0.2-0.2c-0.4-0.5-0.8-1.1-1.3-1.7c-0.2-0.2-0.4-0.4-0.6-0.7c-0.3-0.3-0.5-0.6-0.8-0.9
		c1.4-1.7,3.3-3.4,5.4-5.1l0.6-0.5c0,0,0.1-0.1,0.1-0.1c0.7-0.6,1.4-1.1,2.2-1.7C81.9,30.2,82.9,29.5,83.7,29z M73,86
		c-0.8,1-1.8,1.8-3,2.5c0,0-0.1,0-0.1,0.1c-3.6,2.1-8.1,2.1-11.5,0.1c-0.1-0.1-0.2-0.1-0.3-0.2l0,0C56.9,87.9,55.9,87,55,86
		c-1.8-2.1-2.8-4.9-2.8-7.7c0-0.8,0.1-1.7,0.4-2.7c0.4-1.5,1.1-3.2,2.1-5.1c0.5-0.9,1-1.8,1.6-2.6c1.5-2.4,3.5-5,5.9-7.9
		c0.7-0.8,1.3-1.5,1.8-2.1c0.5,0.6,1.2,1.3,1.9,2.1c2.4,2.8,4.4,5.4,5.9,7.9c0.5,0.9,1.1,1.7,1.6,2.6c1.1,2,1.8,3.7,2.2,5.1
		c0.3,0.9,0.4,1.8,0.4,2.6C75.9,81.1,74.9,83.8,73,86z M82.8,62.9c-0.6,0.1-1.2,0.3-1.7,0.5c-0.5,0.2-1,0.3-1.5,0.5
		c-0.2,0.1-0.3,0.1-0.5,0.2c-0.3,0.1-0.6,0.3-0.9,0.4c-0.2,0.1-0.3,0.2-0.5,0.3c-0.3,0.1-0.5,0.3-0.8,0.4c-0.2,0.1-0.3,0.2-0.5,0.3
		c-0.1,0.1-0.3,0.2-0.4,0.2c-0.1-0.1-0.1-0.2-0.2-0.3c-0.4-0.6-0.8-1.2-1.2-1.9c-0.2-0.2-0.3-0.4-0.5-0.7c-0.3-0.4-0.6-0.8-0.9-1.3
		c-0.2-0.2-0.4-0.5-0.6-0.7c-0.3-0.4-0.7-0.8-1-1.3c-0.2-0.3-0.4-0.5-0.6-0.8c-0.1-0.2-0.3-0.3-0.4-0.5c0,0,0-0.1,0.1-0.1
		c2.2-3.1,5.7-6,7.6-7.4l0,0c0.1,0.2,0.3,0.5,0.4,0.7c0.3,0.5,0.7,1.2,1,1.9c1.9,3.6,3.1,6.8,3.2,9.3c0,0.1,0,0.1,0,0.2
		c0,0-0.1,0-0.1,0C82.9,62.8,82.8,62.8,82.8,62.9z M51.1,65.2c-0.2-0.1-0.5-0.3-0.8-0.4c-0.2-0.1-0.3-0.2-0.5-0.2
		c-0.3-0.1-0.6-0.3-0.9-0.4c-0.2-0.1-0.3-0.1-0.5-0.2c-0.5-0.2-1-0.4-1.5-0.5c-0.7-0.2-1.3-0.4-2-0.5c0,0,0,0,0,0c0-0.1,0-0.1,0-0.2
		c0.2-2.4,1.3-5.7,3.2-9.3c0.2-0.4,0.5-0.9,0.7-1.3l0.3-0.6c0.2-0.3,0.3-0.6,0.5-0.8c0,0,0,0,0.1,0c1.9,1.4,5.4,4.3,7.6,7.4
		c0,0,0,0.1,0.1,0.1c-0.1,0.2-0.3,0.3-0.4,0.5c-0.2,0.3-0.4,0.5-0.6,0.8c-0.3,0.4-0.7,0.9-1,1.3c-0.2,0.2-0.4,0.5-0.6,0.7
		c-0.3,0.4-0.6,0.9-1,1.3c-0.1,0.2-0.3,0.4-0.4,0.6c-0.4,0.6-0.8,1.2-1.2,1.9c-0.1,0.1-0.2,0.2-0.2,0.4c-0.1-0.1-0.3-0.2-0.4-0.2
		C51.4,65.3,51.3,65.3,51.1,65.2z M54.1,48.2C54.1,48.2,54.2,48.2,54.1,48.2c1.2-2.2,3-4.6,5.2-7.1c0.1-0.1,0.3-0.3,0.4-0.4l0.5-0.6
		c0.4-0.5,0.9-0.9,1.3-1.4c0.9-1,1.8-1.8,2.5-2.4c0.7,0.6,1.5,1.5,2.5,2.4c0.4,0.4,0.9,0.9,1.3,1.4l0.5,0.5c0.1,0.1,0.2,0.3,0.3,0.3
		c2.3,2.5,4,4.9,5.3,7.2c-0.1,0-0.1,0.1-0.2,0.2c-0.4,0.4-0.9,0.7-1.3,1.1c0,0-0.1,0.1-0.1,0.1c-0.5,0.4-1,0.9-1.5,1.3
		c-0.1,0.1-0.3,0.3-0.4,0.4c-0.4,0.4-0.8,0.8-1.2,1.3c-0.1,0.1-0.2,0.2-0.2,0.2c-0.5,0.5-0.9,1-1.3,1.6c0,0.1-0.1,0.1-0.1,0.2
		c0,0,0,0,0,0c-0.2-0.3-0.5-0.5-0.7-0.7c0,0,0,0,0,0c-0.2-0.2-0.4-0.4-0.5-0.5c0,0,0,0,0,0c-0.3-0.3-0.5-0.5-0.5-0.5
		c-0.5-0.5-1.1-0.7-1.7-0.7c-0.6,0-1.2,0.2-1.7,0.7c0,0-0.1,0.1-0.1,0.1c0,0,0,0,0,0c-0.1,0.1-0.2,0.2-0.3,0.3c0,0-0.1,0.1-0.1,0.1
		c-0.1,0.1-0.2,0.2-0.4,0.4c-0.1,0.1-0.1,0.1-0.1,0.2c-0.2,0.2-0.4,0.4-0.6,0.7c0,0,0,0,0,0c0-0.1-0.1-0.1-0.1-0.2
		c-0.4-0.5-0.9-1.1-1.3-1.6c-0.1-0.1-0.2-0.2-0.2-0.3c-0.4-0.4-0.8-0.9-1.3-1.3c-0.1-0.1-0.3-0.3-0.4-0.4c-0.5-0.5-1-0.9-1.5-1.4
		c0,0,0,0-0.1-0.1c-0.5-0.4-1-0.8-1.4-1.2C54.2,48.3,54.2,48.2,54.1,48.2z M77.8,48.1l0.2,0.2l0,0L77.8,48.1L77.8,48.1z M96.6,60.1
		c-0.3,0.5-0.5,1-0.8,1.5c-0.1,0-0.1,0-0.2,0c-0.8,0-1.6,0-2.4,0c0,0,0,0,0,0c-0.9,0-1.8,0.1-2.7,0.1c-0.4,0-0.9,0.1-1.3,0.1
		c-0.3,0-0.7,0-1,0.1c-0.1,0-0.2,0-0.3,0c0,0,0,0,0,0c0-0.2-0.1-0.4-0.1-0.7c0-0.1,0-0.2,0-0.3c-0.1-0.4-0.1-0.8-0.2-1.2
		c0-0.1-0.1-0.2-0.1-0.3c-0.1-0.3-0.1-0.6-0.2-0.9c0-0.2-0.1-0.3-0.2-0.5c-0.1-0.3-0.2-0.5-0.2-0.8c-0.1-0.2-0.1-0.4-0.2-0.6
		c-0.1-0.2-0.2-0.5-0.3-0.7c-0.1-0.2-0.2-0.4-0.2-0.6c-0.1-0.2-0.2-0.5-0.3-0.7c-0.1-0.2-0.2-0.4-0.3-0.7c-0.1-0.3-0.2-0.5-0.4-0.8
		c-0.1-0.2-0.2-0.4-0.3-0.7c0,0,0-0.1-0.1-0.1c1.9-2.3,5.7-4.6,10.6-6.7c0.1,0,0.2-0.1,0.3-0.1C96.8,49.7,98.3,56.5,96.6,60.1z
		 M32.4,45.7c0.1,0,0.2,0.1,0.3,0.1l0.7,0.3c0.5,0.2,1,0.4,1.6,0.7c0.2,0.1,0.5,0.2,0.7,0.3c1.1,0.5,2.2,1.2,3.3,1.8l0.3,0.2
		c0.1,0.1,0.3,0.2,0.5,0.4c0.8,0.6,1.6,1.1,2.2,1.7c0.2,0.1,0.3,0.3,0.6,0.6c0.2,0.2,0.4,0.4,0.6,0.6c0,0,0,0.1-0.1,0.1
		c-0.1,0.2-0.2,0.3-0.2,0.5c-0.1,0.3-0.3,0.6-0.4,0.9c-0.1,0.2-0.2,0.4-0.2,0.6c-0.1,0.3-0.2,0.6-0.3,0.8c-0.1,0.2-0.1,0.4-0.2,0.6
		c-0.1,0.3-0.2,0.5-0.3,0.8c-0.1,0.2-0.1,0.4-0.2,0.5c-0.1,0.3-0.2,0.5-0.2,0.8c0,0.2-0.1,0.3-0.1,0.5c-0.1,0.3-0.1,0.6-0.2,0.8
		c0,0.1-0.1,0.3-0.1,0.4c-0.1,0.4-0.2,0.8-0.2,1.2c0,0.1,0,0.2,0,0.4c0,0.2-0.1,0.5-0.1,0.7c-0.8-0.1-1.6-0.2-2.5-0.2
		c-0.2,0-0.4,0-0.7,0c-0.9-0.1-1.7-0.1-2.6-0.1c-0.2,0-0.4,0-0.6,0c-0.4,0-0.8,0-1.2,0c-0.1,0-0.3,0-0.4,0c-0.3-0.4-0.5-0.9-0.8-1.5
		C29.7,56.6,31.2,49.8,32.4,45.7z"/><path fill="#00bf4c" d="M73.3,70.4c-0.5-0.9-1-1.7-1.6-2.6c-1.6-2.4-3.6-5.1-5.9-7.9c-0.7-0.8-1.3-1.5-1.9-2.1
		c-0.5,0.6-1.1,1.3-1.8,2.1c-2.5,2.9-4.4,5.5-5.9,7.9c-0.5,0.8-1.1,1.7-1.6,2.6c-1,1.9-1.7,3.6-2.1,5.1c-0.3,1-0.4,1.9-0.4,2.7
		c0,2.8,1,5.6,2.8,7.7c0.9,1.1,2,1.9,3.1,2.6l0,0c0.1,0,0.2,0.1,0.3,0.2c3.5,2,8,1.9,11.5-0.1c0,0,0.1,0,0.1-0.1
		c1.2-0.7,2.2-1.6,3-2.5c1.9-2.2,2.9-4.9,2.9-7.7c0-0.8-0.1-1.7-0.4-2.6C75.1,74.1,74.4,72.5,73.3,70.4z"/></svg>