<svg xmlns="http://www.w3.org/2000/svg" enable-background="new 0 0 128 128" viewBox="0 0 128 128"><path fill="#a7553e" d="M64,61.6c-6.1,0-11.9,10.7-11.9,19C52.1,88.5,57.4,95,64,95s11.9-6.4,11.9-14.3C75.9,72.3,70.1,61.6,64,61.6z"/><path fill="#00bf4c" d="M86.1,54.3c-3.7-4.6-5.7-10.1-5.5-15.7c0-0.3,0-0.6,0-0.8c0-10.5-7.5-19-16.7-19s-16.7,8.5-16.7,19
		c0,0.2,0,0.5,0,0.7c0.2,5.7-1.7,11.2-5.5,15.8C36.3,61.2,33,70,33,78.3c0,17.1,13.9,31,31,31s31-13.9,31-31
		C95,70,91.7,61.2,86.1,54.3z M64,99.7c-9.2,0-16.7-8.5-16.7-19c0-10.8,7.4-23.8,16.7-23.8s16.7,13,16.7,23.8
		C80.7,91.2,73.2,99.7,64,99.7z"/><path fill="#0a3960" d="M89.8,51.3C89.8,51.3,89.8,51.3,89.8,51.3c-3-3.7-4.6-8.1-4.4-12.4c0-0.3,0-0.7,0-1.1C85.4,24.7,75.8,14,64,14
		S42.6,24.7,42.6,37.8c0,0.4,0,0.7,0,1c0.2,4.4-1.4,8.8-4.4,12.5c-6.3,7.8-9.9,17.6-9.9,27C28.3,98,44.3,114,64,114
		s35.7-16,35.7-35.7C99.7,68.9,96.1,59.1,89.8,51.3z M64,109.2c-17.1,0-31-13.9-31-31c0-8.3,3.2-17.1,8.8-24
		c3.7-4.6,5.7-10.1,5.5-15.8c0-0.2,0-0.4,0-0.7c0-10.5,7.5-19,16.7-19s16.7,8.5,16.7,19c0,0.2,0,0.5,0,0.8
		c-0.2,5.5,1.7,11.1,5.5,15.7c5.6,6.9,8.8,15.7,8.8,24C95,95.4,81.1,109.2,64,109.2z"/><path fill="#0a3960" d="M64,56.9c-9.2,0-16.7,13-16.7,23.8c0,10.5,7.5,19,16.7,19s16.7-8.5,16.7-19C80.7,69.9,73.2,56.9,64,56.9z
		 M64,95c-6.6,0-11.9-6.4-11.9-14.3c0-8.3,5.8-19,11.9-19s11.9,10.7,11.9,19C75.9,88.5,70.6,95,64,95z"/></svg>