<svg xmlns="http://www.w3.org/2000/svg" id="Outlined_1_" enable-background="new 0 0 128 128" viewBox="0 0 128 128"><path fill="#f8bdaa" d="M39,59.2c0.3,0.3,0.6,0.7,0.9,1c0.1,0.1,0.1,0.1,0.2,0.2c0.3,0.3,0.7,0.6,1,0.8c0.1,0,0.1,0.1,0.2,0.1
		c0.3,0.2,0.7,0.5,1,0.7c0.1,0,0.1,0.1,0.2,0.1c0.4,0.2,0.8,0.4,1.2,0.6c0.1,0,0.2,0.1,0.3,0.1c0.4,0.2,0.8,0.3,1.2,0.5
		c0,0,0.1,0,0.1,0c0.4,0.1,0.8,0.2,1.2,0.3c0.1,0,0.2,0,0.2,0.1c0.4,0.1,0.9,0.2,1.3,0.2c0.1,0,0.2,0,0.3,0c0.5,0,0.9,0.1,1.4,0.1
		C57.6,64,64,57.6,64,49.7c0-0.5,0-0.9-0.1-1.4c0-0.1,0-0.2,0-0.3c-0.1-0.4-0.1-0.9-0.2-1.3c0-0.1,0-0.2-0.1-0.2
		c-0.1-0.4-0.2-0.8-0.3-1.2c0,0,0-0.1,0-0.1c-0.1-0.4-0.3-0.8-0.5-1.2c0-0.1-0.1-0.2-0.1-0.3c-0.2-0.4-0.4-0.8-0.6-1.2
		c0-0.1-0.1-0.1-0.1-0.2c-0.2-0.4-0.4-0.7-0.7-1c0-0.1-0.1-0.1-0.1-0.2c-0.3-0.4-0.5-0.7-0.8-1c-0.1-0.1-0.1-0.1-0.2-0.2
		c-0.3-0.3-0.6-0.6-1-0.9c0,0,0,0,0,0c-2,4.7-4.1,9.6-8.1,13.4C47.5,55.6,43.2,57.4,39,59.2C39,59.2,39,59.2,39,59.2z"/><path fill="#a7553e" d="M76.9,96.7c9.8-7.7,18-16.9,24.3-27.6c3.8-6.3,6-11.8,7.2-17.1c0,0,0,0,0,0c1.4-6.4,1-12.5-1.1-17.7
		c-3.3-8.4-11.7-14.6-20.7-15.4c-9-0.8-18.3,3.8-23.3,11.4c-0.8,1.2-1.5,2.6-2.3,4.2c4.8,3.6,7.7,9.2,7.7,15.3c0,10.5-8.5,19-19,19
		c-6,0-11.7-2.9-15.2-7.6c-0.2,0.1-0.5,0.2-0.7,0.3C25.4,65.5,20,72.6,19,80.9c-1.1,8.2,2.2,16.8,8.3,22c4.4,3.7,10.3,5.9,16.9,6.3
		c2.7,0.1,5.5,0,8.2-0.5C60.4,107.2,68.4,103.3,76.9,96.7z"/><path fill="#0a3960" d="M111.8,32.5c-4-10-13.9-17.4-24.7-18.4c-10.7-0.9-21.8,4.5-27.7,13.6c-1.2,1.9-2.3,4-3.5,6.7c0,0,0,0,0,0
		c-0.4,0.9-0.8,1.7-1.1,2.6c-1.9,4.5-3.7,8.8-7,11.9c-2.9,2.7-6.7,4.3-10.7,5.9c-0.9,0.4-1.8,0.7-2.7,1.1c0,0,0,0,0,0
		c-0.9,0.4-1.9,0.8-2.7,1.2C21.9,62,15.5,70.4,14.2,80.3c-1.3,9.8,2.7,20.1,10,26.2c5.2,4.4,12,7,19.7,7.4c0.7,0,1.3,0,2,0
		c2.4,0,4.9-0.2,7.3-0.6c8.8-1.6,17.5-5.8,26.6-12.9c10.3-8,18.9-17.8,25.5-28.9c4-6.8,6.5-12.7,7.8-18.5
		C114.7,45.7,114.2,38.6,111.8,32.5z M44.2,109.2c-6.7-0.4-12.5-2.6-16.9-6.3c-6.1-5.1-9.4-13.8-8.3-22c1.1-8.3,6.5-15.4,14.8-19.4
		c0.2-0.1,0.5-0.2,0.7-0.3c3.6,4.8,9.2,7.6,15.2,7.6c10.5,0,19-8.5,19-19c0-6-2.9-11.7-7.7-15.3c0.7-1.6,1.5-2.9,2.3-4.2
		c4.9-7.6,14.3-12.2,23.3-11.4c9.1,0.8,17.4,7,20.7,15.4c2.1,5.2,2.4,11.3,1.1,17.7c0,0,0,0,0,0c-1.1,5.3-3.4,10.8-7.2,17.1
		C94.9,79.7,86.7,89,76.9,96.7c-8.5,6.6-16.5,10.6-24.5,12C49.7,109.1,46.9,109.3,44.2,109.2z M59.1,39C59.1,39,59.1,39,59.1,39
		c0.4,0.3,0.7,0.6,1,1c0.1,0.1,0.1,0.1,0.2,0.2c0.3,0.3,0.6,0.7,0.8,1c0,0.1,0.1,0.1,0.1,0.2c0.2,0.3,0.5,0.7,0.7,1
		c0,0.1,0.1,0.1,0.1,0.2c0.2,0.4,0.4,0.8,0.6,1.2c0,0.1,0.1,0.2,0.1,0.3c0.2,0.4,0.3,0.8,0.5,1.2c0,0,0,0.1,0,0.1
		c0.1,0.4,0.2,0.8,0.3,1.2c0,0.1,0,0.2,0.1,0.2c0.1,0.4,0.2,0.9,0.2,1.3c0,0.1,0,0.2,0,0.3c0,0.5,0.1,0.9,0.1,1.4
		C64,57.6,57.6,64,49.7,64c-0.5,0-0.9,0-1.4-0.1c-0.1,0-0.2,0-0.3,0c-0.4-0.1-0.9-0.1-1.3-0.2c-0.1,0-0.2,0-0.2-0.1
		c-0.4-0.1-0.8-0.2-1.2-0.3c0,0-0.1,0-0.1,0c-0.4-0.1-0.8-0.3-1.2-0.5c-0.1,0-0.2-0.1-0.3-0.1c-0.4-0.2-0.8-0.4-1.2-0.6
		c-0.1,0-0.1-0.1-0.2-0.1c-0.3-0.2-0.7-0.4-1-0.7c-0.1,0-0.1-0.1-0.2-0.1c-0.3-0.3-0.7-0.5-1-0.8c-0.1-0.1-0.1-0.1-0.2-0.2
		c-0.3-0.3-0.6-0.6-0.9-1c0,0,0,0,0,0c4.2-1.7,8.5-3.5,12-6.8C55,48.6,57.1,43.7,59.1,39z"/></svg>