<svg xmlns="http://www.w3.org/2000/svg" id="Outlined_1_" enable-background="new 0 0 128 128" viewBox="0 0 128 128"><path fill="#3c499e" d="M75.8,78.5C75.8,78.4,75.8,78.4,75.8,78.5c-1.1-13.9-12.3-25.2-26.2-26.3c-0.8-0.1-1.6-0.1-2.3-0.1
		c-15.8,0-28.6,12.8-28.6,28.6s12.8,28.6,28.6,28.6s28.6-12.8,28.6-28.6C75.9,79.9,75.9,79.2,75.8,78.5z M51.4,68.2l-3.9,4l0.9,5.7
		c0.1,0.9-0.2,1.8-1,2.3c-0.4,0.3-0.9,0.4-1.4,0.4c-0.4,0-0.8-0.1-1.2-0.3l-4.7-2.6l-4.7,2.6c-0.8,0.4-1.8,0.4-2.5-0.1
		c-0.7-0.5-1.1-1.4-1-2.3l0.9-5.7l-3.9-4c-0.6-0.6-0.8-1.6-0.6-2.4c0.3-0.8,1-1.5,1.9-1.6l5.3-0.8l2.4-5.1c0.4-0.8,1.2-1.4,2.2-1.4
		s1.8,0.5,2.2,1.4l2.4,5.1l5.3,0.8c0.9,0.1,1.6,0.8,1.9,1.6C52.3,66.6,52,67.5,51.4,68.2z"/><path fill="#3c499e" d="M41.3,72.9l1.6,0.9l-0.3-2c-0.1-0.7,0.1-1.5,0.6-2l1.5-1.6l-2-0.3c-0.8-0.1-1.4-0.6-1.8-1.3l-0.8-1.7
		l-0.8,1.7c-0.3,0.7-1,1.2-1.8,1.3l-2,0.3l1.5,1.6c0.5,0.5,0.8,1.3,0.6,2l-0.3,2l1.6-0.9c0.4-0.2,0.8-0.3,1.2-0.3
		C40.6,72.6,41,72.7,41.3,72.9z"/><path fill="#0a3960" d="M50.1,64.2l-5.3-0.8l-2.4-5.1c-0.4-0.8-1.2-1.4-2.2-1.4s-1.8,0.5-2.2,1.4l-2.4,5.1l-5.3,0.8
		c-0.9,0.1-1.6,0.8-1.9,1.6c-0.3,0.8-0.1,1.8,0.6,2.4l3.9,4L32,77.9c-0.1,0.9,0.2,1.8,1,2.3c0.7,0.5,1.7,0.6,2.5,0.1l4.7-2.6
		l4.7,2.6c0.4,0.2,0.8,0.3,1.2,0.3c0.5,0,1-0.1,1.4-0.4c0.7-0.5,1.1-1.4,1-2.3l-0.9-5.7l3.9-4c0.6-0.6,0.8-1.6,0.6-2.4
		C51.7,64.9,51,64.3,50.1,64.2z M37.4,73.8l0.3-2c0.1-0.7-0.1-1.5-0.6-2l-1.5-1.6l2-0.3c0.8-0.1,1.4-0.6,1.8-1.3l0.8-1.7l0.8,1.7
		c0.3,0.7,1,1.2,1.8,1.3l2,0.3l-1.5,1.6c-0.5,0.5-0.8,1.3-0.6,2l0.3,2l-1.6-0.9c-0.4-0.2-0.8-0.3-1.2-0.3c-0.4,0-0.8,0.1-1.2,0.3
		L37.4,73.8z"/><path fill="#3c499e" d="M109.2,47.3c0-7.6-3-14.8-8.4-20.2c0,0,0,0,0,0c-5.4-5.4-12.6-8.4-20.2-8.4s-14.8,3-20.2,8.4
		C55,32.6,52,40,52.1,47.7c14.5,2.1,26.1,13.7,28.2,28.2c7.7,0.2,15.1-2.9,20.6-8.4C106.3,62.1,109.2,55,109.2,47.3z M96.3,41.3
		c-0.4,0.8-1.2,1.3-2.1,1.3l-5.6,0.1l-3.4,4.7c-0.5,0.6-1.2,1-1.9,1c-0.1,0-0.3,0-0.4,0c-0.9-0.2-1.6-0.8-1.9-1.7l-1.5-5.2l-5.2-1.5
		c-0.9-0.3-1.5-1-1.7-1.9c-0.2-0.9,0.2-1.8,1-2.3l4.7-3.4l0.1-5.6c0-0.9,0.5-1.7,1.3-2.1c0.8-0.4,1.8-0.3,2.5,0.2l4.3,3.2l5.3-1.9
		c0.9-0.3,1.8-0.1,2.5,0.6c0.7,0.7,0.9,1.6,0.6,2.5L93,34.4l3.2,4.3C96.7,39.5,96.7,40.5,96.3,41.3z"/><path fill="#0a3960" d="M114,47.3c0-8.9-3.5-17.3-9.8-23.6C97.9,17.5,89.6,14,80.7,14s-17.3,3.5-23.6,9.8c-6.3,6.3-9.7,14.7-9.7,23.6
		c0,0,0,0,0,0C29,47.3,14,62.3,14,80.7S29,114,47.3,114c18.4,0,33.3-15,33.3-33.3c8.8,0,17.3-3.5,23.6-9.8
		C110.5,64.6,114,56.2,114,47.3z M47.3,109.2c-15.8,0-28.6-12.8-28.6-28.6s12.8-28.6,28.6-28.6c0.7,0,1.5,0,2.3,0.1
		c13.8,1.1,25.1,12.3,26.2,26.2c0,0,0,0.1,0,0.1c0.1,0.7,0.1,1.5,0.1,2.2C75.9,96.4,63.1,109.2,47.3,109.2z M80.3,75.9
		c-2.1-14.5-13.7-26.1-28.2-28.2C52,40,55,32.6,60.5,27.1c5.4-5.4,12.6-8.4,20.2-8.4s14.8,3,20.2,8.4c0,0,0,0,0,0
		c5.4,5.4,8.4,12.6,8.4,20.2s-3,14.8-8.4,20.2C95.4,73,88,76.1,80.3,75.9z"/><path fill="#3c499e" d="M88.4,36.2c-0.5-0.6-0.6-1.5-0.3-2.2l0.6-1.8l-1.7,0.6c-0.7,0.3-1.6,0.2-2.2-0.3l-1.6-1.2l0,2.2
		c0,0.8-0.4,1.5-1,1.9l-1.7,1.2l1.7,0.5c0.8,0.2,1.4,0.8,1.6,1.6l0.5,1.8l1.2-1.7c0.4-0.6,1.1-1,1.9-1l2.2,0L88.4,36.2z"/><path fill="#0a3960" d="M93,34.4l1.9-5.3c0.3-0.9,0.1-1.8-0.6-2.5c-0.7-0.6-1.6-0.9-2.5-0.6L86.5,28l-4.3-3.2
		c-0.7-0.5-1.7-0.6-2.5-0.2c-0.8,0.4-1.3,1.2-1.3,2.1l-0.1,5.6l-4.7,3.4c-0.7,0.5-1.1,1.4-1,2.3c0.2,0.9,0.8,1.6,1.7,1.9l5.2,1.5
		l1.5,5.2c0.3,0.9,1,1.5,1.9,1.7c0.1,0,0.3,0,0.4,0c0.8,0,1.5-0.4,1.9-1l3.4-4.7l5.6-0.1c0.9,0,1.7-0.5,2.1-1.3
		c0.4-0.8,0.3-1.7-0.2-2.5L93,34.4z M85.5,38.9l-1.2,1.7l-0.5-1.8c-0.2-0.8-0.8-1.4-1.6-1.6l-1.7-0.5l1.7-1.2c0.6-0.4,1-1.1,1-1.9
		l0-2.2l1.6,1.2c0.6,0.5,1.5,0.6,2.2,0.3l1.7-0.6L88,34c-0.3,0.7-0.1,1.6,0.3,2.2l1.2,1.6l-2.2,0C86.6,37.9,85.9,38.3,85.5,38.9z"/></svg>