<svg xmlns="http://www.w3.org/2000/svg" enable-background="new 0 0 128 128" viewBox="0 0 128 128"><path fill="none" d="M75 66.3c-.5.1-1 .1-1.5.1-.8 0-1.6-.1-2.4-.2v9.3c.1-.1.1-.3.2-.4C72.5 72 73.8 69.2 75 66.3zM56.9 75.4v-9.3c-1.3.2-2.6.2-3.9.1 1.2 2.9 2.5 5.8 3.7 8.7C56.7 75.1 56.8 75.3 56.9 75.4z"/><path fill="#00bf4c" d="M88.1,63.4c-0.1,0-0.3-0.1-0.4-0.1c-0.1,0-0.2-0.1-0.2-0.1c-0.5-0.2-1.1-0.4-1.6-0.6c-0.1,0-0.1-0.1-0.2-0.1
		c-0.5-0.2-1.1-0.5-1.6-0.8c-0.2,0.3-0.5,0.5-0.8,0.8c-0.1,0.1-0.2,0.2-0.3,0.2c-0.2,0.2-0.4,0.3-0.6,0.5c-0.1,0.1-0.2,0.2-0.3,0.3
		c-0.2,0.1-0.4,0.3-0.6,0.4c-0.1,0.1-0.2,0.2-0.4,0.2c-0.1,0-0.1,0.1-0.2,0.1c-1.8,4.1-3.6,8.3-5.3,12.6c-1.6,4-3.2,7.9-4.7,11.9
		c-0.4,1.1-1.6,1.7-2.7,1.5c-1.1-0.2-1.9-1.2-1.9-2.3V64.5c-0.1,0-0.2-0.1-0.2-0.2c-0.3-0.2-0.5-0.3-0.8-0.5
		c-0.1-0.1-0.2-0.2-0.4-0.3c-0.4-0.3-0.7-0.5-1-0.8c-0.3,0.3-0.7,0.6-1,0.8c-0.1,0.1-0.2,0.2-0.3,0.2c-0.3,0.2-0.5,0.4-0.8,0.5
		c-0.1,0-0.1,0.1-0.2,0.1v23.3c0,1.1-0.8,2.1-1.9,2.3c-1.1,0.2-2.2-0.4-2.7-1.5c-1.5-3.9-3.1-7.9-4.7-11.9
		c-1.8-4.3-3.5-8.5-5.3-12.6c-0.1,0-0.1-0.1-0.2-0.1c-0.1-0.1-0.2-0.1-0.3-0.2c-0.2-0.2-0.4-0.3-0.7-0.5c-0.1-0.1-0.2-0.1-0.3-0.2
		c-0.2-0.2-0.4-0.4-0.6-0.5c-0.1-0.1-0.2-0.1-0.2-0.2c-0.3-0.3-0.5-0.5-0.8-0.8c-0.5,0.3-1,0.5-1.5,0.8c-0.1,0-0.2,0.1-0.2,0.1
		c-0.5,0.2-1,0.4-1.5,0.6c-0.1,0-0.2,0.1-0.3,0.1c-0.1,0-0.3,0.1-0.4,0.1c2.7,6.2,5.2,12.6,7.3,18.9c2.9,8.8,5.2,17.8,6.9,26.9h19.8
		c1.7-9.1,4-18.2,6.9-26.9C82.9,75.9,85.3,69.6,88.1,63.4z"/><path fill="#80dfa5" d="M92.6,35.4c-1.1,0-2.3-0.8-2.6-1.9c-0.9-4.4-4.8-7.6-9.3-7.6c-1.1,0-2.1,0.2-3.2,0.5
		c-1.1,0.4-2.4-0.1-2.9-1.2c-2-4-6.1-6.5-10.6-6.5c-4.5,0-8.6,2.5-10.6,6.5c-0.5,1.1-1.8,1.6-2.9,1.2c-1-0.4-2.1-0.5-3.2-0.5
		c-4.5,0-8.4,3.2-9.3,7.6c-0.2,1.1-1.2,1.9-2.3,1.9c-6.8,0-12.1,5.3-12.1,11.9c0,6.6,5.3,11.9,11.9,11.9c0.3,0,0.6,0,0.9,0
		c2.1-0.2,3.9-0.8,5.6-1.9c0.4-0.2,0.7-0.4,0.9-0.7c0.5-0.4,1.2-0.6,1.9-0.5c0.7,0.1,1.3,0.5,1.6,1.1c0.1,0.2,0.2,0.3,0.4,0.5
		c0.9,1.1,1.9,2.1,3.1,2.7c2.6,1.4,5.6,1.5,8.3,0.4c1.5-0.7,2.8-1.7,3.8-3c0.4-0.6,1.2-0.9,1.9-0.9s1.5,0.4,1.9,0.9
		c1,1.3,2.3,2.4,3.8,3c2.6,1.1,5.7,1,8.3-0.4c1.2-0.6,2.3-1.6,3.1-2.7c0.2-0.2,0.3-0.4,0.4-0.6c0.4-0.6,0.9-1,1.6-1.1
		c0.7-0.1,1.4,0,1.9,0.5c0.3,0.2,0.6,0.4,0.9,0.6c1.7,1.2,3.6,1.8,5.7,2c0.3,0,0.6,0,0.9,0c6.6,0,11.9-5.3,11.9-11.9
		C104.5,40.8,99.1,35.4,92.6,35.4z"/><path fill="#0a3960" d="M109.2,47.3c0-8.6-6.5-15.7-15.1-16.6c-2-5.7-7.4-9.6-13.5-9.6c-0.9,0-1.9,0.1-2.8,0.3
		C74.8,16.8,69.7,14,64,14s-10.8,2.8-13.9,7.4c-0.9-0.2-1.9-0.3-2.8-0.3c-6.1,0-11.5,3.9-13.5,9.6c-8.4,0.8-15.1,7.9-15.1,16.6
		c0,9,7.2,16.4,16.2,16.6c2.9,6.5,5.5,13.2,7.7,19.8c3,9.2,5.4,18.7,7.1,28.2c0.2,1.1,1.2,2,2.3,2h23.8c1.2,0,2.1-0.8,2.3-2
		c1.7-9.6,4-19.1,7.1-28.2c2.2-6.7,4.8-13.3,7.7-19.8C102,63.7,109.2,56.4,109.2,47.3z M54.1,109.2c-1.7-9.1-4-18.2-6.9-26.9
		c-2.1-6.4-4.5-12.7-7.3-18.9c0.1,0,0.3-0.1,0.4-0.1c0.1,0,0.2-0.1,0.3-0.1c0.5-0.2,1-0.4,1.5-0.6c0.1,0,0.2-0.1,0.2-0.1
		c0.5-0.2,1-0.5,1.5-0.8c0.3,0.3,0.5,0.5,0.8,0.8c0.1,0.1,0.2,0.1,0.2,0.2c0.2,0.2,0.4,0.4,0.6,0.5c0.1,0.1,0.2,0.1,0.3,0.2
		c0.2,0.2,0.4,0.3,0.7,0.5c0.1,0.1,0.2,0.1,0.3,0.2c0.1,0,0.1,0.1,0.2,0.1c1.8,4.1,3.6,8.3,5.3,12.6c1.6,4,3.2,7.9,4.7,11.9
		c0.4,1.1,1.5,1.7,2.7,1.5c1.1-0.2,1.9-1.2,1.9-2.3V64.5c0.1,0,0.1-0.1,0.2-0.1c0.3-0.2,0.5-0.3,0.8-0.5c0.1-0.1,0.2-0.2,0.3-0.2
		c0.4-0.3,0.7-0.5,1-0.8c0.3,0.3,0.7,0.6,1,0.8c0.1,0.1,0.2,0.2,0.4,0.3c0.2,0.2,0.5,0.3,0.8,0.5c0.1,0,0.2,0.1,0.2,0.2v23.3
		c0,1.1,0.8,2.1,1.9,2.3c1.1,0.2,2.2-0.4,2.7-1.5c1.5-3.9,3.1-7.9,4.7-11.9c1.8-4.3,3.5-8.5,5.3-12.6c0.1,0,0.1-0.1,0.2-0.1
		c0.1-0.1,0.2-0.2,0.4-0.2c0.2-0.1,0.4-0.3,0.6-0.4c0.1-0.1,0.2-0.2,0.3-0.3c0.2-0.2,0.4-0.3,0.6-0.5c0.1-0.1,0.2-0.2,0.3-0.2
		c0.3-0.3,0.5-0.5,0.8-0.8c0.5,0.3,1,0.6,1.6,0.8c0.1,0,0.1,0.1,0.2,0.1c0.5,0.2,1,0.4,1.6,0.6c0.1,0,0.2,0.1,0.2,0.1
		c0.1,0,0.3,0.1,0.4,0.1c-2.7,6.2-5.2,12.6-7.3,18.9c-2.9,8.8-5.2,17.8-6.9,26.9H54.1z M71.1,66.2c0.8,0.1,1.6,0.2,2.4,0.2
		c0.5,0,1,0,1.5-0.1c-1.2,2.9-2.5,5.8-3.7,8.7c-0.1,0.1-0.1,0.3-0.2,0.4V66.2z M53,66.3c1.3,0.1,2.6,0.1,3.9-0.1v9.3
		c-0.1-0.1-0.1-0.3-0.2-0.4C55.5,72,54.2,69.1,53,66.3z M92.6,59.2c-0.3,0-0.6,0-0.9,0c-2.1-0.2-4-0.8-5.7-2
		c-0.3-0.2-0.6-0.4-0.9-0.6c-0.5-0.4-1.2-0.6-1.9-0.5c-0.7,0.1-1.3,0.5-1.6,1.1c-0.1,0.2-0.2,0.3-0.4,0.6c-0.8,1.1-1.9,2-3.1,2.7
		c-2.6,1.4-5.7,1.5-8.3,0.4c-1.5-0.7-2.8-1.7-3.8-3c-0.4-0.6-1.2-0.9-1.9-0.9s-1.5,0.4-1.9,0.9c-1,1.3-2.3,2.4-3.8,3
		c-2.7,1.2-5.8,1-8.3-0.4c-1.2-0.7-2.3-1.6-3.1-2.7c-0.1-0.2-0.2-0.3-0.4-0.5c-0.4-0.6-0.9-1-1.6-1.1c-0.7-0.1-1.4,0-1.9,0.5
		c-0.3,0.2-0.6,0.4-0.9,0.7c-1.7,1.1-3.6,1.8-5.6,1.9c-0.3,0-0.6,0-0.9,0c-6.6,0-11.9-5.3-11.9-11.9c0-6.6,5.3-11.9,12.1-11.9
		c1.1,0,2.1-0.8,2.3-1.9c0.9-4.4,4.8-7.6,9.3-7.6c1.1,0,2.1,0.2,3.2,0.5c1.1,0.4,2.4-0.1,2.9-1.2c2-4,6.1-6.5,10.6-6.5
		c4.5,0,8.6,2.5,10.6,6.5c0.5,1.1,1.8,1.6,2.9,1.2c1-0.4,2.1-0.5,3.2-0.5c4.5,0,8.4,3.2,9.3,7.6c0.2,1.1,1.4,1.9,2.6,1.9
		c6.6,0,11.9,5.3,11.9,11.9C104.5,53.9,99.1,59.2,92.6,59.2z"/></svg>