<svg xmlns="http://www.w3.org/2000/svg" id="Outlined_1_" enable-background="new 0 0 128 128" viewBox="0 0 128 128"><path fill="#00bf4c" d="M52.8 106.2c0-.1-.1-.2-.1-.3 0-.1-.1-.3-.1-.4-.1-.2-.1-.4-.2-.7 0-.1-.1-.3-.1-.4 0-.2-.1-.5-.1-.7 0-.1 0-.2 0-.4 0-.4-.1-.8-.1-1.1l.1-1.6 3.9-53.4c0 0-.1.1-.1.1-.4.3-.8.7-1.2 1-.1.1-.2.2-.4.3-.5.3-.9.6-1.5.9-.5.3-1.1.6-1.7.9-.1.1-.3.1-.4.2-.6.2-1.2.5-1.8.7 0 0 0 0-.1 0L45 91.5C45 97.6 48.1 103 52.8 106.2zM78.9 51.1c0 0-.1 0-.1 0-.1 0-.3-.1-.4-.1-.3-.1-.5-.2-.8-.3-.1-.1-.3-.1-.4-.2-.3-.1-.5-.2-.8-.3C76.3 50.1 76.1 50 76 50c-.4-.2-.7-.4-1.1-.6-.5-.3-1-.6-1.4-.9-.1-.1-.2-.2-.4-.3-.4-.3-.8-.6-1.2-1 0 0-.1-.1-.1-.1l4.1 54.7c0 .1 0 .1 0 .2 0 1.4-.3 2.8-.7 4.1 4.7-3.2 7.8-8.6 7.9-14.7L78.9 51.1zM71.1 102.2l-.1-1.3-4.3-58.5c-.3 0-.5 0-.8.1-.2 0-.3 0-.5 0-.9.1-1.9.1-2.8 0-.2 0-.3 0-.5 0-.3 0-.6 0-.8-.1l-4.4 59.9c0 3.7 3.2 6.9 7.2 6.9C67.9 109.2 71.1 106.1 71.1 102.2z"/><path fill="#80dfa5" d="M42.4 47.4c1.3 0 2.6-.1 3.9-.4 0 0 .3-.1.3-.1 1.6-.4 2.9-.9 4.1-1.6 1.1-.6 2.1-1.4 3-2.3.6-.7 1.1-1.5 1.5-2.4-.5-.3-1-.5-1.5-.9-.4-.2-.7-.5-1.1-.8-.1-.1-.2-.2-.3-.3-.3-.2-.5-.4-.7-.7-.1-.1-.2-.2-.3-.3-.3-.3-.6-.7-.9-1 0-.1-.1-.1-.1-.2-.2-.3-.4-.6-.6-.9-.1-.1-.2-.2-.2-.4-.2-.3-.3-.6-.5-.9-.1-.1-.1-.2-.2-.3-.2-.4-.4-.8-.5-1.2-.4.3-1 .4-1.5.3-.7-.1-1.3-.5-1.7-1.1-.8-1.2-1.9-2.2-2.9-2.9-.5 1.1-1.1 2.5-1.2 3.9 0 .7-.4 1.4-1 1.8-.6.4-1.3.6-2 .4-1.4-.3-3-.2-4.1 0 .3 1.1.9 2.4 1.8 3.5.5.6.7 1.4.4 2.2-.2.8-.8 1.4-1.6 1.6-.2.1-.5.1-.7.2 1 1.6 2.6 3.2 4.9 4C39.9 47.1 41.2 47.3 42.4 47.4zM89.2 46.7c2.3-.8 3.8-2.4 4.9-4-.2-.1-.4-.2-.7-.2-.8-.2-1.4-.8-1.6-1.6-.2-.8-.1-1.6.4-2.2.9-1.1 1.4-2.4 1.8-3.5-1.2-.2-2.7-.4-4.1 0-.7.2-1.4 0-2-.4-.6-.4-.9-1.1-1-1.8-.1-1.4-.6-2.8-1.2-3.9-1 .7-2.1 1.6-2.9 2.9-.4.6-1 1-1.7 1.1-.5.1-1 0-1.5-.3-.2.4-.3.8-.5 1.2 0 .1-.1.2-.2.3-.2.3-.3.6-.5.9-.1.1-.1.2-.2.4-.2.3-.4.6-.6.9 0 .1-.1.1-.1.2-.3.4-.6.7-.9 1-.1.1-.2.2-.3.3-.2.2-.5.5-.7.7-.1.1-.2.2-.3.3-.3.3-.7.5-1.1.8-.4.3-.9.6-1.4.8.4.9.9 1.7 1.5 2.4.8.9 1.8 1.7 2.9 2.3 1.2.7 2.5 1.2 4 1.6.1 0 .4.1.4.1 1.3.3 2.6.5 3.8.4C86.8 47.3 88.1 47.1 89.2 46.7z"/><path fill="#0a3960" d="M98.6,39.7c-0.1-0.1-0.4-0.3-1-0.6c1.3-2.6,1.6-5.1,1.6-5.3c0.1-1.1-0.5-2.1-1.5-2.5c-0.2-0.1-3-1.2-6.4-1.1
		c-0.9-3.2-2.7-5.7-2.8-5.8c-0.7-0.9-1.9-1.2-2.9-0.7c-0.1,0.1-2.9,1.3-5.2,3.7c-0.3-0.2-0.7-0.4-1.1-0.6c0,0,0,0,0,0c0,0,0,0,0,0
		l-0.7-0.3c-0.2-0.1-0.4-0.2-0.6-0.2c0.6-2.8,0.3-5.3,0.3-5.4c-0.1-1.1-1-1.9-2.1-2.1c-0.2,0-3.3-0.4-6.5,0.5
		c-1.6-2.9-4-4.8-4.2-4.9c-0.9-0.7-2.1-0.7-2.9,0c-0.1,0.1-2.5,2-4.2,4.9c-3.2-0.9-6.3-0.6-6.5-0.5c-1.1,0.1-1.9,1-2.1,2.1
		c0,0.1-0.3,2.6,0.3,5.4c-0.2,0.1-0.4,0.2-0.7,0.3l-0.6,0.3c0,0,0,0,0,0c0,0,0,0,0,0c-0.4,0.2-0.7,0.4-1.1,0.6
		c-2.3-2.4-5.1-3.7-5.2-3.7c-1-0.4-2.2-0.1-2.9,0.7c-0.1,0.1-1.9,2.6-2.8,5.8c-3.4-0.1-6.3,1-6.4,1.1c-1,0.4-1.6,1.4-1.5,2.5
		c0,0.1,0.4,2.6,1.6,5.3c-0.6,0.3-1,0.5-1,0.6c-1,0.6-1.3,1.9-0.9,2.9c1.9,4.3,4.9,7.3,8.7,8.6c1.6,0.6,3.4,0.9,5.1,0.9
		c0.2,0,0.4,0,0.5,0c0.4,0,0.9,0,1.3-0.1l-4,39.1c0,0.1,0,0.2,0,0.2c0,12.5,10.1,22.6,22.6,22.6H64h1.2c12.5,0,22.6-10.1,22.6-22.6
		c0-0.1,0-0.2,0-0.2l-4-39.1c0.4,0,0.9,0.1,1.3,0.1c0.2,0,0.3,0,0.5,0c1.8,0,3.5-0.3,5.2-0.9c3.8-1.4,6.9-4.3,8.7-8.6
		C100,41.6,99.6,40.3,98.6,39.7z M33.9,42.7c0.2-0.1,0.4-0.2,0.7-0.2c0.8-0.2,1.4-0.8,1.6-1.6c0.2-0.8,0.1-1.6-0.4-2.2
		c-0.9-1.1-1.4-2.4-1.8-3.5c1.2-0.2,2.7-0.4,4.1,0c0.7,0.2,1.4,0,2-0.4c0.6-0.4,0.9-1.1,1-1.8c0.1-1.4,0.6-2.8,1.2-3.9
		c1,0.7,2.1,1.6,2.9,2.9c0.4,0.6,1,1,1.7,1.1c0.5,0.1,1,0,1.5-0.3c0.2,0.4,0.3,0.8,0.5,1.2c0.1,0.1,0.1,0.2,0.2,0.3
		c0.2,0.3,0.3,0.6,0.5,0.9c0.1,0.1,0.1,0.2,0.2,0.4c0.2,0.3,0.4,0.6,0.6,0.9c0,0.1,0.1,0.1,0.1,0.2c0.3,0.4,0.6,0.7,0.9,1
		c0.1,0.1,0.2,0.2,0.3,0.3c0.2,0.2,0.5,0.5,0.7,0.7c0.1,0.1,0.2,0.2,0.3,0.3c0.3,0.3,0.7,0.5,1.1,0.8c0.5,0.3,0.9,0.6,1.5,0.9
		c-0.4,0.9-0.9,1.7-1.5,2.4c-0.8,0.9-1.8,1.7-3,2.3c-1.2,0.7-2.5,1.2-4.1,1.6c0,0-0.3,0.1-0.3,0.1c-1.3,0.3-2.6,0.5-3.9,0.4
		c-1.3,0-2.5-0.2-3.7-0.6C36.5,45.9,35,44.3,33.9,42.7z M55.2,26.9c-0.1-0.3-0.2-0.5-0.3-0.8c-0.3-0.9-0.4-1.8-0.4-2.6
		c1.2,0.1,2.7,0.3,4,1c0.6,0.3,1.4,0.4,2,0.1c0.7-0.3,1.2-0.8,1.4-1.5c0.4-1.4,1.3-2.6,2.1-3.5c0.8,0.9,1.7,2.1,2.1,3.5
		c0.2,0.7,0.7,1.2,1.4,1.5c0.7,0.3,1.4,0.2,2-0.1c1.3-0.7,2.8-0.9,4-1c0,0.8-0.2,1.7-0.4,2.7c-0.1,0.2-0.2,0.5-0.3,0.8
		c-0.3,0.7-0.3,1.4,0.1,2c0.3,0.6,0.9,1.1,1.6,1.2c0.2,0,0.6,0.1,1,0.3c-0.6,1.9-1.7,3.9-3.8,5.3c-0.7,0.4-1.4,0.8-2.3,1.1
		c0,0,0,0,0,0c-0.1,0-0.3,0.1-0.4,0.1c-0.2,0.1-0.5,0.2-0.7,0.2c-2.6,0.7-5.8,0.7-8.5,0c-0.2-0.1-0.5-0.1-0.7-0.2
		c-0.1,0-0.3-0.1-0.4-0.1c0,0,0,0,0,0c-0.8-0.3-1.6-0.7-2.3-1.1c-2.1-1.4-3.2-3.4-3.8-5.3c0.4-0.1,0.8-0.2,1-0.3
		c0.7-0.1,1.3-0.6,1.6-1.2C55.5,28.4,55.5,27.6,55.2,26.9z M56.8,102.3l4.4-59.9c0.3,0,0.6,0.1,0.8,0.1c0.2,0,0.3,0,0.5,0
		c0.9,0.1,1.9,0.1,2.8,0c0.2,0,0.3,0,0.5,0c0.3,0,0.5,0,0.8-0.1l4.3,58.5l0.1,1.3c0,3.9-3.2,7-7.1,7C60.1,109.2,56.9,106,56.8,102.3
		z M49.1,51.1C49.1,51.1,49.1,51.1,49.1,51.1c0.7-0.2,1.3-0.4,1.9-0.7c0.1-0.1,0.3-0.1,0.4-0.2c0.6-0.3,1.2-0.5,1.7-0.9
		c0.5-0.3,1-0.6,1.5-0.9c0.1-0.1,0.2-0.2,0.4-0.3c0.4-0.3,0.8-0.6,1.2-1c0,0,0.1-0.1,0.1-0.1l-3.9,53.4l-0.1,1.6
		c0,0.4,0,0.8,0.1,1.1c0,0.1,0,0.2,0,0.4c0,0.2,0.1,0.5,0.1,0.7c0,0.1,0.1,0.3,0.1,0.4c0.1,0.2,0.1,0.4,0.2,0.7
		c0,0.1,0.1,0.3,0.1,0.4c0,0.1,0.1,0.2,0.1,0.3C48.1,103,45,97.6,45,91.5L49.1,51.1z M75.2,106.2c0.5-1.3,0.7-2.7,0.7-4.1
		c0-0.1,0-0.1,0-0.2l-4.1-54.7c0,0,0.1,0.1,0.1,0.1c0.4,0.3,0.8,0.7,1.2,1c0.1,0.1,0.2,0.2,0.4,0.3c0.5,0.3,0.9,0.6,1.4,0.9
		c0.4,0.2,0.7,0.4,1.1,0.6c0.1,0.1,0.2,0.1,0.4,0.2c0.3,0.1,0.5,0.2,0.8,0.3c0.1,0.1,0.3,0.1,0.4,0.2c0.3,0.1,0.5,0.2,0.8,0.3
		c0.1,0,0.3,0.1,0.4,0.1c0,0,0.1,0,0.1,0L83,91.5C83,97.6,79.9,103,75.2,106.2z M81.7,46.9c-0.1,0-0.4-0.1-0.4-0.1
		c-1.4-0.3-2.8-0.9-4-1.6c-1.1-0.6-2.1-1.4-2.9-2.3c-0.6-0.7-1.1-1.5-1.5-2.4c0.5-0.3,1-0.5,1.4-0.8c0.4-0.2,0.7-0.5,1.1-0.8
		c0.1-0.1,0.2-0.2,0.3-0.3c0.3-0.2,0.5-0.4,0.7-0.7c0.1-0.1,0.2-0.2,0.3-0.3c0.3-0.3,0.6-0.7,0.9-1c0-0.1,0.1-0.1,0.1-0.2
		c0.2-0.3,0.4-0.6,0.6-0.9c0.1-0.1,0.1-0.2,0.2-0.4c0.2-0.3,0.4-0.6,0.5-0.9c0.1-0.1,0.1-0.2,0.2-0.3c0.2-0.4,0.4-0.8,0.5-1.2
		c0.4,0.3,1,0.4,1.5,0.3c0.7-0.1,1.3-0.5,1.7-1.1c0.8-1.2,1.9-2.2,2.9-2.9c0.5,1.1,1.1,2.5,1.2,3.9c0,0.7,0.4,1.4,1,1.8
		c0.6,0.4,1.3,0.6,2,0.4c1.4-0.3,3-0.2,4.1,0c-0.3,1.1-0.9,2.4-1.8,3.5c-0.5,0.6-0.7,1.4-0.4,2.2c0.2,0.8,0.8,1.4,1.6,1.6
		c0.2,0.1,0.5,0.1,0.7,0.2c-1,1.6-2.6,3.2-4.9,4c-1.1,0.4-2.4,0.6-3.7,0.6C84.3,47.4,83,47.3,81.7,46.9z"/><path fill="#80dfa5" d="M53.5,30.2c-0.2,0-0.6,0.1-1,0.3c0.6,1.9,1.7,3.9,3.8,5.3c0.7,0.5,1.4,0.8,2.3,1.1c0,0,0,0,0,0
		c0.1,0,0.3,0.1,0.4,0.1c0.2,0.1,0.5,0.2,0.7,0.2c2.7,0.8,5.9,0.7,8.5,0c0.3-0.1,0.5-0.1,0.7-0.2c0.1-0.1,0.3-0.1,0.4-0.1
		c0,0,0,0,0,0c0.8-0.3,1.6-0.7,2.3-1.1c2.1-1.4,3.2-3.4,3.8-5.3c-0.4-0.1-0.8-0.2-1-0.3c-0.7-0.1-1.3-0.6-1.6-1.2
		c-0.3-0.6-0.4-1.4-0.1-2c0.1-0.3,0.2-0.5,0.3-0.8c0.3-0.9,0.4-1.9,0.4-2.7c-1.2,0.1-2.7,0.3-4,1c-0.6,0.3-1.4,0.4-2,0.1
		c-0.7-0.3-1.2-0.8-1.4-1.5c-0.4-1.4-1.3-2.6-2.1-3.5c-0.8,0.9-1.7,2.1-2.1,3.5c-0.2,0.7-0.7,1.2-1.4,1.5c-0.7,0.3-1.4,0.2-2-0.1
		c-1.3-0.7-2.8-0.9-4-1c0,0.8,0.2,1.7,0.4,2.6c0.1,0.3,0.2,0.5,0.3,0.8c0.3,0.7,0.3,1.4-0.1,2C54.8,29.6,54.2,30.1,53.5,30.2z"/></svg>