<svg xmlns="http://www.w3.org/2000/svg" id="Outlined_1_" enable-background="new 0 0 128 128" viewBox="0 0 128 128"><path fill="#ff5959" d="M37.8 80.7c-.7 0-1.4-.3-1.9-.9-1.9-2.4-4.6-3.8-7.1-3.8-.2 0-.5 0-.7 0-6 .8-9.7 7.9-9.3 14.1.6 10.7 8.9 19.1 19 19.1 10.1 0 18.5-8.4 19-19.1.3-6.2-3.3-13.4-9.4-14.1-2.7-.3-5.7 1.2-7.8 3.8C39.2 80.3 38.6 80.6 37.8 80.7zM109.2 83.4c-.3-6.2-4.7-13-10.7-13.1-2.7-.1-5.6 1.8-7.4 4.6-.4.6-1 1-1.8 1.1-.7.1-1.4-.2-2-.7-1.9-2-4.5-3.1-6.8-3.1-.5 0-.9 0-1.4.1-5.9 1.4-8.8 8.9-7.9 15C73 97.8 82 105.3 92 104.4c.1 0 .2 0 .3 0C102.3 103.3 109.7 94.1 109.2 83.4z"/><path fill="#0a3960" d="M114,83.2c-0.4-8.3-6.4-17.5-15.4-17.7c-3.2,0-6.7,1.5-9.3,4.1c-12.8-20.1-22.9-53.5-23-53.9
		c-0.2-0.8-0.9-1.4-1.6-1.6c-0.8-0.2-1.6,0-2.2,0.5c-1,0.9-22.7,20.9-26.6,58.7c-2.6-1.6-5.5-2.4-8.3-2.1C18.6,72.4,13.6,82,14,90.4
		c0.7,13.2,11.1,23.6,23.8,23.6c12.6,0,23.1-10.4,23.8-23.6C62,82,57,72.4,48.1,71.2c-2.5-0.3-5.1,0.3-7.4,1.6
		c3.1-27.7,16.5-45.4,22.3-51.9c2.8,8.7,10.2,30.2,19.5,46.6c-1.5-0.2-2.9-0.2-4.3,0.1c-8.8,2-12.8,12.2-11.5,20.4
		c1.9,12.3,12.1,21.2,23.8,21.2c0.7,0,1.5,0,2.3-0.1c0.1,0,0.2,0,0.3-0.1C105.4,107.6,114.6,96.3,114,83.2z M47.5,76
		c6,0.8,9.7,7.9,9.4,14.1c-0.6,10.7-8.9,19.1-19,19.1c-10.1,0-18.4-8.4-19-19.1c-0.3-6.2,3.3-13.4,9.3-14.1c0.2,0,0.5,0,0.7,0
		c2.5,0,5.2,1.5,7.1,3.8c0.5,0.6,1.1,0.9,1.9,0.9c0.8-0.1,1.4-0.3,1.9-0.9C41.7,77.1,44.8,75.6,47.5,76z M92,104.4
		c-9.9,0.9-19-6.6-20.6-17.1c-1-6.1,2-13.7,7.9-15c0.5-0.1,0.9-0.1,1.4-0.1c2.3,0,4.8,1.1,6.8,3.1c0.5,0.5,1.2,0.8,2,0.7
		c0.7-0.1,1.4-0.5,1.8-1.1c1.8-2.8,4.6-4.6,7.4-4.6c6.1,0.1,10.4,6.9,10.7,13.1c0.5,10.7-7,19.9-17,20.9
		C92.1,104.4,92,104.4,92,104.4z"/></svg>