<svg xmlns="http://www.w3.org/2000/svg" enable-background="new 0 0 128 128" viewBox="0 0 128 128"><path fill="#ff5959" d="M77.9,34.9c-0.3,0-0.4,0-0.5,0c-2.4,0-4.7,0.8-6.7,2.3c-3.7,2.7-5.6,7.5-4.9,12c1.1,6.7,1,13.6-0.2,20.6
		c-2.9,16.5-12,30.7-24.4,38.3c1,0.3,2.1,0.6,3.2,0.7c9.7,1.7,19.7-1.4,28.2-8.8c8.6-7.5,14.6-18.6,16.7-31c0,0,0,0,0,0
		c1.6-8.9,1.1-18-1.4-26.1C86.4,38.2,82.5,35.1,77.9,34.9z"/><path fill="#0a3960" d="M92.4,41.4c-1.8-5.8-6.4-9.9-11.9-11c0.1-9-4.9-14.5-6.1-15.6c-0.3-0.3-0.8-0.6-1.3-0.7
		c-1.3-0.2-2.5,0.6-2.8,1.9c-0.1,0.8,0.1,1.6,0.7,2.2c0.8,0.8,4.7,5,4.7,12c-2.8,0.3-5.6,1.4-7.9,3.1C62.7,37.1,60,43.6,61,49.9
		c1,6.2,0.9,12.6-0.2,19c-3,17-13.1,31.3-26.4,37.3c-0.8,0.4-1.4,1.2-1.4,2.1c0,0.9,0.5,1.8,1.3,2.2c2.9,1.4,5.9,2.4,9.1,2.9
		c2,0.4,4.1,0.5,6.1,0.5c9.2,0,18.2-3.6,26.1-10.5c9.4-8.2,15.9-20.3,18.3-33.8C95.7,60,95.1,50.2,92.4,41.4z M89.3,68.9
		C89.3,68.9,89.3,68.9,89.3,68.9c-2.2,12.5-8.1,23.5-16.7,31.1c-8.5,7.4-18.5,10.5-28.2,8.8c-1.1-0.2-2.2-0.4-3.2-0.7
		c12.3-7.6,21.5-21.8,24.4-38.3c1.2-7,1.3-13.9,0.2-20.6c-0.7-4.6,1.2-9.3,4.9-12c2-1.5,4.3-2.3,6.7-2.3c0.1,0,0.2,0,0.5,0
		c4.6,0.2,8.6,3.3,10,7.9C90.4,50.9,90.9,60,89.3,68.9z"/></svg>