<svg xmlns="http://www.w3.org/2000/svg" enable-background="new 0 0 128 128" viewBox="0 0 128 128"><path fill="#ffd346" d="M54.6 56.8c0-1.4.1-2.7.1-4.1 0-.3 0-.6 0-.9.1-1.4.1-2.8.2-4.2 0-.1 0-.1 0-.2h-7.8c-.6 3.1-1.1 6.3-1.5 9.5L54.6 56.8C54.5 56.8 54.5 56.8 54.6 56.8zM73.1 47.3c0 .1 0 .1 0 .2.1 1.4.1 2.8.2 4.2 0 .3 0 .6 0 .8.1 1.4.1 2.8.1 4.2 0 0 0 0 0 .1h8.9c-.3-3.2-.8-6.4-1.5-9.5H73.1zM71.1 27.9l.1.4h3.3c-1.5-2.8-3.1-5-4.7-6.6C70.2 23.4 70.7 25.5 71.1 27.9zM56.9 28.3l.1-.4c.4-2.1.7-3.8 1.1-5.4.1-.3.1-.6.2-.9-1.6 1.6-3.3 3.8-4.7 6.6H56.9zM55.2 42.4c.1-.7.1-1.5.2-2.2 0-.2 0-.4.1-.6.1-.7.1-1.3.2-1.9 0-.1 0-.1 0-.2.1-.7.1-1.3.2-1.9 0-.2 0-.4.1-.6.1-.6.1-1.1.2-1.7 0-.1 0-.1 0-.2h-4.9c-1.2 2.9-2.2 6-3.1 9.5h7L55.2 42.4zM71.8 33c0 .1 0 .2 0 .2.1.5.1 1.1.2 1.7 0 .2 0 .3.1.5.1 1.3.3 2.8.4 4.2 0 .1 0 .3 0 .4.1.8.1 1.5.2 2.3l0 .2h7c-.9-3.5-1.9-6.7-3.1-9.5H71.8zM68 42.6c-.3-3.5-.6-6.7-1-9.5H61c-.4 2.8-.7 6-1 9.5H68zM64 19.6c-.6 1.2-1.4 3.6-2.3 8.7h4.6C65.4 23.2 64.6 20.8 64 19.6zM68.7 56.9c-.1-3.1-.2-6.3-.4-9.5h-8.6c-.2 3.3-.3 6.5-.4 9.5H68.7zM68.8 64c0-.8 0-1.6 0-2.4h-9.5c0 .8 0 1.6 0 2.4 0 2.4 0 4.8.1 7.1l0 0h9.4C68.7 68.8 68.8 66.4 68.8 64zM62 75.9c.1.2.2.4.3.6.2.5.4.9.6 1.4.1.3.3.7.4 1 .2.5.4.9.6 1.4 0 0 0 .1 0 .1 0-.1.1-.2.1-.2.1-.3.2-.6.3-.8.2-.6.4-1.1.7-1.7.1-.3.3-.6.4-1 .1-.3.3-.6.4-.9H62z"/><path fill="#00bf4c" d="M68.1,104.5c-0.2,0-0.4,0-0.6,0c-0.6,0-1.1,0-1.7,0l-1.7,0l-1.7,0c-0.6,0-1.2,0-1.7,0c-0.2,0-0.5,0-0.7,0
		c-0.1,0-0.2,0-0.4,0c-0.8,0-1.6,0-2.4-0.1c-0.1,0-0.1,0-0.2,0v2.5c0,1.3,1.1,2.4,2.4,2.4h9.5c1.3,0,2.4-1.1,2.4-2.4v-2.5
		c-0.1,0-0.1,0-0.2,0c-0.8,0.1-1.6,0.1-2.3,0.1C68.4,104.5,68.2,104.5,68.1,104.5z"/><path fill="#ffd346" d="M54.5,64c0-0.8,0-1.6,0-2.4h-4.2c0,0,0.1,0,0.1,0.1c0.7,0.5,1.3,1,1.9,1.5c0.2,0.2,0.3,0.3,0.5,0.5
		c0.5,0.4,0.9,0.8,1.4,1.3c0.1,0.1,0.2,0.2,0.3,0.3C54.5,64.9,54.5,64.4,54.5,64z"/><path fill="#00bf4c" d="M51.8 98.5c.9.3 1.9.6 3.1.8 2.1.4 4.4.4 6.7.4v-5.2c0-7.1-2-13.9-5.7-19.7-.3-.6-.6-1-.9-1.4-2.7-3.9-6-7.1-9.8-9.5-.2 0-.3 0-.5 0-.1 0-.2 0-.4 0-.4 0-.9.1-1.4.1-.6.1-1.3.2-2 .3-.2 0-.3.1-.5.1-.7.1-1.4.3-2.1.5-.1 0-.1 0-.2 0-.7.2-1.4.4-2.1.6-.2.1-.4.1-.6.2-.8.2-1.6.5-2.4.8 0 0 0 0-.1 0 4.5 5 5.9 10.8 7.2 16C42.1 89.8 43.6 95.5 51.8 98.5zM27.8 63.3c4.2-1.6 8.1-2.8 11.5-3.5-2.7-1.5-6.2-3-9.5-3-1.2 0-2.4.2-3.6.7-2.9 1.3-5.1 4.4-6.4 9.2C21.9 65.8 24.7 64.5 27.8 63.3z"/><path fill="#ffd346" d="M73.5,61.6c0,0.8,0,1.6,0,2.4c0,0.4,0,0.9,0,1.3c0.1-0.1,0.2-0.2,0.2-0.2c0.5-0.5,1-1,1.5-1.4
		c0.1-0.1,0.3-0.3,0.4-0.4c0.6-0.5,1.3-1.1,1.9-1.6c0,0,0.1,0,0.1-0.1H73.5z"/><path fill="#00bf4c" d="M87.6 82.5c1.3-5.2 2.7-11.1 7.2-16 0 0 0 0-.1 0-.8-.3-1.6-.5-2.4-.8-.2-.1-.4-.1-.5-.2-.7-.2-1.4-.4-2.1-.6-.1 0-.1 0-.2 0-.7-.2-1.4-.3-2.1-.4-.2 0-.3-.1-.5-.1-.7-.1-1.3-.2-2-.3C84.4 64.1 84 64 83.6 64c-.1 0-.2 0-.4 0-.2 0-.3 0-.5 0-3.8 2.4-7.1 5.6-9.7 9.4-.4.5-.7.9-.9 1.3-3.8 6-5.7 12.8-5.7 19.8v5.2c2.4 0 4.6 0 6.7-.4 1.1-.2 2.2-.5 3.1-.8C84.4 95.5 85.9 89.8 87.6 82.5zM101.8 57.6c-4.1-1.8-9.4.2-13.1 2.3 3.4.7 7.2 1.8 11.5 3.5 3.1 1.2 5.9 2.4 8.1 3.4C106.9 61.9 104.7 58.8 101.8 57.6z"/><path fill="#0a3960" d="M114,70.8c-1.5-9.3-4.9-15.2-10.2-17.6c-5.7-2.5-12.1-0.3-16.7,2.2c-0.4-3.7-1.1-7.4-1.9-11c0,0,0,0,0,0
		c0,0,0,0,0,0L84.6,42c-1.1-4.5-2.5-8.7-4.1-12.3c0,0,0,0,0,0c-0.4-0.9-0.8-1.7-1.2-2.5C75,18.6,69.7,14,64,14
		c-5.7,0-11,4.6-15.3,13.2c-0.4,0.8-0.8,1.6-1.2,2.5c0,0,0,0,0,0c-1.6,3.6-3,7.7-4.1,12.3l-0.6,2.4c0,0,0,0,0,0c0,0,0,0,0,0
		c-0.8,3.6-1.4,7.3-1.9,11c-4.6-2.5-11.1-4.7-16.7-2.2c-5.3,2.3-8.8,8.3-10.2,17.6c-0.1,0.9,0.2,1.8,1,2.3c0.4,0.3,0.9,0.4,1.4,0.4
		c0.4,0,0.8-0.1,1.1-0.3c0.1,0,4.7-2.5,10.7-4.9c4.8,4.3,6.1,9.7,7.5,15.4c1.9,7.6,3.8,15.4,14.4,19.3c0.6,0.2,1.3,0.4,1.9,0.6v3.3
		c0,3.9,3.2,7.1,7.1,7.1h9.5c3.9,0,7.1-3.2,7.1-7.1v-3.3c0.7-0.2,1.3-0.4,1.9-0.6c10.6-3.9,12.6-11.7,14.4-19.3
		c1.4-5.7,2.7-11.1,7.5-15.4c6,2.4,10.6,4.9,10.7,4.9c0.4,0.2,0.7,0.3,1.1,0.3c0.5,0,1-0.1,1.4-0.4C113.7,72.6,114.1,71.7,114,70.8z
		 M71.1,104.4v2.5c0,1.3-1.1,2.4-2.4,2.4h-9.5c-1.3,0-2.4-1.1-2.4-2.4v-2.5c0.1,0,0.1,0,0.2,0c0.8,0.1,1.6,0.1,2.4,0.1
		c0.1,0,0.2,0,0.4,0c0.2,0,0.5,0,0.7,0c0.6,0,1.1,0,1.7,0l1.7,0l1.7,0c0.6,0,1.2,0,1.7,0c0.2,0,0.4,0,0.6,0c0.2,0,0.4,0,0.5,0
		c0.8,0,1.6,0,2.3-0.1C71,104.4,71.1,104.4,71.1,104.4z M26.2,57.6c1.1-0.5,2.3-0.7,3.6-0.7c3.3,0,6.8,1.5,9.5,3
		c-3.4,0.7-7.2,1.8-11.5,3.5c-3.1,1.2-5.9,2.4-8.1,3.4C21.1,61.9,23.3,58.8,26.2,57.6z M75.7,63.3c-0.1,0.1-0.3,0.3-0.4,0.4
		c-0.5,0.5-1,0.9-1.5,1.4c-0.1,0.1-0.2,0.1-0.2,0.2c0-0.4,0-0.9,0-1.3c0-0.8,0-1.6,0-2.4h4.2c0,0-0.1,0-0.1,0.1
		C77,62.2,76.3,62.7,75.7,63.3z M65.1,77.7c-0.2,0.6-0.5,1.1-0.7,1.7c-0.1,0.3-0.2,0.6-0.3,0.8c0,0.1-0.1,0.2-0.1,0.2
		c0,0,0-0.1,0-0.1c-0.2-0.5-0.4-1-0.6-1.4c-0.1-0.4-0.3-0.7-0.4-1c-0.2-0.5-0.4-0.9-0.6-1.4c-0.1-0.2-0.2-0.4-0.3-0.6H66
		c-0.1,0.3-0.3,0.6-0.4,0.9C65.4,77.1,65.2,77.4,65.1,77.7z M52.8,63.7c-0.2-0.2-0.3-0.3-0.5-0.5c-0.6-0.5-1.3-1.1-1.9-1.5
		c0,0-0.1,0-0.1-0.1h4.2c0,0.8,0,1.6,0,2.4c0,0.4,0,0.9,0,1.3c-0.1-0.1-0.2-0.2-0.3-0.3C53.7,64.5,53.2,64.1,52.8,63.7z M59.3,71.1
		L59.3,71.1c-0.1-2.4-0.1-4.7-0.1-7.1c0-0.8,0-1.6,0-2.4h9.5c0,0.8,0,1.6,0,2.4c0,2.4,0,4.8-0.1,7.1H59.3z M61,33H67
		c0.4,2.8,0.7,6,1,9.5h-8C60.3,39.1,60.6,35.9,61,33z M59.7,47.3h8.6c0.2,3.3,0.3,6.5,0.4,9.5h-9.4C59.4,53.8,59.5,50.6,59.7,47.3z
		 M66.3,28.3h-4.6c0.9-5.1,1.8-7.5,2.3-8.7C64.6,20.8,65.4,23.2,66.3,28.3z M73.5,56.9C73.5,56.8,73.5,56.8,73.5,56.9
		c0-1.4-0.1-2.8-0.1-4.2c0-0.3,0-0.6,0-0.8c-0.1-1.4-0.1-2.8-0.2-4.2c0-0.1,0-0.1,0-0.2h7.8c0.6,3.1,1.1,6.3,1.5,9.5H73.5z
		 M72.8,42.6l0-0.2c-0.1-0.8-0.1-1.5-0.2-2.3c0-0.1,0-0.3,0-0.4c-0.1-1.5-0.3-2.9-0.4-4.2c0-0.2,0-0.3-0.1-0.5
		c-0.1-0.6-0.1-1.1-0.2-1.7c0-0.1,0-0.2,0-0.2h4.9c1.2,2.9,2.2,6,3.1,9.5H72.8z M71.1,28.3l-0.1-0.4c-0.4-2.4-0.9-4.5-1.3-6.2
		c1.6,1.6,3.2,3.8,4.7,6.6H71.1z M58,22.5c-0.4,1.6-0.8,3.4-1.1,5.4l-0.1,0.4h-3.3c1.5-2.8,3.1-5,4.7-6.6
		C58.2,21.9,58.1,22.2,58,22.5z M51.3,33h4.9c0,0.1,0,0.1,0,0.2c-0.1,0.5-0.1,1.1-0.2,1.7c0,0.2,0,0.4-0.1,0.6
		c-0.1,0.6-0.1,1.3-0.2,1.9c0,0.1,0,0.1,0,0.2c-0.1,0.6-0.1,1.3-0.2,1.9c0,0.2,0,0.4-0.1,0.6c-0.1,0.7-0.1,1.4-0.2,2.2l0,0.1h-7
		C49.1,39.1,50.1,35.9,51.3,33z M47.1,47.3h7.8c0,0.1,0,0.1,0,0.2c-0.1,1.4-0.1,2.8-0.2,4.2c0,0.3,0,0.6,0,0.9
		c-0.1,1.4-0.1,2.8-0.1,4.1c0,0,0,0.1,0,0.1h-8.9C46,53.6,46.5,50.4,47.1,47.3z M33.2,66.5c0.8-0.3,1.6-0.5,2.4-0.8
		c0.2-0.1,0.4-0.1,0.6-0.2c0.7-0.2,1.5-0.4,2.1-0.6c0.1,0,0.1,0,0.2,0c0.7-0.2,1.4-0.3,2.1-0.5c0.2,0,0.3-0.1,0.5-0.1
		c0.7-0.1,1.3-0.2,2-0.3c0.5-0.1,0.9-0.1,1.4-0.1c0.1,0,0.3,0,0.4,0c0.2,0,0.3,0,0.5,0c3.8,2.4,7.1,5.6,9.8,9.5
		c0.3,0.4,0.6,0.8,0.9,1.4c3.7,5.8,5.7,12.6,5.7,19.7v5.2c-2.4,0-4.6,0-6.7-0.4c-1.2-0.2-2.2-0.5-3.1-0.8c-8.2-3-9.6-8.7-11.4-16
		C39.1,77.3,37.6,71.5,33.2,66.5C33.1,66.5,33.2,66.5,33.2,66.5z M73.1,99.3c-2.2,0.4-4.4,0.4-6.7,0.4v-5.2c0-7.1,2-13.9,5.7-19.8
		c0.2-0.4,0.5-0.8,0.9-1.3c2.6-3.8,6-7,9.7-9.4c0.2,0,0.3,0,0.5,0c0.1,0,0.2,0,0.4,0c0.4,0,0.9,0.1,1.4,0.1c0.6,0.1,1.3,0.2,2,0.3
		c0.2,0,0.3,0.1,0.5,0.1c0.7,0.1,1.4,0.3,2.1,0.4c0.1,0,0.1,0,0.2,0c0.7,0.2,1.4,0.4,2.1,0.6c0.2,0.1,0.4,0.1,0.5,0.2
		c0.8,0.2,1.6,0.5,2.4,0.8c0,0,0,0,0.1,0c-4.5,5-5.9,10.8-7.2,16c-1.8,7.3-3.2,13-11.4,16C75.3,98.9,74.3,99.1,73.1,99.3z
		 M100.2,63.3c-4.2-1.6-8.1-2.8-11.5-3.5c3.7-2.1,9-4.2,13.1-2.3c2.9,1.3,5.1,4.4,6.4,9.2C106.1,65.8,103.3,64.5,100.2,63.3z"/></svg>