<svg xmlns="http://www.w3.org/2000/svg" enable-background="new 0 0 128 128" viewBox="0 0 128 128"><path fill="#00bf4c" d="M64,18.8c-24.9,0-45.2,20.3-45.2,45.2s20.3,45.2,45.2,45.2s45.2-20.3,45.2-45.2S88.9,18.8,64,18.8z M34.3,75.1
		c-1.4-0.6-2.4-1.8-2.7-3.2c0,0,0,0,0,0c-0.6-2.5-0.9-5.2-0.9-7.9c0-2.7,0.3-5.3,0.9-7.9c0.4-1.5,1.4-2.6,2.7-3.2
		c1.4-0.6,2.9-0.5,4.2,0.2l12.6,6.7c1.6,0.8,2.5,2.4,2.5,4.2c0,0.4-0.1,0.9-0.2,1.3c0,0,0,0.1-0.1,0.1c-0.1,0.4-0.3,0.7-0.5,1.1
		c0,0,0,0,0,0.1c-0.2,0.3-0.5,0.7-0.8,0.9c-0.1,0.1-0.1,0.1-0.2,0.1c-0.3,0.2-0.5,0.4-0.9,0.6l-12.6,6.7c-0.7,0.4-1.5,0.6-2.2,0.6
		C35.6,75.5,34.9,75.3,34.3,75.1z M61.6,91.7c0,1.5-0.7,2.9-1.9,3.8c-0.8,0.6-1.8,1-2.9,1c-0.4,0-0.8-0.1-1.2-0.2
		c-6.2-1.6-11.8-5-16.2-9.8c-1-1.1-1.4-2.5-1.2-4c0.3-1.5,1.2-2.7,2.5-3.4l13.9-7.4c1.5-0.8,3.3-0.7,4.7,0.1
		c1.4,0.9,2.3,2.4,2.3,4.1V91.7z M61.6,52.1c0,1.7-0.9,3.2-2.3,4.1c-0.8,0.5-1.6,0.7-2.5,0.7c-0.8,0-1.5-0.2-2.2-0.5l-13.9-7.4
		c-1.3-0.7-2.2-2-2.5-3.4c-0.2-1.5,0.2-2.9,1.2-4c4.4-4.8,10-8.2,16.2-9.8c1.4-0.4,2.9-0.1,4.1,0.8c1.2,0.9,1.9,2.3,1.9,3.8V52.1z
		 M66.4,36.3c0-1.5,0.7-2.9,1.9-3.8c1.2-0.9,2.7-1.2,4.1-0.8c6.2,1.6,11.8,5,16.2,9.8c1,1.1,1.4,2.5,1.2,4c-0.3,1.5-1.2,2.7-2.5,3.4
		l-13.9,7.4c-0.7,0.4-1.5,0.6-2.2,0.6c-0.9,0-1.7-0.2-2.5-0.7c-1.4-0.9-2.3-2.4-2.3-4.1V36.3z M88.6,86.5c-4.4,4.8-10,8.2-16.2,9.8
		c-0.4,0.1-0.8,0.2-1.2,0.2c-1,0-2-0.3-2.9-1c-1.2-0.9-1.9-2.3-1.9-3.8V75.9c0-1.7,0.9-3.2,2.3-4.1c1.4-0.9,3.2-0.9,4.7-0.1
		l13.9,7.4c1.3,0.7,2.2,2,2.5,3.4C90,84,89.6,85.4,88.6,86.5z M96.4,71.9c-0.4,1.4-1.4,2.6-2.7,3.2c-0.6,0.3-1.3,0.4-1.9,0.4
		c-0.8,0-1.5-0.2-2.3-0.6l-12.6-6.7c-1.6-0.8-2.5-2.4-2.5-4.2c0-1.8,1-3.4,2.5-4.2l12.6-6.7c1.3-0.7,2.8-0.8,4.2-0.2
		c1.4,0.6,2.4,1.8,2.7,3.2c0.6,2.5,0.9,5.2,0.9,7.9C97.3,66.7,97,69.3,96.4,71.9C96.4,71.9,96.4,71.9,96.4,71.9z"/><path fill="#0a3960" d="M64,14c-27.6,0-50,22.4-50,50s22.4,50,50,50s50-22.4,50-50S91.6,14,64,14z M64,109.2
		c-24.9,0-45.2-20.3-45.2-45.2S39.1,18.8,64,18.8s45.2,20.3,45.2,45.2S88.9,109.2,64,109.2z"/><path fill="#80dfa5" d="M48.9,64L48.9,64l-12.6-6.7c-0.5,2.1-0.8,4.4-0.8,6.7s0.3,4.6,0.8,6.7L48.9,64C48.8,64,48.8,64,48.9,64z"/><path fill="#0a3960" d="M51.1,68.2c0.3-0.2,0.6-0.4,0.9-0.6c0.1-0.1,0.1-0.1,0.2-0.1c0.3-0.3,0.5-0.6,0.8-0.9c0,0,0,0,0-0.1
		c0.2-0.3,0.3-0.7,0.5-1.1c0,0,0-0.1,0.1-0.1c0.1-0.4,0.2-0.8,0.2-1.3c0-1.8-1-3.4-2.5-4.2l-12.6-6.7c-1.3-0.7-2.8-0.8-4.2-0.2
		c-1.4,0.6-2.4,1.8-2.7,3.2c-0.6,2.5-0.9,5.2-0.9,7.9c0,2.7,0.3,5.3,0.9,7.9c0,0,0,0,0,0c0.4,1.4,1.4,2.6,2.7,3.2
		c0.6,0.3,1.3,0.4,1.9,0.4c0.8,0,1.5-0.2,2.2-0.6L51.1,68.2z M35.4,64c0-2.3,0.3-4.6,0.8-6.7L48.9,64l0,0c0,0,0,0,0,0l-12.6,6.7
		C35.7,68.6,35.4,66.3,35.4,64z"/><path fill="#80dfa5" d="M79.2,64l12.6,6.7c0.5-2.1,0.8-4.4,0.8-6.7s-0.3-4.6-0.8-6.7L79.2,64z"/><path fill="#0a3960" d="M96.4,56.1c-0.4-1.4-1.4-2.6-2.7-3.2c-1.4-0.6-2.9-0.5-4.2,0.2l-12.6,6.7c-1.6,0.8-2.5,2.4-2.5,4.2
		c0,1.8,1,3.4,2.5,4.2l12.6,6.7c0.7,0.4,1.5,0.6,2.3,0.6c0.6,0,1.3-0.1,1.9-0.4c1.4-0.6,2.4-1.8,2.7-3.2c0,0,0,0,0,0
		c0.6-2.5,0.9-5.2,0.9-7.9C97.3,61.3,97,58.7,96.4,56.1z M91.8,70.7L79.2,64l12.6-6.7c0.5,2.1,0.8,4.4,0.8,6.7S92.3,68.6,91.8,70.7z
		"/><path fill="#80dfa5" d="M85,83.3l-13.9-7.4l0,15.8C76.5,90.3,81.3,87.4,85,83.3z"/><polygon fill="#80dfa5" points="85.1 83.3 85.1 83.3 86.8 84.9"/><path fill="#0a3960" d="M87.3,79.1l-13.9-7.4c-1.5-0.8-3.3-0.7-4.7,0.1c-1.4,0.9-2.3,2.4-2.3,4.1v15.8c0,1.5,0.7,2.9,1.9,3.8
		c0.8,0.6,1.9,1,2.9,1c0.4,0,0.8-0.1,1.2-0.2c6.3-1.6,11.9-5,16.2-9.8c1-1.1,1.4-2.5,1.2-4C89.5,81,88.6,79.8,87.3,79.1z M71.1,75.9
		L85,83.3c-3.7,4.1-8.5,7-13.9,8.3L71.1,75.9z M85.1,83.3l1.8,1.6L85.1,83.3C85.1,83.3,85.1,83.3,85.1,83.3z"/><path fill="#80dfa5" d="M71.1,52.1L85,44.7c0,0,0,0,0,0c-3.7-4.1-8.5-7-13.9-8.3V52.1z"/><path fill="#0a3960" d="M68.7,56.2c0.8,0.5,1.6,0.7,2.5,0.7c0.8,0,1.5-0.2,2.2-0.6l13.9-7.4c1.3-0.7,2.2-2,2.5-3.4
		c0.2-1.5-0.2-2.9-1.2-4c-4.4-4.8-10-8.2-16.2-9.8c-1.4-0.4-2.9-0.1-4.1,0.8c-1.2,0.9-1.9,2.3-1.9,3.8v15.8
		C66.4,53.8,67.2,55.3,68.7,56.2z M85,44.7C85,44.7,85,44.7,85,44.7l-13.9,7.4V36.3C76.5,37.7,81.3,40.6,85,44.7z"/><path fill="#80dfa5" d="M56.9,36.3c-4.7,1.2-9,3.6-12.5,6.9c-0.5,0.5-1,1-1.5,1.5l13.9,7.4L56.9,36.3z"/><path fill="#0a3960" d="M59.7,32.5c-1.2-0.9-2.7-1.2-4.1-0.8c-6.3,1.6-11.9,5-16.2,9.8c-1,1.1-1.4,2.5-1.2,4c0.3,1.5,1.2,2.7,2.5,3.4
		l13.9,7.4c0.7,0.4,1.5,0.5,2.2,0.5c0.9,0,1.7-0.2,2.5-0.7c1.4-0.9,2.3-2.4,2.3-4.1V36.3C61.6,34.8,60.9,33.5,59.7,32.5z M44.4,43.2
		c3.5-3.3,7.8-5.7,12.5-6.9l0,15.8l-13.9-7.4C43.4,44.2,43.9,43.7,44.4,43.2z"/><path fill="#80dfa5" d="M56.9,75.9C56.9,75.9,56.9,75.9,56.9,75.9L43,83.3c3.7,4.1,8.5,7,13.9,8.4V75.9z"/><path fill="#0a3960" d="M59.3,71.8c-1.4-0.9-3.2-0.9-4.7-0.1l-13.9,7.4c-1.3,0.7-2.2,2-2.5,3.4c-0.2,1.5,0.2,2.9,1.2,4
		c4.4,4.8,10,8.2,16.2,9.8c0.4,0.1,0.8,0.2,1.2,0.2c1,0,2-0.3,2.9-1c1.2-0.9,1.9-2.3,1.9-3.8V75.9C61.6,74.2,60.8,72.7,59.3,71.8z
		 M43,83.3l13.9-7.4c0,0,0,0,0,0v15.8C51.5,90.3,46.7,87.4,43,83.3z"/></svg>