<svg xmlns="http://www.w3.org/2000/svg" enable-background="new 0 0 128 128" viewBox="0 0 128 128"><path fill="#00bf4c" d="M97.5,30.9c-1-0.7-2.1-1.2-3.2-1.7c-1.8-0.7-3.7-1-5.5-1c-6.4,0-12.3,3.9-14.7,10.2
		c-10.5,28-39.2,40-40.5,40.5C25.6,82,21.5,91,24.5,99.1c3,7.8,11.9,12.2,20.2,9.2c4.4-1.7,43.4-17.8,58.8-58.8v0
		C106,42.6,103.6,35,97.5,30.9z"/><path fill="#0a3960" d="M102.3,28.7c2-2.7,3.9-7.3,2-13c-0.4-1.2-1.8-1.9-3-1.5c-1.2,0.4-1.9,1.8-1.5,3c1.4,4.2-0.2,7.2-1.4,8.8
		c-0.8-0.4-1.6-0.8-2.4-1.1c-10.5-3.9-22.3,1.4-26.3,12C59.9,62.9,33,74,31.9,74.5c-10.5,4-15.8,15.8-11.9,26.3
		c3,7.9,10.7,13.3,19.1,13.3c2.4,0,4.8-0.4,7.2-1.3c4.6-1.8,45.4-18.6,61.5-61.6v0C110.9,43.1,108.6,34.2,102.3,28.7z M103.5,49.5
		L103.5,49.5c-15.4,41-54.4,57.1-58.8,58.8c-8.2,3-17.2-1.4-20.2-9.2c-3-8.1,1.1-17.1,9.1-20.2c1.2-0.5,30-12.4,40.5-40.5
		c2.4-6.3,8.3-10.2,14.7-10.2c1.8,0,3.7,0.3,5.5,1c1.1,0.4,2.2,1,3.2,1.7C103.6,35,106,42.6,103.5,49.5z"/></svg>