<svg xmlns="http://www.w3.org/2000/svg" id="Outlined_1_" enable-background="new 0 0 128 128" viewBox="0 0 128 128"><path fill="#eeb453" d="M108.9,60c-0.2-0.8-0.7-1.4-1.2-1.9c-1.3-1.1-3.6-1.5-5.7-1c-0.1,0.4-0.2,0.8-0.2,1.2
		c-0.1,0.3-0.1,0.6-0.2,0.9c-0.2,1-0.4,2-0.7,3.1c-0.5,2.6-1.2,5.3-1.9,8c-0.2,0.9-0.5,1.9-0.8,2.9c0.9-0.4,1.9-0.9,3-1.3
		c2.5-1.1,5-2.4,6.6-4.9v0C109.2,64.7,109.6,62.1,108.9,60z"/><path fill="#0a3960" d="M113.5,58.6c-0.5-1.6-1.4-3-2.6-4.1c-2-1.8-5-2.6-8-2.4c0-0.2,0.1-0.3,0.1-0.5c0.4-2,0.7-3.9,1-5.9
		c0.2-1.4,0.3-2.8,0.4-4.2c0-0.4,0-0.7,0-1.1c0-0.1,0-0.2,0-0.3c0.2-5.4-0.2-13-5.4-18.1c-4.1-4-10.2-6.1-16.1-5.6
		c-5.5,0.5-10.3,3.1-13.2,7.3c-1.5,2.1-2.6,4.5-3.6,7.5c0,0,0,0,0,0c0,0,0,0,0,0c0,0,0,0,0,0c0,0,0,0,0,0c-0.3,0.9-0.6,1.8-0.8,2.7
		c-0.3,1.1-0.5,2.3-0.7,3.4c-0.3,1.5-0.6,2.8-1,4.2c-0.1,0.3-0.1,0.5-0.2,0.8c0,0-0.1,0.1-0.1,0.1c-0.7,2.1-1.5,3.4-2.5,4.1
		c-1.5,1-3.7,0.9-4.9-0.1c-1.4-1.1-2.8-3.1-3.8-5.3c-0.2-0.5-0.5-1.1-0.6-1.6c-1.2-3.2-1.8-6.5-1.8-9.8c0-0.6,0-1.1,0-1.6
		c0.1-0.3,0-0.6,0-0.9c-0.1-3.4-0.4-9.3-5.3-12.1C40,12.7,34,14.3,31.5,18.6c-1.6,2.8-2.1,6.3-1.6,10.8c0.1,0.5,0.2,1,0.2,1.6
		c0.3,1.7,0.5,3.3,0.2,4.6c-0.2,0.7-0.7,1.6-3.1,1.9c0,0,0,0,0,0c0,0,0,0,0,0c-0.9,0.2-2,0.2-3,0.3c-0.7,0-1.3,0.1-1.9,0.1
		c-1.9,0.2-3.6,0.8-4.9,1.6c-1.5,0.9-2.6,2.3-3,3.8c-0.6,1.8-0.3,3.8,0.7,5.5c2.1,3.8,6.4,5,9,5.8c0,0,0,0,0.1,0c0,0,0,0,0.1,0
		l0.6,0.2c2.6,0.8,5,1.8,7.2,3.1c2.3,1.4,4.5,3.1,6.4,5.2c1.2,1.2,2,3.1,2.7,4.9c1.4,3.2,2.5,6.8,3.5,11.5c0,0,0,0,0,0c0,0,0,0,0,0
		l0.1,0.5c0.5,2.3,0.9,4.7,1.4,7.6l0.4,2.6c0.1,0.8,0.2,1.6,0.3,2.4c0.9,7.4,2,16.6,10.8,20.2c0.8,0.3,1.7,0.6,2.7,0.8
		c1.1,0.2,2.3,0.4,3.6,0.4c3.2,0,6.6-0.8,9.9-2.3c1.6-0.7,3.1-1.6,4.5-2.6c1.6-1.1,3.1-2.5,4.5-4c1.5-1.7,3-3.6,4.4-5.6
		c1.5-2.3,3-4.9,4.2-7.5c1.2-2.4,2.2-5,3.2-7.6c0,0,0,0,0,0c0,0,0,0,0,0l0.7-2c0.3-0.9,0.6-1.8,0.9-2.6c1.9-1.2,4.2-2.3,6.8-3.4
		c3.1-1.3,6.6-3.1,8.8-6.8C113.9,66,114.5,62.1,113.5,58.6z M107.8,66.9c-1.5,2.5-4.1,3.9-6.6,4.9c-1,0.4-2,0.9-3,1.3
		c0.3-1,0.5-1.9,0.8-2.9c0.7-2.6,1.3-5.3,1.9-8c0.2-1,0.5-2,0.7-3.1c0.1-0.3,0.1-0.6,0.2-0.9c0.1-0.4,0.2-0.8,0.2-1.2
		c2.1-0.5,4.4-0.1,5.7,1c0.6,0.5,1,1.2,1.2,1.9C109.6,62.1,109.2,64.7,107.8,66.9L107.8,66.9z M75.5,105.2c-1.2,0.9-2.4,1.6-3.7,2.1
		c-3.7,1.7-7.4,2.2-10.5,1.6c-0.8-0.2-1.4-0.3-1.9-0.6c-6.2-2.5-7-9.5-7.8-16.3c-0.1-0.8-0.2-1.7-0.3-2.5l-0.1-0.4
		c8-1.5,25.9-4.3,37.9-3.6c-0.6,1.5-1.3,2.9-1.9,4.3c-1.2,2.4-2.5,4.8-3.9,6.9c-1.2,1.8-2.6,3.5-3.9,5
		C78.1,103.1,76.8,104.3,75.5,105.2z M35.8,54.7C35.9,54.7,35.9,54.7,35.8,54.7C35.9,54.7,35.9,54.7,35.8,54.7
		c0.1-0.3,0.1-0.6,0.2-0.8c0-0.1,0.1-0.2,0.1-0.3c0.1-0.2,0.1-0.4,0.2-0.6c0-0.1,0.1-0.2,0.1-0.3c0.1-0.2,0.2-0.4,0.2-0.6
		c0-0.1,0.1-0.2,0.1-0.3c0.1-0.2,0.2-0.5,0.4-0.7c0-0.1,0.1-0.2,0.1-0.2c0.2-0.3,0.4-0.6,0.5-0.9c0.1-0.1,0.1-0.2,0.2-0.3
		c0.2-0.2,0.3-0.5,0.5-0.7c0.1-0.1,0.2-0.2,0.3-0.3c0.2-0.2,0.3-0.4,0.5-0.6c0.1-0.1,0.2-0.2,0.3-0.3c0.2-0.2,0.4-0.4,0.6-0.6
		c0.1-0.1,0.2-0.2,0.3-0.3c0.3-0.3,0.7-0.6,1-0.8c0,0,0.1,0,0.1-0.1c0.3-0.2,0.7-0.5,1.1-0.7c0.1-0.1,0.3-0.2,0.4-0.2
		c0.3-0.2,0.6-0.3,0.9-0.5c0.2-0.1,0.3-0.2,0.5-0.2c0.3-0.1,0.6-0.3,1-0.4c0.2-0.1,0.4-0.1,0.6-0.2c0.4-0.1,0.8-0.2,1.2-0.3
		c0.1,0,0.3-0.1,0.4-0.1c0,0,0.1,0,0.1,0c0,0,0,0,0,0c0.6,1.4,2.3,4.8,5.1,7.1c2.7,2.2,7.2,2.5,10.4,0.5c2.1-1.4,3.3-3.5,4-5.3
		c0,0,0,0,0.1,0c0.3-0.1,0.7-0.1,1-0.1c0,0,0,0,0.1,0c0.4,0,0.7-0.1,1.1-0.1c0,0,0,0,0.1,0c0.4,0,0.8-0.1,1.2-0.1c0.1,0,0.1,0,0.2,0
		c0.4,0,0.8,0,1.3,0c0.1,0,0.1,0,0.2,0c0.4,0,0.9,0,1.4,0c0.1,0,0.1,0,0.2,0c0.5,0,1,0.1,1.5,0.1c0,0,0,0,0.1,0
		c0.5,0,1.1,0.1,1.6,0.2c0,0,0.1,0,0.1,0c0.6,0.1,1.1,0.2,1.7,0.3c0.1,0,0.2,0,0.2,0c0.6,0.1,1.2,0.2,1.7,0.3c0.1,0,0.2,0,0.3,0.1
		c0.6,0.1,1.2,0.3,1.8,0.5c0.1,0,0.2,0,0.3,0.1c0.7,0.2,1.3,0.4,2,0.6c0,0,0.1,0,0.1,0c0.7,0.2,1.4,0.5,2.1,0.7c0.1,0,0.1,0,0.2,0.1
		c0.7,0.3,1.4,0.5,2.1,0.8c0.1,0,0.2,0.1,0.3,0.1c0.7,0.3,1.4,0.6,2.2,0.9c0.1,0.1,0.3,0.1,0.4,0.2c0.7,0.3,1.5,0.7,2.3,1.1
		c0.1,0.1,0.2,0.1,0.3,0.2c0.8,0.4,1.6,0.8,2.5,1.3c0,0,0,0,0,0c-0.1,0.3-0.1,0.6-0.2,0.9l-0.2,1.2c0,0,0,0.1,0,0.1c0,0,0,0,0,0.1
		c-0.3,1.6-0.6,3.1-0.9,4.7c-0.1,0-0.1,0-0.2,0c-1.2,0.1-2.4,0.3-3.5,0.5c-0.2,0-0.4,0.1-0.6,0.1c-1.2,0.2-2.3,0.4-3.4,0.6
		c-0.2,0-0.3,0.1-0.5,0.1c-1.2,0.2-2.3,0.4-3.4,0.7c0,0,0,0-0.1,0c-1.1,0.2-2.2,0.5-3.3,0.8c-0.2,0-0.3,0.1-0.5,0.1
		c-1,0.3-2.1,0.5-3.1,0.8c-0.2,0.1-0.4,0.1-0.6,0.2c-1,0.3-2,0.6-3,0.9c-0.2,0-0.3,0.1-0.4,0.1c-1,0.3-1.9,0.6-2.9,0.9
		c-0.1,0-0.1,0-0.2,0.1c-1,0.3-1.9,0.7-2.8,1c-0.2,0.1-0.3,0.1-0.5,0.2c-0.9,0.3-1.7,0.7-2.6,1c-0.2,0.1-0.4,0.1-0.5,0.2
		c-0.8,0.3-1.7,0.7-2.5,1c-0.1,0.1-0.3,0.1-0.4,0.2c-0.8,0.3-1.5,0.7-2.3,1c-0.1,0-0.1,0.1-0.2,0.1c-0.8,0.3-1.5,0.7-2.2,1
		c-0.1,0.1-0.3,0.1-0.4,0.2c-0.7,0.3-1.4,0.6-2,1c-0.1,0.1-0.3,0.1-0.4,0.2c-0.6,0.3-1.3,0.6-1.9,0.9c-0.1,0-0.2,0.1-0.2,0.1
		c-0.6,0.3-1.2,0.6-1.7,0.9c0,0-0.1,0.1-0.2,0.1c-0.6,0.3-1.1,0.6-1.6,0.9c0,0-0.1,0.1-0.1,0.1c-0.9-3.6-1.9-6.6-3-9.2
		c-0.9-2.2-1.9-4.4-3.6-6.3C40,57.9,38,56.2,35.8,54.7z M18.8,44.8c0.1-0.4,0.5-0.9,1.1-1.2c0.6-0.4,1.3-0.6,2.1-0.8
		c-0.6,1.6-1,3.5-0.8,5.7c-0.9-0.5-1.7-1.2-2.1-2C18.8,45.9,18.7,45.3,18.8,44.8z M35.6,21.1c1.2-2,4.4-2.9,6.4-1.8
		c1.7,1,2.4,2.8,2.7,5.4c-4.5-0.6-7.9,0.7-10.2,2.2C34.3,24.5,34.7,22.5,35.6,21.1z M31.6,52.3c-1.6-0.8-3.3-1.4-5.1-1.9
		c0,0,0-0.1,0-0.1c0-0.1-0.1-0.2-0.1-0.3c-0.1-0.3-0.1-0.5-0.2-0.8c0-0.1,0-0.2-0.1-0.4c0-0.2-0.1-0.4-0.1-0.6c0-0.1,0-0.2,0-0.3
		c0-0.2,0-0.4,0-0.6c0-0.1,0-0.2,0-0.3c0-0.2,0-0.4,0-0.6c0-0.1,0-0.1,0-0.2c0-0.2,0.1-0.5,0.1-0.7c0,0,0-0.1,0-0.1
		c0-0.2,0.1-0.3,0.1-0.5c0-0.1,0.1-0.1,0.1-0.2c0-0.1,0.1-0.2,0.1-0.4c0-0.1,0.1-0.1,0.1-0.2c0.1-0.1,0.1-0.2,0.2-0.3
		c0-0.1,0.1-0.1,0.1-0.2c0.1-0.1,0.1-0.2,0.2-0.3c0,0,0.1-0.1,0.1-0.1c0.1-0.1,0.2-0.2,0.3-0.3c0,0,0,0,0,0c0.1-0.1,0.2-0.2,0.3-0.3
		c0,0,0,0,0.1,0c0.1-0.1,0.1-0.1,0.2-0.2c0,0,0,0,0.1,0c0.1,0,0.1-0.1,0.2-0.1c0,0,0,0,0,0c0,0,0,0,0.1,0c3.4-0.7,5.6-2.4,6.5-5.2
		c0.5-1.6,0.5-3.1,0.3-4.6c1.2-1.2,4.5-3.7,9.7-2.8c0,0.1,0,0.1,0,0.2c0,3,0.4,5.9,1.2,8.8C36.7,40.9,33,47.8,31.6,52.3z M72.2,28.8
		c0.4-0.8,0.9-1.6,1.4-2.3c2.2-3,5.6-4.9,9.8-5.3c4.6-0.4,9.2,1.2,12.4,4.2c2.2,2.1,3.4,5.1,3.9,9.3c-6.7-5-14.3-6.5-20.6-6.5
		C76.5,28.3,74.2,28.5,72.2,28.8z M92.2,77c0,0.1-0.1,0.2-0.1,0.3c-0.3,1.1-0.7,2.2-1.1,3.3l-0.1,0.2c-0.1,0-0.3,0-0.4,0
		c-0.2,0-0.4,0-0.6,0c-0.2,0-0.4,0-0.7,0c-0.2,0-0.4,0-0.7,0c-0.2,0-0.4,0-0.7,0c-0.5,0-1,0-1.5,0c-0.2,0-0.3,0-0.5,0
		c-0.3,0-0.6,0-0.9,0c-0.2,0-0.4,0-0.5,0c-0.3,0-0.6,0-0.9,0c-0.2,0-0.4,0-0.5,0c-0.3,0-0.6,0-0.9,0c-0.2,0-0.3,0-0.5,0
		c-0.3,0-0.7,0-1,0c-0.1,0-0.3,0-0.4,0c-0.4,0-0.7,0-1.1,0.1c0,0-0.1,0-0.1,0c-1.4,0.1-2.7,0.2-4.1,0.3c0,0,0,0,0,0
		c-0.4,0-0.8,0.1-1.3,0.1c-0.1,0-0.2,0-0.2,0c-0.4,0-0.8,0.1-1.2,0.1c-0.1,0-0.2,0-0.2,0c-0.4,0-0.8,0.1-1.3,0.1c0,0-0.1,0-0.1,0
		c-6.1,0.6-11.9,1.5-16.3,2.3c0,0-0.1,0-0.1,0c-0.3,0.1-0.6,0.1-0.9,0.2c0,0-0.1,0-0.1,0c-0.3,0-0.6,0.1-0.8,0.1c0,0-0.1,0-0.1,0
		c-0.6,0.1-1.1,0.2-1.6,0.3c-0.3-1.5-0.5-2.9-0.8-4.3c6.9-3.9,24.7-13,46-15.7c-0.4,1.5-0.7,3.1-1.1,4.6C93.8,71.6,93,74.3,92.2,77z
		 M68.8,40.4c0.1-0.7,0.3-1.4,0.4-2c0.2-1.1,0.4-2.1,0.7-3.2c0.1-0.4,0.2-0.8,0.3-1.1c0.4-0.1,0.9-0.2,1.3-0.3c0,0,0,0,0,0
		c0.2,0,0.5-0.1,0.7-0.1c0.1,0,0.1,0,0.2,0c0.2,0,0.4-0.1,0.6-0.1c0.1,0,0.2,0,0.3,0c0.2,0,0.3,0,0.5-0.1c0.1,0,0.2,0,0.3,0
		c0.2,0,0.3,0,0.5-0.1c0.1,0,0.3,0,0.4,0c0.2,0,0.3,0,0.5,0c0.1,0,0.3,0,0.4,0c0.2,0,0.3,0,0.5,0c0.1,0,0.3,0,0.4,0
		c0.2,0,0.3,0,0.5,0c0.1,0,0.3,0,0.4,0c0.2,0,0.3,0,0.5,0c0.2,0,0.3,0,0.5,0c0.2,0,0.4,0,0.5,0c0.1,0,0.3,0,0.4,0c0.2,0,0.5,0,0.7,0
		c0.2,0,0.5,0,0.7,0c0.2,0,0.4,0,0.6,0c0.2,0,0.3,0,0.5,0c0.2,0,0.3,0,0.5,0c0.2,0,0.4,0,0.5,0.1c0.2,0,0.3,0,0.5,0.1
		c0.2,0,0.4,0.1,0.5,0.1c0.2,0,0.3,0.1,0.5,0.1c0.2,0,0.4,0.1,0.6,0.1c0.2,0,0.3,0.1,0.5,0.1c0.2,0,0.4,0.1,0.6,0.1
		c0.2,0,0.3,0.1,0.5,0.1c0.2,0,0.4,0.1,0.6,0.1c0.2,0,0.3,0.1,0.5,0.1c0.2,0.1,0.4,0.1,0.6,0.2c0.2,0.1,0.3,0.1,0.5,0.2
		c0.2,0.1,0.4,0.1,0.6,0.2c0.2,0.1,0.3,0.1,0.5,0.2c0.2,0.1,0.4,0.1,0.6,0.2c0.2,0.1,0.3,0.1,0.5,0.2c0.4,0.2,0.7,0.3,1.1,0.5
		c0.2,0.1,0.4,0.2,0.5,0.3c0.2,0.1,0.4,0.2,0.5,0.3c0.2,0.1,0.3,0.2,0.5,0.3c0.2,0.1,0.4,0.2,0.5,0.3c0.2,0.1,0.4,0.2,0.5,0.3
		c0.2,0.1,0.3,0.2,0.5,0.3c0.2,0.1,0.4,0.2,0.5,0.4c0.2,0.1,0.3,0.2,0.5,0.4c0.2,0.1,0.4,0.3,0.5,0.4c0.2,0.1,0.3,0.3,0.5,0.4
		c0.2,0.1,0.4,0.3,0.5,0.4c0.2,0.1,0.3,0.3,0.5,0.4c0.2,0.2,0.4,0.3,0.5,0.5c0.1,0.1,0.3,0.3,0.4,0.4c0.1,0.1,0.1,0.1,0.2,0.2
		c0,0.1,0,0.1,0,0.1c-0.1,1.3-0.2,2.6-0.4,3.8c-0.1,0.8-0.2,1.7-0.4,2.5c-11.2-5.8-20.2-7.4-26.6-7.4C71,40.2,69.8,40.3,68.8,40.4z"/><path fill="#eeb453" d="M48.5 75.3c0 0 .1-.1.1-.1.5-.3 1-.6 1.6-.9 0 0 .1-.1.2-.1.5-.3 1.1-.6 1.7-.9.1 0 .2-.1.2-.1.6-.3 1.2-.6 1.9-.9.1-.1.3-.1.4-.2.6-.3 1.3-.6 2-1 .1-.1.3-.1.4-.2.7-.3 1.5-.7 2.2-1 .1 0 .1-.1.2-.1.7-.3 1.5-.7 2.3-1 .1-.1.2-.1.4-.2.8-.3 1.6-.7 2.5-1 .2-.1.4-.1.5-.2.8-.3 1.7-.7 2.6-1 .2-.1.3-.1.5-.2.9-.3 1.9-.7 2.8-1 .1 0 .1 0 .2-.1.9-.3 1.9-.6 2.9-.9.1 0 .3-.1.4-.1 1-.3 2-.6 3-.9.2-.1.4-.1.6-.2 1-.3 2-.6 3.1-.8.2 0 .3-.1.5-.1 1.1-.3 2.2-.5 3.3-.8 0 0 0 0 .1 0 1.1-.2 2.3-.5 3.4-.7.2 0 .3-.1.5-.1 1.1-.2 2.3-.4 3.4-.6.2 0 .4-.1.6-.1 1.2-.2 2.3-.3 3.5-.5.1 0 .1 0 .2 0 .3-1.6.6-3.1.9-4.7 0 0 0 0 0-.1 0 0 0-.1 0-.1l.2-1.2c.1-.3.1-.6.2-.9 0 0 0 0 0 0-.8-.5-1.6-.9-2.5-1.3-.1-.1-.2-.1-.3-.2-.8-.4-1.5-.7-2.3-1.1-.1-.1-.3-.1-.4-.2-.7-.3-1.5-.6-2.2-.9-.1 0-.2-.1-.3-.1-.7-.3-1.4-.6-2.1-.8-.1 0-.1 0-.2-.1-.7-.3-1.4-.5-2.1-.7 0 0-.1 0-.1 0-.7-.2-1.3-.4-2-.6-.1 0-.2 0-.3-.1-.6-.2-1.2-.3-1.8-.5-.1 0-.2 0-.3-.1-.6-.1-1.2-.2-1.7-.3-.1 0-.2 0-.2 0-.6-.1-1.2-.2-1.7-.3 0 0-.1 0-.1 0-.6-.1-1.1-.1-1.6-.2 0 0 0 0-.1 0-.5 0-1-.1-1.5-.1-.1 0-.1 0-.2 0-.5 0-.9 0-1.4 0-.1 0-.1 0-.2 0-.4 0-.9 0-1.3 0-.1 0-.1 0-.2 0-.4 0-.8 0-1.2.1 0 0 0 0-.1 0-.4 0-.8.1-1.1.1 0 0 0 0-.1 0-.4 0-.7.1-1 .1 0 0 0 0-.1 0-.7 1.8-1.9 3.9-4 5.3-3.2 2.1-7.7 1.8-10.4-.5-2.8-2.2-4.5-5.7-5.1-7.1 0 0 0 0 0 0 0 0-.1 0-.1 0-.1 0-.3.1-.4.1-.4.1-.8.2-1.2.3-.2.1-.4.1-.6.2-.3.1-.6.2-1 .4-.2.1-.4.2-.5.2-.3.1-.6.3-.9.5-.1.1-.3.2-.4.2-.4.2-.7.5-1.1.7 0 0-.1 0-.1.1-.4.3-.7.5-1 .8-.1.1-.2.2-.3.3-.2.2-.4.4-.6.6-.1.1-.2.2-.3.3-.2.2-.3.4-.5.6-.1.1-.2.2-.3.3-.2.2-.3.5-.5.7-.1.1-.1.2-.2.3-.2.3-.4.6-.5.9 0 .1-.1.2-.1.2-.1.2-.2.5-.4.7-.1.1-.1.2-.1.3-.1.2-.2.4-.2.6 0 .1-.1.2-.1.3-.1.2-.1.4-.2.6 0 .1-.1.2-.1.3-.1.3-.2.5-.2.8 0 0 0 0 0 0 0 0 0 0 0 0 2.2 1.4 4.2 3.2 6 5.1 1.7 1.8 2.7 4.1 3.6 6.3C46.7 68.8 47.6 71.8 48.5 75.3zM95.6 64.5c-21.2 2.7-39.1 11.8-46 15.7.3 1.4.5 2.8.8 4.3.5-.1 1.1-.2 1.6-.3 0 0 .1 0 .1 0 .3 0 .6-.1.8-.1 0 0 .1 0 .1 0 .3-.1.6-.1.9-.2 0 0 .1 0 .1 0 4.4-.7 10.2-1.6 16.3-2.3 0 0 .1 0 .1 0 .4 0 .8-.1 1.3-.1.1 0 .2 0 .2 0 .4 0 .8-.1 1.2-.1.1 0 .2 0 .2 0 .4 0 .8-.1 1.3-.1 0 0 0 0 0 0 1.4-.1 2.7-.2 4.1-.3 0 0 .1 0 .1 0 .4 0 .7 0 1.1-.1.1 0 .3 0 .4 0 .3 0 .7 0 1 0 .2 0 .3 0 .5 0 .3 0 .6 0 .9 0 .2 0 .4 0 .5 0 .3 0 .6 0 .9 0 .2 0 .4 0 .5 0 .3 0 .6 0 .9 0 .2 0 .3 0 .5 0 .5 0 1 0 1.5 0 .2 0 .4 0 .7 0 .2 0 .4 0 .7 0 .2 0 .5 0 .7 0 .2 0 .4 0 .6 0 .1 0 .3 0 .4 0l.1-.2c.4-1.1.8-2.2 1.1-3.3 0-.1.1-.2.1-.3.9-2.7 1.6-5.4 2.3-8C94.8 67.6 95.2 66 95.6 64.5zM44.7 24.7c-.3-2.6-1-4.5-2.7-5.4-2-1.1-5.2-.3-6.4 1.8-.9 1.5-1.2 3.4-1.1 5.8C36.8 25.4 40.2 24.1 44.7 24.7zM46.1 38.6c-.8-2.9-1.2-5.9-1.2-8.8 0-.1 0-.1 0-.2-5.2-1-8.5 1.6-9.7 2.8.2 1.5.2 3-.3 4.6-.9 2.8-3 4.5-6.5 5.2 0 0 0 0-.1 0 0 0 0 0 0 0-.1 0-.1.1-.2.1 0 0 0 0-.1 0-.1.1-.1.1-.2.2 0 0 0 0-.1 0-.1.1-.2.2-.3.3 0 0 0 0 0 0-.1.1-.2.2-.3.3 0 0-.1.1-.1.1-.1.1-.1.2-.2.3 0 .1-.1.1-.1.2-.1.1-.1.2-.2.3 0 .1-.1.1-.1.2-.1.1-.1.2-.1.4 0 .1-.1.1-.1.2-.1.2-.1.3-.1.5 0 0 0 .1 0 .1C26.1 45.7 26 46 26 46.2c0 .1 0 .1 0 .2 0 .2 0 .4 0 .6 0 .1 0 .2 0 .3 0 .2 0 .4 0 .6 0 .1 0 .2 0 .3 0 .2.1.4.1.6 0 .1 0 .2.1.4.1.2.1.5.2.8 0 .1.1.2.1.3 0 0 0 .1 0 .1 1.8.5 3.5 1.2 5.1 1.9C33 47.8 36.7 40.9 46.1 38.6zM21.2 48.5c-.2-2.3.1-4.2.8-5.7-.8.2-1.5.4-2.1.8-.5.3-.9.8-1.1 1.2-.2.5 0 1.1.3 1.7C19.6 47.3 20.3 48 21.2 48.5zM87.2 89.9c.7-1.4 1.3-2.8 1.9-4.3-12.1-.7-29.9 2.2-37.9 3.6l.1.4c.1.8.2 1.6.3 2.5.8 6.8 1.7 13.8 7.8 16.3.6.2 1.2.4 1.9.6 3.1.6 6.8.1 10.5-1.6 1.3-.6 2.5-1.3 3.7-2.1 1.3-1 2.6-2.1 3.9-3.4 1.4-1.5 2.7-3.2 3.9-5C84.7 94.6 86 92.3 87.2 89.9zM72.3 40.2c6.4 0 15.4 1.5 26.6 7.4.1-.8.3-1.7.4-2.5.2-1.3.3-2.5.4-3.8 0 0 0-.1 0-.1-.1-.1-.1-.1-.2-.2-.1-.1-.3-.3-.4-.4-.2-.2-.4-.3-.5-.5-.2-.1-.3-.3-.5-.4-.2-.1-.4-.3-.5-.4-.2-.1-.3-.3-.5-.4-.2-.1-.3-.3-.5-.4-.2-.1-.3-.2-.5-.4-.2-.1-.4-.2-.5-.4-.2-.1-.3-.2-.5-.3-.2-.1-.3-.2-.5-.3-.2-.1-.4-.2-.5-.3-.2-.1-.3-.2-.5-.3-.2-.1-.4-.2-.5-.3-.2-.1-.4-.2-.5-.3-.4-.2-.7-.3-1.1-.5-.2-.1-.3-.1-.5-.2-.2-.1-.4-.1-.6-.2-.2-.1-.3-.1-.5-.2-.2-.1-.4-.1-.6-.2-.2-.1-.3-.1-.5-.2-.2-.1-.4-.1-.6-.2-.2 0-.3-.1-.5-.1-.2-.1-.4-.1-.6-.1-.2 0-.3-.1-.5-.1-.2 0-.4-.1-.6-.1-.2 0-.3-.1-.5-.1-.2 0-.4-.1-.6-.1-.2 0-.3-.1-.5-.1-.2 0-.4-.1-.5-.1-.2 0-.3 0-.5-.1-.2 0-.4 0-.5-.1-.2 0-.3 0-.5 0-.2 0-.3 0-.5 0-.2 0-.4 0-.6 0-.2 0-.5 0-.7 0-.2 0-.5 0-.7 0-.1 0-.3 0-.4 0-.2 0-.4 0-.5 0-.2 0-.3 0-.5 0-.2 0-.3 0-.5 0-.2 0-.3 0-.4 0-.2 0-.3 0-.5 0-.1 0-.3 0-.4 0-.2 0-.3 0-.5 0-.1 0-.3 0-.4 0-.2 0-.3 0-.5 0-.1 0-.3 0-.4 0-.2 0-.3 0-.5.1-.1 0-.2 0-.3 0-.2 0-.3 0-.5.1-.1 0-.2 0-.3 0-.2 0-.4.1-.6.1-.1 0-.1 0-.2 0-.2 0-.5.1-.7.1 0 0 0 0 0 0-.5.1-.9.2-1.3.3-.1.4-.2.8-.3 1.1-.3 1.1-.5 2.1-.7 3.2-.1.7-.3 1.3-.4 2C69.8 40.3 71 40.2 72.3 40.2zM79 28.3c6.3 0 13.8 1.4 20.6 6.5-.4-4.2-1.7-7.2-3.9-9.3-3.1-3.1-7.8-4.6-12.4-4.2-4.1.4-7.6 2.2-9.8 5.3-.5.7-1 1.5-1.4 2.3C74.2 28.5 76.5 28.3 79 28.3z"/></svg>