<svg xmlns="http://www.w3.org/2000/svg" enable-background="new 0 0 128 128" viewBox="0 0 128 128"><path fill="#0a3960" d="M109.1,15.6c-0.4-1.2-1.8-1.9-3-1.5c-0.3,0.1-7.9,2.7-10.8,10.4c-4.5,3.9-60.1,53.5-76.3,86c0,0,0,0.1,0,0.1
		c-0.1,0.1-0.1,0.3-0.2,0.4c0,0,0,0.1,0,0.1c0,0.2,0,0.3,0,0.5c0,0,0,0,0,0c0,0,0,0.1,0,0.1c0,0.2,0.1,0.3,0.1,0.5
		c0,0,0,0.1,0.1,0.1c0.1,0.3,0.3,0.6,0.6,0.9c0,0,0.1,0.1,0.1,0.1c0.1,0.1,0.2,0.1,0.3,0.2c0,0,0.1,0.1,0.1,0.1
		c0.1,0.1,0.3,0.1,0.4,0.1c0,0,0.1,0,0.1,0c0.2,0,0.3,0.1,0.5,0.1c1.5,0,2.9,0,4.4,0c33.6,0,56.9-8.8,69.2-26.2
		c17.1-24.1,7.2-56.1,5.2-61.8c2.2-5.3,7.7-7.3,7.7-7.3C108.9,18.2,109.5,16.9,109.1,15.6z M90.8,85c-9.6,13.5-26.6,21.4-50.7,23.6
		c0.3-0.1,0.5-0.2,0.8-0.3c2.7-1.1,5.1-2.2,7.4-3.3c1.2-0.6,2.4-1.2,3.6-1.9c3.8-2.1,7.5-4.4,11.1-7c0.9-0.7,1.8-1.4,2.7-2.1
		c3.4-2.6,6.5-5.5,9.4-8.5c1-1.1,2-2.2,3-3.3c0.7-0.8,1.4-1.6,2.1-2.5c1.6-2,3.2-4.1,4.7-6.4c0.8-1.1,1.5-2.3,2.2-3.4
		c2.4-3.9,4.4-7.9,6-12.1c0.4-1,0.8-1.9,1.1-3c0.8-2.4,1.6-4.8,2.2-7.2c0.4-1.5,0.8-3,1.1-4.5c0.3-1.2,0.5-2.5,0.8-3.7
		C100.5,51.6,101.3,70.2,90.8,85z M63.8,89.4c-1.3-0.8-2.2-2.3-2.2-4c0-2.6,2.1-4.8,4.8-4.8c1.8,0,3.4,1,4.2,2.6
		C68.5,85.4,66.2,87.4,63.8,89.4z M40.2,102c0-1.3,1.1-2.4,2.4-2.4c1.1,0,2,0.7,2.3,1.7c-1.4,0.7-2.8,1.3-4.3,1.9
		C40.3,102.9,40.2,102.5,40.2,102z M51,98.1c-0.8-0.9-1.3-2-1.3-3.2c0-2.6,2.1-4.7,4.8-4.7c0.3,0,0.6,0,0.9,0.1
		c1.6,0.3,2.9,1.4,3.5,2.9C56.3,94.9,53.6,96.6,51,98.1z M80.3,71.6c-1.3,1.8-2.5,3.5-3.8,5.1c-0.4,0.5-0.8,1-1.2,1.5
		c-2.3-0.3-4.1-2.3-4.1-4.7c0-2.6,2.1-4.8,4.8-4.8C77.9,68.7,79.5,69.9,80.3,71.6z M83.8,66.1c-1.8-0.7-3.2-2.4-3.2-4.5
		c0-2.6,2.1-4.8,4.8-4.8c0.4,0,0.7,0,1,0.1c0.6,0.1,1.1,0.4,1.6,0.7C86.8,60.5,85.4,63.3,83.8,66.1z M91.5,47.7
		c-0.4,1.4-0.9,2.9-1.3,4.3c-1.3,0-2.3-1.1-2.3-2.4c0-1.3,1.1-2.4,2.4-2.4C90.7,47.3,91.1,47.5,91.5,47.7z M94.6,31.6
		c0,0.4-0.1,0.7-0.1,1.1c0,0.4-0.1,0.8-0.1,1.2c-0.1,0.6-0.2,1.2-0.2,1.8c-0.1,0.4-0.1,0.7-0.2,1.1c-0.1,0.6-0.2,1.2-0.3,1.9
		c-0.1,0.3-0.1,0.6-0.2,0.9c-0.2,0.9-0.3,1.8-0.5,2.6c-0.1,0.3-0.1,0.6-0.2,0.9c-0.8-0.3-1.7-0.5-2.5-0.5c-3.9,0-7.1,3.2-7.1,7.1
		c0,0.9,0.2,1.8,0.5,2.6c-4.3,0.9-7.6,4.7-7.6,9.3c0,0.8,0.1,1.6,0.3,2.4c-0.1,0-0.2,0-0.3,0c-5.3,0-9.5,4.3-9.5,9.5
		c0,0.8,0.1,1.6,0.3,2.4c-5.3-0.2-9.8,4.2-9.8,9.5c0,0.1,0,0.2,0,0.3c-0.8-0.2-1.6-0.3-2.4-0.3c-0.3,0-0.7,0-1,0
		C48.7,85.9,45,90,45,94.9c0,0.1,0,0.3,0,0.4c-0.7-0.3-1.6-0.4-2.4-0.4c-3.9,0-7.1,3.2-7.1,7.1c0,1.1,0.2,2.1,0.6,3
		c-0.1,0-0.3,0.1-0.4,0.1c-0.2,0.1-0.5,0.2-0.7,0.3c-0.3,0.1-0.7,0.2-1,0.3c-0.2,0.1-0.4,0.2-0.7,0.2c-0.4,0.1-0.7,0.2-1.1,0.3
		c-0.2,0.1-0.3,0.1-0.5,0.2c-0.5,0.2-1,0.3-1.5,0.5c0,0-0.1,0-0.1,0c-0.4,0.1-0.9,0.3-1.3,0.4c-0.1,0-0.3,0.1-0.4,0.1
		c-0.3,0.1-0.6,0.2-0.9,0.3c-0.1,0-0.3,0.1-0.4,0.1c-0.3,0.1-0.6,0.1-0.8,0.2c-0.1,0-0.3,0.1-0.4,0.1c-0.1,0-0.2,0-0.3,0.1
		C41.6,80.8,81.6,43.3,94.6,31.6z"/><path fill="#80dfa5" d="M55.4 90.2c-.3-.1-.6-.1-.9-.1-2.6 0-4.8 2.1-4.8 4.7 0 1.2.5 2.4 1.3 3.2 2.7-1.5 5.3-3.2 7.9-5C58.3 91.6 57 90.5 55.4 90.2zM71.1 73.5c0 2.4 1.8 4.4 4.1 4.7.4-.5.8-1 1.2-1.5 1.3-1.6 2.6-3.3 3.8-5.1-.7-1.7-2.4-2.9-4.4-2.9C73.3 68.7 71.1 70.9 71.1 73.5zM66.4 80.6c-2.6 0-4.8 2.1-4.8 4.8 0 1.6.9 3.1 2.2 4 2.4-1.9 4.7-4 6.8-6.1C69.8 81.7 68.2 80.6 66.4 80.6zM86.5 56.9c-.3-.1-.7-.1-1-.1-2.6 0-4.8 2.1-4.8 4.8 0 2.1 1.3 3.8 3.2 4.5 1.6-2.7 3-5.5 4.2-8.4C87.6 57.3 87 57.1 86.5 56.9zM87.8 49.7c0 1.3 1 2.4 2.3 2.4.5-1.4.9-2.9 1.3-4.3-.4-.3-.8-.4-1.3-.4C88.9 47.3 87.8 48.4 87.8 49.7zM42.6 99.7c-1.3 0-2.4 1.1-2.4 2.4 0 .4.1.9.4 1.2 1.5-.6 2.9-1.3 4.3-1.9C44.5 100.4 43.6 99.7 42.6 99.7z"/><path fill="#00bf4c" d="M25.9 108.2c.1 0 .3-.1.4-.1.3-.1.5-.1.8-.2.1 0 .3-.1.4-.1.3-.1.6-.2.9-.3.1 0 .3-.1.4-.1.4-.1.9-.2 1.3-.4 0 0 .1 0 .1 0 .5-.1 1-.3 1.5-.5.2-.1.3-.1.5-.2.3-.1.7-.2 1.1-.3.2-.1.4-.1.7-.2.3-.1.7-.2 1-.3.2-.1.5-.2.7-.3.1 0 .3-.1.4-.1-.4-.9-.6-1.9-.6-3 0-3.9 3.2-7.1 7.1-7.1.8 0 1.6.1 2.4.4 0-.1 0-.3 0-.4 0-4.9 3.8-9 8.6-9.5.3 0 .6 0 1 0 .8 0 1.6.1 2.4.3 0-.1 0-.2 0-.3 0-5.4 4.5-9.7 9.8-9.5-.2-.8-.3-1.6-.3-2.4 0-5.3 4.3-9.5 9.5-9.5.1 0 .2 0 .3 0-.2-.8-.3-1.6-.3-2.4 0-4.6 3.3-8.4 7.6-9.3-.3-.8-.5-1.7-.5-2.6 0-3.9 3.2-7.1 7.1-7.1.9 0 1.7.2 2.5.5.1-.3.2-.6.2-.9.2-.9.4-1.7.5-2.6.1-.3.1-.6.2-.9.1-.6.2-1.2.3-1.9.1-.4.1-.7.2-1.1.1-.6.2-1.2.2-1.8.1-.4.1-.8.1-1.2 0-.4.1-.7.1-1.1-13 11.8-53 49.2-69 76.7C25.7 108.2 25.8 108.2 25.9 108.2zM97.6 43.1c-.3 1.5-.7 3-1.1 4.5-.6 2.4-1.4 4.8-2.2 7.2-.4 1-.7 2-1.1 3-1.7 4.2-3.6 8.2-6 12.1-.7 1.1-1.4 2.3-2.2 3.4-1.6 2.3-3.1 4.3-4.7 6.4-.7.8-1.4 1.7-2.1 2.5-1 1.1-2 2.2-3 3.3-2.9 3-6.1 5.9-9.4 8.5-.9.7-1.8 1.4-2.7 2.1-3.6 2.6-7.3 5-11.1 7-1.2.7-2.4 1.3-3.6 1.9-2.3 1.2-4.7 2.3-7.4 3.3-.3.1-.5.2-.8.3 24.2-2.2 41.2-10.1 50.7-23.6 10.5-14.8 9.7-33.5 7.5-45.6C98.1 40.7 97.9 41.9 97.6 43.1z"/></svg>