<svg xmlns="http://www.w3.org/2000/svg" enable-background="new 0 0 128 128" viewBox="0 0 128 128"><path fill="#a7553e" d="M97.8,25.8c-4.9-4.5-11.8-7-18.4-7c-2.5,0-4.9,0.4-7.1,1.1c-0.6,0.2-1.2,0.4-1.8,0.7c1.7,2.3,4,4.5,6.4,5.5
		c1.2,0.5,1.8,1.9,1.3,3.1c-0.4,0.9-1.3,1.5-2.2,1.5c-0.3,0-0.6-0.1-0.9-0.2c-3.8-1.6-6.8-4.9-8.6-7.3c-3.9,3.3-6.8,8.2-9.3,12.6
		c-4.4,7.6-8.5,13.5-12.8,18.6c-2.8,3.3-6,6.5-9.4,9.3l-1.4,1.2c-2.2,1.8-4.3,3.6-6.1,5.5c1.4,1.9,3.8,4.6,6.6,5.8
		c1.2,0.5,1.8,1.9,1.3,3.1c-0.4,0.9-1.3,1.5-2.2,1.5c-0.3,0-0.6-0.1-0.9-0.2c-3.3-1.4-6-4-7.9-6.4c-1.1,1.6-1.8,3.3-2.4,5.2
		c-2.6,9.1,1.5,19.7,9.7,25.4c4.7,3.2,10.4,4.8,16.8,4.6c6.3-0.2,12.9-2.1,18.8-5.4c1.2-0.7,2.4-1.4,3.5-2.1c-4-3.3-6.5-7.8-6.6-8
		c-0.6-1.2-0.2-2.6,1-3.2c1.2-0.6,2.6-0.2,3.2,1c0,0.1,2.7,4.9,6.6,7.5c9.3-6.6,17.3-15.4,23.4-25.5c1.8-3.1,3.3-6,4.5-8.8
		c-4.7-3.3-7.7-8.7-7.8-9c-0.6-1.2-0.2-2.6,1-3.2c1.2-0.6,2.6-0.2,3.2,1c0,0,2.1,3.9,5.3,6.6c1.2-3.8,1.9-7.5,2.1-11.1v0
		C107.2,39.8,103.9,31.5,97.8,25.8z M70.9,69.7c-0.4,0.9-1.3,1.5-2.2,1.5c-0.3,0-0.6-0.1-0.9-0.2c-6.4-2.7-10.5-10.3-10.7-10.6
		c-0.6-1.2-0.2-2.6,1-3.2c1.2-0.6,2.6-0.2,3.2,1c0,0.1,3.5,6.4,8.3,8.4C70.9,67.1,71.5,68.5,70.9,69.7z"/><path fill="#0a3960" d="M101,22.3c-8.1-7.4-20.2-10.2-30.2-7c-1.6,0.5-3.1,1.2-4.6,2.1c-0.2,0.1-0.3,0.1-0.4,0.2
		c-0.2,0.1-0.3,0.2-0.5,0.4C59.6,22,55.9,28.3,53,33.4c-4.3,7.4-8.2,13.1-12.3,17.9C38,54.4,35,57.3,31.8,60l-1.4,1.2
		c-2.7,2.2-5.5,4.5-7.8,7.2c0,0,0,0,0,0c0,0-0.1,0.1-0.1,0.1c-2.5,2.9-4.2,6-5.2,9.4c-3.1,11,1.8,23.8,11.6,30.6
		c5.2,3.6,11.5,5.4,18.4,5.4c0.4,0,0.8,0,1.3,0c7-0.2,14.5-2.3,21-6c2.3-1.3,4.4-2.6,6.5-4c0.4-0.1,0.7-0.4,0.9-0.7
		c10.1-7,18.9-16.5,25.5-27.5c2.4-4,4.2-7.7,5.7-11.4c2.1-5.4,3.2-10.4,3.4-15.4C112,38.6,108.1,28.9,101,22.3z M106.8,48.9
		L106.8,48.9c-0.1,3.6-0.8,7.2-2.1,11.1c-3.2-2.7-5.3-6.5-5.3-6.6c-0.6-1.2-2.1-1.6-3.2-1c-1.2,0.6-1.6,2.1-1,3.2
		c0.1,0.3,3.1,5.7,7.8,9c-1.2,2.8-2.7,5.8-4.5,8.8c-6.1,10.1-14.1,18.9-23.4,25.5c-3.9-2.6-6.6-7.4-6.6-7.5c-0.6-1.2-2.1-1.6-3.2-1
		c-1.2,0.6-1.6,2.1-1,3.2c0.1,0.2,2.6,4.8,6.6,8c-1.1,0.7-2.3,1.4-3.5,2.1c-5.9,3.3-12.6,5.2-18.8,5.4c-6.4,0.2-12.1-1.3-16.8-4.6
		c-8.2-5.6-12.3-16.3-9.7-25.4c0.5-1.8,1.3-3.5,2.4-5.2c1.9,2.3,4.6,5,7.9,6.4c0.3,0.1,0.6,0.2,0.9,0.2c0.9,0,1.8-0.6,2.2-1.5
		c0.5-1.2-0.1-2.6-1.3-3.1c-2.8-1.2-5.1-3.8-6.6-5.8c1.8-1.9,3.9-3.6,6.1-5.5l1.4-1.2c3.4-2.9,6.6-6,9.4-9.3
		c4.3-5.1,8.4-11,12.8-18.6c2.5-4.4,5.4-9.2,9.3-12.6c1.8,2.5,4.8,5.7,8.6,7.3c0.3,0.1,0.6,0.2,0.9,0.2c0.9,0,1.8-0.6,2.2-1.5
		c0.5-1.2-0.1-2.6-1.3-3.1c-2.4-1-4.7-3.3-6.4-5.5c0.6-0.3,1.2-0.5,1.8-0.7c2.2-0.7,4.7-1.1,7.1-1.1c6.6,0,13.5,2.5,18.4,7
		C103.9,31.5,107.2,39.8,106.8,48.9z"/><path fill="#0a3960" d="M69.7,66.6c-4.8-2-8.3-8.4-8.3-8.4c-0.6-1.2-2.1-1.6-3.2-1c-1.2,0.6-1.6,2.1-1,3.2c0.2,0.3,4.3,7.9,10.7,10.6
		c0.3,0.1,0.6,0.2,0.9,0.2c0.9,0,1.8-0.6,2.2-1.5C71.5,68.5,70.9,67.1,69.7,66.6z"/></svg>