<svg xmlns="http://www.w3.org/2000/svg" id="Outlined_1_" enable-background="new 0 0 128 128" viewBox="0 0 128 128"><path fill="#00bf4c" d="M64,18.8c-23.6,0-42.9,20.3-42.9,45.2c0,24.9,19.2,45.2,42.9,45.2c23.6,0,42.9-20.3,42.9-45.2
		C106.9,39.1,87.6,18.8,64,18.8z M85.5,48.8l4.1-2.4c1.1-0.7,2.6-0.3,3.3,0.9c0.7,1.1,0.3,2.6-0.9,3.3L87.9,53
		c-0.4,0.2-0.8,0.3-1.2,0.3c-0.8,0-1.6-0.4-2.1-1.2C84,51,84.4,49.5,85.5,48.8z M61.6,33c0-1.3,1.1-2.4,2.4-2.4s2.4,1.1,2.4,2.4v4.8
		c0,1.3-1.1,2.4-2.4,2.4s-2.4-1.1-2.4-2.4V33z M47.3,35.1c1.1-0.7,2.6-0.3,3.3,0.9l2.4,4.1c0.7,1.1,0.3,2.6-0.9,3.3
		c-0.4,0.2-0.8,0.3-1.2,0.3c-0.8,0-1.6-0.4-2.1-1.2l-2.4-4.1C45.8,37.2,46.2,35.8,47.3,35.1z M30.7,64c0-1.3,1.1-2.4,2.4-2.4h4.8
		c1.3,0,2.4,1.1,2.4,2.4s-1.1,2.4-2.4,2.4H33C31.7,66.4,30.7,65.3,30.7,64z M42.5,79.2l-4.1,2.4c-0.4,0.2-0.8,0.3-1.2,0.3
		c-0.8,0-1.6-0.4-2.1-1.2c-0.7-1.1-0.3-2.6,0.9-3.3l4.1-2.4c1.1-0.7,2.6-0.3,3.3,0.9C44,77,43.6,78.5,42.5,79.2z M43.4,52.1
		c-0.4,0.8-1.2,1.2-2.1,1.2c-0.4,0-0.8-0.1-1.2-0.3L36,50.6c-1.1-0.7-1.5-2.1-0.9-3.3c0.7-1.1,2.1-1.5,3.3-0.9l4.1,2.4
		C43.6,49.5,44,51,43.4,52.1z M53,87.9L50.6,92c-0.4,0.8-1.2,1.2-2.1,1.2c-0.4,0-0.8-0.1-1.2-0.3c-1.1-0.7-1.5-2.1-0.9-3.3l2.4-4.1
		c0.7-1.1,2.1-1.5,3.3-0.9C53.2,85.3,53.6,86.7,53,87.9z M66.4,95c0,1.3-1.1,2.4-2.4,2.4s-2.4-1.1-2.4-2.4v-4.8
		c0-1.3,1.1-2.4,2.4-2.4s2.4,1.1,2.4,2.4V95z M64,83c-9.2,0-16.7-8.5-16.7-19S54.8,45,64,45s16.7,8.5,16.7,19S73.2,83,64,83z
		 M80.7,92.9c-0.4,0.2-0.8,0.3-1.2,0.3c-0.8,0-1.6-0.4-2.1-1.2L75,87.9c-0.7-1.1-0.3-2.6,0.9-3.3c1.1-0.7,2.6-0.3,3.3,0.9l2.4,4.1
		C82.2,90.8,81.8,92.2,80.7,92.9z M81.5,38.4l-2.4,4.1c-0.4,0.8-1.2,1.2-2.1,1.2c-0.4,0-0.8-0.1-1.2-0.3c-1.1-0.7-1.5-2.1-0.9-3.3
		l2.4-4.1c0.7-1.1,2.1-1.5,3.3-0.9C81.8,35.8,82.2,37.2,81.5,38.4z M92.9,80.7c-0.4,0.8-1.2,1.2-2.1,1.2c-0.4,0-0.8-0.1-1.2-0.3
		l-4.1-2.4c-1.1-0.7-1.5-2.1-0.9-3.3c0.7-1.1,2.1-1.5,3.3-0.9l4.1,2.4C93.1,78.1,93.5,79.5,92.9,80.7z M95,66.4h-4.8
		c-1.3,0-2.4-1.1-2.4-2.4s1.1-2.4,2.4-2.4H95c1.3,0,2.4,1.1,2.4,2.4S96.3,66.4,95,66.4z"/><path fill="#0a3960" d="M64,14c-26.3,0-47.6,22.4-47.6,50s21.4,50,47.6,50c26.3,0,47.6-22.4,47.6-50S90.3,14,64,14z M64,109.2
		c-23.6,0-42.9-20.3-42.9-45.2c0-24.9,19.2-45.2,42.9-45.2c23.6,0,42.9,20.3,42.9,45.2C106.9,88.9,87.6,109.2,64,109.2z"/><ellipse cx="64" cy="64" fill="#80dfa5" rx="11.9" ry="14.3"/><path fill="#0a3960" d="M64 45c-9.2 0-16.7 8.5-16.7 19S54.8 83 64 83s16.7-8.5 16.7-19S73.2 45 64 45zM64 78.3c-6.6 0-11.9-6.4-11.9-14.3S57.4 49.7 64 49.7c6.6 0 11.9 6.4 11.9 14.3S70.6 78.3 64 78.3zM64 40.2c1.3 0 2.4-1.1 2.4-2.4V33c0-1.3-1.1-2.4-2.4-2.4s-2.4 1.1-2.4 2.4v4.8C61.6 39.1 62.7 40.2 64 40.2zM64 87.8c-1.3 0-2.4 1.1-2.4 2.4V95c0 1.3 1.1 2.4 2.4 2.4s2.4-1.1 2.4-2.4v-4.8C66.4 88.9 65.3 87.8 64 87.8zM40.2 64c0-1.3-1.1-2.4-2.4-2.4H33c-1.3 0-2.4 1.1-2.4 2.4s1.1 2.4 2.4 2.4h4.8C39.1 66.4 40.2 65.3 40.2 64zM95 61.6h-4.8c-1.3 0-2.4 1.1-2.4 2.4s1.1 2.4 2.4 2.4H95c1.3 0 2.4-1.1 2.4-2.4S96.3 61.6 95 61.6zM48.8 42.5c.4.8 1.2 1.2 2.1 1.2.4 0 .8-.1 1.2-.3 1.1-.7 1.5-2.1.9-3.3L50.6 36c-.7-1.1-2.1-1.5-3.3-.9-1.1.7-1.5 2.1-.9 3.3L48.8 42.5zM79.2 85.5c-.7-1.1-2.1-1.5-3.3-.9-1.1.7-1.5 2.1-.9 3.3l2.4 4.1c.4.8 1.2 1.2 2.1 1.2.4 0 .8-.1 1.2-.3 1.1-.7 1.5-2.1.9-3.3L79.2 85.5zM40.1 75L36 77.4c-1.1.7-1.5 2.1-.9 3.3.4.8 1.2 1.2 2.1 1.2.4 0 .8-.1 1.2-.3l4.1-2.4c1.1-.7 1.5-2.1.9-3.3C42.7 74.8 41.3 74.4 40.1 75zM86.7 53.3c.4 0 .8-.1 1.2-.3l4.1-2.4c1.1-.7 1.5-2.1.9-3.3-.7-1.1-2.1-1.5-3.3-.9l-4.1 2.4c-1.1.7-1.5 2.1-.9 3.3C85.1 52.9 85.9 53.3 86.7 53.3zM42.5 48.8l-4.1-2.4c-1.1-.7-2.6-.3-3.3.9-.7 1.1-.3 2.6.9 3.3l4.1 2.4c.4.2.8.3 1.2.3.8 0 1.6-.4 2.1-1.2C44 51 43.6 49.5 42.5 48.8zM92 77.4L87.9 75c-1.1-.7-2.6-.3-3.3.9-.7 1.1-.3 2.6.9 3.3l4.1 2.4c.4.2.8.3 1.2.3.8 0 1.6-.4 2.1-1.2C93.5 79.5 93.1 78.1 92 77.4zM52.1 84.6c-1.1-.7-2.6-.3-3.3.9l-2.4 4.1c-.7 1.1-.3 2.6.9 3.3.4.2.8.3 1.2.3.8 0 1.6-.4 2.1-1.2l2.4-4.1C53.6 86.7 53.2 85.3 52.1 84.6zM80.7 35.1c-1.1-.7-2.6-.3-3.3.9L75 40.1c-.7 1.1-.3 2.6.9 3.3.4.2.8.3 1.2.3.8 0 1.6-.4 2.1-1.2l2.4-4.1C82.2 37.2 81.8 35.8 80.7 35.1z"/></svg>