<svg xmlns="http://www.w3.org/2000/svg" enable-background="new 0 0 128 128" viewBox="0 0 128 128"><path fill="#00bf4c" d="M63.1,106.9c5.4,0.1,10.5-0.7,15.4-2.4c-12.6-4-35.6-14-52.1-36.7c-0.8-1.1-0.5-2.6,0.5-3.3
		c1.1-0.8,2.6-0.5,3.3,0.5c18.6,25.6,45.9,34.2,55.2,36.5c3.3-1.8,6.4-3.9,9.1-6.4c-0.1-0.1-0.2-0.2-0.3-0.3
		c-0.1-0.1-0.2-0.2-0.3-0.3c-0.3-0.2-0.5-0.4-0.8-0.7c-0.1-0.1-0.2-0.2-0.3-0.2c-0.4-0.3-0.7-0.6-1.1-0.8c0,0-0.1-0.1-0.1-0.1
		c-0.3-0.2-0.7-0.4-1-0.7c-0.1-0.1-0.2-0.1-0.4-0.2c-0.3-0.2-0.5-0.3-0.8-0.5c-0.1-0.1-0.3-0.2-0.4-0.2c-0.3-0.1-0.6-0.3-0.8-0.4
		c-0.1-0.1-0.2-0.1-0.4-0.2c-0.4-0.2-0.8-0.4-1.2-0.5c-1.3-0.5-2.7-0.9-4.1-1.3c0,0-0.1,0-0.1,0c-1-0.2-2-0.5-2.9-0.7l-0.9-0.2
		c-2.3-0.5-4.7-1.1-7.1-1.9c-1-0.3-1.9-0.7-2.9-1.1c-0.4-0.2-0.7-0.3-1.1-0.5c-0.6-0.3-1.2-0.5-1.7-0.8c-0.4-0.2-0.8-0.4-1.2-0.7
		c-0.5-0.3-1-0.5-1.5-0.8c-0.4-0.3-0.8-0.5-1.3-0.8c-0.4-0.3-0.8-0.5-1.2-0.8c-0.1,0-0.1-0.1-0.2-0.1c-0.9-0.6-1.7-1.2-2.5-1.9
		c-2.7-2.2-5-4.8-7.2-7.3c-2.4-2.7-4.7-5.3-7.5-7.5c-6.4-4.9-14.2-8.1-21.2-8.9c-0.9-0.1-1.8-0.1-2.6-0.2c-0.4,2.8-0.6,5.7-0.5,8.6
		C19.5,86.8,39.4,106.4,63.1,106.9z"/><path fill="#00bf4c" d="M108.7,54.5c-0.8,0-1.6,0.1-2.4,0.2c0,0,0,0,0,0c-1.3,0.2-2.5,0.5-3.7,0.9c-0.6,0.2-1.2,0.4-1.7,0.7
		c0,0,0,0,0,0c-1.5,0.6-3,1.4-4.3,2.2c-0.7,0.4-1.3,0.8-1.9,1.2c-0.4,0.3-0.9,0.6-1.3,0.9c-0.5,0.4-1.1,0.8-1.6,1.2
		c-2.1,1.7-4,3.6-6,5.7c-2.1,2.1-4.2,4.4-6.7,6.3c-0.7,0.5-1.5,1.1-2.2,1.5c-0.2,0.1-0.4,0.3-0.7,0.4c-0.6,0.4-1.2,0.7-1.9,1
		c-0.2,0.1-0.4,0.2-0.6,0.3c-0.8,0.4-1.7,0.8-2.5,1.1c-0.2,0.1-0.4,0.1-0.6,0.2c-0.7,0.3-1.4,0.5-2.2,0.8c-0.1,0-0.3,0.1-0.4,0.2
		c1.6,0.8,3.3,1.5,5,2.1c2.1,0.7,4.3,1.2,6.6,1.7l0.9,0.2c0.7,0.1,1.3,0.3,2,0.4C92.3,76.3,99.9,63,100,62.8
		c0.7-1.1,2.1-1.5,3.2-0.9c1.1,0.7,1.5,2.1,0.9,3.2c-0.3,0.5-7,12.1-16.2,20.2c0.1,0,0.2,0.1,0.3,0.1c3.4,1.4,6.8,3.5,9.6,6.1
		c7.4-8.3,11.4-18.8,11.4-30C109.2,59.2,109,56.8,108.7,54.5z"/><path fill="#0a3960" d="M114,61.7c0-3.3-0.3-6.6-1-9.8c-0.1-1-0.8-1.7-1.7-2c0,0,0,0,0,0c-0.1,0-0.2,0-0.3-0.1c0,0,0,0,0,0
		c0,0-0.1,0-0.1,0c-0.1,0-0.1,0-0.2,0c0,0,0,0,0,0c-1-0.1-2-0.1-3,0c-1.7-6.2-4.7-12-8.8-17l-0.5-0.5c0,0,0,0,0,0c0,0,0-0.1-0.1-0.1
		l0,0c0,0,0,0,0,0c-8.6-10-21.1-15.8-34.3-15.8c-11.8,0-23,4.5-31.5,12.8c0,0,0,0,0,0c0,0,0,0,0,0C26.6,34.9,22.4,42,20.3,49.8
		c-1.1-0.1-2.1-0.1-3.1,0c-1.1,0.1-2,0.8-2.2,1.9c-0.8,3.7-1.1,7.6-1,11.6c0.8,26.1,22.8,47.7,49,48.3c0.3,0,0.7,0,1,0
		c7.1,0,14-1.5,20.4-4.3c0.1,0,0.1,0,0.2-0.1c5.7-2.6,10.7-6.1,15-10.5c0.1-0.1,0.1-0.1,0.1-0.2C108.9,87.2,114,74.8,114,61.7z
		 M19.3,54.6c0.8,0,1.7,0.1,2.6,0.2c7.1,0.8,14.8,4,21.2,8.9c2.8,2.1,5.1,4.7,7.5,7.5c2.2,2.5,4.5,5,7.2,7.3
		c0.8,0.7,1.6,1.3,2.5,1.9c0.1,0,0.1,0.1,0.2,0.1c0.4,0.3,0.8,0.5,1.2,0.8c0.4,0.3,0.8,0.6,1.3,0.8c0.5,0.3,1,0.6,1.5,0.8
		c0.4,0.2,0.8,0.5,1.2,0.7c0.6,0.3,1.2,0.5,1.7,0.8c0.4,0.2,0.7,0.3,1.1,0.5c0.9,0.4,1.9,0.8,2.9,1.1c2.4,0.8,4.8,1.3,7.1,1.9
		l0.9,0.2c1,0.2,1.9,0.4,2.9,0.7c0,0,0.1,0,0.1,0c1.4,0.3,2.7,0.8,4.1,1.3c0.4,0.2,0.8,0.3,1.2,0.5c0.1,0.1,0.2,0.1,0.4,0.2
		c0.3,0.1,0.6,0.3,0.8,0.4c0.1,0.1,0.3,0.1,0.4,0.2c0.3,0.2,0.5,0.3,0.8,0.5c0.1,0.1,0.2,0.1,0.4,0.2c0.3,0.2,0.7,0.4,1,0.7
		c0,0,0.1,0.1,0.1,0.1c0.4,0.3,0.7,0.5,1.1,0.8c0.1,0.1,0.2,0.2,0.3,0.2c0.3,0.2,0.5,0.4,0.8,0.7c0.1,0.1,0.2,0.2,0.3,0.3
		c0.1,0.1,0.2,0.2,0.3,0.3c-2.7,2.5-5.8,4.7-9.1,6.4c-9.2-2.3-36.6-11-55.2-36.5c-0.8-1.1-2.3-1.3-3.3-0.5c-1.1,0.8-1.3,2.3-0.5,3.3
		c16.5,22.7,39.5,32.7,52.1,36.7c-4.9,1.7-10.1,2.5-15.4,2.4c-23.7-0.5-43.5-20.1-44.3-43.6C18.7,60.3,18.9,57.4,19.3,54.6z
		 M97.8,91.6c-2.8-2.7-6.2-4.8-9.6-6.1c-0.1,0-0.2-0.1-0.3-0.1c9.3-8.1,15.9-19.7,16.2-20.2c0.7-1.1,0.3-2.6-0.9-3.2
		c-1.1-0.7-2.6-0.3-3.2,0.9c-0.1,0.1-7.8,13.5-17.6,20.9c-0.7-0.2-1.3-0.3-2-0.4l-0.9-0.2c-2.3-0.5-4.5-1-6.6-1.7
		c-1.7-0.6-3.4-1.3-5-2.1c0.1,0,0.3-0.1,0.4-0.2c0.7-0.2,1.5-0.5,2.2-0.8c0.2-0.1,0.4-0.1,0.6-0.2c0.9-0.4,1.7-0.7,2.5-1.1
		c0.2-0.1,0.4-0.2,0.6-0.3c0.6-0.3,1.3-0.7,1.9-1c0.2-0.1,0.5-0.3,0.7-0.4c0.8-0.5,1.5-1,2.2-1.5c2.5-1.9,4.6-4.1,6.7-6.3
		c2-2.1,3.9-4,6-5.7c0.5-0.4,1-0.8,1.6-1.2c0.4-0.3,0.8-0.6,1.3-0.9c0.6-0.4,1.3-0.8,1.9-1.2c1.3-0.8,2.8-1.5,4.3-2.2c0,0,0,0,0,0
		c0.6-0.2,1.1-0.5,1.7-0.7c1.2-0.4,2.4-0.7,3.7-0.9c0,0,0,0,0,0c0.8-0.1,1.6-0.2,2.4-0.2c0.4,2.3,0.6,4.8,0.6,7.2
		C109.2,72.8,105.2,83.4,97.8,91.6z M25.1,50.4c1.9-6.7,5.5-12.8,10.6-17.8c0.6-0.4,1-0.7,1.5-0.9c2.2-0.7,5.5-1.4,8.6-0.2
		c6.2,2.3,11.1,6.6,16.2,11.2l1.1,1c3.9,3.6,7.9,7.4,12.7,10.3c3.4,2.1,7.2,3.9,11.2,5.4c-1.7,1.5-3.2,3-4.7,4.6
		c-1.5,1.6-3,3.1-4.6,4.5c-0.5,0.5-1.1,0.9-1.6,1.3c-3.8,2.9-8.4,4.9-13.8,5.9c-0.5-0.4-1-0.7-1.4-1.1c-2.4-2-4.5-4.3-6.6-6.8
		c-2.5-2.8-5-5.7-8.2-8.1C39.6,55,32.3,51.7,25.1,50.4z M91.5,56c-0.5-0.2-1.1-0.4-1.6-0.5c-0.5-0.2-1.1-0.4-1.6-0.5
		c-0.7-0.3-1.4-0.6-2.1-0.9c-0.5-0.2-1-0.4-1.4-0.6c-0.8-0.3-1.5-0.7-2.2-1.1c-0.4-0.2-0.8-0.4-1.2-0.6c-1.1-0.6-2.2-1.2-3.2-1.8
		c-0.5-0.3-1-0.6-1.5-1c-0.2-0.1-0.3-0.2-0.5-0.4c-0.3-0.2-0.6-0.4-1-0.7c-0.2-0.1-0.4-0.3-0.6-0.4c-0.3-0.2-0.6-0.4-0.9-0.7
		c-0.2-0.2-0.4-0.3-0.6-0.5c-0.3-0.2-0.6-0.5-0.9-0.7c-0.2-0.1-0.4-0.3-0.5-0.4c-0.3-0.3-0.7-0.6-1-0.8c-0.2-0.2-0.4-0.3-0.5-0.5
		c-0.4-0.3-0.7-0.7-1.1-1c-0.3-0.2-0.5-0.5-0.8-0.7c-0.1-0.1-0.2-0.2-0.3-0.3c0,0,0.1,0,0.1-0.1c0.5-0.3,0.9-0.6,1.4-1
		c0.1-0.1,0.2-0.1,0.3-0.2c0.5-0.3,0.9-0.7,1.4-1c0,0,0,0,0,0c0.5-0.3,0.9-0.7,1.4-1c0.1-0.1,0.2-0.1,0.2-0.2c0.4-0.3,0.9-0.7,1.3-1
		c0.1-0.1,0.2-0.1,0.3-0.2c0.4-0.3,0.8-0.6,1.2-0.9c0,0,0,0,0.1-0.1c0.4-0.3,0.7-0.6,1.1-0.8c0.1-0.1,0.2-0.1,0.3-0.2
		c0.3-0.3,0.6-0.5,0.9-0.7c0.1-0.1,0.2-0.2,0.4-0.3c0.3-0.2,0.5-0.4,0.7-0.6l0.6-0.5c3.8-3,8-3.3,11.5-0.9c1.2,0.8,2.4,1.9,3.6,3.2
		l0.4,0.5c3.5,4.3,6.2,9.3,7.7,14.7C98.5,51.7,94.5,54,91.5,56z M76.8,29.4l-0.6,0.5c-2.5,2-7.4,5.8-11.7,8.7
		c-0.2-0.2-0.4-0.4-0.6-0.6c-0.3-0.3-0.6-0.5-0.9-0.8c-0.4-0.3-0.7-0.6-1.1-0.9c-0.3-0.3-0.6-0.5-0.9-0.8c-0.4-0.3-0.7-0.6-1.1-0.9
		c-0.3-0.3-0.6-0.5-1-0.8c-0.4-0.3-0.8-0.6-1.1-0.9c-0.3-0.2-0.6-0.5-1-0.7c-0.4-0.3-0.8-0.6-1.2-0.8c-0.3-0.2-0.6-0.4-1-0.7
		c-0.4-0.3-0.9-0.6-1.4-0.8c-0.3-0.2-0.6-0.4-0.9-0.5c-0.5-0.3-1.1-0.6-1.6-0.8c-0.3-0.1-0.5-0.3-0.8-0.4c-0.8-0.4-1.6-0.7-2.5-1
		c-0.5-0.2-1-0.3-1.5-0.4c-0.2,0-0.3-0.1-0.5-0.1c-0.3-0.1-0.7-0.1-1-0.2c-0.1,0-0.2,0-0.2,0c6-3.4,12.8-5.2,19.8-5.2
		c6.9,0,13.6,1.8,19.5,5C81.2,26.6,78.9,27.7,76.8,29.4z"/><path fill="#80dfa5" d="M94.8 35.4c-1.2-1.3-2.4-2.3-3.6-3.2-3.5-2.4-7.7-2.1-11.5.9l-.6.5c-.2.2-.5.4-.7.6-.1.1-.2.2-.4.3-.3.2-.6.5-.9.7-.1.1-.2.1-.3.2-.4.3-.7.6-1.1.8 0 0 0 0-.1.1-.4.3-.8.6-1.2.9-.1.1-.2.1-.3.2-.4.3-.9.6-1.3 1-.1.1-.2.1-.2.2-.5.3-.9.7-1.4 1 0 0 0 0 0 0-.5.3-.9.7-1.4 1-.1.1-.2.1-.3.2-.5.3-.9.7-1.4 1 0 0-.1 0-.1.1.1.1.2.2.3.3.3.2.5.5.8.7.4.3.7.7 1.1 1 .2.2.4.3.5.5.3.3.6.6 1 .8.2.1.4.3.5.4.3.2.6.5.9.7.2.2.4.3.6.5.3.2.6.4.9.7.2.1.4.3.6.4.3.2.6.5 1 .7.2.1.3.2.5.4.5.3 1 .7 1.5 1 1 .6 2.1 1.2 3.2 1.8.4.2.8.4 1.2.6.7.4 1.5.7 2.2 1.1.5.2.9.4 1.4.6.7.3 1.4.6 2.1.9.5.2 1 .4 1.6.5.5.2 1.1.4 1.6.5 3-2 7-4.3 11.4-5.4-1.5-5.3-4.1-10.4-7.7-14.7L94.8 35.4zM44.2 26.3c.1 0 .2 0 .2 0 .3 0 .7.1 1 .2.2 0 .3.1.5.1.5.1 1 .3 1.5.4.9.3 1.7.7 2.5 1 .3.1.5.3.8.4.5.3 1.1.5 1.6.8.3.2.6.4.9.5.5.3.9.5 1.4.8.3.2.6.4 1 .7.4.3.8.6 1.2.8.3.2.6.5 1 .7.4.3.8.6 1.1.9.3.3.6.5 1 .8.4.3.7.6 1.1.9.3.3.6.5.9.8.4.3.7.6 1.1.9.3.3.6.5.9.8.2.2.4.4.6.6 4.3-2.9 9.2-6.8 11.7-8.7l.6-.5c2.1-1.7 4.4-2.8 6.7-3.3-5.9-3.3-12.6-5-19.5-5C57 21.1 50.2 22.9 44.2 26.3zM54.2 67.9c2.2 2.4 4.2 4.8 6.6 6.8.5.4.9.7 1.4 1.1 5.4-1 10.1-3 13.8-5.9.6-.4 1.1-.9 1.6-1.3 1.6-1.4 3-2.9 4.6-4.5 1.5-1.5 3-3.1 4.7-4.6-4-1.5-7.8-3.3-11.2-5.4C71 51.1 66.9 47.4 63 43.8l-1.1-1c-5-4.6-10-8.9-16.2-11.2-3.1-1.1-6.4-.5-8.6.2-.5.1-.9.4-1.5.9-5.1 5-8.7 11.1-10.6 17.8 7.2 1.3 14.5 4.6 20.9 9.4C49.2 62.2 51.7 65.1 54.2 67.9z"/></svg>