<svg xmlns="http://www.w3.org/2000/svg" id="Outlined_1_" enable-background="new 0 0 128 128" viewBox="0 0 128 128"><path fill="#eeb453" d="M73.9,39.5C72,38.7,70,38.2,68,38c-5.4-0.6-11.1,0.9-15.5,4.3c-4.9,3.8-7.7,10-10.4,16l-0.7,1.7
		c-1.6,3.5-3.3,7.1-5.7,10.5c-1.9,2.7-4.2,4.9-6.5,7c-0.7,0.7-1.4,1.3-2.1,2c-3.5,3.4-8.7,10.6-4.4,19.8c3.5,7.5,10.3,9.5,15.3,9.9
		c2.8,0.2,5.8,0,8.9-0.7c4.4-1,8.9-2.7,14.2-5.6C75.6,95.1,89.3,77.6,87.7,59C86.9,50.5,81.5,42.9,73.9,39.5z"/><path fill="#00bf4c" d="M84.1,24c0.9,3.3,2.8,8.3,7.1,12.4c4.7,4.4,11.1,6.7,15,7.8c-0.9-3.3-2.8-8.3-7.2-12.4
		C94.4,27.4,87.9,25.1,84.1,24z"/><path fill="#0a3960" d="M102.3,28.3c-6.4-6-15.1-8.5-18.9-9.4C83.3,17.1,83,16,83,15.8c-0.3-1.3-1.6-2.1-2.9-1.8
		c-1.3,0.3-2.1,1.6-1.8,2.9c0,0.1,2,9-4.3,17.6c-1.8-0.6-3.6-1-5.5-1.3c-6.6-0.8-13.5,1.1-18.9,5.2c-5.9,4.5-8.9,11.3-11.8,17.9
		L37,58c-1.5,3.3-3.1,6.7-5.2,9.7C30.2,70,28.1,71.9,26,74c-0.7,0.7-1.5,1.4-2.2,2.1c-7.4,7.4-9.4,16.6-5.3,25.2
		c3.5,7.5,10.4,12,19.3,12.6h0c0.8,0.1,1.5,0.1,2.3,0.1c2.6,0,5.3-0.3,8-0.9c4.8-1.1,9.7-3,15.4-6c15.8-8.5,30.9-27.8,29-48.5
		c-0.8-9.2-6.2-17.5-14-22c1.3-1.9,2.3-3.9,3.1-5.7c1.4,2.9,3.4,6.2,6.5,9c8.2,7.7,20.4,9.7,20.9,9.8c0.1,0,0.3,0,0.4,0
		c0.6,0,1.2-0.2,1.6-0.6c0.5-0.5,0.8-1.2,0.8-1.9C111.6,46.7,110.7,36.2,102.3,28.3z M61.2,102.9c-5.3,2.8-9.8,4.6-14.2,5.6
		c-3.1,0.7-6.1,0.9-8.9,0.7c-5-0.4-11.8-2.4-15.3-9.9c-4.3-9.2,0.9-16.4,4.4-19.8c0.7-0.7,1.4-1.4,2.1-2c2.2-2.1,4.6-4.3,6.5-7
		c2.3-3.4,4.1-7,5.7-10.5l0.7-1.7c2.7-6,5.4-12.2,10.4-16c4.4-3.4,10.1-4.9,15.5-4.3c2,0.2,4,0.8,5.9,1.6c7.6,3.3,13,11,13.8,19.4
		C89.3,77.6,75.6,95.1,61.2,102.9z M91.2,36.4c-4.3-4.1-6.3-9.1-7.1-12.4c3.9,1.1,10.3,3.4,15,7.8c4.3,4.1,6.3,9.1,7.2,12.4
		C102.3,43.1,95.9,40.8,91.2,36.4z"/></svg>