<svg xmlns="http://www.w3.org/2000/svg" enable-background="new 0 0 128 128" viewBox="0 0 128 128"><path fill="#d47cff" d="M102.1,69.5c0.1-7.8-3.6-15.5-11.6-24.1C86.2,40.7,69.3,24.7,64,19.7c-5.3,5.1-22.2,21.1-26.5,25.7
		c-8,8.6-11.7,16.3-11.6,24.1c0.1,9.4,5.1,17.7,14,23.4c5.3,3.4,11.8,5.7,18.4,6.5c1.3,0.2,2.7,0.3,4,0.3c0.6,0,1.1,0,1.7,0
		c0.6,0,1.1,0,1.7,0c1.4,0,2.7-0.2,4-0.3c6.6-0.8,13.1-3.1,18.4-6.5C97,87.2,102,78.9,102.1,69.5z M68.5,97c-1.5,0.2-3,0.3-4.5,0.3
		c-7.3,0-14.9-2.2-20.7-6c-8-5.2-12.5-12.9-12.6-21.7c-0.1-7.2,3.1-14.1,10-21.7c4-4.4,21-20.7,21.7-21.4c0.9-0.9,2.4-0.9,3.3,0
		c0.7,0.7,17.7,17,21.7,21.4c0,0,0,0,0,0c6,6.6,9.2,12.7,9.8,19c0.1,0.9,0.1,1.8,0.1,2.7c-0.1,8.8-4.6,16.5-12.6,21.7
		C80.1,94.4,74.3,96.3,68.5,97z"/><path fill="#0a3960" d="M94,42.1C94,42.1,94,42.1,94,42.1c-5.2-5.6-27.4-26.6-28.4-27.5c-0.9-0.9-2.4-0.9-3.3,0
		C61.4,15.5,39.2,36.5,34,42.1c-8.9,9.6-13,18.3-12.8,27.4c0.1,11,5.9,20.8,16.2,27.3c3.5,2.3,7.5,4.1,11.7,5.3l0,0
		c-1.2,0.4-1.9,1.8-1.5,3c0.3,1,1.3,1.6,2.3,1.6c0.2,0,0.5,0,0.8-0.1l7.1-2.4l-2.6,3.4c-0.8,1.1-0.6,2.5,0.5,3.3
		c0.4,0.3,0.9,0.5,1.4,0.5c0.7,0,1.4-0.3,1.9-1l2.9-3.8v4.8c0,1.3,1.1,2.4,2.4,2.4s2.4-1.1,2.4-2.4v-4.8l2.9,3.8
		c0.5,0.6,1.2,1,1.9,1c0.5,0,1-0.2,1.4-0.5c1.1-0.8,1.3-2.3,0.5-3.3l-2.6-3.4l7.1,2.4c0.2,0.1,0.5,0.1,0.8,0.1c1,0,1.9-0.6,2.3-1.6
		c0.4-1.2-0.3-2.6-1.5-3l0,0c4.2-1.3,8.1-3.1,11.7-5.3c10.3-6.6,16.1-16.3,16.2-27.3C107,60.4,102.9,51.7,94,42.1z M69.7,99.4
		c-1.3,0.2-2.7,0.3-4,0.3c-0.6,0-1.1,0-1.7,0c-0.6,0-1.1,0-1.7,0c-1.3,0-2.7-0.2-4-0.3c-6.6-0.8-13.1-3.1-18.4-6.5
		c-8.9-5.7-13.9-14-14-23.4c-0.1-7.8,3.6-15.5,11.6-24.1c4.3-4.6,21.2-20.6,26.5-25.7c5.3,5.1,22.2,21.1,26.5,25.7
		c8,8.6,11.7,16.3,11.6,24.1c-0.1,9.4-5.1,17.7-14,23.4C82.8,96.2,76.3,98.5,69.7,99.4z"/><path fill="#d47cff" d="M83.9,51.2C80.7,47.7,68.5,35.9,64,31.6c-4.5,4.3-16.7,16.1-19.9,19.6c-6,6.6-8.8,12.5-8.7,18.4
		c0.1,7.1,3.8,13.4,10.4,17.7c5.1,3.3,11.7,5.2,18.1,5.2s13-1.9,18.1-5.2c5.8-3.8,9.4-9.1,10.2-15.1c0.1-0.9,0.2-1.7,0.2-2.6
		C92.6,63.6,89.9,57.8,83.9,51.2z M78.8,85.8c-0.5,0.4-1.1,0.7-1.6,1c-2.7,1.5-5.7,2.5-8.8,3c-0.8,0.1-1.6,0.2-2.4,0.3
		c-0.7,0-1.3,0.1-2,0.1c-5.2,0-10.6-1.6-14.8-4.4c-5.8-3.9-9-9.6-9-16c-0.1-5.3,2.2-10.5,7.1-15.9C50,50.7,61.8,39,62.3,38.5
		c0.9-0.9,2.4-0.9,3.4,0C66.2,39,78,50.7,80.7,53.8c4.8,5.4,7.1,10.7,7.1,15.9C87.7,76.2,84.5,81.9,78.8,85.8z"/><path fill="#0a3960" d="M97.3,69.6c0-0.9,0-1.8-0.1-2.7c-0.6-6.3-3.8-12.4-9.8-19c0,0,0,0,0,0c-4-4.4-21-20.7-21.7-21.4
		c-0.9-0.9-2.4-0.9-3.3,0c-0.7,0.7-17.7,17-21.7,21.4c-6.9,7.6-10,14.4-10,21.7c0.1,8.8,4.6,16.5,12.6,21.7c5.8,3.8,13.4,6,20.7,6
		c1.5,0,3-0.1,4.5-0.3c5.8-0.7,11.6-2.7,16.2-5.7C92.8,86.1,97.2,78.4,97.3,69.6z M82.1,87.3C77,90.7,70.4,92.6,64,92.6
		s-13-1.9-18.1-5.2C39.2,83,35.5,76.7,35.4,69.6c-0.1-6,2.7-11.8,8.7-18.4c3.2-3.5,15.4-15.3,19.9-19.6c4.5,4.3,16.7,16.1,19.9,19.6
		c6,6.6,8.8,12.5,8.7,18.4c0,0.9-0.1,1.8-0.2,2.6C91.5,78.3,88,83.6,82.1,87.3z"/><path fill="#d47cff" d="M77.2,57c-1.8-2-7.9-8.2-11.7-12c-0.5-0.5-1-1-1.5-1.5C60.6,47,52.9,54.6,50.8,57c-4.1,4.6-5.9,8.6-5.9,12.7
		c0.1,6.2,3.8,10,6.9,12.2c3.4,2.3,7.8,3.6,12.1,3.6c4.3,0,8.7-1.3,12.1-3.6c3.1-2.1,6.8-5.9,6.9-12.1C83.1,65.6,81.2,61.5,77.2,57
		C77.2,57,77.2,57,77.2,57z M78.3,69.8c0,3.6-1.5,6.9-4.2,9.4c-0.4,0.4-0.8,0.7-1.2,1C70.4,82,67.2,83,64.1,83c-0.1,0-0.2,0-0.2,0
		c-3,0-6.2-1-8.7-2.9c-3.5-2.5-5.4-6.2-5.4-10.4c0-3.4,1.3-6.7,4.1-10.1c1.6-1.9,8.1-8.9,8.4-9.2c0.9-1,2.6-1,3.5,0
		c0.3,0.3,6.9,7.3,8.4,9.2C77,63.1,78.3,66.4,78.3,69.8z"/><path fill="#0a3960" d="M65.7,38.5c-0.9-0.9-2.4-0.9-3.4,0C61.8,39,50,50.7,47.3,53.8c-4.8,5.4-7.1,10.7-7.1,15.9
		c0.1,6.5,3.3,12.2,9,16c4.2,2.8,9.6,4.4,14.8,4.4c0.7,0,1.3,0,2-0.1c0.8-0.1,1.6-0.2,2.4-0.3c3.1-0.5,6.1-1.5,8.8-3
		c0.6-0.3,1.1-0.6,1.6-1c5.7-3.9,9-9.6,9-16c0.1-5.3-2.2-10.5-7.1-15.9C78,50.7,66.2,39,65.7,38.5z M76.1,81.8
		c-3.4,2.3-7.8,3.6-12.1,3.6c-4.3,0-8.7-1.3-12.1-3.6c-3.1-2.1-6.9-5.9-6.9-12.2c-0.1-4.1,1.8-8.1,5.9-12.7
		c2.1-2.3,9.7-10,13.2-13.4c0.4,0.4,0.9,0.9,1.5,1.5c3.8,3.8,9.9,9.9,11.7,12c0,0,0,0,0,0c4.1,4.6,5.9,8.6,5.9,12.7
		C83,75.9,79.2,79.7,76.1,81.8z"/><path fill="#d47cff" d="M64,55.6c-2.4,2.6-5.5,6-6.5,7.1c-2.1,2.6-3.1,4.8-3.1,7.1c0,3.3,1.9,5.4,3.4,6.5c1.7,1.3,4,2,6.1,1.9
		c2.2,0,4.4-0.7,6.1-1.9c1.6-1.1,3.4-3.2,3.4-6.5c0,0,0,0,0,0c0-2.3-1-4.5-3.1-7.1C69.5,61.6,66.4,58.2,64,55.6z"/><path fill="#0a3960" d="M65.7,50.5c-0.9-1-2.6-1-3.5,0c-0.3,0.3-6.9,7.3-8.4,9.2c-2.8,3.4-4.2,6.7-4.1,10.1c0,4.2,1.9,7.8,5.4,10.4
		c2.5,1.8,5.7,2.9,8.7,2.9c0.1,0,0.2,0,0.2,0c3.1,0,6.3-1,8.8-2.9c0.4-0.3,0.8-0.6,1.2-1c2.7-2.5,4.2-5.7,4.2-9.4
		c0-3.4-1.3-6.7-4.1-10.1C72.6,57.8,66,50.8,65.7,50.5z M73.5,69.8c0,3.3-1.9,5.4-3.4,6.5c-1.7,1.3-3.9,2-6.1,1.9
		c-2.1,0-4.3-0.7-6.1-1.9c-1.6-1.1-3.4-3.2-3.4-6.5c0-2.3,1-4.5,3.1-7.1c0.9-1.1,4-4.5,6.5-7.1c2.4,2.6,5.5,6,6.5,7.1
		C72.6,65.3,73.5,67.5,73.5,69.8C73.5,69.8,73.5,69.8,73.5,69.8z"/></svg>