<svg xmlns="http://www.w3.org/2000/svg" id="Outlined_1_" enable-background="new 0 0 128 128" viewBox="0 0 128 128"><path fill="#f8bdaa" d="M90.5,26.9l-3.3,3.3c0.5,0.5,0.9,1.1,1.3,1.6c0.1,0.1,0.2,0.3,0.3,0.4c0.3,0.4,0.7,0.9,1,1.3
		c0.1,0.2,0.2,0.3,0.3,0.5c0.4,0.6,0.8,1.2,1.2,1.9c1.1,1.8,1.4,3.9,0.7,5.9c0,0,0,0.1,0,0.1c0,0,0.1,0,0.1,0
		c1.9,0.9,3.3,2.6,3.8,4.6c1.8,6.8,1.8,14,0,20.8c-0.1,0.3-0.1,0.5-0.2,0.7c-0.7,1.7-1.9,3.1-3.5,3.9c0,0-0.1,0-0.1,0
		c0,0,0,0.1,0,0.1c0.6,1.7,0.4,3.6-0.4,5.3c0,0.1-0.1,0.1-0.1,0.2c-0.1,0.2-0.2,0.3-0.3,0.5c0,0,0,0,0,0c0,0,0,0,0,0
		c-1.2,1.9-2.5,3.8-4.1,5.6c-0.6,0.7-1.2,1.3-1.8,1.9c-2.3,2.3-4.8,4.2-7.5,5.9c-0.3,0.2-0.5,0.3-0.8,0.4c-0.1,0-0.2,0.1-0.3,0.1
		c-0.2,0.1-0.4,0.1-0.6,0.2c-0.1,0-0.2,0.1-0.3,0.1c-0.2,0.1-0.4,0.1-0.6,0.1c-0.1,0-0.2,0-0.3,0c-0.3,0-0.6,0.1-0.9,0.1
		c0,0,0,0-0.1,0c-0.1,0-0.1,0-0.2,0c-0.3,0-0.5,0-0.8-0.1c-0.1,0-0.2,0-0.3,0c-0.3-0.1-0.6-0.1-1-0.2c0,0-0.1,0-0.1,0
		c0,0,0,0.1,0,0.1c-0.9,1.9-2.6,3.2-4.6,3.8c-0.4,0.1-0.8,0.2-1.1,0.3c-3,0.7-6.2,1.1-9.3,1.1c-3.5,0-7-0.4-10.4-1.3
		c-2-0.6-3.7-1.9-4.6-3.8c0,0,0,0,0-0.1c0,0-0.1,0-0.1,0c-0.3,0.1-0.6,0.2-1,0.2c-0.1,0-0.2,0-0.2,0c-0.3,0-0.6,0.1-0.8,0.1
		c0,0-0.1,0-0.1,0c0,0,0,0,0,0c-0.3,0-0.6,0-0.9-0.1c-0.1,0-0.1,0-0.2,0c-0.2,0-0.5-0.1-0.7-0.1c-0.1,0-0.2-0.1-0.3-0.1
		c-0.2-0.1-0.4-0.1-0.6-0.2c-0.1,0-0.2-0.1-0.3-0.1c-0.3-0.1-0.5-0.3-0.8-0.4c-0.6-0.4-1.2-0.8-1.8-1.2c-0.2-0.1-0.3-0.2-0.5-0.3
		c-0.5-0.3-0.9-0.6-1.3-1c-0.2-0.1-0.3-0.2-0.5-0.3c-0.5-0.4-1.1-0.9-1.6-1.3l-3.3,3.3c8.3,7.5,18.9,11.6,30.1,11.6
		c12,0,23.3-4.7,31.8-13.2c0,0,0,0,0,0c8.5-8.5,13.2-19.8,13.2-31.8C102.1,45.8,98,35.2,90.5,26.9z"/><path fill="#0a3960" d="M92.3,21.8c-0.4-0.4-1.1-0.7-1.7-0.7h0c-0.6,0-1.2,0.3-1.7,0.7l-6.7,6.7l0,0L61.1,49.7l-0.7,0.6c0,0,0,0,0,0
		c0,0,0,0,0,0l-10,10c0,0,0,0,0,0c0,0,0,0,0,0l-0.6,0.6l0,0L28.6,82.2c0,0,0,0,0,0l-6.7,6.7c-0.4,0.4-0.7,1.1-0.7,1.7
		c0,0.6,0.2,1.2,0.7,1.7c9.4,9.4,21.9,14.6,35.2,14.6s25.8-5.2,35.2-14.6c9.4-9.4,14.6-21.9,14.6-35.2
		C106.9,43.7,101.7,31.2,92.3,21.8z M88.9,88.9c-8.5,8.5-19.8,13.2-31.8,13.2c-11.2,0-21.8-4.1-30.1-11.6l3.3-3.3
		c0.5,0.5,1.1,0.9,1.6,1.3c0.1,0.1,0.3,0.2,0.5,0.3c0.4,0.3,0.9,0.7,1.3,1c0.2,0.1,0.3,0.2,0.5,0.3c0.6,0.4,1.2,0.8,1.8,1.2
		c0.3,0.2,0.5,0.3,0.8,0.4c0.1,0,0.2,0.1,0.3,0.1c0.2,0.1,0.4,0.2,0.6,0.2c0.1,0,0.2,0.1,0.3,0.1c0.2,0.1,0.5,0.1,0.7,0.1
		c0.1,0,0.1,0,0.2,0c0.3,0,0.6,0.1,0.9,0.1c0,0,0,0,0,0c0,0,0.1,0,0.1,0c0.3,0,0.6,0,0.8-0.1c0.1,0,0.2,0,0.2,0
		c0.3-0.1,0.6-0.1,1-0.2c0,0,0.1,0,0.1,0c0,0,0,0,0,0.1c0.9,1.9,2.6,3.3,4.6,3.8c3.4,0.9,6.9,1.3,10.4,1.3c3.1,0,6.2-0.4,9.3-1.1
		c0.4-0.1,0.8-0.2,1.1-0.3c2-0.5,3.7-1.9,4.6-3.8c0,0,0-0.1,0-0.1c0,0,0.1,0,0.1,0c0.3,0.1,0.6,0.2,1,0.2c0.1,0,0.2,0,0.3,0
		c0.3,0,0.5,0.1,0.8,0.1c0.1,0,0.1,0,0.2,0c0,0,0,0,0.1,0c0.3,0,0.6,0,0.9-0.1c0.1,0,0.2,0,0.3,0c0.2,0,0.4-0.1,0.6-0.1
		c0.1,0,0.2-0.1,0.3-0.1c0.2-0.1,0.4-0.1,0.6-0.2c0.1,0,0.2-0.1,0.3-0.1c0.3-0.1,0.5-0.3,0.8-0.4c2.7-1.6,5.2-3.6,7.5-5.9
		c0.6-0.6,1.2-1.3,1.8-1.9c1.5-1.7,2.9-3.6,4.1-5.6c0,0,0,0,0,0c0,0,0,0,0,0c0.1-0.2,0.2-0.3,0.3-0.5c0-0.1,0.1-0.1,0.1-0.2
		c0.8-1.6,0.9-3.5,0.4-5.3c0,0,0-0.1,0-0.1c0,0,0.1,0,0.1,0c1.6-0.8,2.9-2.2,3.5-3.9c0.1-0.2,0.2-0.5,0.2-0.7c1.8-6.8,1.8-14,0-20.8
		c-0.5-2-1.9-3.7-3.8-4.6c0,0-0.1,0-0.1,0c0,0,0-0.1,0-0.1c0.6-2,0.4-4.1-0.7-5.9c-0.4-0.6-0.8-1.3-1.2-1.9
		c-0.1-0.2-0.2-0.3-0.3-0.5c-0.3-0.5-0.7-0.9-1-1.3c-0.1-0.1-0.2-0.3-0.3-0.4c-0.4-0.5-0.9-1.1-1.3-1.6l3.3-3.3
		c7.5,8.3,11.6,18.9,11.6,30.1C102.1,69.1,97.4,80.4,88.9,88.9C88.9,88.9,88.9,88.9,88.9,88.9z M61.6,55.8c0.1,0.4,0.2,0.8,0.2,1.2
		c0,1.3-0.5,2.4-1.4,3.3c0,0,0,0,0,0c-0.9,0.9-2.1,1.4-3.3,1.4c0,0,0,0,0,0c-0.4,0-0.8-0.1-1.2-0.2L61.6,55.8z M67.5,50l16.3-16.3
		c1.3,1.5,2.5,3.1,3.5,4.8c0.4,0.6,0.5,1.3,0.2,2c-0.2,0.7-0.7,1.2-1.3,1.4c0,0,0,0,0,0L67.5,50z M91.4,66.2
		c-0.2,0.7-0.6,1.2-1.3,1.5c-0.6,0.3-1.3,0.3-2,0l-19.3-8.3l0,0c-0.1,0-0.1-0.1-0.2-0.1l-0.5-0.2c-1.3-0.6-1.4-1.8-1.4-2.2
		c0-0.4,0.1-1.6,1.5-2.2l0.4-0.2c0.1,0,0.3-0.1,0.4-0.1l19.2-8.2c0,0,0,0,0,0c0.6-0.3,1.3-0.3,2,0c0.6,0.3,1.1,0.9,1.3,1.5
		C93,53.9,93,60.2,91.4,66.2z M72.2,86.3L64,67.2c0-0.1,0-0.1-0.1-0.2c-0.5-1.3,0.3-2.3,0.5-2.5c0.3-0.3,1.2-1.1,2.5-0.5
		c0.1,0,0.1,0.1,0.2,0.1l19.1,8.2c0.6,0.3,1.1,0.8,1.3,1.4c0.2,0.7,0.1,1.4-0.2,2c0,0,0,0,0,0c-1.4,2.4-3.1,4.6-5.1,6.6
		c-2,2-4.2,3.7-6.6,5.2c-0.6,0.4-1.3,0.5-2,0.2C72.9,87.4,72.4,86.9,72.2,86.3z M67.7,90.1c-0.3,0.6-0.8,1.1-1.5,1.3
		c-6,1.6-12.3,1.6-18.3,0c-0.7-0.2-1.2-0.6-1.5-1.3c-0.3-0.6-0.3-1.3,0-2l8.3-19.4l0.3-0.6c0.6-1.3,1.8-1.4,2.2-1.4s1.6,0.1,2.2,1.5
		l0.2,0.5c0,0.1,0,0.1,0.1,0.2l0,0l8.3,19.3C68.1,88.8,68,89.5,67.7,90.1z M42.6,84.7l-0.7,1.5c0,0,0,0,0,0
		c-0.3,0.6-0.8,1.1-1.4,1.3c-0.7,0.2-1.4,0.1-2-0.3c-1.8-1.1-3.4-2.3-4.8-3.5L50,67.5L42.6,84.7z"/><path fill="#f27c56" d="M33.7 83.8c1.5 1.3 3.1 2.5 4.8 3.5.6.4 1.3.5 2 .3.7-.2 1.2-.7 1.4-1.3 0 0 0 0 0 0l.7-1.5L50 67.5 33.7 83.8zM90.1 46.4c-.6-.3-1.3-.3-2 0 0 0 0 0 0 0L69 54.5c-.1.1-.2.1-.4.1l-.4.2c-1.3.6-1.5 1.8-1.5 2.2 0 .4.1 1.6 1.4 2.2l.5.2c.1 0 .1 0 .2.1l0 0 19.3 8.3c.6.3 1.3.3 2 0 .6-.3 1.1-.8 1.3-1.5 1.6-6 1.6-12.3 0-18.3C91.2 47.2 90.7 46.7 90.1 46.4zM67.8 88.1l-8.3-19.3 0 0c0-.1-.1-.1-.1-.2l-.2-.5c-.6-1.4-1.8-1.5-2.2-1.5s-1.6.1-2.2 1.4l-.3.6-8.3 19.4c-.3.6-.3 1.3 0 2 .3.6.9 1.1 1.5 1.3 6 1.6 12.3 1.6 18.3 0 .7-.2 1.2-.6 1.5-1.3C68 89.5 68.1 88.8 67.8 88.1zM86.3 41.9c.6-.3 1.1-.8 1.3-1.4.2-.7.1-1.4-.2-2-1.1-1.8-2.3-3.4-3.5-4.8L67.5 50 86.3 41.9C86.3 41.9 86.3 41.9 86.3 41.9zM75.6 87.3c2.4-1.4 4.6-3.2 6.6-5.2 2-2 3.7-4.2 5.1-6.6 0 0 0 0 0 0 .4-.6.5-1.3.2-2-.2-.7-.7-1.2-1.3-1.4L67.2 64c-.1 0-.1 0-.2-.1-1.3-.5-2.3.3-2.5.5-.3.3-1.1 1.2-.5 2.5 0 .1.1.1.1.2l8.2 19.1c.3.6.8 1.1 1.4 1.3C74.3 87.8 75 87.7 75.6 87.3z"/><path fill="#f8bdaa" d="M57.1,61.8C57.1,61.8,57.1,61.8,57.1,61.8c1.3,0,2.4-0.5,3.3-1.4c0,0,0,0,0,0c0.9-0.9,1.4-2.1,1.4-3.3
		c0-0.4-0.1-0.8-0.2-1.2l-5.8,5.8C56.2,61.7,56.6,61.8,57.1,61.8z"/></svg>