<svg xmlns="http://www.w3.org/2000/svg" id="Outlined_1_" enable-background="new 0 0 128 128" viewBox="0 0 128 128"><path fill="#f8bdaa" d="M64,18.8c-24.9,0-45.2,20.3-45.2,45.2s20.3,45.2,45.2,45.2s45.2-20.3,45.2-45.2S88.9,18.8,64,18.8z M99.6,78.2
		C99.6,78.2,99.6,78.2,99.6,78.2c-0.1,0.1-0.1,0.1-0.1,0.1c0.7,2,0.5,4.1-0.6,5.9c0,0,0,0,0,0c-3.5,6.1-8.6,11.2-14.7,14.7
		c-0.3,0.1-0.5,0.3-0.8,0.4c-0.1,0-0.2,0.1-0.3,0.1c-0.2,0.1-0.4,0.1-0.6,0.2c-0.1,0-0.2,0.1-0.3,0.1c-0.2,0-0.4,0.1-0.5,0.1
		c-0.1,0-0.2,0-0.3,0c-0.2,0-0.4,0-0.6,0c-0.1,0-0.1,0-0.2,0c0,0,0,0,0,0c-0.3,0-0.7,0-1-0.1c-0.1,0-0.2,0-0.3,0
		c-0.3-0.1-0.7-0.1-1-0.3c0,0-0.1,0-0.1,0c0,0,0,0.1,0,0.1c-1,1.9-2.7,3.2-4.7,3.7c0,0,0,0,0,0c-2.3,0.6-4.6,0.9-6.9,1.1
		c-0.9,0.1-1.7,0.1-2.6,0.1c-3.2,0-6.3-0.4-9.5-1.1c-2-0.5-3.8-1.8-4.7-3.7c0,0,0-0.1,0-0.1c0,0-0.1,0-0.1,0c-0.3,0.1-0.7,0.2-1,0.3
		c-0.1,0-0.2,0-0.3,0c-0.3,0.1-0.7,0.1-1,0.1c0,0,0,0,0,0c-0.1,0-0.2,0-0.2,0c-0.2,0-0.4,0-0.6,0c-0.1,0-0.2,0-0.3,0
		c-0.2,0-0.4-0.1-0.5-0.1c-0.1,0-0.2-0.1-0.3-0.1c-0.2-0.1-0.4-0.1-0.6-0.2c-0.1,0-0.2-0.1-0.3-0.1c-0.3-0.1-0.5-0.2-0.8-0.4
		c-6.1-3.5-11.2-8.6-14.8-14.7c-1-1.8-1.2-4-0.6-5.9c0,0,0-0.1,0-0.1c0,0-0.1,0-0.1,0c-1.9-1-3.2-2.7-3.7-4.7
		c-0.8-3.1-1.1-6.3-1.1-9.5s0.4-6.3,1.1-9.5c0.5-2,1.8-3.8,3.7-4.7c0,0,0.1,0,0.1,0c0,0,0-0.1,0-0.1c-0.7-2-0.5-4.1,0.6-5.9
		c3.5-6.1,8.6-11.2,14.7-14.8c1.8-1,4-1.2,5.9-0.6c0,0,0.1,0,0.1,0c0,0,0-0.1,0-0.1c1-1.9,2.7-3.2,4.7-3.7c6.3-1.5,12.7-1.5,18.9,0
		c2,0.5,3.8,1.8,4.7,3.7c0,0,0,0.1,0,0.1c0,0,0.1,0,0.1,0c2-0.7,4.1-0.5,5.9,0.6c6.1,3.5,11.2,8.6,14.8,14.7c1,1.8,1.2,4,0.6,5.9
		c0,0,0,0.1,0,0.1c0,0,0.1,0,0.1,0c1.9,1,3.2,2.7,3.7,4.7c0.8,3.1,1.1,6.3,1.1,9.5s-0.4,6.3-1.1,9.5
		C102.8,75.5,101.5,77.2,99.6,78.2z"/><path fill="#0a3960" d="M64,14c-27.6,0-50,22.4-50,50s22.4,50,50,50s50-22.4,50-50S91.6,14,64,14z M64,109.2
		c-24.9,0-45.2-20.3-45.2-45.2S39.1,18.8,64,18.8s45.2,20.3,45.2,45.2S88.9,109.2,64,109.2z"/><path fill="#f27c56" d="M30.5 73.9c.6.3 1.3.3 2 .1l0 0c0 0 0 0 0 0l.1 0 19.5-7.8c1.3-.6 1.4-1.8 1.4-2.2 0-.4-.1-1.6-1.4-2.2L32.5 54c-.3-.1-.6-.2-.9-.2-.4 0-.7.1-1.1.3-.6.3-1.1.9-1.3 1.6-.7 2.8-1 5.6-1 8.3s.3 5.6 1 8.3C29.5 73 29.9 73.6 30.5 73.9zM54 32.5l7.9 19.7c.5 1.3 1.8 1.4 2.1 1.4.4 0 1.6-.1 2.2-1.4L74 32.5c0 0 0 0 0 0 .3-.6.2-1.3-.1-2-.3-.6-.9-1.1-1.6-1.3-2.8-.7-5.6-1-8.3-1s-5.6.3-8.3 1c-.7.2-1.3.6-1.6 1.3C53.7 31.2 53.7 31.9 54 32.5zM33.1 46.1c-.4.6-.4 1.3-.2 2 .2.7.7 1.2 1.4 1.4l20.3 8.1c0 0 0 0 0 0 1.4.5 2.3-.3 2.6-.5.3-.3 1.1-1.2.5-2.6l-.2-.6-7.9-19.6c-.3-.7-.8-1.1-1.4-1.4-.3-.1-.5-.1-.8-.1-.4 0-.8.1-1.2.3C40.7 36.2 36.2 40.7 33.1 46.1zM78.4 34.3l-8.1 20.3c-.5 1.4.3 2.3.5 2.6.3.3 1.2 1.1 2.6.5l.4-.2c.1-.1.2-.1.4-.2l0 0 19.5-7.8c0 0 0 0 0 0 .6-.3 1.1-.8 1.4-1.4.2-.7.2-1.4-.2-2-3.1-5.4-7.6-9.9-13-13-.4-.2-.8-.3-1.2-.3-.3 0-.5 0-.8.1C79.2 33.2 78.7 33.6 78.4 34.3zM95.1 79.9c-.2-.7-.7-1.2-1.4-1.4l-19.6-7.8c-.1 0-.2-.1-.3-.1l-.4-.2c-1.4-.5-2.3.3-2.6.5-.3.3-1.1 1.2-.5 2.6l.2.4c0 .1.1.1.1.2 0 0 0 .1 0 .1l7.8 19.5c.3.6.8 1.1 1.4 1.4.7.2 1.4.2 2-.2 5.4-3.1 9.9-7.6 13-13C95.2 81.3 95.3 80.6 95.1 79.9zM46.1 94.9c.6.3 1.3.4 2 .2.7-.2 1.2-.7 1.4-1.4 0 0 0 0 0 0l7.8-19.5c0 0 0-.1 0-.1 0-.1.1-.1.1-.2l.2-.4c0 0 0 0 0 0 .5-1.3-.3-2.3-.5-2.6-.2-.2-.8-.7-1.7-.7-.3 0-.6.1-.9.2l-.6.2-19.6 7.9c-.7.3-1.1.8-1.4 1.4-.2.7-.2 1.4.2 2C36.2 87.3 40.7 91.8 46.1 94.9zM97.5 54.1c-.6-.3-1.3-.3-2-.1l-19.4 7.7c-.1 0-.2.1-.2.1-1.3.6-1.4 1.8-1.4 2.2 0 .4.1 1.6 1.4 2.2.1 0 .2.1.3.1L95.5 74c.7.3 1.4.2 2-.1.6-.3 1.1-.9 1.3-1.6.7-2.8 1-5.6 1-8.3s-.3-5.6-1-8.3C98.5 55 98.1 54.4 97.5 54.1z"/><path fill="#0a3960" d="M103.3,54.5c-0.5-2-1.8-3.8-3.7-4.7c0,0-0.1,0-0.1,0c0,0,0-0.1,0-0.1c0.7-2,0.5-4.1-0.6-5.9
		c-3.5-6.1-8.6-11.2-14.8-14.7c-1.8-1-4-1.2-5.9-0.6c0,0-0.1,0-0.1,0c0,0,0-0.1,0-0.1c-1-1.9-2.7-3.2-4.7-3.7
		c-6.3-1.5-12.7-1.5-18.9,0c-2,0.5-3.8,1.8-4.7,3.7c0,0,0,0.1,0,0.1c0,0-0.1,0-0.1,0c-2-0.7-4.1-0.5-5.9,0.6
		c-6.1,3.5-11.2,8.6-14.7,14.8c-1,1.8-1.2,4-0.6,5.9c0,0,0,0.1,0,0.1c0,0-0.1,0-0.1,0c-1.9,1-3.2,2.7-3.7,4.7
		c-0.8,3.1-1.1,6.3-1.1,9.5s0.4,6.3,1.1,9.5c0.5,2,1.8,3.8,3.7,4.7c0,0,0.1,0,0.1,0c0,0,0,0.1,0,0.1c-0.7,2-0.5,4.1,0.6,5.9
		c3.5,6.1,8.6,11.2,14.8,14.7c0.3,0.1,0.5,0.3,0.8,0.4c0.1,0,0.2,0.1,0.3,0.1c0.2,0.1,0.4,0.1,0.6,0.2c0.1,0,0.2,0.1,0.3,0.1
		c0.2,0,0.4,0.1,0.5,0.1c0.1,0,0.2,0,0.3,0c0.2,0,0.4,0,0.6,0c0.1,0,0.2,0,0.2,0c0,0,0,0,0,0c0.3,0,0.7,0,1-0.1c0.1,0,0.2,0,0.3,0
		c0.3-0.1,0.7-0.1,1-0.3c0,0,0.1,0,0.1,0c0,0,0,0.1,0,0.1c1,1.9,2.7,3.2,4.7,3.7c3.1,0.8,6.3,1.1,9.5,1.1c0.8,0,1.7,0,2.6-0.1
		c2.3-0.1,4.6-0.5,6.9-1.1c0,0,0,0,0,0c2-0.5,3.8-1.8,4.7-3.7c0,0,0-0.1,0-0.1c0,0,0.1,0,0.1,0c0.3,0.1,0.7,0.2,1,0.3
		c0.1,0,0.2,0,0.3,0c0.3,0.1,0.7,0.1,1,0.1c0,0,0,0,0,0c0.1,0,0.1,0,0.2,0c0.2,0,0.4,0,0.6,0c0.1,0,0.2,0,0.3,0
		c0.2,0,0.4-0.1,0.5-0.1c0.1,0,0.2-0.1,0.3-0.1c0.2-0.1,0.4-0.1,0.6-0.2c0.1,0,0.2-0.1,0.3-0.1c0.3-0.1,0.5-0.2,0.8-0.4
		c6.1-3.5,11.2-8.6,14.7-14.7c0,0,0,0,0,0c1-1.8,1.2-4,0.6-5.9c0,0,0-0.1,0-0.1c0,0,0.1,0,0.1,0c1.9-1,3.2-2.7,3.7-4.7
		c0.8-3.1,1.1-6.3,1.1-9.5S104.1,57.7,103.3,54.5z M73.9,97.5c-0.3,0.6-0.9,1.1-1.6,1.3c-5.5,1.3-11.2,1.3-16.7,0
		c-0.7-0.2-1.3-0.6-1.6-1.3c-0.3-0.6-0.4-1.3-0.1-2l7.7-19.4c0-0.1,0.1-0.2,0.1-0.2c0.6-1.3,1.8-1.4,2.2-1.4s1.6,0.1,2.2,1.4
		c0,0.1,0.1,0.2,0.1,0.2L74,95.5C74.3,96.1,74.3,96.8,73.9,97.5z M47.3,32.8c0.3,0,0.5,0,0.8,0.1c0.7,0.2,1.2,0.7,1.4,1.4l7.9,19.6
		l0.2,0.6c0.5,1.3-0.3,2.3-0.5,2.6c-0.3,0.3-1.2,1.1-2.6,0.5c0,0,0,0,0,0l-20.3-8.1c-0.6-0.3-1.1-0.8-1.4-1.4
		c-0.2-0.7-0.2-1.4,0.2-2c3.1-5.4,7.6-9.9,13-13C46.5,32.9,46.9,32.8,47.3,32.8z M54.1,30.5c0.3-0.6,0.9-1.1,1.6-1.3
		c2.8-0.7,5.6-1,8.3-1s5.6,0.3,8.3,1c0.7,0.2,1.3,0.6,1.6,1.3c0.3,0.6,0.4,1.3,0.1,2c0,0,0,0,0,0l-7.9,19.6
		c-0.6,1.3-1.8,1.4-2.2,1.4c-0.4,0-1.6-0.1-2.1-1.4L54,32.5C53.7,31.9,53.7,31.2,54.1,30.5z M80.7,32.8c0.4,0,0.8,0.1,1.2,0.3
		c5.4,3.1,9.9,7.6,13,13c0.4,0.6,0.4,1.3,0.2,2c-0.2,0.7-0.7,1.2-1.4,1.4c0,0,0,0,0,0l-19.5,7.8l0,0c-0.1,0-0.3,0.1-0.4,0.2
		l-0.4,0.2c-1.4,0.5-2.3-0.3-2.6-0.5c-0.3-0.3-1.1-1.2-0.5-2.6l8.1-20.3c0.3-0.6,0.8-1.1,1.4-1.4C80.1,32.8,80.4,32.8,80.7,32.8z
		 M94.9,81.9c-3.1,5.4-7.6,9.9-13,13c-0.6,0.4-1.3,0.4-2,0.2c-0.7-0.2-1.2-0.7-1.4-1.4l-7.8-19.5c0,0,0-0.1,0-0.1
		c0-0.1-0.1-0.2-0.1-0.2l-0.2-0.4c-0.5-1.3,0.3-2.3,0.5-2.6c0.3-0.3,1.2-1.1,2.6-0.5l0.4,0.2c0.1,0,0.2,0.1,0.3,0.1l19.6,7.8
		c0.6,0.3,1.1,0.8,1.4,1.4C95.3,80.6,95.2,81.3,94.9,81.9z M64,59.2c2.6,0,4.8,2.1,4.8,4.8s-2.1,4.8-4.8,4.8s-4.8-2.1-4.8-4.8
		S61.4,59.2,64,59.2z M29.3,55.7c0.2-0.7,0.6-1.3,1.3-1.6c0.3-0.2,0.7-0.3,1.1-0.3c0.3,0,0.6,0.1,0.9,0.2l19.6,7.9
		c1.3,0.6,1.4,1.8,1.4,2.2c0,0.4-0.1,1.6-1.4,2.2L32.6,74l-0.1,0c0,0,0,0,0,0l0,0c-0.6,0.3-1.3,0.2-2-0.1c-0.6-0.3-1.1-0.9-1.3-1.6
		c-0.7-2.8-1-5.6-1-8.3S28.6,58.4,29.3,55.7z M32.9,79.9c0.2-0.7,0.7-1.2,1.4-1.4l19.6-7.9l0.6-0.2c0.3-0.1,0.6-0.2,0.9-0.2
		c0.9,0,1.5,0.5,1.7,0.7c0.3,0.3,1.1,1.2,0.5,2.6c0,0,0,0,0,0l-0.2,0.4c0,0.1-0.1,0.1-0.1,0.2c0,0,0,0.1,0,0.1l-7.8,19.5
		c0,0,0,0,0,0c-0.3,0.6-0.8,1.1-1.4,1.4c-0.7,0.2-1.4,0.2-2-0.2c-5.4-3.1-9.9-7.6-13-13C32.8,81.3,32.7,80.6,32.9,79.9z M98.7,72.3
		c-0.2,0.7-0.6,1.3-1.3,1.6c-0.6,0.3-1.3,0.3-2,0.1l-19.3-7.7c-0.1-0.1-0.2-0.1-0.3-0.1c-1.3-0.6-1.4-1.8-1.4-2.2
		c0-0.4,0.1-1.6,1.4-2.2c0.1,0,0.2-0.1,0.2-0.1L95.5,54c0.6-0.3,1.3-0.2,2,0.1c0.6,0.3,1.1,0.9,1.3,1.6c0.7,2.8,1,5.6,1,8.3
		S99.4,69.6,98.7,72.3z"/><path fill="#f27c56" d="M74,95.5l-7.7-19.4c0-0.1-0.1-0.2-0.1-0.2c-0.6-1.3-1.8-1.4-2.2-1.4s-1.6,0.1-2.2,1.4c0,0.1-0.1,0.2-0.1,0.2
		L54,95.5c-0.3,0.7-0.2,1.4,0.1,2c0.3,0.6,0.9,1.1,1.6,1.3c5.5,1.3,11.2,1.3,16.7,0c0.7-0.2,1.3-0.6,1.6-1.3
		C74.3,96.8,74.3,96.1,74,95.5z"/><circle cx="64" cy="64" r="4.8" fill="#f8bdaa"/></svg>