<svg xmlns="http://www.w3.org/2000/svg" id="Outlined_1_" enable-background="new 0 0 128 128" viewBox="0 0 128 128"><path fill="#f27c56" d="M66.2,42.7c0.4,3,0.5,6,0.4,9.1c1-0.3,2.1-0.7,3-1.4c1-0.9,2.5-0.8,3.4,0.2c0.9,1,0.8,2.5-0.2,3.4
		c-3.2,2.8-7.8,3-8.7,3c0,0,0,0,0,0s0,0,0,0c0,0,0,0,0,0c-5.1,0-8.2-2.5-8.7-3c-1-0.9-1.1-2.4-0.2-3.4c0.9-1,2.4-1.1,3.4-0.2
		c0.1,0.1,1.2,1.1,3.4,1.5c0.2-3.1,0-6.2-0.4-9.2C44.3,44,30.7,58.5,30.7,75.9c0,18.4,15,33.3,33.3,33.3s33.3-15,33.3-33.3
		C97.3,58.3,83.5,43.8,66.2,42.7z M40.3,84.2c-4.6,0-4.6-7.1,0-7.1C44.9,77.1,44.9,84.2,40.3,84.2z M45,72.3c-4.6,0-4.6-7.1,0-7.1
		C49.6,65.2,49.5,72.3,45,72.3z M52.1,81.9c-4.6,0-4.6-7.1,0-7.1C56.7,74.7,56.7,81.9,52.1,81.9z"/><path fill="#0a3960" d="M65.4,37.8c-0.4-1.9-0.9-3.8-1.5-5.7c1.7,0.5,3.9,0.9,6.3,0.9c2.1,0,4.4-0.3,6.6-1.3
		c7.6-3.2,10.8-12.3,10.9-12.7c0.4-1.1-0.1-2.4-1.2-2.9c-0.4-0.2-9.1-4.2-16.7-0.9c-4.5,1.9-7.4,5.9-9.1,8.9c-2.1-4.1-4.5-7.4-7-9.5
		c-1-0.9-2.5-0.7-3.4,0.3c-0.9,1-0.7,2.5,0.3,3.4c3.7,3.2,7.9,10.6,10,19.8c-19.4,1.7-34.7,18.2-34.7,37.9C25.9,96.9,43,114,64,114
		s38.1-17.1,38.1-38.1C102.1,55.4,85.8,38.6,65.4,37.8z M64,109.2c-18.4,0-33.3-15-33.3-33.3c0-17.4,13.6-31.9,30.8-33.2
		c0.4,3,0.6,6,0.4,9.2c-2.1-0.5-3.3-1.5-3.4-1.5c-1-0.9-2.5-0.8-3.4,0.2c-0.9,1-0.8,2.5,0.2,3.4c0.6,0.5,3.6,3,8.7,3c0,0,0,0,0,0
		c0,0,0,0,0,0s0,0,0,0c0.9,0,5.5-0.1,8.7-3c1-0.9,1.1-2.4,0.2-3.4c-0.9-1-2.4-1.1-3.4-0.2c-0.8,0.8-2,1.2-3,1.4
		c0.1-3.1,0-6.1-0.4-9.1c17.3,1.1,31.1,15.6,31.1,33.3C97.3,94.3,82.4,109.2,64,109.2z M82.2,19.7c-1.2,2.4-3.6,6.1-7.3,7.7
		c-3.7,1.6-8.1,0.7-10.6-0.1c1.2-2.4,3.6-6.1,7.3-7.7C75.3,18.1,79.7,18.9,82.2,19.7z"/><path fill="#0a3960" d="M40.3 77.1c-4.6 0-4.6 7.1 0 7.1C44.9 84.2 44.9 77.1 40.3 77.1zM45 65.2c-4.6 0-4.6 7.1 0 7.1C49.5 72.3 49.6 65.2 45 65.2zM52.1 74.7c-4.6 0-4.6 7.1 0 7.1C56.7 81.9 56.7 74.7 52.1 74.7z"/><path fill="#00bf4c" d="M64.3,27.3c2.6,0.8,6.9,1.7,10.6,0.1c3.7-1.6,6.1-5.3,7.3-7.7c-2.6-0.8-6.9-1.7-10.6-0.1
		C67.9,21.2,65.5,25,64.3,27.3z"/></svg>