<svg xmlns="http://www.w3.org/2000/svg" id="Outlined_1_" enable-background="new 0 0 128 128" viewBox="0 0 128 128"><path fill="#f27c56" d="M89,55.8c-2.6-3.7-4.7-7.7-6.1-11.9c-1.5-4.4-2.2-8.8-2.2-13.3c0-6.6-5.3-11.9-11.9-11.9h-9.5
		c-3.2,0-6.1,1.2-8.4,3.5c-2.2,2.3-3.5,5.3-3.5,8.4c0,8.7-2.9,17.4-8.3,25.1c-3.9,5.5-5.9,12.1-5.9,19c0,19,24.9,34.5,31,34.5
		s31-15.5,31-34.5C95,67.9,92.9,61.3,89,55.8z M65.5,101.6c-0.4,0.3-1,0.5-1.5,0.5s-1.1-0.2-1.5-0.5C61.8,101,45,87.3,45,70
		s16.8-31,17.6-31.6c0.9-0.7,2.1-0.7,3,0C66.2,38.9,83,52.6,83,70S66.2,101,65.5,101.6z"/><path fill="#0a3960" d="M92.9,53.1L92.9,53.1c-2.4-3.3-4.2-6.9-5.5-10.7c-1.3-3.8-2-7.8-2-11.7C85.4,21.5,78,14,68.8,14h-9.5
		c-4.4,0-8.6,1.7-11.8,4.9c-3.1,3.2-4.9,7.4-4.9,11.8c0,7.7-2.6,15.5-7.5,22.4c-4.5,6.3-6.8,13.8-6.8,21.7c0,21.6,27,39.2,35.7,39.2
		s35.7-17.7,35.7-39.2C99.7,66.9,97.4,59.4,92.9,53.1z M64,109.2c-6.1,0-31-15.5-31-34.5c0-6.9,2.1-13.5,5.9-19
		c5.5-7.7,8.3-16.4,8.3-25.1c0-3.2,1.2-6.1,3.5-8.4c2.3-2.3,5.3-3.5,8.4-3.5h9.5c6.6,0,11.9,5.3,11.9,11.9c0,4.4,0.7,8.9,2.2,13.3
		c1.4,4.2,3.5,8.2,6.1,11.9c3.9,5.5,5.9,12.1,5.9,19C95,93.8,70.1,109.2,64,109.2z"/><path fill="#f8bdaa" d="M78.3,70c0-12.3-10.4-23-14.3-26.6C60.1,47,49.7,57.7,49.7,70c0,12.3,10.4,23,14.3,26.6
		C67.9,92.9,78.3,82.2,78.3,70z M68.8,79.5c-4.6,0-4.6-7.1,0-7.1C73.4,72.3,73.4,79.5,68.8,79.5z M68.8,67.6c-4.6,0-4.6-7.1,0-7.1
		C73.4,60.4,73.4,67.6,68.8,67.6z M64,48.5c4.6,0,4.6,7.1,0,7.1C59.4,55.7,59.4,48.5,64,48.5z M59.2,60.4c4.6,0,4.6,7.1,0,7.1
		C54.6,67.6,54.6,60.4,59.2,60.4z M59.2,72.3c4.6,0,4.6,7.1,0,7.1C54.6,79.5,54.6,72.3,59.2,72.3z M64,84.2c4.6,0,4.6,7.1,0,7.1
		C59.4,91.4,59.4,84.2,64,84.2z"/><path fill="#0a3960" d="M65.5,38.3c-0.9-0.7-2.1-0.7-3,0C61.8,38.9,45,52.6,45,70s16.8,31,17.6,31.6c0.4,0.3,1,0.5,1.5,0.5
		s1.1-0.2,1.5-0.5C66.2,101,83,87.3,83,70S66.2,38.9,65.5,38.3z M49.7,70c0-12.3,10.4-23,14.3-26.6C67.9,47,78.3,57.7,78.3,70
		c0,12.3-10.4,23-14.3,26.6C60.1,92.9,49.7,82.3,49.7,70z"/><path fill="#0a3960" d="M68.8 72.3c-4.6 0-4.6 7.1 0 7.1C73.4 79.5 73.4 72.3 68.8 72.3zM59.2 72.3c-4.6 0-4.6 7.1 0 7.1C63.8 79.5 63.8 72.3 59.2 72.3zM64 55.7c4.6 0 4.6-7.1 0-7.1C59.4 48.5 59.4 55.7 64 55.7zM64 84.2c-4.6 0-4.6 7.1 0 7.1C68.6 91.4 68.6 84.2 64 84.2zM68.8 67.6c4.6 0 4.6-7.1 0-7.1C64.2 60.4 64.2 67.6 68.8 67.6zM59.2 67.6c4.6 0 4.6-7.1 0-7.1C54.6 60.4 54.6 67.6 59.2 67.6z"/></svg>