<svg xmlns="http://www.w3.org/2000/svg" id="Outlined_1_" enable-background="new 0 0 128 128" viewBox="0 0 128 128"><path fill="#c144ff" d="M68.5,40.6c10.1,14.5,8.8,36.1,1.9,50.7c-0.4,0.9-1.3,1.4-2.2,1.4c-0.3,0-0.7-0.1-1-0.2
		c-1.2-0.6-1.7-2-1.1-3.2C73,74.8,73.8,53,62.2,40.3C46,41.4,33,56.6,33,74.7c0,18.9,20.5,34.5,31,34.5s31-15.6,31-34.5
		C95,57.4,83.5,43,68.5,40.6z"/><path fill="#0a3960" d="M65,35.5c-0.3-0.9-0.5-1.8-0.8-2.7c1.1,0.2,2.4,0.3,3.6,0.3c2.1,0,4.4-0.3,6.6-1.3
		c7.6-3.2,10.8-12.3,10.9-12.7c0.4-1.1-0.1-2.4-1.2-2.9C83.7,16,75,12,67.4,15.3c-3.8,1.6-6.5,4.7-8.3,7.5c-1-1.3-2-2.5-3-3.4
		c-1-0.9-2.5-0.8-3.4,0.2c-0.9,1-0.8,2.5,0.2,3.4c1.5,1.3,2.9,3.2,4.2,5.6c0,0,0,0,0,0c0,0,0,0,0,0c0.3,0.5,0.6,1.1,0.8,1.6
		c0,0,0,0,0,0c0,0,0,0,0,0c0.8,1.7,1.5,3.5,2.1,5.4c-17.8,2.2-31.8,19-31.8,39C28.3,96,50.2,114,64,114s35.7-18,35.7-39.3
		C99.7,53.4,84.2,36,65,35.5z M64,109.2c-10.5,0-31-15.6-31-34.5C33,56.6,46,41.4,62.2,40.3C73.8,53,73,74.8,66.1,89.2
		c-0.6,1.2-0.1,2.6,1.1,3.2c0.3,0.2,0.7,0.2,1,0.2c0.9,0,1.7-0.5,2.2-1.4c7-14.6,8.2-36.2-1.9-50.7C83.5,43,95,57.4,95,74.7
		C95,93.6,74.5,109.2,64,109.2z M79.9,19.7c-1.2,2.4-3.6,6.1-7.3,7.7c-3.8,1.6-8.2,0.7-10.6-0.1c1.2-2.3,3.6-6.1,7.3-7.7
		C73,18.1,77.3,18.9,79.9,19.7z"/><path fill="#00bf4c" d="M61.9,27.3c2.4,0.7,6.9,1.7,10.6,0.1c3.7-1.6,6.1-5.3,7.3-7.7c-2.6-0.8-6.9-1.7-10.6-0.1
		C65.5,21.2,63.1,25,61.9,27.3z"/></svg>