<svg xmlns="http://www.w3.org/2000/svg" enable-background="new 0 0 128 128" viewBox="0 0 128 128"><path fill="#f27c56" d="M37.8,104.5c0.5,0,1.1,0,1.6-0.1c0,0,0,0,0,0c-0.4-0.4-0.9-0.8-1.3-1.3c0,0-0.1-0.1-0.1-0.1
		c-0.4-0.4-0.8-0.9-1.2-1.4c0,0-0.1-0.1-0.1-0.1c-0.8-1-1.5-2-2.2-3.1c0-0.1-0.1-0.1-0.1-0.2c-0.3-0.5-0.6-1.1-0.9-1.6
		c0-0.1-0.1-0.1-0.1-0.2c-0.6-1.2-1.1-2.4-1.6-3.6c0-0.1-0.1-0.1-0.1-0.2c-0.2-0.6-0.4-1.2-0.7-1.8c0-0.1-0.1-0.2-0.1-0.3
		c-0.2-0.6-0.4-1.2-0.6-1.9c0,0,0-0.1,0-0.1c-0.2-0.6-0.3-1.2-0.5-1.9c0-0.1,0-0.1-0.1-0.2c-0.1-0.6-0.3-1.3-0.4-1.9
		c0-0.1,0-0.2-0.1-0.4c-0.1-0.6-0.2-1.3-0.3-1.9c0-0.1,0-0.2,0-0.3c-0.1-0.6-0.2-1.2-0.3-1.9c0-0.1,0-0.1,0-0.2
		c-0.1-0.6-0.1-1.3-0.2-1.9c0-0.1,0-0.2,0-0.4c0-0.6-0.1-1.2-0.1-1.9c0-0.1,0-0.2,0-0.3c0-0.6,0-1.3,0-1.9s0-1.3,0-1.9
		c0-0.1,0-0.2,0-0.3c0-0.6,0.1-1.2,0.1-1.9c0-0.1,0-0.2,0-0.4c0.1-0.6,0.1-1.3,0.2-1.9c0,0,0-0.1,0-0.1c0.1-0.6,0.2-1.2,0.3-1.9
		c0-0.1,0-0.2,0-0.3c0.1-0.6,0.2-1.3,0.3-1.9c0-0.1,0-0.2,0.1-0.4c0.1-0.6,0.3-1.3,0.4-1.9c0-0.1,0-0.1,0.1-0.2
		c0.1-0.6,0.3-1.2,0.5-1.8c0-0.1,0-0.1,0-0.2c0.2-0.6,0.4-1.2,0.6-1.8c0-0.1,0.1-0.2,0.1-0.3c0.2-0.6,0.4-1.2,0.6-1.8
		c0-0.1,0.1-0.2,0.1-0.3c0.2-0.6,0.5-1.2,0.7-1.8c0,0,0,0,0,0c0.3-0.6,0.5-1.1,0.8-1.7c0-0.1,0.1-0.2,0.1-0.3
		c0.3-0.5,0.6-1.1,0.9-1.6c0.1-0.1,0.1-0.2,0.2-0.3c0.3-0.5,0.6-1,1-1.5c0,0,0,0,0.1-0.1c0.3-0.5,0.7-0.9,1-1.4
		c0.1-0.1,0.1-0.1,0.2-0.2c0.4-0.4,0.7-0.9,1.1-1.3c0.1-0.1,0.2-0.2,0.2-0.2c0.4-0.4,0.8-0.8,1.2-1.2c0,0,0,0,0,0
		c-0.5-0.1-1.1-0.1-1.6-0.1c-14,0-19,18.5-19,31S23.8,104.5,37.8,104.5z"/><path fill="#f27c56" d="M54.8,104.2c-0.1-0.1-0.1-0.2-0.2-0.3c-0.2-0.3-0.4-0.6-0.6-0.9c-0.1-0.2-0.2-0.3-0.3-0.5
		c-0.2-0.3-0.4-0.6-0.6-1c-0.1-0.2-0.2-0.3-0.3-0.5c-0.2-0.4-0.4-0.7-0.6-1.1c-0.1-0.2-0.2-0.3-0.2-0.5c-0.3-0.6-0.5-1.1-0.7-1.7
		c-2.5-6.4-4-15.2-4-24.3s1.4-17.9,4-24.3c0.2-0.6,0.5-1.2,0.7-1.7c0.1-0.2,0.2-0.3,0.2-0.5c0.2-0.4,0.4-0.7,0.5-1.1
		c0.1-0.2,0.2-0.4,0.3-0.5c0.2-0.3,0.4-0.6,0.5-0.9c0.1-0.2,0.2-0.4,0.3-0.5c0.2-0.3,0.4-0.5,0.6-0.8c0.1-0.1,0.2-0.2,0.2-0.3
		c-0.9-0.2-1.8-0.2-2.7-0.2c-2.2,0-4.2,0.4-6.1,1.4c-8.3,4-12.4,16.6-12.9,27.4c0,0.7,0,1.4,0,2.1c0,11.3,4,25.4,12.9,29.6
		c1.9,0.9,3.9,1.4,6.1,1.4C53,104.5,53.9,104.4,54.8,104.2z"/><path fill="#f27c56" d="M67.3,103.3L67.3,103.3c1.9-1.3,3.6-3.9,4.9-7.3c2.3-5.8,3.6-14.2,3.6-22.5S74.5,56.8,72.3,51
		c-1.3-3.4-3-6-4.9-7.3c-1-0.8-2.1-1.1-3.3-1.2c-1.3,0-2.4,0.4-3.5,1.1c-1.9,1.3-3.6,3.8-4.9,7.3c-2.3,5.8-3.6,14.2-3.6,22.5
		s1.4,16.8,3.6,22.5c1.3,3.4,3,6,4.9,7.3C62.8,104.9,65.2,104.9,67.3,103.3z"/><path fill="#f27c56" d="M82,103.1L82,103.1c0.3-0.1,0.6-0.3,0.8-0.4c7.8-4.4,11.6-16.5,12.1-27c0-0.7,0-1.4,0-2.1
		c0-11.3-4-25.4-12.9-29.6c-1.9-0.9-3.9-1.4-6.1-1.4c-0.9,0-1.8,0.1-2.7,0.2c1.3,1.7,2.5,3.9,3.5,6.4c2.5,6.4,4,15.2,4,24.3
		s-1.4,17.9-4,24.3c-1,2.6-2.2,4.7-3.5,6.4c0.9,0.2,1.8,0.2,2.7,0.2C78.1,104.5,80.1,104,82,103.1z"/><path fill="#f27c56" d="M90.2,42.6c-0.5,0-1.1,0-1.6,0.1c7.6,6.8,11.1,19.7,11.1,30.9s-3.5,24.1-11.1,30.9c0.5,0.1,1.1,0.1,1.6,0.1
		c14,0,19-18.5,19-31S104.2,42.6,90.2,42.6z"/><path fill="#0a3960" d="M90.2,37.8c-2.5,0-4.9,0.5-7.1,1.4c-4.4-1.8-9.6-1.8-14.1-0.1c-0.7-0.4-1.4-0.7-2.1-0.9
		c1-5.2,4.1-11.3,12.4-14.9c1.2-0.5,1.8-1.9,1.2-3.1C80,19,78.5,18.4,77.3,19C66.4,23.7,63,32.2,62,38c-1.1,0.2-2.1,0.6-3,1.1
		c-4.4-1.7-9.7-1.7-14.1,0.1c-2.2-0.9-4.6-1.4-7.1-1.4c-15.6,0-23.8,18-23.8,35.7s8.2,35.7,23.8,35.7c2.5,0,4.9-0.5,7.1-1.4
		c2.2,0.9,4.6,1.4,7.1,1.4c2.4,0,4.8-0.4,6.9-1.3c1.5,0.9,3.2,1.3,5,1.3c1.8,0,3.4-0.4,5-1.3c2.2,0.9,4.5,1.3,6.9,1.3
		c2.5,0,4.9-0.5,7.1-1.4c2.2,0.9,4.6,1.4,7.1,1.4c15.6,0,23.8-18,23.8-35.7S105.8,37.8,90.2,37.8z M90.2,104.5c-0.5,0-1.1,0-1.6-0.1
		c7.7-6.8,11.1-19.7,11.1-30.9s-3.5-24.1-11.1-30.9c0.5-0.1,1.1-0.1,1.6-0.1c14,0,19,18.5,19,31S104.2,104.5,90.2,104.5z M37.8,42.6
		c0.5,0,1.1,0,1.6,0.1c0,0,0,0,0,0c-0.4,0.4-0.8,0.8-1.2,1.2C38.1,44,38,44,37.9,44.1c-0.4,0.4-0.8,0.8-1.1,1.3
		c-0.1,0.1-0.1,0.1-0.2,0.2c-0.4,0.5-0.7,0.9-1,1.4c0,0,0,0-0.1,0.1c-0.3,0.5-0.7,1-1,1.5c-0.1,0.1-0.1,0.2-0.2,0.3
		c-0.3,0.5-0.6,1-0.9,1.6c0,0.1-0.1,0.2-0.1,0.3c-0.3,0.6-0.6,1.1-0.8,1.7c0,0,0,0,0,0c-0.3,0.6-0.5,1.2-0.7,1.8
		c0,0.1-0.1,0.2-0.1,0.3c-0.2,0.6-0.4,1.2-0.6,1.8c0,0.1-0.1,0.2-0.1,0.3c-0.2,0.6-0.4,1.2-0.6,1.8c0,0.1,0,0.1,0,0.2
		c-0.2,0.6-0.3,1.2-0.5,1.8c0,0.1,0,0.1-0.1,0.2c-0.1,0.6-0.3,1.3-0.4,1.9c0,0.1,0,0.2-0.1,0.4c-0.1,0.6-0.2,1.3-0.3,1.9
		c0,0.1,0,0.2,0,0.3c-0.1,0.6-0.2,1.2-0.3,1.9c0,0,0,0.1,0,0.1c-0.1,0.6-0.1,1.3-0.2,1.9c0,0.1,0,0.2,0,0.4c0,0.6-0.1,1.2-0.1,1.9
		c0,0.1,0,0.2,0,0.3c0,0.6,0,1.3,0,1.9s0,1.3,0,1.9c0,0.1,0,0.2,0,0.3c0,0.6,0.1,1.2,0.1,1.9c0,0.1,0,0.2,0,0.4
		c0.1,0.6,0.1,1.3,0.2,1.9c0,0.1,0,0.1,0,0.2c0.1,0.6,0.2,1.2,0.3,1.9c0,0.1,0,0.2,0,0.3c0.1,0.6,0.2,1.3,0.3,1.9
		c0,0.1,0,0.2,0.1,0.4c0.1,0.6,0.3,1.3,0.4,1.9c0,0.1,0,0.1,0.1,0.2c0.2,0.6,0.3,1.2,0.5,1.9c0,0,0,0.1,0,0.1
		c0.2,0.6,0.4,1.3,0.6,1.9c0,0.1,0.1,0.2,0.1,0.3c0.2,0.6,0.4,1.2,0.7,1.8c0,0.1,0.1,0.1,0.1,0.2c0.5,1.2,1,2.4,1.6,3.6
		c0,0.1,0.1,0.1,0.1,0.2c0.3,0.6,0.6,1.1,0.9,1.6c0,0.1,0.1,0.1,0.1,0.2c0.7,1.1,1.4,2.2,2.2,3.1c0,0,0.1,0.1,0.1,0.1
		c0.4,0.5,0.8,0.9,1.2,1.4c0,0,0.1,0.1,0.1,0.1c0.4,0.4,0.8,0.9,1.3,1.3c0,0,0,0,0,0c-0.5,0.1-1.1,0.1-1.6,0.1c-14,0-19-18.5-19-31
		S23.8,42.6,37.8,42.6z M46,103.1C37.1,98.9,33,84.8,33,73.5c0-0.7,0-1.4,0-2.1c0.5-10.9,4.6-23.5,12.9-27.4
		c1.9-0.9,3.9-1.4,6.1-1.4c0.9,0,1.8,0.1,2.7,0.2c-0.1,0.1-0.2,0.2-0.2,0.3c-0.2,0.3-0.4,0.5-0.6,0.8c-0.1,0.2-0.2,0.3-0.3,0.5
		c-0.2,0.3-0.4,0.6-0.5,0.9c-0.1,0.2-0.2,0.4-0.3,0.5c-0.2,0.4-0.4,0.7-0.5,1.1c-0.1,0.2-0.2,0.3-0.2,0.5c-0.3,0.6-0.5,1.1-0.7,1.7
		c-2.5,6.4-4,15.2-4,24.3s1.4,17.9,4,24.3c0.2,0.6,0.5,1.2,0.7,1.7c0.1,0.2,0.2,0.3,0.2,0.5c0.2,0.4,0.4,0.7,0.6,1.1
		c0.1,0.2,0.2,0.3,0.3,0.5c0.2,0.3,0.4,0.7,0.6,1c0.1,0.2,0.2,0.3,0.3,0.5c0.2,0.3,0.4,0.6,0.6,0.9c0.1,0.1,0.1,0.2,0.2,0.3
		c-0.9,0.2-1.8,0.2-2.7,0.2C49.9,104.5,47.9,104,46,103.1z M60.6,103.3c-1.9-1.3-3.5-3.8-4.9-7.3c-2.3-5.8-3.6-14.2-3.6-22.5
		s1.4-16.8,3.6-22.5c1.3-3.4,3-5.9,4.9-7.3c1-0.8,2.1-1.1,3.5-1.1c1.2,0,2.2,0.4,3.3,1.2c1.9,1.3,3.5,3.8,4.9,7.3
		c2.3,5.8,3.6,14.2,3.6,22.5s-1.4,16.8-3.6,22.5c-1.3,3.4-3,5.9-4.9,7.3l0,0C65.2,104.9,62.8,104.9,60.6,103.3z M76.7,97.8
		c2.5-6.4,4-15.2,4-24.3s-1.4-17.9-4-24.3c-1-2.6-2.2-4.7-3.5-6.4c0.9-0.2,1.8-0.2,2.7-0.2c2.2,0,4.2,0.4,6.1,1.4
		C90.9,48.2,95,62.2,95,73.5c0,0.7,0,1.4,0,2.1c-0.5,10.5-4.3,22.6-12.1,27c-0.3,0.1-0.5,0.3-0.8,0.4l0,0c-1.9,0.9-3.9,1.4-6.1,1.4
		c-0.9,0-1.8-0.1-2.7-0.2C74.5,102.5,75.7,100.4,76.7,97.8z"/></svg>