<svg xmlns="http://www.w3.org/2000/svg" id="Outlined_1_" enable-background="new 0 0 128 128" viewBox="0 0 128 128"><path fill="#d32e97" d="M65.8,71.2c-0.6,0-1.2-0.1-1.8-0.1c-0.6,0-1.2,0-1.8,0.1c-8.4,0.8-14.8,7.7-14.8,15.9c0,7.7,4.9,11.3,10.2,15
		c2.3,1.6,4.6,3.3,6.5,5.4c1.8-2.1,4.2-3.7,6.5-5.4c5.2-3.7,10.2-7.3,10.2-15C80.7,78.9,74.3,72.1,65.8,71.2z"/><path fill="#00bf4c" d="M95.2,38c0-0.6,0.3-1.2,0.7-1.7c0.9-0.9,1.4-2.1,1.4-3.3c0-1.3-0.5-2.4-1.4-3.3c-1.8-1.8-4.9-1.8-6.7,0
		c-0.9,0.9-2.4,0.9-3.4,0c-1.8-1.8-4.8-1.8-6.7,0c-0.8,0.8-1.3,1.9-1.4,3.1c-0.1,1.2-1,2.2-2.3,2.3c-1.2,0-2.2,0.5-3,1.3
		c-0.9,0.9-1.4,2.1-1.4,3.4c0,1.3,0.5,2.4,1.4,3.3c0.4,0.4,0.7,1.1,0.7,1.7c0,0.6-0.2,1.2-0.7,1.7c-0.9,0.9-1.4,2.1-1.4,3.4
		c0,0.6,0.1,1.2,0.4,1.8c3.6-4.6,8.4-9.9,14.8-15.5c1-0.9,2.5-0.8,3.4,0.2c0.9,1,0.8,2.5-0.2,3.4C83.3,44.9,78.7,50,75.3,54.4
		c1.4,0.2,2.9-0.3,3.9-1.3c0.4-0.5,1.1-0.7,1.7-0.7c0.6,0,1.2,0.3,1.7,0.7c1.8,1.8,4.9,1.8,6.7,0c0.8-0.8,1.3-1.9,1.4-3
		c0.1-1.2,1-2.2,2.2-2.3c1.2-0.1,2.3-0.5,3.1-1.4c1.9-1.9,1.9-4.8,0-6.7C95.5,39.3,95.2,38.7,95.2,38z"/><path fill="#0a3960" d="M102.1,33c0-2.5-1-4.9-2.8-6.7c-3.1-3.1-8.1-3.6-11.7-1.3c-3.7-2.3-8.5-1.8-11.7,1.3c-1.2,1.2-2.1,2.7-2.5,4.3
		c-1.6,0.4-3.1,1.3-4.2,2.5c-1.8,1.8-2.8,4.2-2.8,6.7c0,1.8,0.5,3.5,1.4,5c-0.9,1.5-1.4,3.2-1.4,5c0,2.2,0.7,4.2,2.1,5.9
		c-1.5,2.2-2.7,4.2-3.7,5.9c-1.2-3.9-3.2-9.1-6.5-15c1.3-1.4,2-3.1,2.3-5c0.2-1.7-0.1-3.4-0.8-4.9c1.1-1.3,1.7-2.9,1.9-4.6
		c0.3-2.4-0.5-4.8-2.1-6.7c-1-1.2-2.4-2.2-3.9-2.8c-0.3-1.5-0.9-3-2-4.3c-2.8-3.3-7.6-4.2-11.4-2.4c-3.4-2.5-8.2-2.6-11.7,0.1
		c-2,1.5-3.2,3.7-3.5,6.2c-0.2,1.7,0.1,3.3,0.9,4.8c-1.1,1.3-1.7,3-1.9,4.7c-0.2,2.4,0.5,4.8,2.1,6.6c1,1.3,2.4,2.2,3.9,2.8
		c0.3,1.6,0.9,3,2,4.3c2.8,3.3,7.6,4.2,11.4,2.4c1.7,1.3,3.7,1.9,5.8,1.9c1,0,2.1-0.2,3.1-0.5c4.3,7.6,6.2,14,7,17.4
		c-10.6,1.3-18.6,10.1-18.6,20.5c0,10.2,6.7,15,12.2,18.9c3,2.1,5.8,4.2,7.2,6.7c0.4,0.8,1.2,1.3,2.1,1.3c0.9,0,1.7-0.5,2.1-1.3
		c1.3-2.6,4.2-4.6,7.2-6.7c5.4-3.9,12.2-8.7,12.2-18.9c0-10.2-7.6-18.8-17.9-20.4c0.9-1.9,2.5-4.7,4.8-8.2c2.8,1.1,6,0.9,8.6-0.7
		c1.5,0.9,3.2,1.4,5,1.4c2.5,0,4.9-1,6.7-2.8c1.2-1.2,2.1-2.6,2.5-4.2c1.6-0.4,3.1-1.3,4.2-2.4c3.2-3.2,3.6-8.1,1.3-11.7
		C101.6,36.5,102.1,34.8,102.1,33z M95.9,46.4c-0.8,0.8-1.9,1.3-3.1,1.4c-1.2,0.1-2.2,1.1-2.2,2.3c0,1.1-0.5,2.2-1.4,3
		c-1.8,1.8-4.9,1.8-6.7,0c-0.4-0.5-1.1-0.7-1.7-0.7c-0.6,0-1.2,0.3-1.7,0.7c-1.1,1.1-2.5,1.5-3.9,1.3c3.4-4.4,8-9.5,14.1-14.8
		c1-0.9,1.1-2.4,0.2-3.4c-0.9-1-2.4-1.1-3.4-0.2c-6.4,5.6-11.2,10.9-14.8,15.5c-0.2-0.6-0.3-1.1-0.4-1.8c0-1.3,0.5-2.4,1.4-3.4
		c0.4-0.4,0.7-1.1,0.7-1.7c0-0.6-0.3-1.2-0.7-1.7c-0.9-0.9-1.4-2.1-1.4-3.3c0-1.3,0.5-2.4,1.4-3.4c0.8-0.8,1.9-1.3,3-1.3
		c1.2-0.1,2.2-1,2.3-2.3c0-1.2,0.5-2.2,1.4-3.1c1.8-1.8,4.8-1.8,6.7,0c0.9,0.9,2.4,0.9,3.4,0c1.8-1.8,4.9-1.8,6.7,0
		c0.9,0.9,1.4,2.1,1.4,3.3c0,1.3-0.5,2.4-1.4,3.3c-0.4,0.4-0.7,1.1-0.7,1.7s0.2,1.2,0.7,1.7C97.8,41.6,97.8,44.5,95.9,46.4z
		 M70.5,102.1c-2.3,1.6-4.6,3.3-6.5,5.4c-1.8-2.1-4.2-3.7-6.5-5.4c-5.2-3.7-10.2-7.3-10.2-15c0-8.2,6.4-15,14.8-15.9
		c0.6,0,1.2-0.1,1.8-0.1c0.6,0,1.2,0,1.8,0.1c8.5,0.8,14.9,7.7,14.9,15.9C80.7,94.8,75.7,98.4,70.5,102.1z M47.4,43.3
		c-0.5-0.5-1.1-0.8-1.8-0.8c-0.5,0-1,0.2-1.5,0.5c-2,1.6-5,1.3-6.6-0.7c-0.7-0.8-1-1.8-1-2.9c0.1-1.2-0.8-2.3-2-2.5
		c-1.1-0.2-2.1-0.7-2.9-1.6c-0.7-0.9-1.1-2-1-3.1c0.1-1.2,0.7-2.2,1.7-3c0.5-0.4,0.8-1,0.9-1.6c0.1-0.6-0.1-1.3-0.5-1.8
		c-0.8-0.9-1.1-2-1-3.1c0.1-1.1,0.7-2.2,1.7-2.9c2-1.6,5-1.3,6.6,0.7c0.8,1,2.3,1.1,3.3,0.4c2-1.6,5-1.3,6.6,0.7
		c0.7,0.8,1.1,1.9,1,2.9c-0.1,1.2,0.8,2.3,2,2.5c1.1,0.2,2.2,0.7,2.9,1.6c0.8,0.9,1.1,2,1,3.1c-0.1,1.1-0.7,2.2-1.7,2.9
		c-0.5,0.4-0.8,1-0.9,1.6s0.1,1.3,0.5,1.8c0.8,0.9,1.1,2,1,3.2c0,0.4-0.2,0.7-0.3,1.1c-3.4-5.1-7.9-10.4-13.7-15.6
		c-1-0.9-2.5-0.8-3.4,0.2c-0.9,1-0.8,2.5,0.2,3.4c5.5,4.9,9.7,10,13,14.8C50,45,48.5,44.5,47.4,43.3z"/><path fill="#00bf4c" d="M38.6,30.1c-1-0.9-1.1-2.4-0.2-3.4c0.9-1,2.4-1.1,3.4-0.2c5.8,5.2,10.3,10.5,13.7,15.6
		c0.1-0.3,0.3-0.7,0.3-1.1c0.1-1.1-0.2-2.2-1-3.2c-0.4-0.5-0.6-1.1-0.5-1.8s0.4-1.2,0.9-1.6c1-0.7,1.5-1.8,1.7-2.9
		c0.1-1.1-0.2-2.2-1-3.1c-0.7-0.9-1.8-1.4-2.9-1.6c-1.2-0.2-2.1-1.3-2-2.5c0.1-1-0.3-2-1-2.9c-1.6-1.9-4.6-2.2-6.6-0.7
		c-1,0.8-2.5,0.6-3.3-0.4c-1.6-1.9-4.6-2.2-6.6-0.7c-1,0.7-1.6,1.8-1.7,2.9c-0.1,1.1,0.2,2.2,1,3.1c0.4,0.5,0.6,1.1,0.5,1.8
		c-0.1,0.6-0.4,1.2-0.9,1.6c-1,0.8-1.6,1.8-1.7,3c-0.1,1.1,0.2,2.2,1,3.1c0.7,0.9,1.8,1.4,2.9,1.6c1.2,0.2,2.1,1.3,2,2.5
		c-0.1,1.1,0.3,2.1,1,2.9c1.6,1.9,4.6,2.2,6.6,0.7c0.4-0.3,0.9-0.5,1.5-0.5c0.7,0,1.3,0.3,1.8,0.8c1,1.2,2.6,1.8,4.1,1.6
		C48.4,40.1,44.1,35,38.6,30.1z"/></svg>