<svg xmlns="http://www.w3.org/2000/svg" id="Outlined_1_" enable-background="new 0 0 128 128" viewBox="0 0 128 128"><path fill="#ff5959" d="M93.1,52.4C93,52.4,93,52.4,93.1,52.4c-0.9,0-1.7-0.1-2.5-0.2c-0.1,0-0.3,0-0.4,0c-0.8-0.1-1.5-0.2-2.3-0.3
		c-0.1,1.1-0.2,2.1-0.5,3.2c0,0.1-0.1,0.3-0.1,0.4c0,0,0,0.1-0.1,0.1c0,0.1-0.1,0.2-0.2,0.3c0,0-0.1,0.1-0.1,0.1
		c-0.1,0.1-0.1,0.2-0.2,0.2c0,0-0.1,0.1-0.1,0.1c-0.1,0.1-0.2,0.1-0.3,0.2c0,0-0.1,0-0.1,0.1c-0.1,0.1-0.2,0.1-0.3,0.2
		c0,0,0,0-0.1,0c-0.1,0-0.2,0.1-0.3,0.1c0,0,0,0-0.1,0c-0.1,0-0.2,0-0.4,0c0,0-0.1,0-0.1,0c0,0,0,0-0.1,0c-0.1,0-0.2,0-0.4,0
		c-2.1-0.3-6.2-1.2-10-3.7c-1.4-0.9-2.6-1.9-3.5-2.8c-0.4,0.6-0.9,1.3-1.4,2.1c-1.4,1.7-2.9,3.1-4.5,4.1c-0.8,0.5-1.8,0.5-2.6,0
		c-2.3-1.5-4.3-3.6-5.9-6.2c-1,1-2.2,2-3.5,2.8c-3.9,2.5-8,3.4-10,3.7c-1.2,0.2-2.4-0.6-2.7-1.8c-0.3-1.1-0.4-2.1-0.5-3.2
		c-0.7,0.1-1.5,0.2-2.3,0.3c-0.2,0-0.3,0-0.5,0.1c-0.8,0.1-1.6,0.1-2.4,0.2c0,0,0,0,0,0c-1.3,3.2-1.9,6.8-1.9,11
		c0,20.2,21,45.9,31,45.9s31-25.7,31-45.9C95,59.2,94.3,55.6,93.1,52.4z M47.3,68.8c0,1.3-1.1,2.4-2.4,2.4c-1.3,0-2.4-1.1-2.4-2.4
		V64c0-1.3,1.1-2.4,2.4-2.4c1.3,0,2.4,1.1,2.4,2.4V68.8z M56.9,85.4c0,1.3-1.1,2.4-2.4,2.4s-2.4-1.1-2.4-2.4v-4.8
		c0-1.3,1.1-2.4,2.4-2.4s2.4,1.1,2.4,2.4V85.4z M66.4,102.1c0,1.3-1.1,2.4-2.4,2.4s-2.4-1.1-2.4-2.4v-4.8c0-1.3,1.1-2.4,2.4-2.4
		s2.4,1.1,2.4,2.4V102.1z M66.4,68.8c0,1.3-1.1,2.4-2.4,2.4s-2.4-1.1-2.4-2.4V64c0-1.3,1.1-2.4,2.4-2.4s2.4,1.1,2.4,2.4V68.8z
		 M75.9,85.4c0,1.3-1.1,2.4-2.4,2.4s-2.4-1.1-2.4-2.4v-4.8c0-1.3,1.1-2.4,2.4-2.4s2.4,1.1,2.4,2.4V85.4z M85.4,68.8
		c0,1.3-1.1,2.4-2.4,2.4c-1.3,0-2.4-1.1-2.4-2.4V64c0-1.3,1.1-2.4,2.4-2.4c1.3,0,2.4,1.1,2.4,2.4V68.8z"/><path fill="#0a3960" d="M64 94.9c-1.3 0-2.4 1.1-2.4 2.4v4.8c0 1.3 1.1 2.4 2.4 2.4s2.4-1.1 2.4-2.4v-4.8C66.4 96 65.3 94.9 64 94.9zM73.5 78.3c-1.3 0-2.4 1.1-2.4 2.4v4.8c0 1.3 1.1 2.4 2.4 2.4s2.4-1.1 2.4-2.4v-4.8C75.9 79.3 74.8 78.3 73.5 78.3zM54.5 78.3c-1.3 0-2.4 1.1-2.4 2.4v4.8c0 1.3 1.1 2.4 2.4 2.4s2.4-1.1 2.4-2.4v-4.8C56.9 79.3 55.8 78.3 54.5 78.3zM83 61.6c-1.3 0-2.4 1.1-2.4 2.4v4.8c0 1.3 1.1 2.4 2.4 2.4 1.3 0 2.4-1.1 2.4-2.4V64C85.4 62.7 84.4 61.6 83 61.6zM64 61.6c-1.3 0-2.4 1.1-2.4 2.4v4.8c0 1.3 1.1 2.4 2.4 2.4s2.4-1.1 2.4-2.4V64C66.4 62.7 65.3 61.6 64 61.6zM45 61.6c-1.3 0-2.4 1.1-2.4 2.4v4.8c0 1.3 1.1 2.4 2.4 2.4 1.3 0 2.4-1.1 2.4-2.4V64C47.3 62.7 46.3 61.6 45 61.6z"/><path fill="#00bf4c" d="M33.1,47.6h0.3c3.2,0.1,6-0.3,8.3-1.1c0.2-0.1,0.5-0.1,0.8-0.1c0.5,0,1,0.2,1.4,0.5c0.6,0.5,1,1.2,0.9,2
		c0,0.4,0,0.9,0,1.4c0,0.5,0,0.9,0.1,1.4c1.7-0.5,3.8-1.2,5.9-2.5c1.9-1.2,3.4-2.7,4.4-4.5c0.5-0.8,1.3-1.2,2.2-1.2
		c0.9,0.1,1.7,0.6,2,1.5c1.1,2.7,2.7,5,4.6,6.6c0.7-0.6,1.4-1.3,2-2.1c1.6-2,2.3-3.6,2.5-4.4c0.3-0.9,1.1-1.5,2-1.6
		c0.9-0.1,1.8,0.4,2.3,1.2c0.5,0.9,1.8,2.8,4.4,4.5c2,1.3,4.2,2.1,5.9,2.5c0-0.5,0.1-0.9,0.1-1.4c0-0.5,0-0.9,0-1.4
		c0-0.8,0.3-1.5,0.9-2c0.6-0.5,1.5-0.6,2.2-0.3c2.3,0.8,5.1,1.2,8.3,1.1H95c0.3,0,0.5,0,0.8,0c-6.9-11.8-18.5-19.1-31.1-19.3
		c-0.4,0-0.5,0-0.7,0c-12.9,0-24.8,7.3-31.8,19.3C32.5,47.6,32.8,47.6,33.1,47.6z"/><path fill="#0a3960" d="M101.9,48.8C95,34.5,82.2,25.2,68,23.7c1-2.3,2.5-4.1,4.4-5.4c1.1-0.7,1.4-2.2,0.7-3.3
		c-0.7-1.1-2.2-1.4-3.3-0.7c-3.1,2-5.5,5.2-6.9,9.2c-15.5,0.4-29.5,10-36.8,25.2c-0.3,0.7-0.3,1.6,0.1,2.2c0.4,0.7,1.1,1.1,1.9,1.2
		c0.5,0,1.1,0.1,1.8,0.1c-1.1,3.3-1.6,7-1.6,11.1C28.3,85.7,50.4,114,64,114s35.7-28.3,35.7-50.6c0-4-0.6-7.8-1.6-11.1
		c0.6,0,1.2-0.1,1.8-0.1c0.8,0,1.5-0.5,1.9-1.2C102.2,50.3,102.2,49.5,101.9,48.8z M64,109.2c-10,0-31-25.7-31-45.9
		c0-4.2,0.6-7.8,1.9-11c0,0,0,0,0,0c0.8,0,1.6-0.1,2.4-0.2c0.2,0,0.3,0,0.5-0.1c0.8-0.1,1.5-0.2,2.3-0.3c0.1,1.1,0.3,2.2,0.5,3.2
		c0.3,1.2,1.5,2,2.7,1.8c2.1-0.3,6.1-1.2,10-3.7c1.3-0.8,2.5-1.8,3.5-2.8c1.6,2.6,3.6,4.7,5.9,6.2c0.8,0.5,1.8,0.5,2.6,0
		c1.6-1,3.1-2.4,4.5-4.1c0.6-0.7,1-1.4,1.4-2.1c0.9,0.9,2.1,1.9,3.5,2.8c3.9,2.5,8,3.4,10,3.7c0.1,0,0.2,0,0.4,0c0,0,0,0,0.1,0
		c0,0,0.1,0,0.1,0c0.1,0,0.2,0,0.4,0c0,0,0,0,0.1,0c0.1,0,0.2-0.1,0.3-0.1c0,0,0,0,0.1,0c0.1,0,0.2-0.1,0.3-0.2c0,0,0.1,0,0.1-0.1
		c0.1-0.1,0.2-0.1,0.3-0.2c0,0,0.1,0,0.1-0.1c0.1-0.1,0.1-0.2,0.2-0.2c0,0,0.1-0.1,0.1-0.1c0.1-0.1,0.1-0.2,0.2-0.3
		c0,0,0-0.1,0.1-0.1c0.1-0.1,0.1-0.3,0.1-0.4c0.2-1.1,0.4-2.1,0.5-3.2c0.7,0.1,1.5,0.2,2.3,0.3c0.1,0,0.3,0,0.4,0
		c0.8,0.1,1.6,0.1,2.4,0.2c0,0,0,0,0,0c1.3,3.2,1.9,6.8,1.9,11C95,83.5,74,109.2,64,109.2z M64,28.3c0.2,0,0.4,0,0.7,0
		c12.6,0.2,24.2,7.5,31.1,19.3c-0.3,0-0.6,0-0.8,0h-0.4c-3.2,0.1-6-0.3-8.3-1.1c-0.7-0.3-1.6-0.1-2.2,0.3c-0.6,0.5-1,1.2-0.9,2
		c0,0.4,0,0.9,0,1.4c0,0.5,0,0.9-0.1,1.4c-1.7-0.5-3.8-1.2-5.9-2.5c-2.6-1.7-3.9-3.5-4.4-4.5c-0.5-0.8-1.4-1.3-2.3-1.2
		c-0.9,0.1-1.7,0.7-2,1.6c-0.3,0.8-1,2.4-2.5,4.4c-0.6,0.8-1.3,1.5-2,2.1c-1.9-1.6-3.5-3.9-4.6-6.6c-0.3-0.8-1.1-1.4-2-1.5
		c-0.9-0.1-1.8,0.4-2.2,1.2c-1,1.7-2.5,3.3-4.4,4.5c-2.1,1.3-4.2,2.1-5.9,2.5c0-0.4-0.1-0.9-0.1-1.4c0-0.5,0-0.9,0-1.4
		c0-0.8-0.3-1.5-0.9-2c-0.4-0.3-0.9-0.5-1.4-0.5c-0.3,0-0.5,0-0.8,0.1c-2.4,0.8-5.1,1.2-8.3,1.1h-0.3c-0.3,0-0.6,0-0.9,0
		C39.2,35.6,51.1,28.3,64,28.3z"/></svg>