<svg xmlns="http://www.w3.org/2000/svg" id="Outlined_1_" enable-background="new 0 0 128 128" viewBox="0 0 128 128"><path fill="#00bf4c" d="M99,91.5c-0.2,0.1-0.4,0.2-0.6,0.3c-0.5,0.2-1,0.5-1.5,0.7c-0.2,0.1-0.4,0.2-0.6,0.3c-0.5,0.2-1,0.4-1.5,0.7
		c-0.2,0.1-0.4,0.2-0.6,0.3c-0.5,0.2-1,0.4-1.5,0.6c-0.2,0.1-0.5,0.2-0.7,0.3c-0.5,0.2-1,0.4-1.6,0.6c-0.2,0.1-0.5,0.2-0.7,0.2
		c-0.5,0.2-1.1,0.3-1.6,0.5c-0.2,0.1-0.5,0.1-0.7,0.2c-0.5,0.2-1.1,0.3-1.6,0.5c-0.2,0.1-0.5,0.1-0.7,0.2c-0.5,0.1-1.1,0.3-1.6,0.4
		c-0.2,0.1-0.5,0.1-0.7,0.2c-0.5,0.1-1.1,0.2-1.6,0.4c-0.3,0.1-0.5,0.1-0.8,0.2c-0.5,0.1-1.1,0.2-1.6,0.3c-0.3,0.1-0.6,0.1-0.9,0.2
		c-0.5,0.1-1.1,0.2-1.6,0.3c-0.3,0-0.6,0.1-0.8,0.1c-0.5,0.1-1.1,0.1-1.6,0.2c-0.3,0-0.6,0.1-0.9,0.1c-0.5,0.1-1.1,0.1-1.6,0.2
		c-0.3,0-0.6,0.1-0.9,0.1c-0.6,0-1.2,0.1-1.8,0.1c-0.3,0-0.5,0-0.8,0.1c-0.6,0-1.2,0.1-1.9,0.1c-0.2,0-0.5,0-0.7,0
		c-0.9,0-1.7,0-2.6,0c-0.8,0-1.6,0-2.4,0c-0.3,0-0.5,0-0.8,0c-0.5,0-1.1,0-1.6-0.1c-0.3,0-0.6,0-0.9-0.1c-0.5,0-1-0.1-1.5-0.1
		c-0.3,0-0.7-0.1-1-0.1c-0.5,0-0.9-0.1-1.4-0.1c-0.3,0-0.7-0.1-1-0.1c-0.5-0.1-0.9-0.1-1.3-0.2c-0.3,0-0.7-0.1-1-0.1
		c-0.4-0.1-0.9-0.1-1.3-0.2c-0.3-0.1-0.7-0.1-1-0.2c-0.4-0.1-0.9-0.2-1.3-0.2c-0.3-0.1-0.7-0.1-1-0.2c-0.4-0.1-0.9-0.2-1.3-0.3
		c-0.3-0.1-0.6-0.1-1-0.2c-0.4-0.1-0.9-0.2-1.3-0.3c-0.3-0.1-0.6-0.2-1-0.2c-0.4-0.1-0.9-0.2-1.3-0.4c-0.3-0.1-0.6-0.2-0.9-0.3
		c-0.4-0.1-0.9-0.3-1.3-0.4c-0.3-0.1-0.6-0.2-0.9-0.3c-0.4-0.1-0.9-0.3-1.3-0.5C34.5,95,34.3,95,34,94.9c-0.5-0.2-0.9-0.3-1.4-0.5
		c-0.2-0.1-0.5-0.2-0.7-0.3c-0.6-0.2-1.1-0.5-1.7-0.7c-0.1-0.1-0.3-0.1-0.4-0.2c-0.7-0.3-1.3-0.6-2-0.9l-3.6,7
		c0.9,0.5,1.8,1,2.7,1.5c10.3,5.5,22.6,8.4,35.6,8.4c13.1,0,25.4-2.9,35.6-8.4c1.8-0.9,3.5-2,5.5-3.3l0.1-0.1l-3.5-6.7
		C99.9,91,99.5,91.3,99,91.5z"/><path fill="#0a3960" d="M109,97.1l-5.5-10.6c0,0,0,0,0,0L66.6,15.3c-0.4-0.8-1.2-1.3-2.1-1.3c-0.9,0-1.7,0.5-2.1,1.3L24.7,88L19,99
		c-0.6,1.1-0.2,2.4,0.8,3.1c1.5,1,3.2,2,4.9,2.9c10.9,5.9,24,9,37.9,9c13.9,0,27-3.1,37.9-9c1.9-1,3.8-2.1,6-3.6l0.6-0.5
		c0.4-0.3,0.8-0.6,1.2-0.9C109.2,99.4,109.5,98.1,109,97.1z M103.7,97.5c-2,1.3-3.7,2.4-5.5,3.3c-10.2,5.5-22.6,8.4-35.6,8.4
		c-13.1,0-25.4-2.9-35.6-8.4c-0.9-0.5-1.8-1-2.7-1.5l3.6-7c0.6,0.3,1.3,0.6,2,0.9c0.1,0.1,0.3,0.1,0.4,0.2c0.5,0.2,1.1,0.5,1.7,0.7
		c0.2,0.1,0.5,0.2,0.7,0.3c0.5,0.2,0.9,0.4,1.4,0.5c0.3,0.1,0.6,0.2,0.8,0.3c0.4,0.2,0.9,0.3,1.3,0.5c0.3,0.1,0.6,0.2,0.9,0.3
		c0.4,0.1,0.9,0.3,1.3,0.4c0.3,0.1,0.6,0.2,0.9,0.3c0.4,0.1,0.9,0.2,1.3,0.4c0.3,0.1,0.6,0.2,1,0.2c0.4,0.1,0.9,0.2,1.3,0.3
		c0.3,0.1,0.6,0.1,1,0.2c0.4,0.1,0.9,0.2,1.3,0.3c0.3,0.1,0.7,0.1,1,0.2c0.4,0.1,0.9,0.2,1.3,0.2c0.3,0.1,0.7,0.1,1,0.2
		c0.4,0.1,0.9,0.1,1.3,0.2c0.3,0,0.7,0.1,1,0.1c0.4,0.1,0.9,0.1,1.3,0.2c0.3,0,0.7,0.1,1,0.1c0.5,0,0.9,0.1,1.4,0.1
		c0.3,0,0.7,0.1,1,0.1c0.5,0,1,0.1,1.5,0.1c0.3,0,0.6,0,0.9,0.1c0.5,0,1.1,0,1.6,0.1c0.3,0,0.5,0,0.8,0c0.8,0,1.6,0,2.4,0
		c0.9,0,1.7,0,2.6,0c0.2,0,0.5,0,0.7,0c0.6,0,1.2,0,1.9-0.1c0.3,0,0.5,0,0.8-0.1c0.6,0,1.2-0.1,1.8-0.1c0.3,0,0.6-0.1,0.9-0.1
		c0.5-0.1,1.1-0.1,1.6-0.2c0.3,0,0.6-0.1,0.9-0.1c0.5-0.1,1.1-0.1,1.6-0.2c0.3,0,0.6-0.1,0.8-0.1c0.5-0.1,1.1-0.2,1.6-0.3
		c0.3,0,0.6-0.1,0.9-0.2c0.5-0.1,1.1-0.2,1.6-0.3c0.3-0.1,0.5-0.1,0.8-0.2c0.5-0.1,1.1-0.2,1.6-0.4c0.2-0.1,0.5-0.1,0.7-0.2
		c0.5-0.1,1.1-0.3,1.6-0.4c0.2-0.1,0.5-0.1,0.7-0.2c0.5-0.2,1.1-0.3,1.6-0.5c0.2-0.1,0.5-0.1,0.7-0.2c0.5-0.2,1.1-0.3,1.6-0.5
		c0.2-0.1,0.5-0.2,0.7-0.2c0.5-0.2,1-0.4,1.6-0.6c0.2-0.1,0.5-0.2,0.7-0.3c0.5-0.2,1-0.4,1.5-0.6c0.2-0.1,0.4-0.2,0.6-0.3
		c0.5-0.2,1-0.4,1.5-0.7c0.2-0.1,0.4-0.2,0.6-0.3c0.5-0.2,1-0.5,1.5-0.7c0.2-0.1,0.4-0.2,0.6-0.3c0.4-0.2,0.9-0.5,1.3-0.7l3.5,6.7
		L103.7,97.5z M98.2,86.6C87.9,92.1,75.6,95,62.6,95c-11.7,0-22.9-2.4-32.5-6.9l34.4-66.5L98.2,86.6z"/><path fill="#ff5959" d="M30.1,88.1c9.6,4.5,20.8,6.9,32.5,6.9c13,0,25.3-2.9,35.6-8.4l-33.7-65L30.1,88.1z M47.3,83
		c0,1.3-1.1,2.4-2.4,2.4s-2.4-1.1-2.4-2.4v-4.8c0-1.3,1.1-2.4,2.4-2.4s2.4,1.1,2.4,2.4V83z M56.9,66.4c0,1.3-1.1,2.4-2.4,2.4
		c-1.3,0-2.4-1.1-2.4-2.4v-4.8c0-1.3,1.1-2.4,2.4-2.4c1.3,0,2.4,1.1,2.4,2.4V66.4z M64,85.4c-1.3,0-2.4-1.1-2.4-2.4v-4.8
		c0-1.3,1.1-2.4,2.4-2.4c1.3,0,2.4,1.1,2.4,2.4V83C66.4,84.4,65.3,85.4,64,85.4z M80.7,78.3c0-1.3,1.1-2.4,2.4-2.4s2.4,1.1,2.4,2.4
		V83c0,1.3-1.1,2.4-2.4,2.4s-2.4-1.1-2.4-2.4V78.3z M71.1,61.6c0-1.3,1.1-2.4,2.4-2.4s2.4,1.1,2.4,2.4v4.8c0,1.3-1.1,2.4-2.4,2.4
		s-2.4-1.1-2.4-2.4V61.6z M66.4,45v4.8c0,1.3-1.1,2.4-2.4,2.4c-1.3,0-2.4-1.1-2.4-2.4V45c0-1.3,1.1-2.4,2.4-2.4
		C65.3,42.6,66.4,43.6,66.4,45z"/><path fill="#0a3960" d="M61.6 45v4.8c0 1.3 1.1 2.4 2.4 2.4 1.3 0 2.4-1.1 2.4-2.4V45c0-1.3-1.1-2.4-2.4-2.4C62.7 42.6 61.6 43.6 61.6 45zM54.5 59.2c-1.3 0-2.4 1.1-2.4 2.4v4.8c0 1.3 1.1 2.4 2.4 2.4 1.3 0 2.4-1.1 2.4-2.4v-4.8C56.9 60.3 55.8 59.2 54.5 59.2zM73.5 68.8c1.3 0 2.4-1.1 2.4-2.4v-4.8c0-1.3-1.1-2.4-2.4-2.4s-2.4 1.1-2.4 2.4v4.8C71.1 67.7 72.2 68.8 73.5 68.8zM45 75.9c-1.3 0-2.4 1.1-2.4 2.4V83c0 1.3 1.1 2.4 2.4 2.4s2.4-1.1 2.4-2.4v-4.8C47.3 77 46.3 75.9 45 75.9zM66.4 78.3c0-1.3-1.1-2.4-2.4-2.4-1.3 0-2.4 1.1-2.4 2.4V83c0 1.3 1.1 2.4 2.4 2.4 1.3 0 2.4-1.1 2.4-2.4V78.3zM83 85.4c1.3 0 2.4-1.1 2.4-2.4v-4.8c0-1.3-1.1-2.4-2.4-2.4s-2.4 1.1-2.4 2.4V83C80.7 84.4 81.7 85.4 83 85.4z"/></svg>